<svg id="eXzYTlI1ysm1" xmlns="http://www.w3.org/2000/svg" xmlns:xlink="http://www.w3.org/1999/xlink" viewBox="0 0 400 400" shape-rendering="geometricPrecision" text-rendering="geometricPrecision"><defs><linearGradient id="eXzYTlI1ysm11-fill" x1="68.933768" y1="134.960757" x2="79.499509" y2="161.113819" spreadMethod="pad" gradientUnits="userSpaceOnUse"><stop id="eXzYTlI1ysm11-fill-0" offset="0%" stop-color="rgb(200,220,253)"/><stop id="eXzYTlI1ysm11-fill-1" offset="100%" stop-color="rgb(154,190,243)"/></linearGradient><linearGradient id="eXzYTlI1ysm16-fill" x1="47.466436" y1="320.364957" x2="37.257021" y2="320.364957" spreadMethod="pad" gradientUnits="userSpaceOnUse"><stop id="eXzYTlI1ysm16-fill-0" offset="0%" stop-color="rgb(238,238,238)"/><stop id="eXzYTlI1ysm16-fill-1" offset="81.780000%" stop-color="rgb(214,215,216)"/></linearGradient><linearGradient id="eXzYTlI1ysm17-fill" x1="81.524903" y1="320.364957" x2="71.315487" y2="320.364957" spreadMethod="pad" gradientUnits="userSpaceOnUse"><stop id="eXzYTlI1ysm17-fill-0" offset="0%" stop-color="rgb(238,238,238)"/><stop id="eXzYTlI1ysm17-fill-1" offset="81.780000%" stop-color="rgb(214,215,216)"/></linearGradient><linearGradient id="eXzYTlI1ysm18-fill" x1="112.896498" y1="320.364957" x2="123.105900" y2="320.364957" spreadMethod="pad" gradientUnits="userSpaceOnUse"><stop id="eXzYTlI1ysm18-fill-0" offset="0%" stop-color="rgb(238,238,238)"/><stop id="eXzYTlI1ysm18-fill-1" offset="81.780000%" stop-color="rgb(214,215,216)"/></linearGradient><linearGradient id="eXzYTlI1ysm19-fill" x1="145.624418" y1="320.364957" x2="155.833820" y2="320.364957" spreadMethod="pad" gradientUnits="userSpaceOnUse"><stop id="eXzYTlI1ysm19-fill-0" offset="0%" stop-color="rgb(238,238,238)"/><stop id="eXzYTlI1ysm19-fill-1" offset="81.780000%" stop-color="rgb(214,215,216)"/></linearGradient><linearGradient id="eXzYTlI1ysm20-fill" x1="38.364349" y1="284.212333" x2="101.026407" y2="273.506394" spreadMethod="pad" gradientUnits="userSpaceOnUse"><stop id="eXzYTlI1ysm20-fill-0" offset="0%" stop-color="rgb(238,238,238)"/><stop id="eXzYTlI1ysm20-fill-1" offset="81.780000%" stop-color="rgb(214,215,216)"/></linearGradient><linearGradient id="eXzYTlI1ysm21-fill" x1="37.957098" y1="244.724524" x2="90.274218" y2="224.524902" spreadMethod="pad" gradientUnits="userSpaceOnUse"><stop id="eXzYTlI1ysm21-fill-0" offset="0%" stop-color="rgb(238,238,238)"/><stop id="eXzYTlI1ysm21-fill-1" offset="81.780000%" stop-color="rgb(214,215,216)"/></linearGradient><linearGradient id="eXzYTlI1ysm22-fill" x1="121.112264" y1="270.395270" x2="149.852790" y2="287.858697" spreadMethod="pad" gradientUnits="userSpaceOnUse"><stop id="eXzYTlI1ysm22-fill-0" offset="0%" stop-color="rgb(238,238,238)"/><stop id="eXzYTlI1ysm22-fill-1" offset="81.780000%" stop-color="rgb(214,215,216)"/></linearGradient><linearGradient id="eXzYTlI1ysm26-fill" x1="175.097758" y1="339.647977" x2="229.301136" y2="339.979263" spreadMethod="pad" gradientUnits="userSpaceOnUse"><stop id="eXzYTlI1ysm26-fill-0" offset="14%" stop-color="rgb(233,74,71)"/><stop id="eXzYTlI1ysm26-fill-1" offset="100%" stop-color="rgb(198,48,48)"/></linearGradient><linearGradient id="eXzYTlI1ysm31-fill" x1="100.453777" y1="328.204172" x2="152.101746" y2="343.602719" spreadMethod="pad" gradientUnits="userSpaceOnUse"><stop id="eXzYTlI1ysm31-fill-0" offset="14%" stop-color="rgb(233,74,71)"/><stop id="eXzYTlI1ysm31-fill-1" offset="100%" stop-color="rgb(198,48,48)"/></linearGradient><linearGradient id="eXzYTlI1ysm32-fill" x1="153.126014" y1="289.358824" x2="96.132719" y2="283.565611" spreadMethod="pad" gradientUnits="userSpaceOnUse"><stop id="eXzYTlI1ysm32-fill-0" offset="0%" stop-color="rgb(66,141,252)"/><stop id="eXzYTlI1ysm32-fill-1" offset="100%" stop-color="rgb(29,114,216)"/></linearGradient><linearGradient id="eXzYTlI1ysm35-fill" x1="91.125459" y1="208.730596" x2="98.146202" y2="257.558977" spreadMethod="pad" gradientUnits="userSpaceOnUse"><stop id="eXzYTlI1ysm35-fill-0" offset="0%" stop-color="rgb(35,40,107)"/><stop id="eXzYTlI1ysm35-fill-1" offset="100%" stop-color="rgb(21,26,79)"/></linearGradient><linearGradient id="eXzYTlI1ysm37-fill" x1="145.484432" y1="146.215571" x2="145.484432" y2="152.215692" spreadMethod="pad" gradientUnits="userSpaceOnUse"><stop id="eXzYTlI1ysm37-fill-0" offset="0%" stop-color="rgb(238,238,238)"/><stop id="eXzYTlI1ysm37-fill-1" offset="100%" stop-color="rgb(214,215,216)"/></linearGradient><linearGradient id="eXzYTlI1ysm39-fill" x1="136.500233" y1="178.533682" x2="144.347219" y2="156.188464" spreadMethod="pad" gradientUnits="userSpaceOnUse"><stop id="eXzYTlI1ysm39-fill-0" offset="0%" stop-color="rgb(255,190,182)"/><stop id="eXzYTlI1ysm39-fill-1" offset="100%" stop-color="rgb(242,161,156)"/></linearGradient><linearGradient id="eXzYTlI1ysm41-fill" x1="121.974328" y1="151.146481" x2="129.535248" y2="175.306177" spreadMethod="pad" gradientUnits="userSpaceOnUse"><stop id="eXzYTlI1ysm41-fill-0" offset="0%" stop-color="rgb(238,238,238)"/><stop id="eXzYTlI1ysm41-fill-1" offset="100%" stop-color="rgb(214,215,216)"/></linearGradient><linearGradient id="eXzYTlI1ysm45-fill" x1="132.542470" y1="210.220689" x2="106.523888" y2="240.428203" spreadMethod="pad" gradientUnits="userSpaceOnUse"><stop id="eXzYTlI1ysm45-fill-0" offset="0%" stop-color="rgb(35,40,107)"/><stop id="eXzYTlI1ysm45-fill-1" offset="100%" stop-color="rgb(21,26,79)"/></linearGradient><linearGradient id="eXzYTlI1ysm48-fill" x1="-0.035291" y1="20.934806" x2="148.664133" y2="20.934806" spreadMethod="pad" gradientUnits="userSpaceOnUse"><stop id="eXzYTlI1ysm48-fill-0" offset="0%" stop-color="rgb(238,238,238)"/><stop id="eXzYTlI1ysm48-fill-1" offset="100%" stop-color="rgb(214,215,216)"/></linearGradient><linearGradient id="eXzYTlI1ysm54-fill" x1="274.239773" y1="267.741809" x2="325.298469" y2="267.741809" spreadMethod="pad" gradientUnits="userSpaceOnUse"><stop id="eXzYTlI1ysm54-fill-0" offset="0%" stop-color="rgb(185,211,253)"/><stop id="eXzYTlI1ysm54-fill-1" offset="100%" stop-color="rgb(137,179,244)"/></linearGradient><linearGradient id="eXzYTlI1ysm55-fill" x1="306.709120" y1="279.076585" x2="346.572147" y2="279.076585" spreadMethod="pad" gradientUnits="userSpaceOnUse"><stop id="eXzYTlI1ysm55-fill-0" offset="0%" stop-color="rgb(222,234,254)"/><stop id="eXzYTlI1ysm55-fill-1" offset="100%" stop-color="rgb(233,241,254)"/></linearGradient><linearGradient id="eXzYTlI1ysm78-fill" x1="-0.021955" y1="21.505131" x2="34.073681" y2="21.505131" spreadMethod="pad" gradientUnits="userSpaceOnUse"><stop id="eXzYTlI1ysm78-fill-0" offset="0%" stop-color="rgb(238,238,238)"/><stop id="eXzYTlI1ysm78-fill-1" offset="100%" stop-color="rgb(214,215,216)"/></linearGradient><linearGradient id="eXzYTlI1ysm80-fill" x1="53.719293" y1="110.670899" x2="69.911258" y2="133.366710" spreadMethod="pad" gradientUnits="userSpaceOnUse"><stop id="eXzYTlI1ysm80-fill-0" offset="0%" stop-color="rgb(200,220,253)"/><stop id="eXzYTlI1ysm80-fill-1" offset="100%" stop-color="rgb(154,190,243)"/></linearGradient><linearGradient id="eXzYTlI1ysm82-fill" x1="81.537903" y1="99.246354" x2="98.876660" y2="119.076886" spreadMethod="pad" gradientUnits="userSpaceOnUse"><stop id="eXzYTlI1ysm82-fill-0" offset="0%" stop-color="rgb(161,195,252)"/><stop id="eXzYTlI1ysm82-fill-1" offset="100%" stop-color="rgb(120,169,239)"/></linearGradient></defs><g id="eXzYTlI1ysm2"><g id="eXzYTlI1ysm3"><rect id="eXzYTlI1ysm4" width="243.400000" height="15" rx="0" ry="0" transform="matrix(1 0 0 1 94.59999999999999 195.40000000000001)" fill="rgb(238,238,238)" stroke="none" stroke-width="1"/><path id="eXzYTlI1ysm5" d="M295.700000,195.600000L142.600000,195.600000L142.600000,47.900000L295.700000,47.900000L295.700000,195.600000L295.700000,195.600000ZM144.400000,193.700000L293.700000,193.700000L293.700000,49.800000L144.400000,49.800000L144.400000,193.700000Z" fill="rgb(214,215,216)" stroke="none" stroke-width="1"/><g id="eXzYTlI1ysm6" transform="matrix(1.14741676320171 0 0 1 -21.00688875624346 0)"><path id="eXzYTlI1ysm7" d="M178.700000,203.400000L142.500000,195.400000L142.500000,48.100000L178.700000,40.100000L178.700000,203.400000ZM144.400000,193.900000L176.800000,201.100000L176.800000,42.400000L144.400000,49.600000L144.400000,193.900000Z" fill="rgb(214,215,216)" stroke="none" stroke-width="1"/><path id="eXzYTlI1ysm8" d="M183.800000,123.100000L181.500000,123.100000L181.500000,109.600000C181.500000,108.400000,180.500000,107.400000,179.300000,107.400000L177.800000,107.400000L177.800000,105L179.300000,105C181.800000,105,183.900000,107.100000,183.900000,109.600000L183.900000,123.100000Z" fill="rgb(214,215,216)" stroke="none" stroke-width="1"/></g><path id="eXzYTlI1ysm9" d="M196.100000,195.600000L142.600000,195.600000L142.600000,47.900000L196.100000,47.900000L196.100000,195.600000ZM144.400000,193.700000L194.200000,193.700000L194.200000,49.800000L144.400000,49.800000L144.400000,193.700000Z" fill="rgb(214,215,216)" stroke="none" stroke-width="1"/></g><g id="eXzYTlI1ysm10" transform="matrix(1 0 0 1 -1.70000152793739 3.21731567658856)"><path id="eXzYTlI1ysm11" d="M82.700000,152.800000L54.700000,145C56.900000,143.400000,58.700000,139.200000,60.200000,132.900000L61.100000,127.900000L86.400000,132.400000L82.700000,152.800000Z" fill="url(#eXzYTlI1ysm11-fill)" stroke="none" stroke-width="1"/><polygon id="eXzYTlI1ysm12" points="61,128 86.300000,132.500000 85.500000,136.900000 60.200000,132.400000" fill="rgb(194,216,253)" stroke="none" stroke-width="1"/><path id="eXzYTlI1ysm13" d="M64.600000,142.800000C64.600000,142.800000,64.600000,142.800000,64.600000,142.800000C64.300000,142.800000,64.100000,142.600000,64.100000,142.400000C63.800000,140.400000,63.600000,138.400000,63.700000,136.400000C63,137.700000,62.500000,139.200000,62.100000,140.600000C62,140.900000,61.700000,141,61.500000,140.900000C61.200000,140.800000,61.100000,140.500000,61.200000,140.300000C61.800000,138.300000,62.500000,136.100000,64,134.300000C64.100000,134.100000,64.400000,134.100000,64.600000,134.200000C64.800000,134.300000,64.900000,134.500000,64.900000,134.700000C64.700000,136.700000,64.800000,138.700000,65,140.700000L66.500000,137.900000C66.600000,137.700000,66.800000,137.600000,67,137.600000C67.200000,137.600000,67.400000,137.800000,67.400000,138C67.500000,138.400000,67.800000,138.600000,68.300000,138.800000C68.700000,138.900000,69.200000,138.900000,69.400000,138.600000C69.500000,138.500000,69.700000,138.500000,69.900000,138.500000C70.100000,138.600000,70.200000,138.700000,70.200000,138.800000L70.800000,141C71,140.900000,71.300000,140.900000,71.400000,141.100000C71.600000,141.300000,71.600000,141.600000,71.400000,141.800000L70.900000,142.300000C70.800000,142.400000,70.600000,142.500000,70.400000,142.400000C70.200000,142.400000,70.100000,142.200000,70,142L69.300000,139.600000C68.900000,139.800000,68.400000,139.800000,67.900000,139.600000C67.500000,139.500000,67.200000,139.300000,66.900000,139L65.100000,142.400000C65,142.700000,64.800000,142.800000,64.600000,142.800000Z" fill="rgb(35,40,107)" stroke="none" stroke-width="1"/><path id="eXzYTlI1ysm14" d="M77.300000,144.600000C77.300000,144.600000,77.300000,144.600000,77.300000,144.600000C77,144.600000,76.900000,144.400000,76.800000,144.200000L75.700000,140.100000C75.600000,139.800000,75.800000,139.600000,76.100000,139.500000C76.400000,139.400000,76.600000,139.600000,76.700000,139.900000L77.500000,142.800000L80.300000,137.400000C80.400000,137.200000,80.700000,137.100000,81,137.200000C81.200000,137.300000,81.300000,137.600000,81.200000,137.900000L77.800000,144.400000C77.700000,144.500000,77.500000,144.600000,77.300000,144.600000Z" fill="rgb(35,40,107)" stroke="none" stroke-width="1"/></g><g id="eXzYTlI1ysm15"><polygon id="eXzYTlI1ysm16" points="37.300000,359.900000 40.400000,359.900000 47.500000,280.900000 44.500000,280.900000 44.500000,280.800000" fill="url(#eXzYTlI1ysm16-fill)" stroke="none" stroke-width="1"/><polygon id="eXzYTlI1ysm17" points="71.400000,359.900000 74.400000,359.900000 81.600000,280.900000 78.600000,280.900000 78.500000,280.800000" fill="url(#eXzYTlI1ysm17-fill)" stroke="none" stroke-width="1"/><polygon id="eXzYTlI1ysm18" points="123.100000,359.900000 120.100000,359.900000 112.900000,280.900000 116,280.900000 116,280.800000" fill="url(#eXzYTlI1ysm18-fill)" stroke="none" stroke-width="1"/><polygon id="eXzYTlI1ysm19" points="155.900000,359.900000 152.800000,359.900000 145.700000,280.900000 148.700000,280.900000 148.700000,280.800000" fill="url(#eXzYTlI1ysm19-fill)" stroke="none" stroke-width="1"/><polygon id="eXzYTlI1ysm20" points="116,280.900000 44.500000,280.900000 42.300000,273.600000 116,273.600000" fill="url(#eXzYTlI1ysm20-fill)" stroke="none" stroke-width="1"/><polygon id="eXzYTlI1ysm21" points="42.300000,273.600000 82.900000,273.600000 61.500000,205.100000 20.900000,205.100000" fill="url(#eXzYTlI1ysm21-fill)" stroke="none" stroke-width="1"/><polygon id="eXzYTlI1ysm22" points="116,280.900000 148.700000,280.900000 148.700000,273.600000 116,273.600000" fill="url(#eXzYTlI1ysm22-fill)" stroke="none" stroke-width="1"/></g><g id="eXzYTlI1ysm23"><polygon id="eXzYTlI1ysm24" points="303.200000,342.200000 298.900000,342.200000 298.900000,224.800000 197.800000,224.800000 197.800000,220.500000 303.200000,220.500000" fill="rgb(214,215,216)" stroke="none" stroke-width="1"/></g><g id="eXzYTlI1ysm25"><path id="eXzYTlI1ysm26" d="M177.600000,328C176.200000,333.800000,172.500000,351.100000,174.400000,351.700000C179,351.900000,218.400000,352.100000,227,352.200000C227.800000,350.800000,227.600000,349.700000,227.200000,348.300000C226,344.700000,221.800000,341.700000,218.400000,340.400000C214.900000,339.100000,212.700000,338.800000,209.300000,337.400000C205.400000,335.700000,201,328.500000,196.700000,327.800000C194.900000,327.400000,182.300000,327.800000,177.600000,328Z" fill="url(#eXzYTlI1ysm26-fill)" stroke="none" stroke-width="1"/><path id="eXzYTlI1ysm27" d="M100.900000,249.200000C105.600000,246.500000,114.900000,247.300000,120.300000,247.500000C125.200000,247.700000,130.400000,247.800000,135.200000,248.700000C142.100000,250,155.800000,251.300000,160.400000,257.200000C167.600000,266.500000,167.500000,278.600000,174,288.400000C180.800000,298.700000,185.200000,309,192.900000,318.600000C195.400000,321.700000,204.200000,332.800000,204.200000,332.800000L176.100000,333.100000C176.100000,333.100000,165.300000,327.400000,163.200000,323.700000C161,319.700000,161.600000,315.800000,160,312.100000C158.500000,308.700000,152.800000,305.400000,150.400000,302.800000C147.700000,299.900000,144.800000,296.500000,143.700000,292.500000C142.700000,288.800000,142.700000,282.400000,141.100000,278.800000C139.200000,274.500000,135.700000,273.600000,131.900000,272.600000C127.900000,271.500000,124.300000,270.400000,120.300000,269.200000C116.200000,268,111.700000,266.700000,107.500000,266C103.500000,265.300000,99.200000,265.900000,95.300000,265.100000C96.100000,261.400000,95.500000,258.200000,97.600000,254.700000C98.600000,252.900000,100.300000,251.500000,101.800000,250.100000C102.800000,249.100000,104.400000,246.600000,104.300000,248.100000" fill="rgb(29,114,216)" stroke="none" stroke-width="1"/><g id="eXzYTlI1ysm28"><path id="eXzYTlI1ysm29" d="M157.300000,187.800000C155.800000,185.700000,156.200000,182.900000,155.200000,180.300000C154.600000,178.800000,153.300000,179.100000,153.100000,180.900000C153,181.900000,154.100000,183.600000,154.500000,184.600000C154.900000,185.700000,155.500000,187.900000,153.300000,187.700000C152.100000,187.600000,151.400000,185.600000,151,184.700000C150.500000,183.600000,149.400000,182.200000,149.500000,181.100000C149.600000,179.700000,151,178.300000,151.600000,177.100000C152.300000,175.600000,152.300000,175.300000,154,174.900000C155.300000,174.600000,160.100000,173.600000,162.300000,173.600000C164.600000,173.600000,167,172.600000,167.400000,178.900000C167.900000,186.400000,167.400000,188.900000,168.400000,191.600000C165.600000,190.500000,160.700000,190.300000,157.800000,189.600000C157.600000,189.300000,157.100000,188,157.300000,187.800000Z" fill="rgb(242,161,156)" stroke="none" stroke-width="1"/><path id="eXzYTlI1ysm30" d="M156.400000,185.900000C156.300000,191.700000,156.500000,214.800000,156.500000,214.800000C156.500000,214.800000,149.500000,212.600000,146.900000,210.900000C137.900000,205,113.800000,171.900000,108.800000,190.400000C107.200000,196.500000,109,206.400000,115.400000,211.900000C122,217.600000,137.500000,232.200000,155,232.700000C163.500000,232.900000,168.900000,233.600000,170.300000,223.900000C172.300000,210.300000,169.400000,198.600000,168.600000,185.100000C166.300000,185.400000,156.300000,186.300000,156.400000,185.900000Z" fill="rgb(21,26,79)" stroke="none" stroke-width="1"/></g><path id="eXzYTlI1ysm31" d="M104.400000,322.400000C101.400000,327.600000,94.400000,338.400000,96.200000,339.500000C100.600000,341,138.300000,352.200000,146.500000,354.700000C147.700000,353.600000,147.800000,352.400000,147.800000,351C147.700000,347.200000,144.500000,343.100000,141.500000,340.900000C138.500000,338.700000,136.500000,337.800000,133.600000,335.500000C130.400000,332.800000,128.100000,324.700000,124.200000,322.800000C122.600000,321.900000,109,323.500000,104.400000,322.400000Z" fill="url(#eXzYTlI1ysm31-fill)" stroke="none" stroke-width="1"/><path id="eXzYTlI1ysm32" d="M60.600000,240.200000C56.900000,250.800000,58.600000,273,72.300000,276.500000C83.900000,279.500000,97.800000,276.900000,109.600000,275.800000C114.800000,275.300000,120.300000,273.900000,125.600000,274.300000C122.200000,277.200000,118.800000,282.500000,117.700000,286.800000C117.100000,289.200000,117.700000,291.400000,117.100000,293.800000C116.400000,296.300000,114.500000,298.500000,112.900000,300.400000C108.500000,305.500000,105.800000,308.800000,104.200000,315.400000C103,320.400000,101,328.400000,101,328.400000L128.900000,328.700000C128.900000,328.700000,132.200000,320.100000,133.200000,318C139.800000,304.800000,154.800000,270.600000,156.700000,264.200000C161.200000,249.300000,151,244.300000,144.300000,244.300000C128.600000,244.300000,118.200000,243.900000,105,243.900000C97.200000,243.900000,89.900000,244.600000,82.200000,244.300000C76.900000,244,64.100000,244.600000,60.600000,240.200000Z" fill="url(#eXzYTlI1ysm32-fill)" stroke="none" stroke-width="1"/><path id="eXzYTlI1ysm33" d="M143.500000,180C141.200000,181,133.700000,185.600000,131.700000,187C127.200000,190,124,193.900000,122.500000,196.200000C121.200000,198.200000,119.600000,181.700000,118.400000,179.600000C125,176.100000,130.900000,172.300000,135.300000,168.600000C138.300000,171.900000,141.300000,175,143.600000,178.900000C143.300000,179.500000,144.100000,179.700000,143.500000,180Z" fill="rgb(242,161,156)" stroke="none" stroke-width="1"/><path id="eXzYTlI1ysm34" d="M81.800000,255.200000C81.900000,255.200000,81.900000,255.200000,82,255.100000C82,255,82,255,81.900000,254.900000C81.800000,254.900000,81.800000,254.900000,81.700000,255L81.700000,255C81.700000,255.100000,81.700000,255.200000,81.800000,255.200000L81.800000,255.200000ZM82.800000,252.300000C82.900000,252.300000,82.900000,252.300000,83,252.200000C83,252.100000,83,252.100000,82.900000,252C82.800000,252,82.800000,252,82.700000,252.100000C82.700000,252.100000,82.700000,252.100000,82.700000,252.100000C82.800000,252.200000,82.800000,252.300000,82.800000,252.300000L82.800000,252.300000L82.800000,252.300000ZM94.600000,254.700000C94.600000,254.800000,94.700000,254.800000,94.800000,254.800000L94.800000,254.800000C94.900000,254.800000,94.900000,254.700000,94.900000,254.600000C94.900000,254.600000,94.900000,254.600000,94.900000,254.600000C94.900000,254.500000,94.800000,254.500000,94.700000,254.500000C94.600000,254.600000,94.500000,254.700000,94.600000,254.700000L94.600000,254.700000L94.600000,254.700000ZM77.200000,250.400000C77.200000,250.400000,77.300000,250.400000,77.400000,250.400000C77.400000,250.400000,77.400000,250.300000,77.400000,250.200000C77.400000,250.200000,77.300000,250.200000,77.200000,250.200000C77.200000,250.200000,77.200000,250.300000,77.200000,250.400000C77.200000,250.400000,77.200000,250.400000,77.200000,250.400000ZM88.100000,254.600000C88.100000,254.700000,88.200000,254.700000,88.200000,254.700000C88.300000,254.700000,88.300000,254.600000,88.300000,254.600000C88.300000,254.500000,88.200000,254.500000,88.200000,254.500000C88.100000,254.400000,88.100000,254.500000,88.100000,254.600000ZM88,251.500000C88,251.600000,88.100000,251.600000,88.100000,251.600000L88.100000,251.600000C88.200000,251.600000,88.200000,251.600000,88.200000,251.500000C88.200000,251.500000,88.200000,251.500000,88.200000,251.500000C88.200000,251.400000,88.100000,251.400000,88.100000,251.400000C88,251.400000,88,251.400000,88,251.500000ZM65.100000,256.500000C65.200000,256.600000,65.300000,256.600000,65.400000,256.500000C65.400000,256.500000,65.400000,256.500000,65.400000,256.500000C65.500000,256.400000,65.500000,256.300000,65.400000,256.200000C65.400000,256.200000,65.400000,256.200000,65.400000,256.200000C65.300000,256.100000,65.200000,256.100000,65.100000,256.200000C65.100000,256.200000,65.100000,256.200000,65.100000,256.200000C65,256.300000,65,256.400000,65.100000,256.500000C65.100000,256.500000,65.100000,256.500000,65.100000,256.500000L65.100000,256.500000ZM69.400000,252.600000C69.500000,252.700000,69.600000,252.700000,69.700000,252.600000C69.800000,252.500000,69.800000,252.400000,69.700000,252.300000C69.700000,252.300000,69.700000,252.300000,69.700000,252.300000C69.600000,252.200000,69.500000,252.200000,69.400000,252.300000C69.400000,252.300000,69.400000,252.300000,69.400000,252.300000C69.300000,252.300000,69.300000,252.400000,69.400000,252.600000L69.400000,252.600000ZM83,270.500000C83,270.600000,83.100000,270.700000,83.200000,270.700000C83.300000,270.700000,83.400000,270.600000,83.400000,270.500000C83.400000,270.500000,83.400000,270.500000,83.400000,270.500000C83.400000,270.400000,83.300000,270.300000,83.200000,270.300000C83.100000,270.300000,83,270.400000,83,270.500000L83,270.500000L83,270.500000ZM83.400000,258.900000C83.400000,259,83.500000,259.100000,83.600000,259.100000C83.600000,259.100000,83.600000,259.100000,83.600000,259.100000C83.700000,259.100000,83.800000,259,83.800000,258.900000C83.800000,258.900000,83.800000,258.900000,83.800000,258.900000C83.800000,258.800000,83.700000,258.700000,83.600000,258.600000C83.600000,258.600000,83.400000,258.700000,83.400000,258.900000L83.400000,258.900000ZM83.700000,253.100000C83.700000,253.200000,83.800000,253.300000,83.900000,253.300000C84,253.300000,84.100000,253.200000,84.100000,253.100000C84.100000,253,84,252.900000,83.900000,252.900000L83.900000,252.900000C83.800000,252.800000,83.700000,252.900000,83.700000,253.100000C83.700000,253.100000,83.700000,253.100000,83.700000,253.100000L83.700000,253.100000ZM71.800000,265.200000C71.900000,265.300000,72.100000,265.200000,72.100000,265.100000C72.200000,265,72.100000,264.800000,72,264.800000C71.900000,264.700000,71.700000,264.800000,71.700000,264.900000C71.600000,265,71.700000,265.100000,71.800000,265.200000L71.800000,265.200000ZM74.200000,259.900000C74.300000,260,74.500000,259.900000,74.500000,259.800000C74.600000,259.700000,74.500000,259.500000,74.400000,259.500000C74.300000,259.400000,74.100000,259.500000,74.100000,259.600000C74,259.700000,74.100000,259.800000,74.200000,259.900000L74.200000,259.900000ZM76.600000,254.600000C76.700000,254.700000,76.900000,254.600000,76.900000,254.500000C77,254.400000,76.900000,254.200000,76.800000,254.200000C76.700000,254.100000,76.500000,254.200000,76.500000,254.300000C76.500000,254.400000,76.500000,254.500000,76.600000,254.600000C76.600000,254.600000,76.600000,254.600000,76.600000,254.600000ZM93.800000,266.100000C93.800000,266.200000,94,266.300000,94.100000,266.200000C94.200000,266.200000,94.300000,266,94.200000,265.900000C94.200000,265.900000,94.200000,265.900000,94.200000,265.900000C94.200000,265.800000,94,265.700000,93.900000,265.700000C93.900000,265.700000,93.900000,265.700000,93.900000,265.700000C93.900000,265.800000,93.800000,265.900000,93.800000,266.100000ZM89.800000,255.200000C89.800000,255.300000,90,255.400000,90.100000,255.300000C90.100000,255.300000,90.100000,255.300000,90.100000,255.300000C90.200000,255.300000,90.300000,255.100000,90.300000,255C90.300000,255,90.300000,255,90.300000,255C90.300000,254.900000,90.100000,254.800000,90,254.900000C89.800000,254.900000,89.800000,255,89.800000,255.200000C89.800000,255.200000,89.800000,255.200000,89.800000,255.200000ZM66.700000,262.700000C66.800000,262.800000,66.900000,262.700000,67,262.600000C67.100000,262.500000,67,262.400000,66.900000,262.300000C66.800000,262.200000,66.700000,262.300000,66.600000,262.400000L66.600000,262.400000C66.600000,262.500000,66.600000,262.600000,66.700000,262.700000L66.700000,262.700000ZM69.300000,258.200000C69.400000,258.300000,69.500000,258.200000,69.600000,258.100000C69.700000,258,69.600000,257.900000,69.500000,257.800000C69.400000,257.700000,69.300000,257.800000,69.200000,257.900000C69.200000,257.900000,69.200000,257.900000,69.200000,257.900000C69.200000,258,69.200000,258.100000,69.300000,258.200000C69.300000,258.200000,69.300000,258.200000,69.300000,258.200000L69.300000,258.200000ZM71.800000,253.600000C71.800000,253.700000,71.800000,253.700000,71.900000,253.700000C72,253.800000,72.100000,253.700000,72.200000,253.600000C72.300000,253.500000,72.200000,253.400000,72.100000,253.300000L72.100000,253.300000C72,253.300000,72,253.300000,71.900000,253.300000L71.900000,253.300000C71.900000,253.300000,71.800000,253.300000,71.800000,253.400000C71.800000,253.400000,71.800000,253.500000,71.800000,253.600000L71.800000,253.600000ZM88.200000,265.400000C88.200000,265.500000,88.400000,265.600000,88.500000,265.600000C88.600000,265.600000,88.700000,265.500000,88.600000,265.300000C88.600000,265.300000,88.600000,265.300000,88.600000,265.300000C88.600000,265.200000,88.500000,265.100000,88.300000,265.100000C88.300000,265.100000,88.300000,265.100000,88.300000,265.100000C88.200000,265.200000,88.200000,265.300000,88.200000,265.400000ZM85.500000,255.400000C85.500000,255.500000,85.600000,255.600000,85.800000,255.600000C85.800000,255.600000,85.800000,255.600000,85.800000,255.600000C85.900000,255.600000,86,255.500000,86,255.400000C86,255.400000,86,255.400000,86,255.400000C86,255.300000,85.900000,255.200000,85.700000,255.200000C85.700000,255.200000,85.700000,255.200000,85.700000,255.200000C85.600000,255.200000,85.500000,255.300000,85.500000,255.400000L85.500000,255.400000ZM84.200000,250.400000C84.200000,250.500000,84.400000,250.600000,84.500000,250.500000C84.600000,250.500000,84.700000,250.400000,84.600000,250.200000C84.600000,250.100000,84.500000,250,84.300000,250C84.300000,250.100000,84.200000,250.300000,84.200000,250.400000L84.200000,250.400000ZM77,263.400000C77,263.500000,77.100000,263.600000,77.200000,263.600000C77.300000,263.600000,77.400000,263.500000,77.400000,263.400000C77.400000,263.300000,77.300000,263.200000,77.200000,263.200000C77.100000,263.200000,77,263.300000,77,263.400000ZM77.700000,258.300000C77.700000,258.400000,77.800000,258.500000,77.900000,258.500000C77.900000,258.500000,77.900000,258.500000,77.900000,258.500000C78,258.500000,78.100000,258.400000,78.100000,258.300000C78.100000,258.200000,78,258.100000,77.900000,258.100000C77.800000,258.100000,77.700000,258.200000,77.700000,258.300000ZM78.400000,253.100000C78.400000,253.200000,78.500000,253.300000,78.600000,253.300000C78.700000,253.300000,78.800000,253.200000,78.800000,253.100000C78.800000,253,78.700000,252.900000,78.600000,252.900000C78.500000,252.900000,78.400000,253,78.400000,253.100000C78.400000,253.100000,78.400000,253.100000,78.400000,253.100000ZM93.100000,254.500000C93.200000,254.600000,93.300000,254.600000,93.400000,254.500000C93.500000,254.400000,93.500000,254.300000,93.400000,254.200000C93.300000,254.100000,93.200000,254.100000,93.100000,254.200000C93.100000,254.300000,93,254.400000,93.100000,254.500000C93.100000,254.500000,93.100000,254.500000,93.100000,254.500000ZM78.800000,253.800000C78.800000,253.900000,78.900000,253.900000,78.900000,253.900000C79,253.900000,79,253.800000,79,253.800000C79,253.800000,78.900000,253.700000,78.900000,253.700000L78.900000,253.700000C78.800000,253.700000,78.700000,253.800000,78.800000,253.800000L78.800000,253.800000L78.800000,253.800000ZM78.500000,250.800000C78.500000,250.900000,78.600000,250.900000,78.600000,250.900000C78.700000,250.900000,78.700000,250.800000,78.700000,250.800000L78.700000,250.800000C78.700000,250.700000,78.600000,250.700000,78.600000,250.700000C78.600000,250.700000,78.600000,250.700000,78.600000,250.700000C78.600000,250.600000,78.500000,250.700000,78.500000,250.800000C78.500000,250.800000,78.500000,250.800000,78.500000,250.800000ZM72.700000,251.500000C72.800000,251.500000,72.800000,251.500000,72.900000,251.400000C72.900000,251.300000,72.900000,251.300000,72.800000,251.200000C72.800000,251.200000,72.800000,251.200000,72.800000,251.200000C72.700000,251.200000,72.700000,251.200000,72.600000,251.300000C72.600000,251.300000,72.600000,251.300000,72.600000,251.300000C72.600000,251.400000,72.700000,251.500000,72.700000,251.500000L72.700000,251.500000ZM84.300000,250.700000C84.300000,250.800000,84.400000,250.800000,84.500000,250.800000C84.600000,250.800000,84.600000,250.700000,84.600000,250.600000C84.600000,250.500000,84.500000,250.500000,84.400000,250.500000C84.400000,250.500000,84.400000,250.500000,84.400000,250.500000C84.300000,250.600000,84.300000,250.700000,84.300000,250.700000C84.300000,250.700000,84.300000,250.700000,84.300000,250.700000L84.300000,250.700000ZM64.500000,252.900000C64.600000,252.900000,64.700000,252.900000,64.700000,252.900000C64.700000,252.900000,64.700000,252.900000,64.700000,252.900000C64.700000,252.800000,64.700000,252.700000,64.700000,252.700000C64.700000,252.700000,64.700000,252.700000,64.700000,252.700000C64.600000,252.700000,64.500000,252.700000,64.500000,252.700000C64.500000,252.700000,64.500000,252.700000,64.500000,252.700000C64.400000,252.800000,64.500000,252.900000,64.500000,252.900000L64.500000,252.900000ZM79,254.900000C79,255,79.100000,255,79.200000,255C79.200000,255,79.200000,255,79.200000,255C79.300000,255,79.300000,254.900000,79.300000,254.800000C79.300000,254.700000,79.200000,254.700000,79.100000,254.700000C79,254.800000,79,254.800000,79,254.900000C79,254.900000,79,254.900000,79,254.900000L79,254.900000ZM78.100000,251.500000C78.100000,251.600000,78.200000,251.600000,78.300000,251.600000L78.300000,251.600000C78.400000,251.600000,78.400000,251.500000,78.400000,251.400000C78.400000,251.300000,78.300000,251.300000,78.200000,251.300000C78.200000,251.400000,78.100000,251.500000,78.100000,251.500000L78.100000,251.500000ZM71.800000,253.600000C71.800000,253.600000,71.800000,253.600000,71.800000,253.600000C71.900000,253.600000,72,253.600000,72,253.500000C72,253.500000,72,253.500000,72,253.500000C72,253.400000,72,253.400000,71.900000,253.300000L71.900000,253.300000C71.800000,253.300000,71.800000,253.300000,71.700000,253.400000C71.700000,253.400000,71.700000,253.400000,71.700000,253.400000C71.700000,253.500000,71.800000,253.500000,71.800000,253.600000L71.800000,253.600000ZM84.700000,250.300000C84.700000,250.400000,84.800000,250.400000,84.900000,250.300000C84.900000,250.300000,84.900000,250.300000,84.900000,250.300000C85,250.300000,85,250.200000,84.900000,250.100000C84.900000,250,84.800000,250,84.700000,250.100000C84.700000,250.100000,84.700000,250.100000,84.700000,250.100000C84.700000,250.200000,84.700000,250.300000,84.700000,250.300000L84.700000,250.300000ZM66.800000,268.200000C66.800000,268.300000,66.900000,268.500000,67,268.500000C67.100000,268.500000,67.300000,268.400000,67.300000,268.300000C67.300000,268.200000,67.200000,268,67.100000,268C66.900000,268,66.800000,268.100000,66.800000,268.200000L66.800000,268.200000ZM67.500000,262.200000C67.500000,262.300000,67.600000,262.500000,67.700000,262.500000C67.800000,262.500000,68,262.400000,68,262.300000C68,262.200000,67.900000,262,67.800000,262C67.700000,262,67.500000,262.100000,67.500000,262.200000L67.500000,262.200000ZM68.200000,256.300000C68.200000,256.400000,68.300000,256.600000,68.400000,256.600000C68.500000,256.600000,68.700000,256.500000,68.700000,256.400000C68.700000,256.300000,68.600000,256.100000,68.500000,256.100000C68.400000,256,68.300000,256.100000,68.200000,256.300000ZM87.400000,256.900000C87.500000,257,87.600000,257,87.700000,256.900000C87.800000,256.800000,87.800000,256.700000,87.700000,256.600000C87.600000,256.500000,87.500000,256.500000,87.400000,256.600000L87.400000,256.600000C87.300000,256.600000,87.300000,256.800000,87.400000,256.900000L87.400000,256.900000ZM83.700000,252.200000C83.800000,252.300000,83.900000,252.300000,84,252.200000C84.100000,252.100000,84.100000,252,84,251.800000C83.900000,251.700000,83.800000,251.700000,83.600000,251.800000C83.700000,251.900000,83.600000,252.100000,83.700000,252.200000ZM76.800000,258.900000C76.800000,259,77,259.100000,77.100000,259.100000L77.100000,259.100000C77.200000,259.100000,77.300000,258.900000,77.300000,258.800000L77.300000,258.800000C77.300000,258.700000,77.100000,258.600000,77,258.600000C76.900000,258.700000,76.800000,258.800000,76.800000,258.900000L76.800000,258.900000L76.800000,258.900000ZM75.200000,253.200000C75.200000,253.300000,75.400000,253.400000,75.500000,253.400000C75.500000,253.400000,75.500000,253.400000,75.500000,253.400000C75.600000,253.400000,75.700000,253.200000,75.700000,253.100000C75.700000,253,75.500000,252.900000,75.400000,252.900000C75.300000,252.900000,75.200000,253,75.200000,253.200000C75.200000,253.200000,75.200000,253.200000,75.200000,253.200000ZM73.500000,261C73.500000,261.100000,73.700000,261.200000,73.800000,261.200000C73.900000,261.200000,74,261,74,260.900000C74,260.800000,73.800000,260.700000,73.700000,260.700000C73.600000,260.700000,73.500000,260.800000,73.500000,261L73.500000,261ZM72.200000,255.100000C72.200000,255.200000,72.400000,255.300000,72.500000,255.300000C72.600000,255.300000,72.700000,255.100000,72.700000,255C72.700000,254.900000,72.500000,254.800000,72.400000,254.800000L72.400000,254.800000C72.200000,254.900000,72.100000,255,72.200000,255.100000L72.200000,255.100000ZM63.300000,258C63.300000,258.100000,63.400000,258.300000,63.500000,258.300000C63.500000,258.300000,63.500000,258.300000,63.500000,258.300000C63.600000,258.300000,63.800000,258.200000,63.800000,258.100000C63.800000,258,63.700000,257.800000,63.600000,257.800000C63.500000,257.700000,63.400000,257.800000,63.300000,258L63.300000,258ZM64.300000,252.100000C64.300000,252.200000,64.400000,252.400000,64.500000,252.400000C64.600000,252.400000,64.800000,252.300000,64.800000,252.200000C64.800000,252.200000,64.800000,252.200000,64.800000,252.200000C64.800000,252.100000,64.700000,251.900000,64.600000,251.900000C64.500000,251.800000,64.400000,251.900000,64.300000,252.100000C64.300000,252.100000,64.300000,252.100000,64.300000,252.100000L64.300000,252.100000ZM84.700000,259.100000C84.800000,259.200000,84.900000,259.200000,85,259.200000C85.100000,259.100000,85.100000,259,85.100000,258.900000C85,258.800000,84.900000,258.800000,84.800000,258.800000C84.800000,258.800000,84.800000,258.800000,84.800000,258.800000C84.600000,258.800000,84.600000,258.900000,84.700000,259.100000C84.700000,259.100000,84.700000,259.100000,84.700000,259.100000ZM81.200000,254.200000C81.300000,254.300000,81.400000,254.300000,81.500000,254.300000C81.600000,254.200000,81.600000,254.100000,81.600000,254C81.500000,253.900000,81.400000,253.900000,81.300000,253.900000C81.300000,253.900000,81.300000,253.900000,81.300000,253.900000C81.100000,253.900000,81.100000,254.100000,81.200000,254.200000C81.200000,254.200000,81.200000,254.200000,81.200000,254.200000ZM74.700000,256.500000C74.700000,256.600000,74.900000,256.600000,74.900000,256.600000C75,256.600000,75,256.400000,75,256.400000C75,256.300000,74.900000,256.300000,74.800000,256.300000C74.800000,256.300000,74.800000,256.300000,74.800000,256.300000C74.700000,256.300000,74.600000,256.400000,74.700000,256.500000ZM72.800000,252.400000C72.800000,252.500000,73,252.500000,73.100000,252.500000C73.200000,252.500000,73.200000,252.300000,73.200000,252.200000C73.200000,252.100000,73,252.100000,73,252.100000C73,252.100000,73,252.100000,73,252.100000C72.700000,252.200000,72.700000,252.300000,72.800000,252.400000L72.800000,252.400000ZM65.100000,256.300000C65.100000,256.400000,65.200000,256.500000,65.300000,256.500000C65.400000,256.500000,65.500000,256.400000,65.500000,256.300000C65.500000,256.200000,65.400000,256.100000,65.300000,256.100000L65.300000,256.100000C65.200000,256.100000,65.100000,256.200000,65.100000,256.300000C65.100000,256.300000,65.100000,256.300000,65.100000,256.300000ZM64.900000,251.800000C64.900000,251.900000,65,252,65.100000,252C65.200000,252,65.300000,251.900000,65.300000,251.800000C65.300000,251.800000,65.300000,251.800000,65.300000,251.800000C65.300000,251.700000,65.200000,251.600000,65.100000,251.600000C65.100000,251.600000,65.100000,251.600000,65.100000,251.600000C65,251.600000,64.900000,251.700000,64.900000,251.800000C64.900000,251.800000,64.900000,251.800000,64.900000,251.800000L64.900000,251.800000Z" opacity="0.51" fill="rgb(255,255,255)" stroke="none" stroke-width="1"/><path id="eXzYTlI1ysm35" d="M123.100000,176.900000C118.500000,178.800000,111.900000,181.100000,106.900000,182.500000C97,185.200000,90,190.500000,82.800000,198C76.300000,204.800000,70.100000,213.100000,66.600000,221.900000C63.700000,229.200000,59.400000,239.200000,59,247C64.700000,247.200000,97,247.600000,106,247.400000C106.700000,233.800000,107.300000,220.700000,114.600000,208.900000C116.200000,206.200000,117.900000,203.500000,119.800000,200.800000C121.300000,198.600000,126.300000,191.600000,126.300000,191.600000C126.300000,191.600000,116.800000,186.200000,123.100000,176.900000Z" fill="url(#eXzYTlI1ysm35-fill)" stroke="none" stroke-width="1"/><g id="eXzYTlI1ysm36"><path id="eXzYTlI1ysm37" d="M132.300000,151.200000C130.600000,149.400000,135.200000,147.200000,137.300000,146.700000C141,145.900000,142.200000,148.400000,145.100000,148.700000C149.400000,149.200000,149.200000,145.100000,152.500000,144C155.700000,142.900000,156.700000,146,159,146.700000C159.600000,146.900000,159.900000,147.600000,159.500000,148.100000C158.400000,149.600000,158.500000,150.700000,157.900000,152.800000C157,155.900000,156.300000,155.800000,154.600000,158.200000C151.800000,162,151.800000,166.400000,145.900000,167.700000C142.100000,168.600000,135.900000,168.200000,133.100000,164.800000C130.500000,161.700000,131.600000,155.300000,131.400000,151.500000C131.700000,151.200000,132,150.600000,132.300000,151.200000Z" fill="url(#eXzYTlI1ysm37-fill)" stroke="none" stroke-width="1"/><path id="eXzYTlI1ysm38" d="M157.900000,166.500000C155.400000,166.500000,153.400000,164,153.400000,160.900000C153.400000,157.800000,155.400000,155.300000,157.900000,155.300000C160.400000,155.300000,162.400000,157.800000,162.400000,160.900000C162.400000,164,160.400000,166.500000,157.900000,166.500000ZM157.900000,156.500000C156.100000,156.500000,154.600000,158.400000,154.600000,160.800000C154.600000,163.200000,156.100000,165.100000,157.900000,165.100000C159.700000,165.100000,161.200000,163.200000,161.200000,160.800000C161.200000,158.400000,159.700000,156.500000,157.900000,156.500000Z" fill="rgb(35,40,107)" stroke="none" stroke-width="1"/><path id="eXzYTlI1ysm39" d="M152.500000,159.500000C151,156.900000,148.700000,154.700000,145.600000,153.300000C138.900000,150.200000,127.400000,152.700000,127,161.700000C124.600000,163.900000,125.800000,166.100000,126.600000,168.700000C128.600000,175.600000,132.400000,180.500000,139.800000,181.400000C146.300000,182.200000,153.600000,179.700000,154.600000,172.400000C154.900000,170.700000,154.900000,168.900000,154.800000,167.300000C159.500000,164.500000,156.200000,161.900000,152.500000,159.500000Z" fill="url(#eXzYTlI1ysm39-fill)" stroke="none" stroke-width="1"/><path id="eXzYTlI1ysm40" d="M146.700000,171C143.200000,171,140.300000,168.100000,140.300000,164.600000C140.300000,161.100000,143.200000,158.200000,146.700000,158.200000C150.200000,158.200000,153.100000,161.100000,153.100000,164.600000C153.100000,168.100000,150.200000,171,146.700000,171ZM146.700000,159.400000C143.900000,159.400000,141.500000,161.700000,141.500000,164.600000C141.500000,167.500000,143.800000,169.800000,146.700000,169.800000C149.500000,169.800000,151.900000,167.500000,151.900000,164.600000C151.900000,161.800000,149.600000,159.400000,146.700000,159.400000Z" fill="rgb(35,40,107)" stroke="none" stroke-width="1"/><path id="eXzYTlI1ysm41" d="M135.300000,146.900000C134.100000,146.900000,129.800000,145.500000,127.100000,146.600000C123.700000,148,122.200000,151,118.100000,150.300000C115.100000,149.700000,112.300000,146.700000,109.100000,148C106.700000,149.100000,106,154.200000,103.200000,153C102.800000,152.800000,102.400000,153.100000,102.300000,153.500000C102.200000,156,104.500000,156.100000,105.700000,157.900000C107.500000,160.700000,105.900000,160.800000,105.800000,163.400000C105.800000,166.300000,106.500000,167.400000,109.100000,168.300000C112.400000,169.400000,112.200000,167.400000,113.100000,170.900000C113.800000,173.400000,112,174.600000,115.800000,175.800000C117.600000,176.300000,119.400000,176.300000,121,178.200000C122.600000,180,121.900000,180.500000,123.200000,182.400000C124.200000,183.800000,126.800000,184.800000,128.900000,185.200000C129.600000,185.300000,130.200000,184.900000,130.400000,184.200000C130.900000,181.200000,133.400000,179.500000,135.600000,177.600000C139.600000,174.100000,137.800000,173.200000,137.400000,168.600000C137,164.200000,140.800000,163.300000,141.500000,160C142.200000,157.100000,138.600000,155.100000,142.700000,152.300000C142.100000,150.100000,139.700000,147,135.300000,146.900000Z" fill="url(#eXzYTlI1ysm41-fill)" stroke="none" stroke-width="1"/></g><path id="eXzYTlI1ysm42" d="M154.700000,223.900000C154.600000,223.900000,154.600000,223.900000,154.500000,223.900000C157.100000,223,158.400000,221.400000,160.300000,219.500000C160.600000,219.200000,162,217.900000,163.100000,217.800000C164.800000,217.600000,167.500000,218.500000,168.100000,218.700000C170.600000,219.500000,172.300000,220.600000,174.800000,221.300000C174.900000,222.600000,171.600000,223.700000,170.100000,223.800000C168.300000,224,166.500000,223,164.700000,223C163.800000,223,163.500000,223.300000,162.800000,223.800000C161.200000,225,159.400000,225.700000,157.700000,226.800000C157,227.300000,155.700000,228.400000,154.700000,228.200000C153.700000,228,153.700000,227,153.900000,226.200000C154,225.800000,154.700000,223.900000,154.700000,223.900000Z" transform="matrix(0.99922653135149 -0.03932351768687 0.03932351768687 0.99922653135149 -8.64197051754465 6.63329103535216)" fill="rgb(242,161,156)" stroke="none" stroke-width="1"/><path id="eXzYTlI1ysm43" d="M173,238.200000C172.600000,238.200000,172.200000,237.900000,172.100000,237.500000L160.100000,199C159.900000,198.500000,160.200000,198,160.700000,197.800000C161.200000,197.600000,161.700000,197.900000,161.900000,198.400000L174,236.900000C174.200000,237.400000,173.900000,237.900000,173.400000,238.100000C173.200000,238.100000,173.100000,238.200000,173,238.200000Z" fill="rgb(233,74,71)" stroke="none" stroke-width="1"/><path id="eXzYTlI1ysm44" d="M173.200000,224.400000C175,223,176.600000,218.600000,173.700000,218.700000C171.500000,218.800000,170,218.900000,167.400000,219.700000C162.200000,221.300000,157,223.500000,150.500000,224.400000C141.400000,227.400000,144.300000,233.300000,143.500000,236.700000C146.700000,237.900000,150.500000,236.300000,153.800000,236.100000C157.100000,236,159.400000,237.500000,162.700000,236.500000C163.100000,236.500000,164.100000,236.400000,164.400000,236.400000C165.500000,236.200000,166.500000,235.400000,167.200000,234.500000C167.800000,233.700000,168.100000,233.800000,168.900000,233.600000C169.800000,233.400000,170.200000,232.900000,170.400000,232C170.600000,231.300000,170.300000,230.600000,170.500000,229.800000C170.600000,229,171.300000,228.700000,171.900000,228.300000C173.200000,227.500000,174.300000,226.800000,173.700000,225.100000C173.500000,224.800000,173.400000,224.600000,173.200000,224.400000Z" transform="matrix(1 0 0 1 0.22952271000000 0.30350493999998)" fill="rgb(255,190,182)" stroke="none" stroke-width="1"/><path id="eXzYTlI1ysm45" d="M121.800000,199.500000C118.400000,206.800000,118,208.700000,116.700000,212.500000C115,217.500000,114.100000,222.500000,113.200000,227.400000C122.700000,228,154.800000,223.600000,154.800000,223.600000L154.900000,236.400000C154.900000,236.400000,150.500000,238.200000,147.300000,239.400000C141.200000,241.600000,133.500000,244.900000,127.200000,246.100000C117.900000,247.900000,101.600000,251.100000,94.100000,241.100000C87.100000,231.900000,92.600000,215,96,206C98.200000,200.400000,102,192.300000,106.800000,188.500000C109.400000,186.400000,114.800000,184,120.800000,187.800000C122.700000,189.100000,125.200000,192.400000,121.800000,199.500000Z" transform="matrix(1 0 0 1 0 0.30496099500002)" fill="url(#eXzYTlI1ysm45-fill)" stroke="none" stroke-width="1"/></g><g id="eXzYTlI1ysm46"><rect id="eXzYTlI1ysm47" width="6.500000" height="128.200000" rx="0" ry="0" transform="matrix(1 0 0 1 171.90000000000001 230.09999999999999)" fill="rgb(238,238,238)" stroke="none" stroke-width="1"/><rect id="eXzYTlI1ysm48" width="148.700000" height="41.900000" rx="0" ry="0" transform="matrix(1 0 0 1 171.90000000000001 230.09999999999999)" fill="url(#eXzYTlI1ysm48-fill)" stroke="none" stroke-width="1"/></g><g id="eXzYTlI1ysm49"><rect id="eXzYTlI1ysm50" width="54.600000" height="7.900000" rx="0" ry="0" transform="matrix(1 0 0 1 186.19999999999999 222.40000000000001)" fill="rgb(35,40,107)" stroke="none" stroke-width="1"/><polygon id="eXzYTlI1ysm51" points="307.400000,174.400000 239.500000,174.400000 223.900000,230.400000 291.700000,230.400000" fill="rgb(59,56,115)" stroke="none" stroke-width="1"/><ellipse id="eXzYTlI1ysm52" rx="5.800000" ry="5.800000" transform="matrix(1 0 0 1 267.69999999999999 203.40000000000001)" fill="rgb(35,40,107)" stroke="none" stroke-width="1"/></g><g id="eXzYTlI1ysm53"><path id="eXzYTlI1ysm54" d="M324.800000,208.500000C324.900000,208.300000,325.100000,208.200000,325.200000,208C325.100000,208,325,208,324.900000,208C326.100000,203,323.700000,197.800000,320.300000,193.900000C318.800000,192.200000,317,190.600000,314.900000,189.900000C312.600000,189.200000,310.200000,189.500000,307.900000,190.100000C301.200000,191.800000,295,195.500000,290.200000,200.500000C288.700000,202.100000,287.200000,204.300000,287.600000,206.500000C288.100000,209,290.900000,211.200000,289.700000,213.500000C288.500000,215.800000,284.500000,215,283.100000,217.100000C280.900000,220.400000,287.800000,224.400000,286,228C285.100000,229.800000,282.600000,230,280.700000,230.800000C277.100000,232.400000,275.700000,237.500000,277.900000,240.700000C279.900000,243.600000,284.300000,245.600000,283.500000,249C283.200000,250.200000,282.300000,251.100000,281.400000,252C278.600000,254.900000,276.100000,258.200000,274.900000,262.100000C273.700000,265.900000,273.900000,270.400000,276,273.800000C277.100000,275.500000,278.700000,276.900000,280.300000,278.200000C288.300000,284.700000,291.400000,291.500000,297.800000,299.600000C301.800000,304.600000,310.700000,336.900000,312.900000,346C314.500000,332.800000,318.300000,293.500000,319.900000,291.300000C321.500000,289.100000,322.300000,286.100000,321,283.700000C320,282,318.100000,281.100000,316.500000,279.900000C314.900000,278.800000,313.400000,277,313.800000,275C314,274.100000,314.500000,273.300000,315.100000,272.600000C316.900000,270.400000,319.100000,268.300000,320.400000,265.800000C321.700000,263.300000,322.100000,259.900000,320.400000,257.600000C318.800000,255.400000,315.700000,254.400000,313.300000,253.100000C315.300000,251.500000,318.400000,250.500000,320.100000,248.400000C321.400000,246.900000,321.900000,244.700000,321.300000,242.700000C320.700000,240.600000,319.200000,239.100000,317.900000,237.300000C318.200000,236.300000,318.100000,235.300000,317.500000,234.400000C317.200000,233.900000,316.800000,233.500000,316.300000,233.200000C316.200000,232.200000,316.500000,231.200000,317.100000,230.400000C318.100000,229.200000,319.900000,228.900000,321,227.800000C322.800000,226.100000,322.200000,222.500000,319.900000,221.500000C318.600000,220.900000,316.600000,220.800000,316.400000,219.300000C316.400000,219.100000,316.400000,219,316.400000,218.800000C319.900000,215.800000,323.600000,212.800000,324.800000,208.500000Z" fill="url(#eXzYTlI1ysm54-fill)" stroke="none" stroke-width="1"/><path id="eXzYTlI1ysm55" d="M342.500000,284.200000C341.600000,281.800000,339.400000,280,338.900000,277.500000C338.300000,273.900000,341.500000,270.800000,343.500000,267.800000C346.600000,263.200000,347.300000,257,345.400000,251.800000C343.500000,246.600000,338.900000,242.400000,333.500000,241C330.100000,240.100000,326.300000,240.200000,323.300000,238.400000C319.200000,235.900000,315.800000,230,311.300000,231.600000C308.100000,232.700000,307.400000,237.100000,308.400000,240.300000C309.500000,243.500000,311.700000,246.200000,312.700000,249.500000C314.600000,255.700000,311.600000,262.100000,309.200000,268.100000C306.800000,274.100000,305.200000,281.500000,309.200000,286.500000C311.200000,289,314.300000,290.600000,315.400000,293.500000C316.900000,297.500000,314.100000,301.700000,312.700000,305.700000C310.100000,313.200000,313.100000,322.300000,319.600000,326.900000C319.800000,317.300000,324.300000,307.900000,331.600000,301.700000C334.400000,299.300000,337.600000,297.300000,340.100000,294.500000C342.400000,291.600000,343.900000,287.600000,342.500000,284.200000Z" fill="url(#eXzYTlI1ysm55-fill)" stroke="none" stroke-width="1"/><path id="eXzYTlI1ysm56" d="M309.300000,341.400000C309.200000,341.400000,309.200000,341.400000,309.300000,341.400000C309,341.400000,308.800000,341.100000,308.900000,340.900000C311,326.200000,314.100000,312.400000,318.200000,299.800000C318.300000,299.600000,318.500000,299.400000,318.700000,299.500000C318.900000,299.600000,319.100000,299.800000,319,300C314.900000,312.500000,311.800000,326.200000,309.800000,340.900000C309.700000,341.300000,309.500000,341.400000,309.300000,341.400000Z" fill="rgb(35,40,107)" stroke="none" stroke-width="1"/><path id="eXzYTlI1ysm57" d="M313.400000,294C314.600000,292.200000,318.100000,292.300000,321,294.300000C324,296.300000,325.300000,299.400000,324.100000,301.300000C322.900000,303.100000,319.400000,303,316.500000,301C313.600000,299,312.200000,295.900000,313.400000,294Z" fill="rgb(198,221,254)" stroke="none" stroke-width="1"/><path id="eXzYTlI1ysm58" d="M319.400000,297.700000C319.400000,297.700000,319.300000,297.700000,319.300000,297.700000C319.100000,297.600000,319,297.400000,319,297.100000C321.100000,291,323.500000,285,326.100000,279.400000C326.200000,279.200000,326.500000,279.100000,326.700000,279.200000C326.900000,279.300000,327,279.600000,326.900000,279.800000C324.300000,285.400000,321.900000,291.300000,319.900000,297.400000C319.800000,297.600000,319.600000,297.700000,319.400000,297.700000Z" fill="rgb(35,40,107)" stroke="none" stroke-width="1"/><path id="eXzYTlI1ysm59" d="M319.500000,271.800000C320.700000,270,325.400000,270.900000,329.800000,274C334.300000,277,336.900000,281,335.600000,282.800000C334.400000,284.600000,329.700000,283.700000,325.300000,280.600000C320.900000,277.600000,318.300000,273.700000,319.500000,271.800000Z" fill="rgb(198,221,254)" stroke="none" stroke-width="1"/><path id="eXzYTlI1ysm60" d="M327.400000,278.100000C327.300000,278.100000,327.300000,278.100000,327.200000,278.100000C327,278,326.900000,277.700000,327,277.500000C327.800000,275.900000,328.600000,274.200000,329.400000,272.600000C331.700000,268.200000,334.200000,263.900000,336.800000,259.900000C336.900000,259.700000,337.200000,259.600000,337.400000,259.800000C337.600000,259.900000,337.700000,260.200000,337.500000,260.400000C334.900000,264.500000,332.400000,268.700000,330.200000,273.100000C329.400000,274.700000,328.600000,276.300000,327.800000,278C327.700000,278,327.600000,278.100000,327.400000,278.100000Z" fill="rgb(35,40,107)" stroke="none" stroke-width="1"/><path id="eXzYTlI1ysm61" d="M329.800000,250.400000C331.300000,248.900000,335.900000,251.200000,340.200000,255.500000C344.500000,259.800000,346.800000,264.500000,345.300000,266C343.800000,267.500000,339.200000,265.200000,334.900000,260.900000C330.600000,256.500000,328.400000,251.800000,329.800000,250.400000Z" fill="rgb(198,221,254)" stroke="none" stroke-width="1"/><path id="eXzYTlI1ysm62" d="M338.600000,258.400000C338.500000,258.400000,338.400000,258.400000,338.400000,258.300000C338.200000,258.200000,338.100000,257.900000,338.300000,257.700000C341.800000,252.400000,345.700000,247.400000,349.700000,242.800000C349.900000,242.600000,350.100000,242.600000,350.300000,242.800000C350.500000,243,350.500000,243.200000,350.300000,243.400000C346.300000,248,342.400000,253,338.900000,258.200000C338.900000,258.400000,338.700000,258.400000,338.600000,258.400000Z" fill="rgb(35,40,107)" stroke="none" stroke-width="1"/><path id="eXzYTlI1ysm63" d="M345.800000,228C348.400000,226.900000,353.200000,232.100000,356.500000,239.700000C359.800000,247.300000,360.400000,254.400000,357.800000,255.500000C355.200000,256.600000,350.400000,251.400000,347.100000,243.800000C343.800000,236.200000,343.200000,229.100000,345.800000,228Z" fill="rgb(198,221,254)" stroke="none" stroke-width="1"/><path id="eXzYTlI1ysm64" d="M352.100000,241.300000C352,241.300000,351.900000,241.300000,351.800000,241.200000C351.600000,241,351.600000,240.800000,351.800000,240.600000C356,236.100000,360.400000,231.900000,365.100000,228.100000C365.300000,227.900000,365.600000,228,365.700000,228.200000C365.900000,228.400000,365.800000,228.700000,365.600000,228.800000C361,232.500000,356.600000,236.700000,352.400000,241.200000C352.300000,241.200000,352.200000,241.300000,352.100000,241.300000Z" fill="rgb(35,40,107)" stroke="none" stroke-width="1"/><path id="eXzYTlI1ysm65" d="M356.100000,213.200000C358.300000,211.400000,365,215.900000,371.200000,223.400000C377.300000,230.800000,380.500000,238.300000,378.400000,240.100000C376.200000,241.900000,369.500000,237.400000,363.300000,229.900000C357.100000,222.400000,353.900000,215,356.100000,213.200000Z" fill="rgb(198,221,254)" stroke="none" stroke-width="1"/><path id="eXzYTlI1ysm66" d="M367.600000,227C367.500000,227,367.300000,226.900000,367.300000,226.800000C367.200000,226.600000,367.200000,226.300000,367.400000,226.200000C370.400000,223.800000,373.600000,221.600000,376.800000,219.600000C377,219.500000,377.300000,219.500000,377.400000,219.700000C377.500000,219.900000,377.500000,220.200000,377.300000,220.300000C374.100000,222.300000,371,224.500000,368,226.800000C367.800000,227,367.700000,227,367.600000,227Z" fill="rgb(35,40,107)" stroke="none" stroke-width="1"/><path id="eXzYTlI1ysm67" d="M317,349.800000L315.400000,345C315.300000,344.800000,315.400000,344.500000,315.700000,344.500000C315.800000,344.500000,315.800000,344.500000,315.900000,344.500000C314.900000,321.300000,314.300000,294.200000,317.400000,266.600000C317.500000,265.300000,317.700000,264,317.900000,262.700000C317.900000,262.500000,318.100000,262.300000,318.400000,262.300000C318.600000,262.300000,318.800000,262.500000,318.800000,262.800000C318.600000,264.100000,318.500000,265.400000,318.300000,266.700000C315.100000,295.100000,315.800000,323.100000,316.900000,346.700000L317,349.800000Z" fill="rgb(29,114,216)" stroke="none" stroke-width="1"/><path id="eXzYTlI1ysm68" d="M312.400000,262.800000C312.100000,261.600000,314.400000,259.900000,317.500000,259.100000C320.700000,258.200000,323.500000,258.500000,323.800000,259.700000C324.100000,260.900000,321.800000,262.600000,318.700000,263.400000C315.600000,264.200000,312.800000,263.900000,312.400000,262.800000Z" fill="rgb(35,40,107)" stroke="none" stroke-width="1"/><path id="eXzYTlI1ysm69" d="M318.500000,261.200000C318.500000,261.200000,318.400000,261.200000,318.500000,261.200000C318.200000,261.200000,318,260.900000,318.100000,260.700000C319.200000,252.600000,320.500000,244.700000,322.200000,237.200000C322.300000,237,322.500000,236.800000,322.700000,236.900000C322.900000,237,323.100000,237.200000,323,237.400000C321.400000,244.900000,320,252.800000,318.900000,260.800000C318.900000,261,318.700000,261.200000,318.500000,261.200000Z" fill="rgb(29,114,216)" stroke="none" stroke-width="1"/><path id="eXzYTlI1ysm70" d="M315,238C314.700000,236.800000,317.600000,235,321.600000,233.900000C325.600000,232.800000,329.100000,232.900000,329.400000,234.100000C329.700000,235.300000,326.800000,237.100000,322.800000,238.200000C318.900000,239.200000,315.400000,239.100000,315,238Z" fill="rgb(35,40,107)" stroke="none" stroke-width="1"/><path id="eXzYTlI1ysm71" d="M323,235.800000C322.900000,235.800000,322.900000,235.800000,323,235.800000C322.700000,235.700000,322.500000,235.500000,322.600000,235.300000C324.200000,228.500000,326,221.800000,328,215.400000C328.100000,215.200000,328.300000,215,328.500000,215.100000C328.700000,215.200000,328.900000,215.400000,328.800000,215.600000C326.800000,222,324.900000,228.600000,323.400000,235.500000C323.300000,235.700000,323.200000,235.800000,323,235.800000Z" fill="rgb(29,114,216)" stroke="none" stroke-width="1"/><ellipse id="eXzYTlI1ysm72" rx="3.500000" ry="9.500000" transform="matrix(0.08585200000000 -0.99630000000000 0.99630000000000 0.08585200000000 328.25315159999991 213.77186759999995)" fill="rgb(35,40,107)" stroke="none" stroke-width="1"/><path id="eXzYTlI1ysm73" d="M329.200000,213.500000C329.200000,213.500000,329.100000,213.500000,329.100000,213.500000C328.900000,213.400000,328.700000,213.200000,328.800000,212.900000C330.300000,208.300000,332,203.900000,333.800000,199.500000C333.900000,199.300000,334.100000,199.200000,334.400000,199.300000C334.600000,199.400000,334.700000,199.600000,334.600000,199.900000C332.800000,204.200000,331.200000,208.700000,329.600000,213.200000C329.500000,213.300000,329.400000,213.500000,329.200000,213.500000Z" fill="rgb(29,114,216)" stroke="none" stroke-width="1"/><path id="eXzYTlI1ysm74" d="M324.800000,196.200000C325.100000,194.400000,329.700000,193.700000,335.100000,194.600000C340.500000,195.500000,344.600000,197.600000,344.300000,199.300000C344,201.100000,339.400000,201.800000,334,200.900000C328.600000,200.100000,324.500000,198,324.800000,196.200000Z" fill="rgb(35,40,107)" stroke="none" stroke-width="1"/><path id="eXzYTlI1ysm75" d="M335,198C334.900000,198,334.900000,198,334.800000,198C334.600000,197.900000,334.500000,197.700000,334.600000,197.400000C335.800000,194.700000,337,192,338.200000,189.400000C338.600000,188.600000,339,187.800000,339.400000,187C339.500000,186.800000,339.800000,186.700000,340,186.800000C340.200000,186.900000,340.300000,187.200000,340.200000,187.400000C339.800000,188.200000,339.400000,189,339,189.800000C337.700000,192.400000,336.500000,195.100000,335.400000,197.800000C335.400000,197.900000,335.200000,198,335,198Z" fill="rgb(29,114,216)" stroke="none" stroke-width="1"/><path id="eXzYTlI1ysm76" d="M328.800000,183.500000C329.100000,181.400000,334.400000,180.400000,340.500000,181.400000C346.700000,182.400000,351.400000,184.900000,351,187C350.700000,189.100000,345.400000,190.100000,339.300000,189.100000C333.200000,188.200000,328.500000,185.600000,328.800000,183.500000Z" fill="rgb(35,40,107)" stroke="none" stroke-width="1"/><path id="eXzYTlI1ysm77" d="M341.300000,184.700000C341.200000,184.700000,341.200000,184.700000,341.100000,184.600000C340.900000,184.500000,340.800000,184.200000,340.900000,184C341.900000,182,343,180.100000,344.100000,178.200000C344.200000,178,344.500000,177.900000,344.700000,178C344.900000,178.100000,345,178.400000,344.900000,178.600000C343.800000,180.500000,342.800000,182.400000,341.800000,184.400000C341.600000,184.600000,341.500000,184.700000,341.300000,184.700000Z" fill="rgb(29,114,216)" stroke="none" stroke-width="1"/><rect id="eXzYTlI1ysm78" width="34.100000" height="43.100000" rx="0" ry="0" transform="matrix(1 0 0 1 297 313.80000000000001)" fill="url(#eXzYTlI1ysm78-fill)" stroke="none" stroke-width="1"/></g><g id="eXzYTlI1ysm79"><path id="eXzYTlI1ysm80" d="M70.900000,125.600000L41.200000,122.800000C43.200000,120.800000,44.300000,116.400000,44.600000,110L44.600000,105L71,105L71,125.600000Z" fill="url(#eXzYTlI1ysm80-fill)" stroke="none" stroke-width="1"/><rect id="eXzYTlI1ysm81" width="26.400000" height="4.500000" rx="0" ry="0" transform="matrix(1 0 0 1 44.60000000000000 105)" fill="rgb(194,216,253)" stroke="none" stroke-width="1"/><path id="eXzYTlI1ysm82" d="M101.900000,107.500000C95.600000,110.400000,89.900000,117.200000,75.300000,116.900000C73.900000,112.100000,73.400000,107.600000,72.600000,101.200000L71.800000,96.200000L96.800000,92L97.700000,97.500000C97.400000,102.200000,98.500000,105.700000,101.900000,107.500000Z" fill="url(#eXzYTlI1ysm82-fill)" stroke="none" stroke-width="1"/><polygon id="eXzYTlI1ysm83" points="71.800000,96.200000 96.900000,92.100000 97.600000,96.500000 72.600000,100.700000" fill="rgb(161,195,252)" stroke="none" stroke-width="1"/><path id="eXzYTlI1ysm84" d="M62.500000,113.500000C61.700000,113.500000,61.200000,112.900000,60.800000,112.400000L60.200000,113C60.100000,113.100000,59.900000,113.200000,59.800000,113.100000C59.700000,113.100000,59.500000,113,59.400000,112.900000C59,112.300000,58.500000,111.600000,57.900000,111.600000C57.600000,111.600000,57.300000,111.800000,57,112C56.600000,112.300000,56.200000,112.500000,55.600000,112.600000C55.300000,112.600000,55.100000,112.400000,55.100000,112.200000L55,111.500000C54.900000,111.600000,54.700000,111.700000,54.600000,111.700000C53.900000,112,53.200000,112,52.600000,112L46.700000,111.800000C46.400000,111.800000,46.200000,111.600000,46.200000,111.300000C46.200000,111,46.400000,110.800000,46.700000,110.800000L52.600000,111C53.100000,111,53.700000,111,54.100000,110.800000C54.400000,110.700000,54.700000,110.300000,54.700000,110L54.700000,109.900000C54.700000,109.600000,54.800000,109.400000,55.100000,109.300000C55.400000,109.300000,55.600000,109.400000,55.700000,109.700000C55.700000,109.800000,55.700000,109.800000,55.700000,109.900000L55.900000,111.500000C56.100000,111.400000,56.200000,111.300000,56.400000,111.200000C56.800000,110.900000,57.200000,110.700000,57.800000,110.600000C58.700000,110.600000,59.400000,111.200000,59.900000,111.900000L60.600000,111.300000C60.700000,111.200000,60.900000,111.100000,61,111.200000C61.200000,111.200000,61.300000,111.300000,61.400000,111.500000C61.800000,112.300000,62.100000,112.700000,62.500000,112.700000C62.700000,112.700000,62.900000,112.600000,63.100000,112.500000L65,111.600000C65.200000,111.500000,65.500000,111.600000,65.700000,111.800000C65.800000,112.100000,65.700000,112.400000,65.500000,112.500000L63.600000,113.400000C63.300000,113.300000,63,113.500000,62.500000,113.500000C62.600000,113.500000,62.500000,113.500000,62.500000,113.500000Z" fill="rgb(233,74,71)" stroke="none" stroke-width="1"/><path id="eXzYTlI1ysm85" d="M60.600000,121C60.500000,121,60.500000,121,60.400000,121C58.500000,120.300000,56.900000,118.900000,56,117.200000C55.900000,117.100000,55.800000,116.900000,55.800000,116.800000C55.800000,116.800000,55.700000,116.800000,55.300000,117.100000L52.600000,119.400000C52.500000,119.500000,52.100000,119.800000,51.700000,119.700000C51.200000,119.600000,51,119.100000,50.900000,118.900000L50.100000,116.900000C48.900000,117.500000,47.800000,118.500000,47.100000,119.800000C47,120,46.700000,120.100000,46.400000,120C46.200000,119.900000,46.100000,119.600000,46.200000,119.300000C47.100000,117.700000,48.500000,116.400000,50.100000,115.800000C50.200000,115.800000,50.400000,115.800000,50.500000,115.800000C50.600000,115.900000,50.700000,116,50.800000,116.100000L51.800000,118.600000C51.800000,118.600000,51.800000,118.700000,51.800000,118.700000C51.800000,118.700000,51.800000,118.700000,51.900000,118.600000L54.600000,116.300000C54.800000,116.100000,55.400000,115.600000,56.100000,115.900000C56.500000,116.100000,56.700000,116.400000,56.900000,116.700000C57.600000,118.100000,58.800000,119.200000,60.300000,119.900000C60.500000,119.100000,60.900000,118.300000,61.300000,117.600000C61.400000,117.400000,61.800000,117.300000,62,117.400000C62.200000,117.500000,62.300000,117.900000,62.200000,118.100000C61.700000,118.900000,61.400000,119.700000,61.200000,120.600000C61.200000,120.700000,61.100000,120.900000,61,120.900000C60.800000,121,60.700000,121,60.600000,121Z" fill="rgb(233,74,71)" stroke="none" stroke-width="1"/><path id="eXzYTlI1ysm86" d="M86.600000,107.500000C85.700000,107.500000,85,106.700000,84.800000,105.800000C83.900000,106.100000,82.900000,106.300000,81.900000,106.400000C80,106.500000,78.300000,106.100000,77.100000,105C76.900000,104.800000,76.900000,104.500000,77.100000,104.300000C77.300000,104.100000,77.600000,104.100000,77.800000,104.300000C78.800000,105.200000,80.200000,105.600000,81.800000,105.400000C82.800000,105.300000,83.800000,105.100000,84.800000,104.700000C84.900000,104.200000,85.100000,103.700000,85.200000,103.300000C85.300000,103.100000,85.400000,103,85.600000,103C85.800000,103,86,103.100000,86.100000,103.300000L86.800000,104.500000C86.900000,104.600000,86.900000,104.800000,86.800000,104.900000C86.700000,105,86.600000,105.100000,86.500000,105.200000C86.200000,105.300000,86,105.400000,85.700000,105.500000C85.700000,105.500000,85.700000,105.500000,85.700000,105.600000C85.800000,106.100000,86.200000,106.600000,86.600000,106.500000C86.900000,106.500000,87.200000,106.200000,87.500000,105.900000C88.400000,104.900000,89.200000,103.800000,89.800000,102.700000C89.900000,102.500000,90.100000,102.400000,90.300000,102.500000C90.500000,102.500000,90.700000,102.700000,90.700000,103C90.700000,103.100000,90.800000,103.200000,90.900000,103.300000C91.100000,103.400000,91.400000,103.500000,91.700000,103.400000C92.200000,103.200000,92.600000,102.800000,93,102.200000C93.200000,102,93.500000,101.900000,93.700000,102.100000C93.900000,102.300000,94,102.600000,93.800000,102.800000C93.400000,103.300000,92.800000,104,92,104.300000C91.500000,104.500000,90.900000,104.400000,90.400000,104.100000C90.300000,104.100000,90.300000,104,90.300000,104C89.700000,104.900000,89,105.800000,88.300000,106.600000C87.900000,107.100000,87.400000,107.500000,86.700000,107.600000C86.700000,107.500000,86.600000,107.500000,86.600000,107.500000Z" fill="rgb(35,40,107)" stroke="none" stroke-width="1"/></g></g><script><![CDATA[!function(t,n){"object"==typeof exports&&"undefined"!=typeof module?module.exports=n():"function"==typeof define&&define.amd?define(n):(t="undefined"!=typeof globalThis?globalThis:t||self).__SVGATOR_PLAYER__=n()}(this,(function(){"use strict";function t(n){return(t="function"==typeof Symbol&&"symbol"==typeof Symbol.iterator?function(t){return typeof t}:function(t){return t&&"function"==typeof Symbol&&t.constructor===Symbol&&t!==Symbol.prototype?"symbol":typeof t})(n)}function n(t,n){if(!(t instanceof n))throw new TypeError("Cannot call a class as a function")}function e(t,n){for(var e=0;e<n.length;e++){var r=n[e];r.enumerable=r.enumerable||!1,r.configurable=!0,"value"in r&&(r.writable=!0),Object.defineProperty(t,r.key,r)}}function r(t,n,r){return n&&e(t.prototype,n),r&&e(t,r),t}function i(t){return(i=Object.setPrototypeOf?Object.getPrototypeOf:function(t){return t.__proto__||Object.getPrototypeOf(t)})(t)}function u(t,n){return(u=Object.setPrototypeOf||function(t,n){return t.__proto__=n,t})(t,n)}function o(t,n){return!n||"object"!=typeof n&&"function"!=typeof n?function(t){if(void 0===t)throw new ReferenceError("this hasn't been initialised - super() hasn't been called");return t}(t):n}function a(t){var n=function(){if("undefined"==typeof Reflect||!Reflect.construct)return!1;if(Reflect.construct.sham)return!1;if("function"==typeof Proxy)return!0;try{return Boolean.prototype.valueOf.call(Reflect.construct(Boolean,[],(function(){}))),!0}catch(t){return!1}}();return function(){var e,r=i(t);if(n){var u=i(this).constructor;e=Reflect.construct(r,arguments,u)}else e=r.apply(this,arguments);return o(this,e)}}function l(t,n,e){return(l="undefined"!=typeof Reflect&&Reflect.get?Reflect.get:function(t,n,e){var r=function(t,n){for(;!Object.prototype.hasOwnProperty.call(t,n)&&null!==(t=i(t)););return t}(t,n);if(r){var u=Object.getOwnPropertyDescriptor(r,n);return u.get?u.get.call(e):u.value}})(t,n,e||t)}var s=Math.abs;function f(t){return t}function c(t,n,e){var r=1-e;return 3*e*r*(t*r+n*e)+e*e*e}function h(){var t=arguments.length>0&&void 0!==arguments[0]?arguments[0]:0,n=arguments.length>1&&void 0!==arguments[1]?arguments[1]:0,e=arguments.length>2&&void 0!==arguments[2]?arguments[2]:1,r=arguments.length>3&&void 0!==arguments[3]?arguments[3]:1;return t<0||t>1||e<0||e>1?null:s(t-n)<=1e-5&&s(e-r)<=1e-5?f:function(i){if(i<=0)return t>0?i*n/t:0===n&&e>0?i*r/e:0;if(i>=1)return e<1?1+(i-1)*(r-1)/(e-1):1===e&&t<1?1+(i-1)*(n-1)/(t-1):1;for(var u,o=0,a=1;o<a;){var l=c(t,e,u=(o+a)/2);if(s(i-l)<1e-5)break;l<i?o=u:a=u}return c(n,r,u)}}function v(){return 1}function d(t){return 1===t?1:0}function y(){var t=arguments.length>0&&void 0!==arguments[0]?arguments[0]:1,n=arguments.length>1&&void 0!==arguments[1]?arguments[1]:0;if(1===t){if(0===n)return d;if(1===n)return v}var e=1/t;return function(t){return t>=1?1:(t+=n*e)-t%e}}function g(t){var n=arguments.length>1&&void 0!==arguments[1]?arguments[1]:2;if(Number.isInteger(t))return t;var e=Math.pow(10,n);return Math.round(t*e)/e}var p=Math.PI/180;function m(t,n,e){return t>=.5?e:n}function b(t,n,e){return 0===t||n===e?n:t*(e-n)+n}function w(t,n,e){var r=b(t,n,e);return r<=0?0:r}function x(t,n,e){return 0===t?n:1===t?e:{x:b(t,n.x,e.x),y:b(t,n.y,e.y)}}function A(t,n,e){return 0===t?n:1===t?e:{x:w(t,n.x,e.x),y:w(t,n.y,e.y)}}function k(t,n,e){var r=function(t,n,e){return Math.round(b(t,n,e))}(t,n,e);return r<=0?0:r>=255?255:r}function _(t,n,e){return 0===t?n:1===t?e:{r:k(t,n.r,e.r),g:k(t,n.g,e.g),b:k(t,n.b,e.b),a:b(t,null==n.a?1:n.a,null==e.a?1:e.a)}}function S(t,n,e){if(0===t)return n;if(1===t)return e;var r=n.length;if(r!==e.length)return m(t,n,e);for(var i=[],u=0;u<r;u++)i.push(_(t,n[u],e[u]));return i}function M(t,n,e){var r=n.length;if(r!==e.length)return m(t,n,e);for(var i=new Array(r),u=0;u<r;u++)i[u]=b(t,n[u],e[u]);return i}function O(t,n){for(var e=[],r=0;r<t;r++)e.push(n);return e}function E(t,n){if(--n<=0)return t;var e=(t=Object.assign([],t)).length;do{for(var r=0;r<e;r++)t.push(t[r])}while(--n>0);return t}var B,I=function(){function t(e){n(this,t),this.list=e,this.length=e.length}return r(t,[{key:"setAttribute",value:function(t,n){for(var e=this.list,r=0;r<this.length;r++)e[r].setAttribute(t,n)}},{key:"removeAttribute",value:function(t){for(var n=this.list,e=0;e<this.length;e++)n[e].removeAttribute(t)}},{key:"style",value:function(t,n){for(var e=this.list,r=0;r<this.length;r++)e[r].style[t]=n}}]),t}(),j=/-./g,P=function(t,n){return n.toUpperCase()};function T(t){return"function"==typeof t?t:m}function F(t){return t?"function"==typeof t?t:Array.isArray(t)?function(t){var n=arguments.length>1&&void 0!==arguments[1]?arguments[1]:f;if(!Array.isArray(t))return n;switch(t.length){case 1:return y(t[0])||n;case 2:return y(t[0],t[1])||n;case 4:return h(t[0],t[1],t[2],t[3])||n}return n}(t,null):function(t,n){var e=arguments.length>2&&void 0!==arguments[2]?arguments[2]:f;switch(t){case"linear":return f;case"steps":return y(n.steps||1,n.jump||0)||e;case"bezier":case"cubic-bezier":return h(n.x1||0,n.y1||0,n.x2||0,n.y2||0)||e}return e}(t.type,t.value,null):null}function R(t,n,e){var r=arguments.length>3&&void 0!==arguments[3]&&arguments[3],i=n.length-1;if(t<=n[0].t)return r?[0,0,n[0].v]:n[0].v;if(t>=n[i].t)return r?[i,1,n[i].v]:n[i].v;var u,o=n[0],a=null;for(u=1;u<=i;u++){if(!(t>n[u].t)){a=n[u];break}o=n[u]}return null==a?r?[i,1,n[i].v]:n[i].v:o.t===a.t?r?[u,1,a.v]:a.v:(t=(t-o.t)/(a.t-o.t),o.e&&(t=o.e(t)),r?[u,t,e(t,o.v,a.v)]:e(t,o.v,a.v))}function C(t,n){var e=arguments.length>2&&void 0!==arguments[2]?arguments[2]:null;return t&&t.length?"function"!=typeof n?null:("function"!=typeof e&&(e=null),function(r){var i=R(r,t,n);return null!=i&&e&&(i=e(i)),i}):null}function N(t,n){return t.t-n.t}function q(n,e,r,i,u){var o,a="@"===r[0],l="#"===r[0],s=B[r],f=m;switch(a?(o=r.substr(1),r=o.replace(j,P)):l&&(r=r.substr(1)),t(s)){case"function":if(f=s(i,u,R,F,r,a,e,n),l)return f;break;case"string":f=C(i,T(s));break;case"object":if((f=C(i,T(s.i),s.f))&&"function"==typeof s.u)return s.u(e,f,r,a,n)}return f?function(t,n,e){var r=arguments.length>3&&void 0!==arguments[3]&&arguments[3];if(r)return t instanceof I?function(r){return t.style(n,e(r))}:function(r){return t.style[n]=e(r)};if(Array.isArray(n)){var i=n.length;return function(r){var u=e(r);if(null==u)for(var o=0;o<i;o++)t[o].removeAttribute(n);else for(var a=0;a<i;a++)t[a].setAttribute(n,u)}}return function(r){var i=e(r);null==i?t.removeAttribute(n):t.setAttribute(n,i)}}(e,r,f,a):null}function V(n,e,r,i){if(!i||"object"!==t(i))return null;var u=null,o=null;return Array.isArray(i)?o=function(t){if(!t||!t.length)return null;for(var n=0;n<t.length;n++)t[n].e&&(t[n].e=F(t[n].e));return t.sort(N)}(i):(o=i.keys,u=i.data||null),o?q(n,e,r,o,u):null}function L(t,n,e){if(!e)return null;var r=[];for(var i in e)if(e.hasOwnProperty(i)){var u=V(t,n,i,e[i]);u&&r.push(u)}return r.length?r:null}function z(t,n){if(!n.duration||n.duration<0)return null;var e=function(t,n){if(!n)return null;var e=[];if(Array.isArray(n))for(var r=n.length,i=0;i<r;i++){var u=n[i];if(2===u.length){var o=null;if("string"==typeof u[0])o=t.getElementById(u[0]);else if(Array.isArray(u[0])){o=[];for(var a=0;a<u[0].length;a++)if("string"==typeof u[0][a]){var l=t.getElementById(u[0][a]);l&&o.push(l)}o=o.length?1===o.length?o[0]:new I(o):null}if(o){var s=L(t,o,u[1]);s&&(e=e.concat(s))}}}else for(var f in n)if(n.hasOwnProperty(f)){var c=t.getElementById(f);if(c){var h=L(t,c,n[f]);h&&(e=e.concat(h))}}return e.length?e:null}(t,n.elements);return e?function(t,n){var e=arguments.length>2&&void 0!==arguments[2]?arguments[2]:1/0,r=arguments.length>3&&void 0!==arguments[3]?arguments[3]:1,i=arguments.length>4&&void 0!==arguments[4]&&arguments[4],u=arguments.length>5&&void 0!==arguments[5]?arguments[5]:1,o=t.length,a=r>0?n:0;i&&e%2==0&&(a=n-a);var l=null;return function(s,f){var c=s%n,h=1+(s-c)/n;f*=r,i&&h%2==0&&(f=-f);var v=!1;if(h>e)c=a,v=!0,-1===u&&(c=r>0?0:n);else if(f<0&&(c=n-c),c===l)return!1;l=c;for(var d=0;d<o;d++)t[d](c);return v}}(e,n.duration,n.iterations||1/0,n.direction||1,!!n.alternate,n.fill||1):null}var D=function(){function t(e,r){var i=arguments.length>2&&void 0!==arguments[2]?arguments[2]:{};n(this,t),this._id=0,this._running=!1,this._rollingBack=!1,this._animations=e,this.duration=r.duration,this.alternate=r.alternate,this.fill=r.fill,this.iterations=r.iterations,this.direction=i.direction||1,this.speed=i.speed||1,this.fps=i.fps||100,this.offset=i.offset||0,this.rollbackStartOffset=0}return r(t,[{key:"_rollback",value:function(){var t=this,n=1/0,e=null;this.rollbackStartOffset=this.offset,this._rollingBack||(this._rollingBack=!0,this._running=!0);this._id=window.requestAnimationFrame((function r(i){if(t._rollingBack){null==e&&(e=i);var u=i-e,o=t.rollbackStartOffset-u,a=Math.round(o*t.speed);if(a>t.duration&&n!=1/0){var l=!!t.alternate&&a/t.duration%2>1,s=a%t.duration;a=(s+=l?t.duration:0)||t.duration}var f=t.fps?1e3/t.fps:0,c=Math.max(0,a);if(c<n-f){t.offset=c,n=c;for(var h=t._animations,v=h.length,d=0;d<v;d++)h[d](c,t.direction)}var y=!1;if(t.iterations>0&&-1===t.fill){var g=t.iterations*t.duration,p=g==a;a=p?0:a,t.offset=p?0:t.offset,y=a>g}a>0&&t.offset>=a&&!y?t._id=window.requestAnimationFrame(r):t.stop()}}))}},{key:"_start",value:function(){var t=this,n=arguments.length>0&&void 0!==arguments[0]?arguments[0]:0,e=-1/0,r=null,i={},u=function u(o){t._running=!0,null==r&&(r=o);var a=Math.round((o-r+n)*t.speed),l=t.fps?1e3/t.fps:0;if(a>e+l&&!t._rollingBack){t.offset=a,e=a;for(var s=t._animations,f=s.length,c=0,h=0;h<f;h++)i[h]?c++:(i[h]=s[h](a,t.direction),i[h]&&c++);if(c===f)return void t._stop()}t._id=window.requestAnimationFrame(u)};this._id=window.requestAnimationFrame(u)}},{key:"_stop",value:function(){this._id&&window.cancelAnimationFrame(this._id),this._running=!1,this._rollingBack=!1}},{key:"play",value:function(){!this._rollingBack&&this._running||(this._rollingBack=!1,this.rollbackStartOffset>this.duration&&(this.offset=this.rollbackStartOffset-(this.rollbackStartOffset-this.offset)%this.duration,this.rollbackStartOffset=0),this._start(this.offset))}},{key:"stop",value:function(){this._stop(),this.offset=0,this.rollbackStartOffset=0;var t=this.direction,n=this._animations;window.requestAnimationFrame((function(){for(var e=0;e<n.length;e++)n[e](0,t)}))}},{key:"reachedToEnd",value:function(){return this.iterations>0&&this.offset>=this.iterations*this.duration}},{key:"restart",value:function(){this._stop(),this.offset=0,this._start()}},{key:"pause",value:function(){this._stop()}},{key:"reverse",value:function(){this.direction=-this.direction}}],[{key:"build",value:function(n,e){return(n=function(t,n){if(B=n,!t||!t.root||!Array.isArray(t.animations))return null;for(var e=document.getElementsByTagName("svg"),r=!1,i=0;i<e.length;i++)if(e[i].id===t.root&&!e[i].svgatorAnimation){(r=e[i]).svgatorAnimation=!0;break}if(!r)return null;var u=t.animations.map((function(t){return z(r,t)})).filter((function(t){return!!t}));return u.length?{element:r,animations:u,animationSettings:t.animationSettings,options:t.options||void 0}:null}(n,e))?{el:n.element,options:n.options||{},player:new t(n.animations,n.animationSettings,n.options)}:null}}]),t}();!function(){for(var t=0,n=["ms","moz","webkit","o"],e=0;e<n.length&&!window.requestAnimationFrame;++e)window.requestAnimationFrame=window[n[e]+"RequestAnimationFrame"],window.cancelAnimationFrame=window[n[e]+"CancelAnimationFrame"]||window[n[e]+"CancelRequestAnimationFrame"];window.requestAnimationFrame||(window.requestAnimationFrame=function(n){var e=Date.now(),r=Math.max(0,16-(e-t)),i=window.setTimeout((function(){n(e+r)}),r);return t=e+r,i},window.cancelAnimationFrame=window.clearTimeout)}();var U=function(t,n){var e=!1,r=null;return function(i){e&&clearTimeout(e),e=setTimeout((function(){return function(){for(var i=0,u=window.innerHeight,o=0,a=window.innerWidth,l=t.parentNode;l instanceof Element;){var s=window.getComputedStyle(l);if("visible"!==s.overflowY||"visible"!==s.overflowX){var f=l.getBoundingClientRect();"visible"!==s.overflowY&&(i=Math.max(i,f.top),u=Math.min(u,f.bottom)),"visible"!==s.overflowX&&(o=Math.max(o,f.left),a=Math.min(a,f.right))}if(l===l.parentNode)break;l=l.parentNode}e=!1;var c=t.getBoundingClientRect(),h=Math.min(c.height,Math.max(0,i-c.top)),v=Math.min(c.height,Math.max(0,c.bottom-u)),d=Math.min(c.width,Math.max(0,o-c.left)),y=Math.min(c.width,Math.max(0,c.right-a)),g=(c.height-h-v)/c.height,p=(c.width-d-y)/c.width,m=Math.round(g*p*100);null!==r&&r===m||(r=m,n(m))}()}),100)}},W=function(){function t(e,r,i){n(this,t),r=Math.max(1,r||1),r=Math.min(r,100),this.el=e,this.onTresholdChange=i&&i.call?i:function(){},this.tresholdPercent=r||1,this.currentVisibility=null,this.visibilityCalculator=U(e,this.onVisibilityUpdate.bind(this)),this.bindScrollWatchers(),this.visibilityCalculator()}return r(t,[{key:"bindScrollWatchers",value:function(){for(var t=this.el.parentNode;t&&(t.addEventListener("scroll",this.visibilityCalculator),t!==t.parentNode&&t!==document);)t=t.parentNode}},{key:"onVisibilityUpdate",value:function(t){var n=this.currentVisibility>=this.tresholdPercent,e=t>=this.tresholdPercent;if(null===this.currentVisibility||n!==e)return this.currentVisibility=t,void this.onTresholdChange(e);this.currentVisibility=t}}]),t}(),Y=/\.0+$/g;function G(t){return Number.isInteger(t)?t+"":t.toFixed(6).replace(Y,"")}function H(t){var n=arguments.length>1&&void 0!==arguments[1]?arguments[1]:" ";return t&&t.length?t.map(G).join(n):""}function Q(t){return G(t.x)+","+G(t.y)}function X(t){return t?null==t.a||t.a>=1?"rgb("+t.r+","+t.g+","+t.b+")":"rgba("+t.r+","+t.g+","+t.b+","+t.a+")":"transparent"}var $={f:null,i:A,u:function(t,n){return function(e){var r=n(e);t.setAttribute("rx",G(r.x)),t.setAttribute("ry",G(r.y))}}},Z={f:null,i:function(t,n,e){return 0===t?n:1===t?e:{width:w(t,n.width,e.width),height:w(t,n.height,e.height)}},u:function(t,n){return function(e){var r=n(e);t.setAttribute("width",G(r.width)),t.setAttribute("height",G(r.height))}}},J=Math.sin,K=Math.cos,tt=Math.acos,nt=Math.asin,et=Math.tan,rt=Math.atan2,it=Math.PI/180,ut=180/Math.PI,ot=Math.sqrt,at=function(){function t(){var e=arguments.length>0&&void 0!==arguments[0]?arguments[0]:1,r=arguments.length>1&&void 0!==arguments[1]?arguments[1]:0,i=arguments.length>2&&void 0!==arguments[2]?arguments[2]:0,u=arguments.length>3&&void 0!==arguments[3]?arguments[3]:1,o=arguments.length>4&&void 0!==arguments[4]?arguments[4]:0,a=arguments.length>5&&void 0!==arguments[5]?arguments[5]:0;n(this,t),this.m=[e,r,i,u,o,a],this.i=null,this.w=null,this.s=null}return r(t,[{key:"determinant",get:function(){var t=this.m;return t[0]*t[3]-t[1]*t[2]}},{key:"isIdentity",get:function(){if(null===this.i){var t=this.m;this.i=1===t[0]&&0===t[1]&&0===t[2]&&1===t[3]&&0===t[4]&&0===t[5]}return this.i}},{key:"point",value:function(t,n){var e=this.m;return{x:e[0]*t+e[2]*n+e[4],y:e[1]*t+e[3]*n+e[5]}}},{key:"translateSelf",value:function(){var t=arguments.length>0&&void 0!==arguments[0]?arguments[0]:0,n=arguments.length>1&&void 0!==arguments[1]?arguments[1]:0;if(!t&&!n)return this;var e=this.m;return e[4]+=e[0]*t+e[2]*n,e[5]+=e[1]*t+e[3]*n,this.w=this.s=this.i=null,this}},{key:"rotateSelf",value:function(){var t=arguments.length>0&&void 0!==arguments[0]?arguments[0]:0;if(t%=360){var n=J(t*=it),e=K(t),r=this.m,i=r[0],u=r[1];r[0]=i*e+r[2]*n,r[1]=u*e+r[3]*n,r[2]=r[2]*e-i*n,r[3]=r[3]*e-u*n,this.w=this.s=this.i=null}return this}},{key:"scaleSelf",value:function(){var t=arguments.length>0&&void 0!==arguments[0]?arguments[0]:1,n=arguments.length>1&&void 0!==arguments[1]?arguments[1]:1;if(1!==t||1!==n){var e=this.m;e[0]*=t,e[1]*=t,e[2]*=n,e[3]*=n,this.w=this.s=this.i=null}return this}},{key:"skewSelf",value:function(t,n){if(n%=360,(t%=360)||n){var e=this.m,r=e[0],i=e[1],u=e[2],o=e[3];t&&(t=et(t*it),e[2]+=r*t,e[3]+=i*t),n&&(n=et(n*it),e[0]+=u*n,e[1]+=o*n),this.w=this.s=this.i=null}return this}},{key:"resetSelf",value:function(){var t=arguments.length>0&&void 0!==arguments[0]?arguments[0]:1,n=arguments.length>1&&void 0!==arguments[1]?arguments[1]:0,e=arguments.length>2&&void 0!==arguments[2]?arguments[2]:0,r=arguments.length>3&&void 0!==arguments[3]?arguments[3]:1,i=arguments.length>4&&void 0!==arguments[4]?arguments[4]:0,u=arguments.length>5&&void 0!==arguments[5]?arguments[5]:0,o=this.m;return o[0]=t,o[1]=n,o[2]=e,o[3]=r,o[4]=i,o[5]=u,this.w=this.s=this.i=null,this}},{key:"recomposeSelf",value:function(){var t=arguments.length>0&&void 0!==arguments[0]?arguments[0]:null,n=arguments.length>1&&void 0!==arguments[1]?arguments[1]:null,e=arguments.length>2&&void 0!==arguments[2]?arguments[2]:null,r=arguments.length>3&&void 0!==arguments[3]?arguments[3]:null,i=arguments.length>4&&void 0!==arguments[4]?arguments[4]:null;return this.isIdentity||this.resetSelf(),t&&(t.x||t.y)&&this.translateSelf(t.x,t.y),n&&this.rotateSelf(n),e&&(e.x&&this.skewSelf(e.x,0),e.y&&this.skewSelf(0,e.y)),!r||1===r.x&&1===r.y||this.scaleSelf(r.x,r.y),i&&(i.x||i.y)&&this.translateSelf(i.x,i.y),this}},{key:"decompose",value:function(){var t=arguments.length>0&&void 0!==arguments[0]?arguments[0]:0,n=arguments.length>1&&void 0!==arguments[1]?arguments[1]:0,e=this.m,r=e[0]*e[0]+e[1]*e[1],i=[[e[0],e[1]],[e[2],e[3]]],u=ot(r);if(0===u)return{origin:{x:e[4],y:e[5]},translate:{x:t,y:n},scale:{x:0,y:0},skew:{x:0,y:0},rotate:0};i[0][0]/=u,i[0][1]/=u;var o=e[0]*e[3]-e[1]*e[2]<0;o&&(u=-u);var a=i[0][0]*i[1][0]+i[0][1]*i[1][1];i[1][0]-=i[0][0]*a,i[1][1]-=i[0][1]*a;var l=ot(i[1][0]*i[1][0]+i[1][1]*i[1][1]);if(0===l)return{origin:{x:e[4],y:e[5]},translate:{x:t,y:n},scale:{x:u,y:0},skew:{x:0,y:0},rotate:0};i[1][0]/=l,i[1][1]/=l,a/=l;var s=0;return i[1][1]<0?(s=tt(i[1][1])*ut,i[0][1]<0&&(s=360-s)):s=nt(i[0][1])*ut,o&&(s=-s),a=rt(a,ot(i[0][0]*i[0][0]+i[0][1]*i[0][1]))*ut,o&&(a=-a),{origin:{x:e[4],y:e[5]},translate:{x:t,y:n},scale:{x:u,y:l},skew:{x:a,y:0},rotate:s}}},{key:"toString",value:function(){return null===this.s&&(this.s="matrix("+this.m.map(st).join(" ")+")"),this.s}}]),t}(),lt=/\.0+$/;function st(t){return Number.isInteger(t)?t:t.toFixed(14).replace(lt,"")}function ft(t,n,e){return t+(n-t)*e}function ct(t,n,e){var r=arguments.length>3&&void 0!==arguments[3]&&arguments[3],i={x:ft(t.x,n.x,e),y:ft(t.y,n.y,e)};return r&&(i.a=ht(t,n)),i}function ht(t,n){return Math.atan2(n.y-t.y,n.x-t.x)}Object.freeze({M:2,L:2,Z:0,H:1,V:1,C:6,Q:4,T:2,S:4,A:7});var vt={},dt=null;function yt(n){var e=function(){if(dt)return dt;if("object"!==("undefined"==typeof document?"undefined":t(document)))return{};var n=document.createElementNS("http://www.w3.org/2000/svg","svg");return n.style.position="absolute",n.style.opacity="0.01",n.style.zIndex="-9999",n.style.left="-9999px",n.style.width="1px",n.style.height="1px",dt={svg:n}}().svg;if(!e)return function(t){return null};var r=document.createElementNS(e.namespaceURI,"path");r.setAttributeNS(null,"d",n),r.setAttributeNS(null,"fill","none"),r.setAttributeNS(null,"stroke","none"),e.appendChild(r);var i=r.getTotalLength();return function(t){var n=r.getPointAtLength(i*t);return{x:n.x,y:n.y}}}function gt(t){return vt[t]?vt[t]:vt[t]=yt(t)}function pt(t,n,e,r){if(!t||!r)return!1;var i=["M",t.x,t.y];if(n&&e&&(i.push("C"),i.push(n.x),i.push(n.y),i.push(e.x),i.push(e.y)),n?!e:e){var u=n||e;i.push("Q"),i.push(u.x),i.push(u.y)}return n||e||i.push("L"),i.push(r.x),i.push(r.y),i.join(" ")}function mt(t,n,e,r){var i=arguments.length>4&&void 0!==arguments[4]?arguments[4]:1,u=pt(t,n,e,r),o=gt(u);try{return o(i)}catch(t){return null}}function bt(t,n,e,r){var i=1-r;return i*i*t+2*i*r*n+r*r*e}function wt(t,n,e,r){return 2*(1-r)*(n-t)+2*r*(e-n)}function xt(t,n,e,r){var i=arguments.length>4&&void 0!==arguments[4]&&arguments[4],u=mt(t,n,null,e,r);return u||(u={x:bt(t.x,n.x,e.x,r),y:bt(t.y,n.y,e.y,r)}),i&&(u.a=At(t,n,e,r)),u}function At(t,n,e,r){return Math.atan2(wt(t.y,n.y,e.y,r),wt(t.x,n.x,e.x,r))}function kt(t,n,e,r,i){var u=i*i;return i*u*(r-t+3*(n-e))+3*u*(t+e-2*n)+3*i*(n-t)+t}function _t(t,n,e,r,i){var u=1-i;return 3*(u*u*(n-t)+2*u*i*(e-n)+i*i*(r-e))}function St(t,n,e,r,i){var u=arguments.length>5&&void 0!==arguments[5]&&arguments[5],o=mt(t,n,e,r,i);return o||(o={x:kt(t.x,n.x,e.x,r.x,i),y:kt(t.y,n.y,e.y,r.y,i)}),u&&(o.a=Mt(t,n,e,r,i)),o}function Mt(t,n,e,r,i){return Math.atan2(_t(t.y,n.y,e.y,r.y,i),_t(t.x,n.x,e.x,r.x,i))}function Ot(t,n,e){var r=arguments.length>3&&void 0!==arguments[3]&&arguments[3];if(Bt(n)){if(It(e))return xt(n,e.start,e,t,r)}else if(Bt(e)){if(n.end)return xt(n,n.end,e,t,r)}else{if(n.end)return e.start?St(n,n.end,e.start,e,t,r):xt(n,n.end,e,t,r);if(e.start)return xt(n,e.start,e,t,r)}return ct(n,e,t,r)}function Et(t,n,e){var r=Ot(t,n,e,!0);return r.a=function(t){var n=arguments.length>1&&void 0!==arguments[1]&&arguments[1];return n?t+Math.PI:t}(r.a)/p,r}function Bt(t){return!t.type||"corner"===t.type}function It(t){return null!=t.start&&!Bt(t)}var jt=new at;var Pt={f:function(t){return t?t.join(" "):""},i:function(n,e,r){if(0===n)return e;if(1===n)return r;var i=e.length;if(i!==r.length)return m(n,e,r);for(var u,o=new Array(i),a=0;a<i;a++){if((u=t(e[a]))!==t(r[a]))return m(n,e,r);if("number"===u)o[a]=b(n,e[a],r[a]);else{if(e[a]!==r[a])return m(n,e,r);o[a]=e[a]}}return o}},Tt={f:null,i:M,u:function(t,n){return function(e){var r=n(e);t.setAttribute("x1",G(r[0])),t.setAttribute("y1",G(r[1])),t.setAttribute("x2",G(r[2])),t.setAttribute("y2",G(r[3]))}}},Ft={f:G,i:b},Rt={f:G,i:function(t,n,e){var r=b(t,n,e);return r<=0?0:r>=1?1:r}},Ct={f:function(t){var n=arguments.length>1&&void 0!==arguments[1]?arguments[1]:" ";return t&&t.length>0&&(t=t.map((function(t){return Math.floor(1e4*t)/1e4}))),H(t,n)},i:function(t,n,e){var r,i,u,o=n.length,a=e.length;if(o!==a)if(0===o)n=O(o=a,0);else if(0===a)a=o,e=O(o,0);else{var l=(u=(r=o)*(i=a)/function(t,n){for(var e;n;)e=n,n=t%n,t=e;return t||1}(r,i))<0?-u:u;n=E(n,Math.floor(l/o)),e=E(e,Math.floor(l/a)),o=a=l}for(var s=[],f=0;f<o;f++)s.push(g(w(t,n[f],e[f]),6));return s}};function Nt(t,n,e,r,i,u,o,a){return n=function(t,n,e){for(var r,i,u,o=t.length-1,a={},l=0;l<=o;l++)(r=t[l]).e&&(r.e=n(r.e)),r.v&&"g"===(i=r.v).t&&i.r&&(u=e.getElementById(i.r))&&(a[i.r]=u.querySelectorAll("stop"));return a}(t,r,a),function(r){var i,u=e(r,t,qt);return u?"c"===u.t?X(u.v):"g"===u.t?(n[u.r]&&function(t,n){for(var e=0,r=t.length;e<r;e++)t[e].setAttribute("stop-color",X(n[e]))}(n[u.r],u.v),(i=u.r)?"url(#"+i+")":"none"):"none":"none"}}function qt(t,n,e){if(0===t)return n;if(1===t)return e;if(n&&e){var r=n.t;if(r===e.t)switch(n.t){case"c":return{t:r,v:_(t,n.v,e.v)};case"g":if(n.r===e.r)return{t:r,v:S(t,n.v,e.v),r:n.r}}}return m(t,n,e)}var Vt={blur:A,brightness:w,contrast:w,"drop-shadow":function(t,n,e){return 0===t?n:1===t?e:{blur:A(t,n.blur,e.blur),offset:x(t,n.offset,e.offset),color:_(t,n.color,e.color)}},grayscale:w,"hue-rotate":b,invert:w,opacity:w,saturate:w,sepia:w};function Lt(t,n,e){if(0===t)return n;if(1===t)return e;var r=n.length;if(r!==e.length)return m(t,n,e);for(var i,u=[],o=0;o<r;o++){if(n[o].type!==e[o].type)return n;if(!(i=Vt[n[o].type]))return m(t,n,e);u.push({type:n.type,value:i(t,n[o].value,e[o].value)})}return u}var zt={blur:function(t){return t?function(n){t.setAttribute("stdDeviation",Q(n))}:null},brightness:function(t,n,e){return(t=Ut(e,n))?function(n){n=G(n),t.map((function(t){return t.setAttribute("slope",n)}))}:null},contrast:function(t,n,e){return(t=Ut(e,n))?function(n){var e=G((1-n)/2);n=G(n),t.map((function(t){t.setAttribute("slope",n),t.setAttribute("intercept",e)}))}:null},"drop-shadow":function(t,n,e){var r=e.getElementById(n+"-blur");if(!r)return null;var i=e.getElementById(n+"-offset");if(!i)return null;var u=e.getElementById(n+"-flood");return u?function(t){r.setAttribute("stdDeviation",Q(t.blur)),i.setAttribute("dx",G(t.offset.x)),i.setAttribute("dy",G(t.offset.y)),u.setAttribute("flood-color",X(t.color))}:null},grayscale:function(t){return t?function(n){t.setAttribute("values",H(function(t){return[.2126+.7874*(t=1-t),.7152-.7152*t,.0722-.0722*t,0,0,.2126-.2126*t,.7152+.2848*t,.0722-.0722*t,0,0,.2126-.2126*t,.7152-.7152*t,.0722+.9278*t,0,0,0,0,0,1,0]}(n)))}:null},"hue-rotate":function(t){return t?function(n){return t.setAttribute("values",G(n))}:null},invert:function(t,n,e){return(t=Ut(e,n))?function(n){n=G(n)+" "+G(1-n),t.map((function(t){return t.setAttribute("tableValues",n)}))}:null},opacity:function(t,n,e){return(t=e.getElementById(n+"-A"))?function(n){return t.setAttribute("tableValues","0 "+G(n))}:null},saturate:function(t){return t?function(n){return t.setAttribute("values",G(n))}:null},sepia:function(t){return t?function(n){return t.setAttribute("values",H(function(t){return[.393+.607*(t=1-t),.769-.769*t,.189-.189*t,0,0,.349-.349*t,.686+.314*t,.168-.168*t,0,0,.272-.272*t,.534-.534*t,.131+.869*t,0,0,0,0,0,1,0]}(n)))}:null}};var Dt=["R","G","B"];function Ut(t,n){var e=Dt.map((function(e){return t.getElementById(n+"-"+e)||null}));return-1!==e.indexOf(null)?null:e}var Wt={fill:Nt,"fill-opacity":Rt,stroke:Nt,"stroke-opacity":Rt,"stroke-width":Ft,"stroke-dashoffset":{f:G,i:b},"stroke-dasharray":Ct,opacity:Rt,transform:function(n,e,r,i){if(!(n=function(n,e){if(!n||"object"!==t(n))return null;var r=!1;for(var i in n)n.hasOwnProperty(i)&&(n[i]&&n[i].length?(n[i].forEach((function(t){t.e&&(t.e=e(t.e))})),r=!0):delete n[i]);return r?n:null}(n,i)))return null;var u=function(t,i,u){var o=arguments.length>3&&void 0!==arguments[3]?arguments[3]:null;return n[t]?r(i,n[t],u):e&&e[t]?e[t]:o};return e&&e.a&&n.o?function(t){var e=r(t,n.o,Et);return jt.recomposeSelf(e,u("r",t,b,0)+e.a,u("k",t,x),u("s",t,x),u("t",t,x)).toString()}:function(t){return jt.recomposeSelf(u("o",t,Ot,null),u("r",t,b,0),u("k",t,x),u("s",t,x),u("t",t,x)).toString()}},"#filter":function(t,n,e,r,i,u,o,a){if(!n.items||!t||!t.length)return null;var l=function(t,n){var e=(t=t.map((function(t){return t&&zt[t[0]]?(n.getElementById(t[1]),zt[t[0]](n.getElementById(t[1]),t[1],n)):null}))).length;return function(n){for(var r=0;r<e;r++)t[r]&&t[r](n[r].value)}}(n.items,a);return l?(t=function(t,n){return t.map((function(t){return t.e=n(t.e),t}))}(t,r),function(n){l(e(n,t,Lt))}):null},"#line":Tt,points:{f:H,i:M},d:Pt,r:Ft,"#size":Z,"#radius":$,_:function(t,n){if(Array.isArray(t))for(var e=0;e<t.length;e++)this[t[e]]=n;else this[t]=n}};return function(t){!function(t,n){if("function"!=typeof n&&null!==n)throw new TypeError("Super expression must either be null or a function");t.prototype=Object.create(n&&n.prototype,{constructor:{value:t,writable:!0,configurable:!0}}),n&&u(t,n)}(o,t);var e=a(o);function o(){return n(this,o),e.apply(this,arguments)}return r(o,null,[{key:"build",value:function(t){var n=l(i(o),"build",this).call(this,t,Wt),e=n.el,r=n.options,u=n.player;return function(t,n,e){if("click"===e.start){return void n.addEventListener("click",(function(){switch(e.click){case"freeze":return!t._running&&t.reachedToEnd()&&(t.offset=0),t._running?t.pause():t.play();case"restart":return t.offset>0?t.restart():t.play();case"reverse":var n=!t._rollingBack&&t._running,r=t.reachedToEnd();return n||r&&1===t.fill?(t.pause(),r&&(t.offset=t.duration-1),t._rollback()):r?t.restart():t.play();case"none":default:return!t._running&&t.offset?t.restart():t.play()}}))}if("hover"===e.start)return n.addEventListener("mouseenter",(function(){return t.reachedToEnd()?t.restart():t.play()})),void n.addEventListener("mouseleave",(function(){switch(e.hover){case"freeze":return t.pause();case"reset":return t.stop();case"reverse":return t.pause(),t._rollback();case"none":default:return}}));if("scroll"===e.start)return void new W(n,e.scroll||25,(function(n){n?t.reachedToEnd()?t.restart():t.play():t.pause()}));t.play()}(u,e,r),u}}]),o}(D)}));
__SVGATOR_PLAYER__.build({"root":"eXzYTlI1ysm1","animations":[{"duration":10000,"direction":1,"iterations":0,"fill":1,"alternate":false,"speed":1,"elements":{"eXzYTlI1ysm6":{"transform":{"data":{"o":{"x":142.5,"y":121.75,"type":"corner"},"t":{"x":-142.5,"y":-121.75}},"keys":{"s":[{"t":0,"v":{"x":1.1474167632017085,"y":1}},{"t":8000,"v":{"x":0.886558649274364,"y":1},"e":[0.42,0,1,1]},{"t":10000,"v":{"x":1.1474167632017085,"y":1}}]}}},"eXzYTlI1ysm28":{"transform":{"data":{"o":{"x":139.620342255,"y":203.167671205,"type":"corner"},"t":{"x":-139.620342255,"y":-203.167671205}},"keys":{"r":[{"t":0,"v":0},{"t":5000,"v":8.43621262401752,"e":[0.42,0,1,1]},{"t":5300,"v":0}]}}},"eXzYTlI1ysm33":{"transform":{"data":{"o":{"x":131.06488418579102,"y":182.48387908935547,"type":"corner"},"t":{"x":-131.06488418579102,"y":-182.48387908935547}},"keys":{"r":[{"t":0,"v":0,"e":[0.42,0,1,1]},{"t":5000,"v":27.898134438364984},{"t":5300,"v":0}]}}},"eXzYTlI1ysm36":{"transform":{"data":{"t":{"x":-132.34841919000002,"y":-165.6967926}},"keys":{"o":[{"t":0,"v":{"x":132.34841919000002,"y":165.6967926,"type":"corner"},"e":[0.42,0,1,1]},{"t":5000,"v":{"x":134.34841919000002,"y":169.6967926,"type":"corner"}},{"t":5300,"v":{"x":132.34841919000002,"y":165.6967926,"type":"corner"},"e":[0.42,0,1,1]}],"r":[{"t":0,"v":0,"e":[0.42,0,1,1]},{"t":5000,"v":21.658599266731756},{"t":5300,"v":0}]}}},"eXzYTlI1ysm42":{"transform":{"data":{"t":{"x":-164.29886627197266,"y":-222.99761199951172}},"keys":{"o":[{"t":7700,"v":{"x":164.29886627197266,"y":222.99761199951172,"type":"corner"},"e":[0.42,0,0.58,1]},{"t":8000,"v":{"x":163.29886627197266,"y":219.99761199951172,"type":"corner"},"e":[0.42,0,0.58,1]},{"t":8300,"v":{"x":164.29886627197266,"y":222.99761199951172,"type":"corner"}}],"r":[{"t":7700,"v":-2.2536526722611208,"e":[0.42,0,0.58,1]},{"t":8000,"v":-19.452021558094057,"e":[0.42,0,0.58,1]},{"t":8300,"v":-2.2536526722611208}]}}},"eXzYTlI1ysm43":{"transform":{"data":{"t":{"x":-167.05001068115234,"y":-217.96868133544922}},"keys":{"o":[{"t":4900,"v":{"x":167.05001068115234,"y":217.96868133544922,"type":"corner"},"e":[0.5,0,1,1]},{"t":5900,"v":{"x":167.05001068115234,"y":357.9686813354492,"type":"corner"}},{"t":7000,"v":{"x":167.05001068115234,"y":144.63534800211585,"type":"corner"}},{"t":8000,"v":{"x":167.05001068115234,"y":217.96868133544922,"type":"corner"},"e":[0.5,0,1,1]}],"r":[{"t":4900,"v":0,"e":[0.5,0,1,1]},{"t":5900,"v":75.88921537096125},{"t":8000,"v":0,"e":[0.5,0,1,1]}]}},"opacity":[{"t":4900,"v":1,"e":[0.5,0,1,1]},{"t":5800,"v":0},{"t":7000,"v":0},{"t":8000,"v":1}]},"eXzYTlI1ysm44":{"transform":{"data":{"t":{"x":-159.39761352539062,"y":-227.92031860351562}},"keys":{"o":[{"t":7700,"v":{"x":159.62713623539062,"y":228.2238235435156,"type":"corner"},"e":[0.42,0,0.58,1]},{"t":8000,"v":{"x":160.6923774353906,"y":226.2238235435156,"type":"corner"},"e":[0.42,0,0.58,1]},{"t":8300,"v":{"x":159.62713623539062,"y":228.2238235435156,"type":"corner"}}],"r":[{"t":7700,"v":0,"e":[0.42,0,0.58,1]},{"t":8000,"v":-12.808114955200026,"e":[0.42,0,0.58,1]},{"t":8300,"v":0}]}}},"eXzYTlI1ysm45":{"transform":{"data":{"o":{"x":122.80881881713867,"y":217.22927740125002,"type":"corner"},"t":{"x":-122.80881881713867,"y":-216.92431640625}},"keys":{"r":[{"t":7700,"v":0,"e":[0.42,0,0.58,1]},{"t":8000,"v":-1.3269294588488665,"e":[0.42,0,0.58,1]},{"t":8300,"v":0}]}}}}}],"options":{"start":"load","hover":"freeze","click":"freeze","scroll":25,"font":"embed","exportedIds":"unique","svgFormat":"animated","title":"GDPR-VOP"},"animationSettings":{"duration":10000,"direction":1,"iterations":0,"fill":1,"alternate":false,"speed":1}})]]></script></svg>