<svg id="eqUFRPVy8xd1" xmlns="http://www.w3.org/2000/svg" xmlns:xlink="http://www.w3.org/1999/xlink" viewBox="0 0 400 400" shape-rendering="geometricPrecision" text-rendering="geometricPrecision"><defs><linearGradient id="eqUFRPVy8xd4-fill" x1="17.882388" y1="206.124645" x2="169.742275" y2="206.124645" spreadMethod="pad" gradientUnits="userSpaceOnUse"><stop id="eqUFRPVy8xd4-fill-0" offset="0%" stop-color="rgb(35,40,107)"/><stop id="eqUFRPVy8xd4-fill-1" offset="100%" stop-color="rgb(21,26,79)"/></linearGradient><linearGradient id="eqUFRPVy8xd5-fill" x1="119.662801" y1="280.664332" x2="-59.549154" y2="274.931385" spreadMethod="pad" gradientUnits="userSpaceOnUse"><stop id="eqUFRPVy8xd5-fill-0" offset="0%" stop-color="rgb(35,40,107)"/><stop id="eqUFRPVy8xd5-fill-1" offset="100%" stop-color="rgb(21,26,79)"/></linearGradient><linearGradient id="eqUFRPVy8xd6-fill" x1="272.441547" y1="303.191739" x2="-192.954409" y2="157.601139" spreadMethod="pad" gradientUnits="userSpaceOnUse"><stop id="eqUFRPVy8xd6-fill-0" offset="0%" stop-color="rgb(161,195,252)"/><stop id="eqUFRPVy8xd6-fill-1" offset="69.550000%" stop-color="rgb(129,174,242)"/><stop id="eqUFRPVy8xd6-fill-2" offset="100%" stop-color="rgb(120,169,239)"/></linearGradient><linearGradient id="eqUFRPVy8xd7-fill" x1="106.612373" y1="243.625208" x2="-125.135118" y2="123.702468" spreadMethod="pad" gradientUnits="userSpaceOnUse"><stop id="eqUFRPVy8xd7-fill-0" offset="0%" stop-color="rgb(161,195,252)"/><stop id="eqUFRPVy8xd7-fill-1" offset="69.550000%" stop-color="rgb(129,174,242)"/><stop id="eqUFRPVy8xd7-fill-2" offset="100%" stop-color="rgb(120,169,239)"/></linearGradient><linearGradient id="eqUFRPVy8xd8-fill" x1="18.022677" y1="169.973359" x2="161.469915" y2="169.973359" spreadMethod="pad" gradientUnits="userSpaceOnUse"><stop id="eqUFRPVy8xd8-fill-0" offset="12.910000%" stop-color="rgb(66,141,252)"/><stop id="eqUFRPVy8xd8-fill-1" offset="99.870000%" stop-color="rgb(29,114,216)"/></linearGradient><linearGradient id="eqUFRPVy8xd9-fill" x1="34.074661" y1="260.734488" x2="186.042349" y2="260.734488" spreadMethod="pad" gradientUnits="userSpaceOnUse"><stop id="eqUFRPVy8xd9-fill-0" offset="12.910000%" stop-color="rgb(66,141,252)"/><stop id="eqUFRPVy8xd9-fill-1" offset="99.870000%" stop-color="rgb(29,114,216)"/></linearGradient><linearGradient id="eqUFRPVy8xd10-fill" x1="18.208910" y1="188.123510" x2="200.959375" y2="188.123510" spreadMethod="pad" gradientUnits="userSpaceOnUse"><stop id="eqUFRPVy8xd10-fill-0" offset="0%" stop-color="rgb(161,195,252)"/><stop id="eqUFRPVy8xd10-fill-1" offset="69.550000%" stop-color="rgb(129,174,242)"/><stop id="eqUFRPVy8xd10-fill-2" offset="75.280000%" stop-color="rgb(127,173,241)"/><stop id="eqUFRPVy8xd10-fill-3" offset="100%" stop-color="rgb(120,169,239)"/></linearGradient><linearGradient id="eqUFRPVy8xd11-fill" x1="43.510605" y1="260.734488" x2="121.058480" y2="260.734488" spreadMethod="pad" gradientUnits="userSpaceOnUse"><stop id="eqUFRPVy8xd11-fill-0" offset="0%" stop-color="rgb(238,238,238)"/><stop id="eqUFRPVy8xd11-fill-1" offset="81.780000%" stop-color="rgb(214,215,216)"/></linearGradient><linearGradient id="eqUFRPVy8xd12-fill" x1="24.963104" y1="188.847395" x2="170.443070" y2="186.536572" spreadMethod="pad" gradientUnits="userSpaceOnUse"><stop id="eqUFRPVy8xd12-fill-0" offset="0%" stop-color="rgb(238,238,238)"/><stop id="eqUFRPVy8xd12-fill-1" offset="81.780000%" stop-color="rgb(214,215,216)"/></linearGradient><linearGradient id="eqUFRPVy8xd13-fill" x1="21.458639" y1="206.201243" x2="161.888491" y2="206.201243" spreadMethod="pad" gradientUnits="userSpaceOnUse"><stop id="eqUFRPVy8xd13-fill-0" offset="0%" stop-color="rgb(238,238,238)"/><stop id="eqUFRPVy8xd13-fill-1" offset="81.780000%" stop-color="rgb(214,215,216)"/></linearGradient><linearGradient id="eqUFRPVy8xd14-fill" x1="114.384444" y1="225.623017" x2="13.071173" y2="220.539826" spreadMethod="pad" gradientUnits="userSpaceOnUse"><stop id="eqUFRPVy8xd14-fill-0" offset="0%" stop-color="rgb(238,238,238)"/><stop id="eqUFRPVy8xd14-fill-1" offset="81.780000%" stop-color="rgb(214,215,216)"/></linearGradient><linearGradient id="eqUFRPVy8xd15-fill" x1="124.789709" y1="279.088772" x2="-96.451777" y2="278.626630" spreadMethod="pad" gradientUnits="userSpaceOnUse"><stop id="eqUFRPVy8xd15-fill-0" offset="0%" stop-color="rgb(238,238,238)"/><stop id="eqUFRPVy8xd15-fill-1" offset="81.780000%" stop-color="rgb(214,215,216)"/></linearGradient><linearGradient id="eqUFRPVy8xd16-fill" x1="119.220270" y1="174.035072" x2="52.774186" y2="163.408215" spreadMethod="pad" gradientUnits="userSpaceOnUse"><stop id="eqUFRPVy8xd16-fill-0" offset="0%" stop-color="rgb(238,238,238)"/><stop id="eqUFRPVy8xd16-fill-1" offset="81.780000%" stop-color="rgb(214,215,216)"/></linearGradient><linearGradient id="eqUFRPVy8xd17-fill" x1="116.013289" y1="243.255006" x2="-64.326156" y2="240.482045" spreadMethod="pad" gradientUnits="userSpaceOnUse"><stop id="eqUFRPVy8xd17-fill-0" offset="0%" stop-color="rgb(238,238,238)"/><stop id="eqUFRPVy8xd17-fill-1" offset="81.780000%" stop-color="rgb(214,215,216)"/></linearGradient><linearGradient id="eqUFRPVy8xd27-fill" x1="170.667048" y1="253.653936" x2="664.958415" y2="253.653936" spreadMethod="pad" gradientUnits="userSpaceOnUse"><stop id="eqUFRPVy8xd27-fill-0" offset="0%" stop-color="rgb(161,195,252)"/><stop id="eqUFRPVy8xd27-fill-1" offset="100%" stop-color="rgb(120,169,239)"/></linearGradient><linearGradient id="eqUFRPVy8xd28-fill" x1="155.500733" y1="216.757104" x2="13.718004" y2="216.757104" spreadMethod="pad" gradientUnits="userSpaceOnUse"><stop id="eqUFRPVy8xd28-fill-0" offset="0%" stop-color="rgb(161,195,252)"/><stop id="eqUFRPVy8xd28-fill-1" offset="100%" stop-color="rgb(120,169,239)"/></linearGradient><linearGradient id="eqUFRPVy8xd38-fill" x1="224.054102" y1="242.825784" x2="176.062696" y2="226.305412" spreadMethod="pad" gradientUnits="userSpaceOnUse"><stop id="eqUFRPVy8xd38-fill-0" offset="0%" stop-color="rgb(255,190,182)"/><stop id="eqUFRPVy8xd38-fill-1" offset="100%" stop-color="rgb(248,175,169)"/></linearGradient><linearGradient id="eqUFRPVy8xd39-fill" x1="191.254668" y1="183.492769" x2="7.148746" y2="287.853790" spreadMethod="pad" gradientUnits="userSpaceOnUse"><stop id="eqUFRPVy8xd39-fill-0" offset="0%" stop-color="rgb(161,195,252)"/><stop id="eqUFRPVy8xd39-fill-1" offset="100%" stop-color="rgb(120,169,239)"/></linearGradient><linearGradient id="eqUFRPVy8xd43-fill" x1="251.795228" y1="283.034272" x2="237.785402" y2="283.034272" spreadMethod="pad" gradientUnits="userSpaceOnUse"><stop id="eqUFRPVy8xd43-fill-0" offset="0%" stop-color="rgb(214,215,216)"/><stop id="eqUFRPVy8xd43-fill-1" offset="100%" stop-color="rgb(238,238,238)"/></linearGradient><linearGradient id="eqUFRPVy8xd45-fill" x1="217.265043" y1="288.460715" x2="232.078446" y2="288.460715" spreadMethod="pad" gradientUnits="userSpaceOnUse"><stop id="eqUFRPVy8xd45-fill-0" offset="0%" stop-color="rgb(35,40,107)"/><stop id="eqUFRPVy8xd45-fill-1" offset="100%" stop-color="rgb(21,26,79)"/></linearGradient></defs><g id="eqUFRPVy8xd2"><g id="eqUFRPVy8xd3"><path id="eqUFRPVy8xd4" d="M116.600000,206.200000C116.600000,211.300000,112.600000,215.200000,107.500000,215.200000C107.500000,215.200000,107.500000,215.200000,107.300000,215.200000L107.300000,215.200000L18,215.200000L18,211.500000L107.700000,211.500000L107.700000,211.500000C110.800000,211.300000,113.100000,208.900000,112.900000,206C112.700000,203.100000,110.400000,200.800000,107.500000,200.800000L107.300000,200.800000L18,200.800000L18,197L107.600000,197L107.600000,197L107.600000,197C112.500000,197.200000,116.600000,201.300000,116.600000,206.200000Z" fill="url(#eqUFRPVy8xd4-fill)" stroke="none" stroke-width="1"/><path id="eqUFRPVy8xd5" d="M16.300000,279C16.300000,281.900000,18.600000,284.200000,21.500000,284.400000L21.500000,284.400000L111.200000,284.400000L111.200000,288.100000L21.700000,288.100000L21.700000,288.100000L21.700000,288.100000C16.600000,288.100000,12.600000,284.100000,12.600000,279.100000C12.600000,274.100000,16.600000,270.100000,21.700000,270.100000L21.700000,270.100000L111.400000,270.100000L111.400000,273.800000L22,273.800000L21.800000,273.800000C18.800000,273.400000,16.300000,275.900000,16.300000,279Z" fill="url(#eqUFRPVy8xd5-fill)" stroke="none" stroke-width="1"/><path id="eqUFRPVy8xd6" d="M29.700000,242.700000C29.700000,245.600000,32,247.900000,34.900000,248.100000L34.900000,248.100000L124.200000,248.100000L124.200000,251.800000L34.600000,251.800000L34.600000,251.800000C29.500000,251.800000,25.500000,247.700000,25.500000,242.600000C25.500000,237.700000,29.500000,233.700000,34.600000,233.600000L34.600000,233.600000L124.200000,233.600000L124.200000,237.400000L35.400000,237.400000L35.200000,237.400000C32.100000,237.300000,29.700000,239.700000,29.700000,242.700000Z" fill="url(#eqUFRPVy8xd6-fill)" stroke="none" stroke-width="1"/><path id="eqUFRPVy8xd7" d="M64.900000,224C64.900000,224.200000,64.900000,224.300000,64.900000,224.300000C64.900000,227.200000,67.200000,229.500000,70.100000,229.700000L70.100000,229.700000L70.300000,229.700000L70.300000,229.700000L70.300000,229.700000L115,229.700000L115,233.400000L25.400000,233.400000C20.300000,233.400000,16.300000,229.300000,16.300000,224.200000C16.300000,219.100000,20.300000,215.200000,25.400000,215.200000L115,215.200000L115,218.900000L70.400000,218.900000L70.200000,218.900000C70,218.900000,70,218.900000,69.900000,218.900000C67.400000,219.100000,65.300000,221,65,223.500000C64.900000,223.700000,64.900000,223.800000,64.900000,224Z" fill="url(#eqUFRPVy8xd7-fill)" stroke="none" stroke-width="1"/><path id="eqUFRPVy8xd8" d="M73.800000,169.400000C73.800000,169.600000,73.800000,169.700000,73.800000,170C73.800000,172.900000,76.100000,175.200000,79,175.400000L79,175.400000L111.300000,175.400000L111.300000,179.100000L27.100000,179.100000C22,179.100000,18,175,18,169.900000C18,164.800000,22,160.900000,27.100000,160.900000L111.100000,160.900000L111.100000,164.600000L79.300000,164.600000L79.100000,164.600000C79.100000,164.600000,78.900000,164.600000,78.800000,164.600000C76.300000,164.800000,74,166.600000,73.700000,169.200000C73.800000,169.100000,73.800000,169.300000,73.800000,169.400000Z" fill="url(#eqUFRPVy8xd8-fill)" stroke="none" stroke-width="1"/><path id="eqUFRPVy8xd9" d="M124.800000,260.700000C124.800000,265.800000,120.800000,269.700000,115.700000,269.700000C115.700000,269.700000,115.700000,269.700000,115.500000,269.700000L115.500000,269.700000L26,269.700000L26,266L74.900000,266L74.900000,266C77.800000,265.800000,80.100000,263.500000,80.100000,260.600000C80.100000,260.400000,80.100000,260.300000,80.100000,260.300000C79.900000,257.700000,77.800000,255.600000,75,255.200000C74.800000,255.200000,74.800000,255.200000,74.700000,255.200000L74.500000,255.200000L26.200000,255.200000L26.200000,251.500000L115.800000,251.500000L115.800000,251.500000C115.800000,251.500000,115.800000,251.500000,116,251.500000C120.600000,251.700000,124.800000,255.700000,124.800000,260.700000Z" fill="url(#eqUFRPVy8xd9-fill)" stroke="none" stroke-width="1"/><path id="eqUFRPVy8xd10" d="M122.300000,188.100000C122.300000,193.200000,118.300000,197.100000,113.200000,197.100000L113,197.100000L113,197.100000L23.500000,197.100000L23.500000,193.400000L112.800000,193.400000L112.800000,193.400000C115.900000,193.200000,118.200000,190.800000,118,187.900000C117.800000,185,115.500000,182.700000,112.600000,182.700000L112.400000,182.700000L23.700000,182.700000L23.700000,179L113.300000,179L113.300000,179L113.500000,179C118.200000,178.900000,122.300000,183.100000,122.300000,188.100000Z" fill="url(#eqUFRPVy8xd10-fill)" stroke="none" stroke-width="1"/><path id="eqUFRPVy8xd11" d="M79.900000,260.700000C79.900000,263.600000,77.600000,265.900000,74.700000,266.100000L74.700000,266.100000L29.500000,266.100000L29.500000,255.400000L74.800000,255.400000C77.400000,255.600000,79.600000,257.700000,79.900000,260.500000C79.900000,260.400000,79.900000,260.600000,79.900000,260.700000Z" fill="url(#eqUFRPVy8xd11-fill)" stroke="none" stroke-width="1"/><path id="eqUFRPVy8xd12" d="M118,188.100000C118,185.200000,115.700000,182.700000,112.900000,182.700000L112.700000,182.700000L27.700000,182.700000L27.700000,193.400000L113,193.400000L113,193.400000L113,193.400000L113.200000,193.400000L113.200000,193.400000C115.900000,193.300000,118,190.900000,118,188.100000Z" fill="url(#eqUFRPVy8xd12-fill)" stroke="none" stroke-width="1"/><path id="eqUFRPVy8xd13" d="M112.800000,206.200000C112.800000,203.300000,110.500000,200.800000,107.600000,200.800000L107.400000,200.800000L21.500000,200.800000L21.500000,211.500000L107.700000,211.500000L107.700000,211.500000L107.700000,211.500000L107.900000,211.500000L107.900000,211.500000C110.600000,211.400000,112.800000,209.100000,112.800000,206.200000Z" fill="url(#eqUFRPVy8xd13-fill)" stroke="none" stroke-width="1"/><path id="eqUFRPVy8xd14" d="M111.300000,219.100000L111.300000,229.800000L69.900000,229.800000L69.900000,229.800000C67,229.600000,64.700000,227.300000,64.700000,224.400000C64.700000,224.200000,64.700000,224.100000,64.700000,224.100000C64.700000,223.900000,64.700000,223.800000,64.700000,223.600000C65,221.100000,67.200000,219.200000,69.600000,219L111.300000,219L111.300000,219.100000L111.300000,219.100000Z" fill="url(#eqUFRPVy8xd14-fill)" stroke="none" stroke-width="1"/><path id="eqUFRPVy8xd15" d="M108.200000,273.600000L21.700000,273.600000L21.500000,273.600000C18.400000,273.800000,16.100000,276.200000,16.300000,279.100000C16.300000,281.900000,18.600000,284,21.200000,284.300000L21.200000,284.300000L21.400000,284.300000L21.400000,284.300000L21.400000,284.300000L108,284.300000L108.200000,273.600000L108.200000,273.600000Z" fill="url(#eqUFRPVy8xd15-fill)" stroke="none" stroke-width="1"/><path id="eqUFRPVy8xd16" d="M107.900000,164.500000L107.900000,175.200000L79,175.200000L79,175.200000C76.100000,175,73.800000,172.700000,73.800000,169.800000C73.800000,169.600000,73.800000,169.500000,73.800000,169.200000C73.800000,169.200000,73.800000,169,73.800000,168.900000C74.300000,166.400000,76.300000,164.500000,78.900000,164.300000C78.800000,164.500000,107.900000,164.500000,107.900000,164.500000Z" fill="url(#eqUFRPVy8xd16-fill)" stroke="none" stroke-width="1"/><path id="eqUFRPVy8xd17" d="M119.900000,237.300000L34.900000,237.300000L34.700000,237.300000C31.600000,237.500000,29.500000,240.100000,29.600000,243C29.800000,245.600000,31.900000,247.700000,34.500000,248.100000L34.500000,248.100000L34.700000,248.100000L34.700000,248.100000L34.700000,248.100000L119.800000,248.100000L119.800000,237.300000L119.900000,237.300000Z" fill="url(#eqUFRPVy8xd17-fill)" stroke="none" stroke-width="1"/></g><g id="eqUFRPVy8xd18"><g id="eqUFRPVy8xd19"><path id="eqUFRPVy8xd20" d="M297.200000,257.400000C299,262.100000,301.900000,267.600000,302.900000,274.400000C303.700000,280.400000,304.700000,290.100000,312,291.900000C317.200000,293.200000,324.300000,288.800000,329.700000,288.200000C335.100000,287.600000,340.700000,289,346.400000,287.900000C351.900000,286.900000,357.600000,284.500000,362.600000,281.600000C371.700000,276.400000,368.100000,274.300000,359.700000,273.700000C348,272.900000,332.800000,268.200000,322.100000,263C313.500000,258.800000,311.700000,252,306.400000,244.200000C303.500000,240,305.400000,238.400000,299.600000,240.800000C296.200000,242.100000,294.600000,246,290.500000,246.600000C292.800000,250.500000,297.500000,257.100000,296.800000,257.100000C297.700000,256.800000,296.900000,256.300000,297.200000,257.400000Z" fill="rgb(255,190,182)" stroke="none" stroke-width="1"/><path id="eqUFRPVy8xd21" d="M216.300000,278.300000C230.400000,278.600000,236.400000,267.800000,245,257.900000C258,243.200000,257.300000,253.500000,268.200000,237C270.800000,232.800000,278.100000,225.500000,278.100000,225.500000C278.100000,225.500000,286.200000,240.400000,287.800000,244.300000C293.300000,257.400000,306.600000,260.300000,313.100000,272.300000C323.300000,261.600000,331.400000,261.800000,339.200000,251.100000C319.400000,227.800000,320.900000,223.600000,304.200000,202.400000C296.900000,193,295.900000,182.200000,284.400000,180.200000C274.200000,178.400000,257.300000,188.600000,248.400000,194.100000C233,203.800000,231.400000,201.700000,219.400000,214.300000C212.600000,221.400000,205.300000,227.600000,200.100000,236.300000C188.400000,256,204.300000,278,216.300000,278.300000Z" fill="rgb(120,169,239)" stroke="none" stroke-width="1"/></g><g id="eqUFRPVy8xd22"><path id="eqUFRPVy8xd23" d="M239.500000,204.200000C239.800000,205.800000,238.700000,208.600000,238.500000,210.700000C238.500000,211.500000,238.500000,213.600000,238,214.400000C237.200000,215.700000,233.300000,215.200000,232,215.200000C229.700000,215.200000,227.300000,214.400000,225,213.600000C221.300000,212.300000,224.200000,211.200000,226.300000,210.700000C225.300000,210.200000,221.900000,209.700000,221.900000,208.100000C221.900000,206,225.800000,206.800000,226.600000,206.500000C225,205.200000,223.200000,204.100000,222.900000,201.800000C222.900000,199.400000,225.800000,198.900000,227.600000,198.900000C229.900000,198.900000,232.600000,199.700000,234.900000,200.700000C237.400000,201.300000,238.200000,202.900000,239.500000,204.200000C239.800000,204.200000,239.800000,204.200000,239.500000,204.200000Z" fill="rgb(242,161,156)" stroke="none" stroke-width="1"/><path id="eqUFRPVy8xd24" d="M235.400000,205.500000C237.500000,210.500000,239.300000,231.100000,247.100000,228.800000C245.800000,223.800000,243.700000,218.300000,242.400000,213.400000C240.800000,207.100000,241.400000,202.700000,236.700000,198.700000C227,190.100000,215,197.400000,203.300000,194.800000C203.300000,198.200000,202,201.600000,202.800000,204.700000C207.500000,205,215.600000,201.300000,219.200000,204.200000C226,210.200000,223.900000,207.600000,228.300000,212.100000C232,215.800000,236.600000,222,236.100000,214.500000C235.800000,210.300000,230.900000,206.400000,229.300000,202.500000C232.500000,202.700000,235.400000,206.300000,235.400000,205.500000Z" fill="rgb(255,190,182)" stroke="none" stroke-width="1"/><path id="eqUFRPVy8xd25" d="M114.100000,162.100000C136.500000,161.100000,148,180.900000,163.700000,186.200000C173.900000,189.600000,178.300000,190.100000,189.300000,189.900000C199,189.600000,219.800000,194.100000,219,194.300000C216.400000,202.200000,217.400000,207.400000,217.400000,215.200000C197.600000,215.500000,175.900000,215.700000,155.600000,212.800000C141.800000,210.700000,132.900000,204.700000,121.200000,197.100000C112.600000,191.600000,103.700000,186.400000,107.600000,173C108.800000,168.900000,109.400000,162.400000,114.100000,162.100000Z" fill="rgb(120,169,239)" stroke="none" stroke-width="1"/></g><path id="eqUFRPVy8xd26" d="M342.300000,251.600000C351.700000,252.400000,364.200000,254.700000,370.700000,247.200000C374.100000,243.300000,378,237.500000,379.600000,232.500000C381.200000,228.300000,380.100000,218.400000,384.800000,217.100000C390.500000,215.800000,384.500000,235.400000,384,242.500000C383.200000,252.200000,386.600000,261.300000,385.600000,270.500000C384,283.300000,375.200000,276.800000,366.300000,275.200000C359,273.900000,347.500000,274.700000,340.200000,276.200000C340.200000,269.100000,341.800000,259.700000,341.500000,252.400000C341.300000,251.600000,341.500000,250.300000,342.300000,251.600000Z" transform="matrix(0.99909015887702 0.04264802967421 -0.04264802967421 0.99909015887702 12.17634220688740 -14.25569640269737)" fill="rgb(255,190,182)" stroke="none" stroke-width="1"/><path id="eqUFRPVy8xd27" d="M225.200000,238.800000C237.500000,243.800000,267.700000,240.600000,275.800000,241.900000C284.700000,243.500000,318.300000,247.900000,360.300000,251.800000C358.700000,258.100000,359.500000,282.400000,359.500000,282.400000C359.500000,282.400000,301.100000,284.800000,272.400000,283.700000C252.800000,282.900000,214,283.400000,194.900000,277.700000C190.200000,276.400000,183.900000,273.500000,176.900000,269.300000C171.700000,266.200000,169.900000,259.600000,170.900000,254.400000C171.700000,250,178.500000,242.900000,181.300000,239.500000C185.500000,234.300000,190.400000,229.300000,193.800000,223.300000C194.400000,224.100000,215.800000,234.800000,225.200000,238.800000Z" fill="url(#eqUFRPVy8xd27-fill)" stroke="none" stroke-width="1"/><path id="eqUFRPVy8xd28" d="M100.500000,163.900000C88.200000,167.800000,85.900000,183,86.900000,187.700000C90,202.600000,97.600000,206.800000,105.900000,219.600000C112.900000,230.900000,130.700000,245.200000,142.400000,252.100000C153.600000,258.600000,171.100000,269.900000,183.400000,273.300000C186.500000,260.700000,209,224.600000,209,224.600000C209,224.600000,199.100000,219.600000,194.900000,216.700000C182.600000,207.300000,129.900000,169.100000,124.200000,164.100000C114.600000,155.800000,106.500000,163.400000,100.500000,163.900000Z" fill="url(#eqUFRPVy8xd28-fill)" stroke="none" stroke-width="1"/><path id="eqUFRPVy8xd29" d="M120.600000,130.200000C118.800000,134.400000,119.600000,146.200000,120.600000,151.100000C121.100000,153.700000,121.900000,161.300000,121.600000,163.700000C119.800000,179.100000,99.700000,164.200000,99.700000,164.200000C99.700000,164.200000,99.700000,150.100000,98.100000,141.400000C101.800000,139.600000,99.400000,140.400000,103.300000,138.500000C108,136.400000,110.300000,132.700000,114.500000,129.900000C114.100000,130.200000,120.800000,129.600000,120.600000,130.200000Z" fill="rgb(242,161,156)" stroke="none" stroke-width="1"/><g id="eqUFRPVy8xd30"><path id="eqUFRPVy8xd31" d="M124.500000,118.400000C132.800000,122.600000,130.800000,131.500000,134.700000,140.900000C139.100000,151.600000,131.800000,152.700000,125,157.100000C119.500000,160.500000,114.600000,161.500000,107.800000,158.900000C83.300000,149.500000,82.200000,124.900000,98.700000,114.100000C101.600000,112.300000,105.500000,110.700000,108.600000,109.900000C112.500000,109.200000,120.800000,116.600000,124.500000,118.400000Z" fill="rgb(255,190,182)" stroke="none" stroke-width="1"/><path id="eqUFRPVy8xd32" d="M125,147.400000C124.700000,147.400000,124.500000,147.400000,124.200000,147.400000C122.100000,147.100000,120.300000,146.100000,118.700000,144.500000C117.400000,142.900000,116.600000,140.800000,116.900000,138.700000C117.200000,134.500000,121.100000,131.100000,125.500000,131.400000C127.600000,131.700000,129.400000,132.700000,131,134.300000C132.300000,135.900000,133.100000,138,132.800000,140.100000C132.600000,144.300000,129.200000,147.400000,125,147.400000ZM125,132.300000C121.300000,132.300000,118.200000,135.200000,118,138.800000C117.700000,140.600000,118.500000,142.500000,119.600000,144C120.900000,145.600000,122.500000,146.400000,124.600000,146.600000C128.500000,146.900000,131.900000,144,132.400000,140.100000C132.700000,138.300000,131.900000,136.400000,130.800000,134.900000C129.500000,133.300000,127.900000,132.500000,125.800000,132.300000C125.500000,132.300000,125.300000,132.300000,125,132.300000Z" fill="rgb(35,40,107)" stroke="none" stroke-width="1"/><path id="eqUFRPVy8xd33" d="M139.400000,146.100000C139.400000,146.100000,139.100000,146.100000,139.400000,146.100000C138.100000,146.100000,137.100000,145.100000,136.500000,143.700000C136,142.400000,135.700000,140.600000,135.700000,138.700000C136,134.800000,138,131.600000,140.400000,131.900000C142.700000,132.200000,144.100000,135.300000,143.800000,139.500000C143.500000,143.300000,141.400000,146.100000,139.400000,146.100000ZM140.100000,132.500000C138.300000,132.500000,136.700000,135.100000,136.400000,138.500000C136.100000,140.300000,136.400000,141.900000,136.900000,143.200000C137.400000,144.500000,138.200000,145,139,145.300000C140.800000,145.600000,142.400000,142.700000,142.900000,139.300000C143.300000,135.700000,142,132.800000,140.100000,132.500000L140.100000,132.500000Z" fill="rgb(35,40,107)" stroke="none" stroke-width="1"/><path id="eqUFRPVy8xd34" d="M127.900000,115C126.300000,103,102.900000,99,99.700000,114.200000C89.800000,110.300000,78.300000,116.800000,82,127C81.200000,127.500000,80.200000,128,79.700000,128.800000C72.700000,135.900000,79.700000,144.800000,87.500000,145.500000C73.700000,159.100000,106,157.800000,106,157.800000L106,129.800000C115.700000,130.100000,124.800000,129.500000,134.200000,129.300000C146.400000,128.900000,139.400000,111.100000,127.900000,115Z" fill="rgb(35,40,107)" stroke="none" stroke-width="1"/><path id="eqUFRPVy8xd35" d="M132.100000,136.700000L131.800000,135.900000C133.400000,135.100000,134.900000,135.100000,136.500000,135.900000L136.200000,136.700000C134.900000,136.200000,133.600000,136.200000,132.100000,136.700000Z" fill="rgb(35,40,107)" stroke="none" stroke-width="1"/></g><rect id="eqUFRPVy8xd36" width="56.300000" height="8.100000" rx="0" ry="0" transform="matrix(1 0 0 1 208.69999999999999 238)" fill="rgb(21,26,79)" stroke="none" stroke-width="1"/><polygon id="eqUFRPVy8xd37" points="295.600000,188.300000 262.500000,188.300000 246.600000,246.400000 279.700000,246.400000" fill="rgb(35,40,107)" stroke="none" stroke-width="1"/><path id="eqUFRPVy8xd38" d="M183.700000,240.900000C184.700000,237,186,233,187.400000,228.900000C187.900000,226.800000,187.100000,226.300000,189.500000,225.800000C190.500000,225.500000,192.900000,226.800000,193.900000,226.800000C193.600000,226.500000,194.900000,226.500000,194.700000,226.300000C199.700000,227.100000,204.100000,227.600000,208.800000,228.900000C211.100000,229.400000,213.500000,229.900000,215.600000,230.500000C216.400000,230.200000,216.900000,230,217.700000,229.700000C220,228.900000,221.900000,229.400000,224.200000,229.700000C228.600000,230.200000,232.800000,229.700000,237,231.800000C239.100000,235.500000,230.500000,236.200000,225.800000,236.800000C227.900000,239.700000,229.700000,242.600000,231.800000,245.200000C232.800000,246.500000,236.200000,249.600000,233.600000,251.500000C231.800000,252.800000,231.300000,251.200000,229.900000,251.200000C227.300000,251.200000,228.100000,251.200000,225.200000,252.200000C222.100000,253.500000,219.500000,252.700000,216.600000,253.200000C215.300000,253.500000,214.300000,255.300000,212.700000,254.800000C211.900000,254.500000,211.100000,251.700000,210.600000,251.100000C209.600000,249.300000,208.800000,247.200000,208,245.300000C205.900000,245.300000,203.800000,245,202,244.800000C195.700000,244.300000,190,241.100000,183.700000,240.900000Z" fill="url(#eqUFRPVy8xd38-fill)" stroke="none" stroke-width="1"/><path id="eqUFRPVy8xd39" d="M90.100000,178.100000C78.600000,194.100000,105.200000,222.900000,120.100000,234.100000C141.200000,249.800000,166.800000,246.900000,194.200000,245.600000C195,235.700000,194.700000,235.700000,198.100000,226.500000C187.400000,224.900000,175.700000,222.600000,165.800000,220.700000C152,217.800000,143.600000,213.600000,135,207.900000C119.100000,197.400000,113.300000,166.600000,93.300000,175.400000C92.400000,175.700000,90.800000,177.300000,90.100000,178.100000Z" fill="url(#eqUFRPVy8xd39-fill)" stroke="none" stroke-width="1"/><path id="eqUFRPVy8xd40" d="M92.900000,189.600000C93.200000,189.600000,92.900000,189.300000,92.900000,189.600000C92.900000,189.300000,92.900000,189.300000,92.900000,189.600000C92.700000,189.600000,92.700000,189.600000,92.900000,189.600000L92.900000,189.600000L92.900000,189.600000L92.900000,189.600000ZM94,175.200000L94,175.200000L94,175.200000C94,174.900000,94,174.900000,94,174.900000L94,174.900000C93.700000,174.900000,93.700000,174.900000,94,175.200000C93.700000,175.200000,94,175.200000,94,175.200000L94,175.200000L94,175.200000ZM92.900000,182.500000C93.200000,182.500000,93.200000,182.500000,92.900000,182.500000C93.200000,182.200000,92.900000,182.200000,92.900000,182.200000C92.900000,182.200000,92.900000,182.200000,92.900000,182.500000L92.900000,182.500000ZM110.100000,189.800000C110.400000,189.800000,110.400000,189.800000,110.400000,189.500000C110.400000,189.200000,110.400000,189.200000,110.100000,189.200000L110.100000,189.200000C109.800000,189.200000,109.800000,189.200000,109.800000,189.500000C109.800000,189.800000,110.100000,189.800000,110.100000,189.800000L110.100000,189.800000ZM103.900000,189C104.200000,189,104.200000,189,104.200000,188.700000C104.200000,188.400000,104.200000,188.400000,103.900000,188.400000C103.600000,188.400000,103.600000,188.400000,103.600000,188.700000L103.600000,188.700000C103.600000,188.800000,103.600000,189,103.900000,189ZM97.400000,188C97.700000,188,97.700000,188,97.700000,187.700000L97.700000,187.700000C97.700000,187.400000,97.700000,187.400000,97.400000,187.400000L97.400000,187.400000C97.100000,187.400000,97.100000,187.400000,97.100000,187.700000C97.100000,188,97.100000,188,97.400000,188ZM103.100000,201.900000L103.100000,201.600000L102.800000,201.600000L102.800000,201.900000C102.800000,202.100000,102.800000,201.900000,103.100000,201.900000L103.100000,201.900000ZM97.400000,198.500000L97.400000,198.200000L97.100000,198.200000L97.100000,198.500000C97.100000,198.700000,97.400000,198.700000,97.400000,198.500000L97.400000,198.500000ZM106.500000,177.300000C106.800000,177.300000,106.800000,177,106.800000,177C106.800000,176.700000,106.500000,176.700000,106.500000,176.700000L106.500000,176.700000C106.200000,176.700000,106.200000,177,106.200000,177L106.200000,177C106.200000,177.300000,106.200000,177.300000,106.500000,177.300000ZM100.200000,178.800000C100.500000,178.800000,100.500000,178.500000,100.500000,178.500000C100.500000,178.200000,100.200000,178.200000,100.200000,178.200000C99.900000,178.200000,99.900000,178.500000,99.900000,178.500000L99.900000,178.500000C100,178.800000,100,178.800000,100.200000,178.800000L100.200000,178.800000ZM94,180.700000C94.300000,180.700000,94.300000,180.400000,94.300000,180.400000L94.300000,180.400000C94.300000,180.100000,94,180.100000,94,180.100000L94,180.100000C93.700000,180.100000,93.700000,180.400000,93.700000,180.400000C93.700000,180.400000,93.700000,180.700000,94,180.700000L94,180.700000ZM99.700000,207.400000L99.700000,207.100000L99.400000,207.100000L99.400000,207.400000L99.400000,207.400000L99.700000,207.400000ZM105.200000,183.600000C105.500000,183.600000,105.500000,183.300000,105.500000,183.300000L105.200000,183L105.200000,183C104.900000,183,104.900000,183.300000,104.900000,183.300000L104.900000,183.300000C104.900000,183.600000,104.900000,183.600000,105.200000,183.600000L105.200000,183.600000ZM99.400000,184.300000L99.700000,184L99.400000,183.700000L99.400000,183.700000C99.100000,183.700000,99.100000,184,99.100000,184L99.100000,184C99.200000,184.300000,99.200000,184.300000,99.400000,184.300000L99.400000,184.300000ZM93.700000,185.400000C94,185.400000,94,185.100000,94,185.100000L94,185.100000C94,185.100000,94,184.800000,93.700000,184.800000L93.700000,184.800000C93.400000,184.800000,93.400000,185.100000,93.400000,185.100000L93.400000,185.100000C93.400000,185.400000,93.400000,185.400000,93.700000,185.400000L93.700000,185.400000ZM101.500000,195.900000C101.500000,195.900000,101.800000,195.900000,101.800000,195.600000C101.800000,195.600000,101.800000,195.300000,101.500000,195.300000C101.500000,195.300000,101.200000,195.300000,101.200000,195.600000C101.500000,195.600000,101.500000,195.900000,101.500000,195.900000L101.500000,195.900000ZM96.100000,194.500000C96.100000,194.500000,96.400000,194.500000,96.400000,194.200000L96.400000,194.200000C96.400000,194.200000,96.400000,193.900000,96.100000,193.900000C96.100000,193.900000,95.800000,193.900000,95.800000,194.200000C95.800000,194.300000,95.800000,194.500000,96.100000,194.500000L96.100000,194.500000ZM98.400000,173.900000C98.400000,173.900000,98.700000,173.600000,98.400000,173.600000L98.400000,173.600000C98.400000,173.600000,98.100000,173.300000,98.100000,173.600000L98.100000,173.600000C98.100000,173.600000,97.800000,173.900000,98.100000,173.900000L98.400000,173.900000L98.400000,173.900000L98.400000,173.900000ZM93.400000,176.700000C93.400000,176.700000,93.700000,176.400000,93.400000,176.400000C93.400000,176.400000,93.100000,176.100000,93.100000,176.400000C93.100000,176.400000,92.800000,176.700000,93.100000,176.700000L93.400000,176.700000L93.400000,176.700000L93.400000,176.700000ZM105.700000,207.900000C106,207.900000,106,207.900000,106,207.600000C106,207.300000,106,207.300000,105.700000,207.300000C105.400000,207.300000,105.400000,207.300000,105.400000,207.600000L105.700000,207.900000L105.700000,207.900000ZM99.200000,206.300000C99.500000,206.300000,99.500000,206.300000,99.500000,206C99.500000,205.700000,99.500000,205.700000,99.200000,205.700000C98.900000,205.700000,98.900000,205.700000,98.900000,206C98.900000,206.100000,99.200000,206.300000,99.200000,206.300000L99.200000,206.300000ZM101.300000,179.900000C101.300000,179.900000,101.600000,179.600000,101.300000,179.400000C101.300000,179.400000,101,179.100000,101,179.400000C101,179.400000,100.700000,179.700000,101,179.700000C101,179.900000,101,179.900000,101.300000,179.900000L101.300000,179.900000ZM95.500000,183.600000C95.500000,183.600000,95.800000,183.300000,95.500000,183.300000C95.500000,183.300000,95.200000,183,95.200000,183.300000C95.200000,183.300000,94.900000,183.600000,95.200000,183.600000L95.500000,183.600000L95.500000,183.600000ZM103.400000,194.300000C103.700000,194.300000,103.700000,194,103.700000,194C103.700000,193.700000,103.400000,193.700000,103.400000,193.700000C103.100000,193.700000,103.100000,194,103.100000,194L103.100000,194C103.100000,194.300000,103.100000,194.500000,103.400000,194.300000L103.400000,194.300000L103.400000,194.300000ZM96.600000,195.600000C96.900000,195.600000,96.900000,195.300000,96.900000,195.300000L96.900000,195.300000C96.900000,195,96.600000,195,96.600000,195L96.600000,195C96.300000,195,96.300000,195.300000,96.300000,195.300000L96.600000,195.600000L96.600000,195.600000ZM105.200000,198.500000C105.500000,198.500000,105.500000,198.200000,105.500000,198.200000C105.500000,197.900000,105.200000,197.900000,105.200000,197.900000C104.900000,197.900000,104.900000,198.200000,104.900000,198.200000C104.900000,198.500000,104.900000,198.700000,105.200000,198.500000L105.200000,198.500000ZM98.400000,199.500000C98.700000,199.500000,98.700000,199.200000,98.700000,199.200000C98.700000,198.900000,98.400000,198.900000,98.400000,198.900000C98.100000,198.900000,98.100000,199.200000,98.100000,199.200000L98.400000,199.500000L98.400000,199.500000ZM97.600000,186.700000C97.900000,186.700000,97.900000,186.400000,97.600000,186.400000C97.600000,186.400000,97.300000,186.100000,97.300000,186.400000C97,186.400000,97,186.700000,97.300000,186.700000L97.300000,186.700000C97.400000,186.700000,97.600000,187,97.600000,186.700000L97.600000,186.700000L97.600000,186.700000Z" fill="rgb(255,255,255)" stroke="none" stroke-width="1"/></g><g id="eqUFRPVy8xd41"><path id="eqUFRPVy8xd42" d="M223.200000,270.300000L223.200000,286.200000L207.500000,286.200000L207.500000,270.300000L223.200000,270.300000ZM215.300000,283.200000C218,283.200000,220.200000,281,220.200000,278.200000C220.200000,275.500000,218,273.200000,215.300000,273.200000C212.600000,273.200000,210.400000,275.400000,210.400000,278.200000C210.400000,281,212.600000,283.200000,215.300000,283.200000Z" fill="rgb(238,238,238)" stroke="none" stroke-width="1"/><polygon id="eqUFRPVy8xd43" points="232.800000,270.300000 251.900000,270.300000 244.600000,295.800000 232.800000,295.800000 221,295.800000 213.700000,270.300000" fill="url(#eqUFRPVy8xd43-fill)" stroke="none" stroke-width="1"/><polygon id="eqUFRPVy8xd44" points="216,278.300000 221,295.800000 232.800000,295.800000 244.600000,295.800000 249.600000,278.300000" fill="rgb(246,246,246)" stroke="none" stroke-width="1"/><path id="eqUFRPVy8xd45" d="M248.300000,281.500000L244.300000,295.400000L232.800000,295.400000L221.300000,295.400000L217.300000,281.500000L248.300000,281.500000" fill="url(#eqUFRPVy8xd45-fill)" stroke="none" stroke-width="1"/><polygon id="eqUFRPVy8xd46" points="251.100000,270.300000 250.800000,271.100000 244,294.900000 232.800000,294.900000 221.700000,294.900000 214.800000,271.100000 214.500000,270.300000 213.700000,270.300000 221,295.800000 232.800000,295.800000 244.600000,295.800000 251.900000,270.300000" fill="rgb(238,238,238)" stroke="none" stroke-width="1"/><path id="eqUFRPVy8xd47" d="M242.100000,293.300000C242.100000,293.400000,242.100000,293.400000,242.100000,293.300000C242.100000,293.400000,242.100000,293.400000,242.100000,293.300000C242.100000,293.400000,242.100000,293.400000,242.100000,293.300000C242.100000,293.300000,242.100000,293.300000,242.100000,293.300000ZM241.100000,292.500000C241,292.500000,241.100000,292.600000,241.100000,292.500000C241.100000,292.700000,241.100000,292.600000,241.100000,292.500000C241.200000,292.600000,241.100000,292.600000,241.100000,292.500000C241.100000,292.500000,241.100000,292.500000,241.100000,292.500000ZM244,292.400000C243.900000,292.400000,244,292.500000,244,292.400000C244,292.500000,244,292.500000,244,292.400000C244.100000,292.500000,244,292.400000,244,292.400000C244,292.400000,244,292.400000,244,292.400000ZM243.200000,291.300000C243.200000,291.300000,243.200000,291.300000,243.200000,291.300000C243.200000,291.400000,243.300000,291.300000,243.200000,291.300000L243.200000,291.300000L243.200000,291.300000ZM242.500000,290.200000C242.500000,290.200000,242.500000,290.200000,242.500000,290.200000C242.500000,290.300000,242.600000,290.200000,242.500000,290.200000C242.600000,290.200000,242.600000,290.200000,242.500000,290.200000C242.600000,290.200000,242.600000,290.200000,242.500000,290.200000ZM239.400000,294.800000C239.400000,294.800000,239.400000,294.800000,239.400000,294.800000C239.500000,294.800000,239.500000,294.800000,239.400000,294.800000C239.500000,294.700000,239.500000,294.700000,239.400000,294.800000C239.400000,294.700000,239.400000,294.800000,239.400000,294.800000ZM242.800000,293.400000C242.800000,293.400000,242.800000,293.500000,242.800000,293.500000C242.800000,293.500000,242.900000,293.500000,242.900000,293.500000C242.900000,293.500000,242.900000,293.400000,242.900000,293.400000C242.800000,293.400000,242.800000,293.400000,242.800000,293.400000ZM241.100000,292.600000C241.100000,292.600000,241.100000,292.700000,241.100000,292.700000C241.100000,292.700000,241.200000,292.700000,241.200000,292.700000C241.200000,292.700000,241.200000,292.600000,241.200000,292.600000C241.200000,292.500000,241.100000,292.500000,241.100000,292.600000ZM239.500000,291.800000C239.500000,291.800000,239.500000,291.900000,239.500000,291.900000C239.500000,291.900000,239.600000,291.900000,239.600000,291.900000C239.600000,291.900000,239.600000,291.800000,239.600000,291.800000C239.600000,291.700000,239.500000,291.700000,239.500000,291.800000ZM237.900000,290.900000C237.900000,290.900000,237.900000,291,237.900000,291C237.900000,291,238,291,238,291C238,291,238,290.900000,238,290.900000C238,290.800000,237.900000,290.900000,237.900000,290.900000ZM244.300000,289.800000C244.200000,289.800000,244.200000,289.800000,244.300000,289.800000C244.300000,289.900000,244.300000,289.900000,244.300000,289.900000C244.300000,289.900000,244.400000,289.900000,244.300000,289.800000C244.400000,289.800000,244.300000,289.800000,244.300000,289.800000ZM243.800000,288C243.700000,288,243.700000,288.100000,243.800000,288C243.800000,288.100000,243.800000,288.100000,243.800000,288.100000C243.800000,288.100000,243.900000,288.100000,243.800000,288C243.800000,288,243.800000,288,243.800000,288ZM243.200000,286.300000C243.100000,286.300000,243.100000,286.300000,243.200000,286.300000C243.200000,286.400000,243.200000,286.400000,243.200000,286.400000C243.200000,286.400000,243.300000,286.400000,243.200000,286.300000C243.300000,286.300000,243.200000,286.200000,243.200000,286.300000ZM243.100000,291.600000C243,291.600000,243,291.700000,243.100000,291.600000C243.100000,291.700000,243.100000,291.700000,243.100000,291.700000C243.100000,291.700000,243.100000,291.600000,243.100000,291.600000C243.100000,291.600000,243.100000,291.600000,243.100000,291.600000ZM241.900000,290.200000C241.800000,290.200000,241.800000,290.300000,241.900000,290.200000C241.900000,290.300000,241.900000,290.300000,241.900000,290.300000C242,290.300000,242,290.200000,241.900000,290.200000C242,290.200000,241.900000,290.200000,241.900000,290.200000ZM240.700000,288.800000C240.700000,288.800000,240.700000,288.900000,240.700000,288.800000C240.700000,288.900000,240.700000,288.900000,240.700000,288.900000C240.800000,288.900000,240.800000,288.800000,240.700000,288.800000C240.800000,288.800000,240.700000,288.800000,240.700000,288.800000ZM239.500000,287.400000C239.500000,287.400000,239.500000,287.500000,239.500000,287.400000C239.500000,287.500000,239.500000,287.500000,239.500000,287.500000C239.600000,287.500000,239.600000,287.400000,239.500000,287.400000C239.600000,287.400000,239.600000,287.300000,239.500000,287.400000ZM244,291.900000C243.900000,291.900000,244,292,244,291.900000C244,292.100000,244,292,244,291.900000C244.100000,292,244.100000,292,244,291.900000C244,291.900000,244,291.900000,244,291.900000ZM243,290.900000C243,290.900000,243,291,243,290.900000C243,291.100000,243.100000,291,243,290.900000C243.100000,291,243.100000,291,243,290.900000C243.100000,290.900000,243,290.900000,243,290.900000ZM242,289.900000C242,289.900000,242,290,242,289.900000C242,290.100000,242.100000,290,242,289.900000C242.100000,290,242.100000,290,242,289.900000C242.100000,290,242,289.900000,242,289.900000ZM241.100000,289C241,289,241.100000,289,241.100000,289C241.100000,289.100000,241.100000,289.100000,241.100000,289C241.200000,289.100000,241.100000,289,241.100000,289C241.100000,289,241.100000,288.900000,241.100000,289ZM241.800000,293.900000C241.800000,294,241.900000,294,241.800000,293.900000C241.900000,294,241.900000,293.900000,241.800000,293.900000C241.900000,293.900000,241.900000,293.900000,241.800000,293.900000C241.800000,293.900000,241.800000,293.900000,241.800000,293.900000ZM240.400000,294C240.400000,294,240.500000,294,240.400000,294C240.500000,294,240.500000,294,240.400000,294C240.500000,293.900000,240.500000,293.900000,240.400000,294C240.400000,293.900000,240.400000,293.900000,240.400000,294ZM239,294C239,294,239.100000,294,239,294C239.100000,294,239.100000,294,239,294C239.100000,293.900000,239.100000,293.900000,239,294C239,293.900000,239,294,239,294ZM244.100000,289.400000C244.100000,289.400000,244.100000,289.400000,244.100000,289.400000C244.100000,289.500000,244.100000,289.500000,244.100000,289.500000C244.200000,289.500000,244.200000,289.500000,244.100000,289.400000C244.100000,289.400000,244.100000,289.400000,244.100000,289.400000ZM243.500000,288.100000C243.500000,288.100000,243.500000,288.100000,243.500000,288.100000C243.500000,288.200000,243.500000,288.200000,243.500000,288.200000C243.600000,288.200000,243.600000,288.200000,243.500000,288.100000C243.600000,288.100000,243.600000,288,243.500000,288.100000ZM243,286.700000C243,286.700000,243,286.700000,243,286.700000C243,286.800000,243,286.800000,243,286.800000C243.100000,286.900000,243.100000,286.900000,243,286.700000C243.100000,286.800000,243.100000,286.700000,243,286.700000ZM242.700000,292.600000C242.600000,292.600000,242.700000,292.600000,242.700000,292.600000C242.700000,292.700000,242.800000,292.600000,242.700000,292.600000C242.800000,292.600000,242.800000,292.500000,242.700000,292.600000C242.700000,292.500000,242.700000,292.500000,242.700000,292.600000ZM241.400000,292C241.300000,292,241.400000,292.100000,241.400000,292C241.400000,292.100000,241.500000,292.100000,241.400000,292C241.500000,292,241.500000,292,241.400000,292C241.500000,292,241.400000,292,241.400000,292ZM240.100000,291.500000C240.100000,291.500000,240.100000,291.500000,240.100000,291.500000C240.200000,291.600000,240.200000,291.500000,240.100000,291.500000C240.300000,291.500000,240.200000,291.400000,240.100000,291.500000C240.200000,291.500000,240.100000,291.500000,240.100000,291.500000ZM238.900000,290.900000C238.900000,290.900000,238.900000,291,238.900000,290.900000C239,291,239,291,238.900000,290.900000C239,290.900000,239,290.900000,238.900000,290.900000C238.900000,290.900000,238.900000,290.900000,238.900000,290.900000ZM244.200000,291.300000C244.200000,291.300000,244.200000,291.300000,244.200000,291.300000C244.200000,291.300000,244.300000,291.300000,244.200000,291.300000C244.300000,291.300000,244.300000,291.300000,244.200000,291.300000C244.300000,291.200000,244.200000,291.300000,244.200000,291.300000ZM243.700000,290.800000C243.600000,290.800000,243.600000,290.800000,243.700000,290.800000C243.700000,290.800000,243.700000,290.800000,243.700000,290.800000C243.700000,290.800000,243.700000,290.800000,243.700000,290.800000L243.700000,290.800000ZM243.100000,290.300000C243.100000,290.300000,243,290.300000,243.100000,290.300000C243.100000,290.400000,243.100000,290.400000,243.100000,290.300000C243.100000,290.300000,243.100000,290.300000,243.100000,290.300000C243.100000,290.300000,243.100000,290.300000,243.100000,290.300000ZM243.800000,293L243.800000,293L243.800000,293L243.800000,293C243.800000,293,243.800000,293,243.800000,293ZM243,293.100000L243,293.100000L243,293.100000L243,293.100000L243,293.100000ZM242.200000,293.200000L242.200000,293.200000L242.200000,293.200000L242.200000,293.200000L242.200000,293.200000ZM244.400000,289.600000C244.400000,289.600000,244.400000,289.600000,244.400000,289.600000C244.400000,289.600000,244.400000,289.600000,244.400000,289.600000C244.500000,289.600000,244.500000,289.600000,244.400000,289.600000C244.400000,289.600000,244.400000,289.600000,244.400000,289.600000ZM244.100000,288.900000C244.100000,288.900000,244,289,244.100000,288.900000C244.100000,289,244.100000,289,244.100000,288.900000C244.100000,289,244.100000,289,244.100000,288.900000L244.100000,288.900000ZM243.500000,292L243.500000,292L243.500000,292L243.500000,292C243.500000,291.900000,243.500000,291.900000,243.500000,292ZM242.800000,291.700000L242.800000,291.700000L242.800000,291.700000L242.800000,291.700000L242.800000,291.700000ZM242,291.500000L242,291.500000L242,291.500000L242,291.500000C242.100000,291.500000,242.100000,291.500000,242,291.500000ZM244.300000,289.300000C244.300000,289.300000,244.300000,289.400000,244.300000,289.300000C244.300000,289.400000,244.400000,289.400000,244.300000,289.300000C244.500000,289.400000,244.400000,289.400000,244.300000,289.300000C244.400000,289.300000,244.400000,289.300000,244.300000,289.300000ZM243.400000,288.200000C243.400000,288.200000,243.400000,288.200000,243.400000,288.200000C243.400000,288.300000,243.500000,288.300000,243.400000,288.200000C243.600000,288.300000,243.500000,288.200000,243.400000,288.200000C243.500000,288.100000,243.400000,288.100000,243.400000,288.200000ZM242.500000,287.100000C242.400000,287.100000,242.500000,287.100000,242.500000,287.100000C242.500000,287.200000,242.500000,287.200000,242.500000,287.100000C242.600000,287.200000,242.600000,287.100000,242.500000,287.100000C242.500000,287,242.500000,287,242.500000,287.100000ZM241.500000,286C241.500000,286,241.500000,286,241.500000,286C241.500000,286.100000,241.600000,286.100000,241.500000,286C241.700000,286.100000,241.600000,286,241.500000,286C241.600000,286,241.600000,286,241.500000,286ZM243.400000,291.300000C243.400000,291.400000,243.400000,291.400000,243.400000,291.300000C243.500000,291.400000,243.500000,291.300000,243.400000,291.300000C243.500000,291.300000,243.400000,291.300000,243.400000,291.300000C243.400000,291.300000,243.300000,291.300000,243.400000,291.300000ZM241.900000,291.200000C241.900000,291.300000,242,291.300000,241.900000,291.200000C242,291.300000,242,291.200000,241.900000,291.200000C242,291.200000,242,291.200000,241.900000,291.200000C242,291.100000,242,291.200000,241.900000,291.200000ZM240.500000,291.100000C240.500000,291.100000,240.600000,291.100000,240.500000,291.100000L240.500000,291.100000C240.600000,291,240.600000,291,240.500000,291.100000C240.500000,291,240.500000,291.100000,240.500000,291.100000ZM239.100000,291C239.100000,291,239.100000,291,239.100000,291C239.200000,291,239.200000,291,239.100000,291C239.200000,290.900000,239.100000,290.900000,239.100000,291C239.100000,290.900000,239.100000,290.900000,239.100000,291ZM244.700000,286.600000C244.600000,286.600000,244.600000,286.700000,244.700000,286.600000C244.700000,286.700000,244.700000,286.700000,244.700000,286.700000C244.700000,286.700000,244.800000,286.700000,244.700000,286.600000C244.700000,286.600000,244.700000,286.600000,244.700000,286.600000ZM244.200000,285.200000C244.200000,285.200000,244.200000,285.300000,244.200000,285.200000C244.200000,285.300000,244.200000,285.300000,244.200000,285.300000C244.300000,285.300000,244.300000,285.300000,244.200000,285.200000C244.300000,285.200000,244.300000,285.200000,244.200000,285.200000ZM243.800000,283.800000C243.800000,283.800000,243.800000,283.900000,243.800000,283.800000C243.800000,283.900000,243.800000,283.900000,243.800000,283.900000C243.800000,283.900000,243.900000,283.900000,243.800000,283.800000C243.900000,283.800000,243.800000,283.900000,243.800000,283.800000ZM244.300000,290.500000C244.200000,290.500000,244.300000,290.500000,244.300000,290.500000C244.300000,290.600000,244.400000,290.500000,244.300000,290.500000C244.400000,290.500000,244.400000,290.400000,244.300000,290.500000C244.300000,290.400000,244.300000,290.400000,244.300000,290.500000ZM243,289.800000C243,289.800000,243,289.800000,243,289.800000C243.100000,289.900000,243.100000,289.800000,243,289.800000C243.100000,289.800000,243.100000,289.700000,243,289.800000L243,289.800000ZM241.700000,289.100000C241.700000,289.100000,241.700000,289.200000,241.700000,289.100000C241.800000,289.200000,241.800000,289.200000,241.700000,289.100000C241.900000,289.100000,241.800000,289.100000,241.700000,289.100000C241.800000,289.100000,241.800000,289.100000,241.700000,289.100000ZM240.500000,288.500000C240.400000,288.500000,240.500000,288.500000,240.500000,288.500000C240.500000,288.600000,240.600000,288.500000,240.500000,288.500000C240.600000,288.500000,240.600000,288.400000,240.500000,288.500000C240.500000,288.400000,240.500000,288.400000,240.500000,288.500000ZM239.200000,287.800000C239.100000,287.800000,239.200000,287.900000,239.200000,287.800000C239.200000,287.900000,239.300000,287.900000,239.200000,287.800000C239.300000,287.800000,239.300000,287.800000,239.200000,287.800000C239.200000,287.800000,239.200000,287.800000,239.200000,287.800000ZM242.800000,292.600000C242.800000,292.600000,242.800000,292.600000,242.800000,292.600000C242.900000,292.600000,242.900000,292.600000,242.900000,292.600000C242.900000,292.500000,242.900000,292.500000,242.800000,292.600000C242.800000,292.500000,242.800000,292.600000,242.800000,292.600000ZM241.400000,293C241.400000,293.100000,241.500000,293.100000,241.400000,293C241.500000,293,241.500000,293,241.500000,293C241.500000,293,241.500000,292.900000,241.400000,293C241.400000,293,241.400000,293,241.400000,293ZM240,293.500000C240,293.500000,240.100000,293.500000,240,293.500000C240.100000,293.500000,240.100000,293.500000,240.100000,293.500000C240.100000,293.500000,240.100000,293.400000,240,293.500000C240,293.500000,240,293.500000,240,293.500000ZM238.700000,293.900000C238.700000,294,238.700000,294,238.700000,293.900000C238.800000,293.900000,238.800000,293.900000,238.800000,293.900000C238.800000,293.800000,238.800000,293.800000,238.700000,293.900000C238.700000,293.900000,238.700000,293.900000,238.700000,293.900000ZM245.200000,285.700000C245.200000,285.700000,245.200000,285.700000,245.200000,285.700000C245.200000,285.700000,245.200000,285.800000,245.200000,285.700000C245.200000,285.700000,245.300000,285.700000,245.200000,285.700000C245.200000,285.700000,245.200000,285.700000,245.200000,285.700000ZM244,288.800000C244,288.800000,244,288.900000,244,288.800000C244,288.800000,244.100000,288.900000,244,288.800000C244.100000,288.800000,244.100000,288.800000,244,288.800000L244,288.800000ZM243.100000,288.300000C243.100000,288.300000,243.100000,288.400000,243.100000,288.300000C243.100000,288.400000,243.200000,288.400000,243.100000,288.300000C243.200000,288.400000,243.200000,288.300000,243.100000,288.300000L243.100000,288.300000ZM242.300000,287.900000C242.300000,287.900000,242.300000,288,242.300000,287.900000C242.300000,288,242.400000,288,242.300000,287.900000C242.400000,287.900000,242.400000,287.900000,242.300000,287.900000L242.300000,287.900000ZM243.700000,291C243.700000,291,243.700000,291.100000,243.700000,291C243.800000,291,243.800000,291,243.700000,291C243.800000,291,243.800000,290.900000,243.700000,291C243.700000,290.900000,243.700000,291,243.700000,291ZM242.800000,291.200000C242.800000,291.200000,242.800000,291.300000,242.800000,291.200000C242.900000,291.200000,242.900000,291.200000,242.800000,291.200000C242.900000,291.200000,242.900000,291.100000,242.800000,291.200000C242.800000,291.200000,242.800000,291.200000,242.800000,291.200000ZM241.900000,291.500000C241.900000,291.500000,241.900000,291.600000,241.900000,291.500000C242,291.500000,242,291.500000,241.900000,291.500000C242,291.500000,242,291.400000,241.900000,291.500000C241.900000,291.500000,241.900000,291.500000,241.900000,291.500000ZM244.400000,287.600000C244.400000,287.600000,244.400000,287.600000,244.400000,287.600000C244.400000,287.700000,244.500000,287.600000,244.400000,287.600000C244.500000,287.600000,244.500000,287.600000,244.400000,287.600000C244.400000,287.600000,244.400000,287.600000,244.400000,287.600000ZM243.800000,286.800000C243.800000,286.800000,243.800000,286.900000,243.800000,286.800000C243.800000,286.900000,243.900000,286.900000,243.800000,286.800000C243.900000,286.900000,243.900000,286.800000,243.800000,286.800000C243.900000,286.800000,243.900000,286.800000,243.800000,286.800000ZM243.300000,286.100000C243.200000,286.100000,243.300000,286.200000,243.300000,286.100000C243.300000,286.200000,243.300000,286.200000,243.300000,286.100000C243.400000,286.200000,243.300000,286.100000,243.300000,286.100000C243.300000,286.100000,243.300000,286.100000,243.300000,286.100000ZM244.100000,289.900000L244.100000,289.900000L244.100000,289.900000L244.100000,289.900000L244.100000,289.900000ZM243.100000,289.800000L243.100000,289.800000L243.100000,289.800000L243.100000,289.800000L243.100000,289.800000ZM242.200000,289.600000L242.200000,289.600000L242.200000,289.600000L242.200000,289.600000C242.200000,289.600000,242.200000,289.600000,242.200000,289.600000ZM241.300000,289.500000L241.300000,289.500000L241.300000,289.500000L241.300000,289.500000C241.300000,289.500000,241.300000,289.500000,241.300000,289.500000ZM243.800000,292.200000C243.800000,292.300000,243.800000,292.200000,243.800000,292.200000C243.900000,292.200000,243.800000,292.200000,243.800000,292.200000C243.800000,292.200000,243.800000,292.200000,243.800000,292.200000L243.800000,292.200000ZM243,292.800000C243,292.900000,243.100000,292.800000,243,292.800000C243.100000,292.800000,243.100000,292.800000,243,292.800000C243.100000,292.700000,243,292.800000,243,292.800000L243,292.800000ZM242.300000,293.400000C242.300000,293.500000,242.400000,293.400000,242.300000,293.400000C242.400000,293.400000,242.400000,293.400000,242.300000,293.400000C242.400000,293.300000,242.300000,293.400000,242.300000,293.400000C242.300000,293.400000,242.300000,293.400000,242.300000,293.400000ZM245.600000,284.800000C245.600000,284.800000,245.600000,284.800000,245.600000,284.800000C245.600000,284.900000,245.600000,284.900000,245.600000,284.900000C245.600000,284.900000,245.700000,284.900000,245.600000,284.800000C245.700000,284.800000,245.700000,284.700000,245.600000,284.800000ZM245.300000,283.300000C245.300000,283.300000,245.300000,283.400000,245.300000,283.300000C245.300000,283.400000,245.300000,283.400000,245.300000,283.400000C245.400000,283.500000,245.400000,283.400000,245.300000,283.300000C245.400000,283.300000,245.400000,283.300000,245.300000,283.300000ZM245.100000,281.900000C245,281.900000,245,282,245.100000,281.900000C245.100000,282,245.100000,282,245.100000,282C245.100000,282,245.200000,282,245.100000,281.900000C245.200000,281.900000,245.100000,281.900000,245.100000,281.900000ZM244.100000,287.500000C244,287.500000,244.100000,287.500000,244.100000,287.500000C244.100000,287.600000,244.100000,287.600000,244.100000,287.500000C244.200000,287.600000,244.100000,287.500000,244.100000,287.500000C244.100000,287.400000,244.100000,287.400000,244.100000,287.500000ZM242.900000,286.700000C242.900000,286.700000,242.900000,286.700000,242.900000,286.700000C242.900000,286.800000,243,286.700000,242.900000,286.700000C243.100000,286.700000,243,286.700000,242.900000,286.700000C242.900000,286.600000,242.900000,286.600000,242.900000,286.700000ZM241.700000,285.800000C241.700000,285.800000,241.700000,285.900000,241.700000,285.800000C241.700000,286,241.800000,285.900000,241.700000,285.800000C241.900000,285.900000,241.800000,285.900000,241.700000,285.800000C241.800000,285.800000,241.700000,285.800000,241.700000,285.800000ZM240.500000,285C240.500000,285,240.500000,285.100000,240.500000,285C240.500000,285.200000,240.600000,285.100000,240.500000,285C240.700000,285.100000,240.600000,285.100000,240.500000,285C240.600000,285,240.500000,285,240.500000,285ZM243.700000,289.600000C243.700000,289.700000,243.700000,289.700000,243.700000,289.600000C243.800000,289.600000,243.800000,289.600000,243.800000,289.600000C243.800000,289.600000,243.800000,289.500000,243.700000,289.600000C243.700000,289.600000,243.700000,289.600000,243.700000,289.600000ZM242.200000,289.900000C242.200000,290,242.300000,290,242.200000,289.900000C242.300000,289.900000,242.300000,289.900000,242.300000,289.900000C242.300000,289.900000,242.300000,289.800000,242.200000,289.900000C242.300000,289.900000,242.200000,289.900000,242.200000,289.900000ZM240.900000,290.200000C240.900000,290.300000,240.900000,290.300000,240.900000,290.200000C241,290.200000,241,290.200000,241,290.200000C241,290.200000,241,290.100000,240.900000,290.200000C240.900000,290.200000,240.900000,290.200000,240.900000,290.200000ZM239.500000,290.500000C239.500000,290.600000,239.500000,290.600000,239.500000,290.500000C239.600000,290.500000,239.600000,290.500000,239.600000,290.500000C239.600000,290.500000,239.600000,290.400000,239.500000,290.500000C239.500000,290.400000,239.500000,290.500000,239.500000,290.500000ZM244.500000,285.900000C244.500000,285.900000,244.500000,286,244.500000,285.900000C244.500000,286.100000,244.600000,286,244.500000,285.900000C244.700000,286,244.600000,286,244.500000,285.900000C244.600000,285.900000,244.600000,285.900000,244.500000,285.900000ZM243.700000,284.700000C243.700000,284.700000,243.700000,284.800000,243.700000,284.700000C243.700000,284.900000,243.800000,284.800000,243.700000,284.700000C243.900000,284.800000,243.800000,284.800000,243.700000,284.700000C243.800000,284.700000,243.800000,284.700000,243.700000,284.700000ZM243,283.500000C243,283.500000,243,283.600000,243,283.500000C243,283.700000,243.100000,283.600000,243,283.500000C243.100000,283.600000,243.100000,283.600000,243,283.500000C243,283.500000,243,283.500000,243,283.500000ZM242.200000,282.300000C242.100000,282.300000,242.200000,282.400000,242.200000,282.300000C242.200000,282.400000,242.200000,282.400000,242.200000,282.300000C242.300000,282.400000,242.200000,282.300000,242.200000,282.300000C242.200000,282.300000,242.200000,282.300000,242.200000,282.300000ZM244.400000,288.600000C244.400000,288.600000,244.400000,288.700000,244.400000,288.600000C244.500000,288.600000,244.500000,288.600000,244.400000,288.600000C244.500000,288.500000,244.500000,288.500000,244.400000,288.600000C244.400000,288.500000,244.400000,288.500000,244.400000,288.600000ZM243,288.300000C243,288.300000,243,288.400000,243,288.300000C243.100000,288.300000,243.100000,288.300000,243,288.300000C243.100000,288.200000,243.100000,288.200000,243,288.300000C243,288.200000,243,288.200000,243,288.300000ZM241.600000,288C241.600000,288,241.600000,288.100000,241.600000,288C241.700000,288,241.700000,288,241.600000,288C241.700000,287.900000,241.700000,287.900000,241.600000,288L241.600000,288ZM240.200000,287.700000C240.200000,287.700000,240.200000,287.800000,240.200000,287.700000C240.300000,287.700000,240.300000,287.700000,240.200000,287.700000C240.300000,287.600000,240.300000,287.600000,240.200000,287.700000C240.200000,287.600000,240.200000,287.600000,240.200000,287.700000ZM238.800000,287.400000C238.800000,287.400000,238.800000,287.500000,238.800000,287.400000C238.900000,287.400000,238.900000,287.400000,238.800000,287.400000C238.900000,287.300000,238.900000,287.300000,238.800000,287.400000C238.900000,287.400000,238.800000,287.400000,238.800000,287.400000ZM243.500000,291C243.500000,291,243.600000,291,243.500000,291C243.600000,291,243.600000,290.900000,243.500000,291C243.600000,290.900000,243.500000,290.900000,243.500000,291L243.500000,291L243.500000,291ZM242.300000,291.800000C242.300000,291.900000,242.400000,291.800000,242.300000,291.800000C242.500000,291.800000,242.400000,291.800000,242.300000,291.800000C242.400000,291.700000,242.400000,291.800000,242.300000,291.800000C242.300000,291.800000,242.300000,291.800000,242.300000,291.800000ZM241.100000,292.600000C241.100000,292.700000,241.200000,292.600000,241.100000,292.600000C241.300000,292.600000,241.200000,292.600000,241.100000,292.600000C241.200000,292.500000,241.200000,292.500000,241.100000,292.600000C241.100000,292.600000,241.100000,292.600000,241.100000,292.600000ZM240,293.400000C240,293.500000,240,293.400000,240,293.400000C240,293.400000,240,293.400000,240,293.400000C240,293.300000,240,293.300000,240,293.400000C239.900000,293.400000,239.900000,293.400000,240,293.400000ZM245.300000,285.600000C245.300000,285.600000,245.300000,285.700000,245.300000,285.600000C245.300000,285.700000,245.400000,285.700000,245.300000,285.600000C245.400000,285.700000,245.400000,285.700000,245.300000,285.600000C245.400000,285.600000,245.400000,285.600000,245.300000,285.600000ZM244.900000,284.900000C244.900000,284.900000,244.900000,284.900000,244.900000,284.900000C244.900000,285,245,285,244.900000,284.900000C244.900000,285,245,284.900000,244.900000,284.900000C245,284.900000,244.900000,284.900000,244.900000,284.900000ZM244.400000,284.200000C244.400000,284.200000,244.400000,284.200000,244.400000,284.200000C244.400000,284.200000,244.500000,284.200000,244.400000,284.200000C244.500000,284.200000,244.500000,284.200000,244.400000,284.200000C244.500000,284.100000,244.500000,284.100000,244.400000,284.200000ZM244.300000,287.300000L244.300000,287.300000L244.300000,287.300000L244.300000,287.300000C244.300000,287.300000,244.200000,287.300000,244.300000,287.300000ZM243.400000,287.100000L243.400000,287.100000L243.400000,287.100000L243.400000,287.100000C243.400000,287.100000,243.400000,287.100000,243.400000,287.100000ZM242.600000,287L242.600000,287L242.600000,287L242.600000,287C242.600000,286.900000,242.600000,286.900000,242.600000,287ZM244.700000,289.400000L244.700000,289.400000C244.700000,289.400000,244.700000,289.300000,244.700000,289.400000C244.700000,289.300000,244.700000,289.300000,244.700000,289.400000C244.600000,289.300000,244.600000,289.300000,244.700000,289.400000ZM243.900000,289.800000C243.900000,289.800000,244,289.800000,243.900000,289.800000C244,289.800000,244,289.700000,243.900000,289.800000C244,289.700000,244,289.700000,243.900000,289.800000L243.900000,289.800000ZM243.200000,290.300000C243.200000,290.300000,243.200000,290.300000,243.200000,290.300000C243.200000,290.300000,243.200000,290.200000,243.200000,290.300000C243.200000,290.200000,243.200000,290.200000,243.200000,290.300000C243.200000,290.200000,243.200000,290.300000,243.200000,290.300000ZM246,283C246,283,246,283,246,283C246,283.100000,246,283.100000,246,283C246.100000,283.100000,246.100000,283.100000,246,283C246,283.100000,246,283,246,283ZM245,286.600000C245,286.600000,245,286.600000,245,286.600000C245,286.600000,245.100000,286.600000,245,286.600000C245.100000,286.600000,245.100000,286.500000,245,286.600000C245.100000,286.600000,245,286.600000,245,286.600000ZM244.300000,286.100000C244.300000,286.100000,244.300000,286.100000,244.300000,286.100000C244.300000,286.100000,244.400000,286.100000,244.300000,286.100000C244.400000,286.100000,244.400000,286,244.300000,286.100000L244.300000,286.100000ZM243.600000,285.600000C243.600000,285.600000,243.600000,285.600000,243.600000,285.600000C243.600000,285.600000,243.700000,285.600000,243.600000,285.600000C243.700000,285.600000,243.700000,285.500000,243.600000,285.600000C243.600000,285.500000,243.600000,285.500000,243.600000,285.600000ZM242.900000,285.100000C242.900000,285.100000,242.900000,285.100000,242.900000,285.100000C242.900000,285.100000,243,285.100000,242.900000,285.100000C243,285.100000,243,285,242.900000,285.100000L242.900000,285.100000ZM244.700000,288.200000C244.700000,288.200000,244.700000,288.200000,244.700000,288.200000C244.700000,288.200000,244.800000,288.200000,244.700000,288.200000C244.700000,288.100000,244.700000,288.100000,244.700000,288.200000C244.700000,288.200000,244.700000,288.200000,244.700000,288.200000ZM243.900000,288.400000C243.900000,288.400000,243.900000,288.400000,243.900000,288.400000C243.900000,288.400000,244,288.400000,243.900000,288.400000C243.900000,288.300000,243.900000,288.300000,243.900000,288.400000C243.800000,288.300000,243.800000,288.300000,243.900000,288.400000ZM243,288.500000C243,288.500000,243,288.600000,243,288.500000C243,288.500000,243.100000,288.500000,243,288.500000C243,288.500000,243,288.400000,243,288.500000C243,288.500000,243,288.500000,243,288.500000ZM242.100000,288.700000C242.100000,288.700000,242.100000,288.800000,242.100000,288.700000C242.200000,288.700000,242.200000,288.700000,242.100000,288.700000C242.200000,288.700000,242.200000,288.600000,242.100000,288.700000C242.100000,288.600000,242.100000,288.700000,242.100000,288.700000ZM244.900000,285.800000L244.900000,285.800000C244.900000,285.900000,244.900000,285.800000,244.900000,285.800000C244.900000,285.800000,244.900000,285.800000,244.900000,285.800000C244.900000,285.800000,244.800000,285.800000,244.900000,285.800000ZM244.100000,285.600000C244.200000,285.600000,244.200000,285.600000,244.100000,285.600000C244.100000,285.600000,244.200000,285.600000,244.100000,285.600000C244.200000,285.500000,244.200000,285.500000,244.100000,285.600000C244.200000,285.500000,244.200000,285.500000,244.100000,285.600000ZM245,288L245,288C245,288,245,288,245,288C245,288,245,288,245,288L245,288ZM244.300000,288.300000C244.300000,288.300000,244.300000,288.300000,244.300000,288.300000C244.400000,288.300000,244.400000,288.300000,244.300000,288.300000C244.300000,288.200000,244.300000,288.200000,244.300000,288.300000L244.300000,288.300000ZM245.200000,284.600000C245.100000,284.600000,245.200000,284.600000,245.200000,284.600000C245.200000,284.600000,245.200000,284.600000,245.200000,284.600000C245.200000,284.600000,245.200000,284.600000,245.200000,284.600000C245.200000,284.500000,245.200000,284.600000,245.200000,284.600000ZM244.600000,284.100000L244.600000,284.100000C244.600000,284.100000,244.600000,284.100000,244.600000,284.100000C244.700000,284.100000,244.700000,284.100000,244.600000,284.100000C244.700000,284.100000,244.600000,284.100000,244.600000,284.100000ZM245,286.800000C245,286.900000,245,286.900000,245,286.800000C245,286.800000,245,286.800000,245,286.800000C245.100000,286.800000,245,286.800000,245,286.800000C245,286.800000,245,286.800000,245,286.800000ZM244.300000,286.900000C244.300000,286.900000,244.300000,286.900000,244.300000,286.900000C244.300000,286.900000,244.300000,286.900000,244.300000,286.900000C244.400000,286.900000,244.300000,286.800000,244.300000,286.900000C244.300000,286.900000,244.300000,286.900000,244.300000,286.900000ZM243.600000,286.900000C243.600000,286.900000,243.600000,287,243.600000,286.900000C243.600000,286.900000,243.600000,286.900000,243.600000,286.900000C243.700000,286.900000,243.700000,286.900000,243.600000,286.900000C243.600000,286.900000,243.600000,286.900000,243.600000,286.900000ZM245.400000,285L245.400000,285L245.400000,285L245.400000,285C245.400000,285,245.400000,285,245.400000,285ZM244.500000,285.100000L244.500000,285.100000L244.500000,285.100000L244.500000,285.100000C244.600000,285,244.500000,285.100000,244.500000,285.100000ZM244.600000,286.900000L244.600000,286.900000C244.700000,286.900000,244.700000,286.900000,244.600000,286.900000C244.600000,286.800000,244.600000,286.800000,244.600000,286.900000C244.600000,286.800000,244.600000,286.800000,244.600000,286.900000Z" fill="rgb(255,255,255)" stroke="none" stroke-width="1"/></g></g><script><![CDATA[!function(t,n){"object"==typeof exports&&"undefined"!=typeof module?module.exports=n():"function"==typeof define&&define.amd?define(n):(t="undefined"!=typeof globalThis?globalThis:t||self).__SVGATOR_PLAYER__=n()}(this,(function(){"use strict";function t(n){return(t="function"==typeof Symbol&&"symbol"==typeof Symbol.iterator?function(t){return typeof t}:function(t){return t&&"function"==typeof Symbol&&t.constructor===Symbol&&t!==Symbol.prototype?"symbol":typeof t})(n)}function n(t,n){if(!(t instanceof n))throw new TypeError("Cannot call a class as a function")}function e(t,n){for(var e=0;e<n.length;e++){var r=n[e];r.enumerable=r.enumerable||!1,r.configurable=!0,"value"in r&&(r.writable=!0),Object.defineProperty(t,r.key,r)}}function r(t,n,r){return n&&e(t.prototype,n),r&&e(t,r),t}function i(t){return(i=Object.setPrototypeOf?Object.getPrototypeOf:function(t){return t.__proto__||Object.getPrototypeOf(t)})(t)}function u(t,n){return(u=Object.setPrototypeOf||function(t,n){return t.__proto__=n,t})(t,n)}function o(t,n){return!n||"object"!=typeof n&&"function"!=typeof n?function(t){if(void 0===t)throw new ReferenceError("this hasn't been initialised - super() hasn't been called");return t}(t):n}function a(t){var n=function(){if("undefined"==typeof Reflect||!Reflect.construct)return!1;if(Reflect.construct.sham)return!1;if("function"==typeof Proxy)return!0;try{return Boolean.prototype.valueOf.call(Reflect.construct(Boolean,[],(function(){}))),!0}catch(t){return!1}}();return function(){var e,r=i(t);if(n){var u=i(this).constructor;e=Reflect.construct(r,arguments,u)}else e=r.apply(this,arguments);return o(this,e)}}function l(t,n,e){return(l="undefined"!=typeof Reflect&&Reflect.get?Reflect.get:function(t,n,e){var r=function(t,n){for(;!Object.prototype.hasOwnProperty.call(t,n)&&null!==(t=i(t)););return t}(t,n);if(r){var u=Object.getOwnPropertyDescriptor(r,n);return u.get?u.get.call(e):u.value}})(t,n,e||t)}var s=Math.abs;function f(t){return t}function c(t,n,e){var r=1-e;return 3*e*r*(t*r+n*e)+e*e*e}function h(){var t=arguments.length>0&&void 0!==arguments[0]?arguments[0]:0,n=arguments.length>1&&void 0!==arguments[1]?arguments[1]:0,e=arguments.length>2&&void 0!==arguments[2]?arguments[2]:1,r=arguments.length>3&&void 0!==arguments[3]?arguments[3]:1;return t<0||t>1||e<0||e>1?null:s(t-n)<=1e-5&&s(e-r)<=1e-5?f:function(i){if(i<=0)return t>0?i*n/t:0===n&&e>0?i*r/e:0;if(i>=1)return e<1?1+(i-1)*(r-1)/(e-1):1===e&&t<1?1+(i-1)*(n-1)/(t-1):1;for(var u,o=0,a=1;o<a;){var l=c(t,e,u=(o+a)/2);if(s(i-l)<1e-5)break;l<i?o=u:a=u}return c(n,r,u)}}function v(){return 1}function d(t){return 1===t?1:0}function y(){var t=arguments.length>0&&void 0!==arguments[0]?arguments[0]:1,n=arguments.length>1&&void 0!==arguments[1]?arguments[1]:0;if(1===t){if(0===n)return d;if(1===n)return v}var e=1/t;return function(t){return t>=1?1:(t+=n*e)-t%e}}function g(t){var n=arguments.length>1&&void 0!==arguments[1]?arguments[1]:2;if(Number.isInteger(t))return t;var e=Math.pow(10,n);return Math.round(t*e)/e}var p=Math.PI/180;function m(t,n,e){return t>=.5?e:n}function b(t,n,e){return 0===t||n===e?n:t*(e-n)+n}function w(t,n,e){var r=b(t,n,e);return r<=0?0:r}function x(t,n,e){return 0===t?n:1===t?e:{x:b(t,n.x,e.x),y:b(t,n.y,e.y)}}function A(t,n,e){return 0===t?n:1===t?e:{x:w(t,n.x,e.x),y:w(t,n.y,e.y)}}function k(t,n,e){var r=function(t,n,e){return Math.round(b(t,n,e))}(t,n,e);return r<=0?0:r>=255?255:r}function _(t,n,e){return 0===t?n:1===t?e:{r:k(t,n.r,e.r),g:k(t,n.g,e.g),b:k(t,n.b,e.b),a:b(t,null==n.a?1:n.a,null==e.a?1:e.a)}}function S(t,n,e){if(0===t)return n;if(1===t)return e;var r=n.length;if(r!==e.length)return m(t,n,e);for(var i=[],u=0;u<r;u++)i.push(_(t,n[u],e[u]));return i}function M(t,n,e){var r=n.length;if(r!==e.length)return m(t,n,e);for(var i=new Array(r),u=0;u<r;u++)i[u]=b(t,n[u],e[u]);return i}function O(t,n){for(var e=[],r=0;r<t;r++)e.push(n);return e}function E(t,n){if(--n<=0)return t;var e=(t=Object.assign([],t)).length;do{for(var r=0;r<e;r++)t.push(t[r])}while(--n>0);return t}var B,I=function(){function t(e){n(this,t),this.list=e,this.length=e.length}return r(t,[{key:"setAttribute",value:function(t,n){for(var e=this.list,r=0;r<this.length;r++)e[r].setAttribute(t,n)}},{key:"removeAttribute",value:function(t){for(var n=this.list,e=0;e<this.length;e++)n[e].removeAttribute(t)}},{key:"style",value:function(t,n){for(var e=this.list,r=0;r<this.length;r++)e[r].style[t]=n}}]),t}(),j=/-./g,P=function(t,n){return n.toUpperCase()};function T(t){return"function"==typeof t?t:m}function F(t){return t?"function"==typeof t?t:Array.isArray(t)?function(t){var n=arguments.length>1&&void 0!==arguments[1]?arguments[1]:f;if(!Array.isArray(t))return n;switch(t.length){case 1:return y(t[0])||n;case 2:return y(t[0],t[1])||n;case 4:return h(t[0],t[1],t[2],t[3])||n}return n}(t,null):function(t,n){var e=arguments.length>2&&void 0!==arguments[2]?arguments[2]:f;switch(t){case"linear":return f;case"steps":return y(n.steps||1,n.jump||0)||e;case"bezier":case"cubic-bezier":return h(n.x1||0,n.y1||0,n.x2||0,n.y2||0)||e}return e}(t.type,t.value,null):null}function R(t,n,e){var r=arguments.length>3&&void 0!==arguments[3]&&arguments[3],i=n.length-1;if(t<=n[0].t)return r?[0,0,n[0].v]:n[0].v;if(t>=n[i].t)return r?[i,1,n[i].v]:n[i].v;var u,o=n[0],a=null;for(u=1;u<=i;u++){if(!(t>n[u].t)){a=n[u];break}o=n[u]}return null==a?r?[i,1,n[i].v]:n[i].v:o.t===a.t?r?[u,1,a.v]:a.v:(t=(t-o.t)/(a.t-o.t),o.e&&(t=o.e(t)),r?[u,t,e(t,o.v,a.v)]:e(t,o.v,a.v))}function C(t,n){var e=arguments.length>2&&void 0!==arguments[2]?arguments[2]:null;return t&&t.length?"function"!=typeof n?null:("function"!=typeof e&&(e=null),function(r){var i=R(r,t,n);return null!=i&&e&&(i=e(i)),i}):null}function N(t,n){return t.t-n.t}function q(n,e,r,i,u){var o,a="@"===r[0],l="#"===r[0],s=B[r],f=m;switch(a?(o=r.substr(1),r=o.replace(j,P)):l&&(r=r.substr(1)),t(s)){case"function":if(f=s(i,u,R,F,r,a,e,n),l)return f;break;case"string":f=C(i,T(s));break;case"object":if((f=C(i,T(s.i),s.f))&&"function"==typeof s.u)return s.u(e,f,r,a,n)}return f?function(t,n,e){var r=arguments.length>3&&void 0!==arguments[3]&&arguments[3];if(r)return t instanceof I?function(r){return t.style(n,e(r))}:function(r){return t.style[n]=e(r)};if(Array.isArray(n)){var i=n.length;return function(r){var u=e(r);if(null==u)for(var o=0;o<i;o++)t[o].removeAttribute(n);else for(var a=0;a<i;a++)t[a].setAttribute(n,u)}}return function(r){var i=e(r);null==i?t.removeAttribute(n):t.setAttribute(n,i)}}(e,r,f,a):null}function V(n,e,r,i){if(!i||"object"!==t(i))return null;var u=null,o=null;return Array.isArray(i)?o=function(t){if(!t||!t.length)return null;for(var n=0;n<t.length;n++)t[n].e&&(t[n].e=F(t[n].e));return t.sort(N)}(i):(o=i.keys,u=i.data||null),o?q(n,e,r,o,u):null}function L(t,n,e){if(!e)return null;var r=[];for(var i in e)if(e.hasOwnProperty(i)){var u=V(t,n,i,e[i]);u&&r.push(u)}return r.length?r:null}function z(t,n){if(!n.duration||n.duration<0)return null;var e=function(t,n){if(!n)return null;var e=[];if(Array.isArray(n))for(var r=n.length,i=0;i<r;i++){var u=n[i];if(2===u.length){var o=null;if("string"==typeof u[0])o=t.getElementById(u[0]);else if(Array.isArray(u[0])){o=[];for(var a=0;a<u[0].length;a++)if("string"==typeof u[0][a]){var l=t.getElementById(u[0][a]);l&&o.push(l)}o=o.length?1===o.length?o[0]:new I(o):null}if(o){var s=L(t,o,u[1]);s&&(e=e.concat(s))}}}else for(var f in n)if(n.hasOwnProperty(f)){var c=t.getElementById(f);if(c){var h=L(t,c,n[f]);h&&(e=e.concat(h))}}return e.length?e:null}(t,n.elements);return e?function(t,n){var e=arguments.length>2&&void 0!==arguments[2]?arguments[2]:1/0,r=arguments.length>3&&void 0!==arguments[3]?arguments[3]:1,i=arguments.length>4&&void 0!==arguments[4]&&arguments[4],u=arguments.length>5&&void 0!==arguments[5]?arguments[5]:1,o=t.length,a=r>0?n:0;i&&e%2==0&&(a=n-a);var l=null;return function(s,f){var c=s%n,h=1+(s-c)/n;f*=r,i&&h%2==0&&(f=-f);var v=!1;if(h>e)c=a,v=!0,-1===u&&(c=r>0?0:n);else if(f<0&&(c=n-c),c===l)return!1;l=c;for(var d=0;d<o;d++)t[d](c);return v}}(e,n.duration,n.iterations||1/0,n.direction||1,!!n.alternate,n.fill||1):null}var D=function(){function t(e,r){var i=arguments.length>2&&void 0!==arguments[2]?arguments[2]:{};n(this,t),this._id=0,this._running=!1,this._rollingBack=!1,this._animations=e,this.duration=r.duration,this.alternate=r.alternate,this.fill=r.fill,this.iterations=r.iterations,this.direction=i.direction||1,this.speed=i.speed||1,this.fps=i.fps||100,this.offset=i.offset||0,this.rollbackStartOffset=0}return r(t,[{key:"_rollback",value:function(){var t=this,n=1/0,e=null;this.rollbackStartOffset=this.offset,this._rollingBack||(this._rollingBack=!0,this._running=!0);this._id=window.requestAnimationFrame((function r(i){if(t._rollingBack){null==e&&(e=i);var u=i-e,o=t.rollbackStartOffset-u,a=Math.round(o*t.speed);if(a>t.duration&&n!=1/0){var l=!!t.alternate&&a/t.duration%2>1,s=a%t.duration;a=(s+=l?t.duration:0)||t.duration}var f=t.fps?1e3/t.fps:0,c=Math.max(0,a);if(c<n-f){t.offset=c,n=c;for(var h=t._animations,v=h.length,d=0;d<v;d++)h[d](c,t.direction)}var y=!1;if(t.iterations>0&&-1===t.fill){var g=t.iterations*t.duration,p=g==a;a=p?0:a,t.offset=p?0:t.offset,y=a>g}a>0&&t.offset>=a&&!y?t._id=window.requestAnimationFrame(r):t.stop()}}))}},{key:"_start",value:function(){var t=this,n=arguments.length>0&&void 0!==arguments[0]?arguments[0]:0,e=-1/0,r=null,i={},u=function u(o){t._running=!0,null==r&&(r=o);var a=Math.round((o-r+n)*t.speed),l=t.fps?1e3/t.fps:0;if(a>e+l&&!t._rollingBack){t.offset=a,e=a;for(var s=t._animations,f=s.length,c=0,h=0;h<f;h++)i[h]?c++:(i[h]=s[h](a,t.direction),i[h]&&c++);if(c===f)return void t._stop()}t._id=window.requestAnimationFrame(u)};this._id=window.requestAnimationFrame(u)}},{key:"_stop",value:function(){this._id&&window.cancelAnimationFrame(this._id),this._running=!1,this._rollingBack=!1}},{key:"play",value:function(){!this._rollingBack&&this._running||(this._rollingBack=!1,this.rollbackStartOffset>this.duration&&(this.offset=this.rollbackStartOffset-(this.rollbackStartOffset-this.offset)%this.duration,this.rollbackStartOffset=0),this._start(this.offset))}},{key:"stop",value:function(){this._stop(),this.offset=0,this.rollbackStartOffset=0;var t=this.direction,n=this._animations;window.requestAnimationFrame((function(){for(var e=0;e<n.length;e++)n[e](0,t)}))}},{key:"reachedToEnd",value:function(){return this.iterations>0&&this.offset>=this.iterations*this.duration}},{key:"restart",value:function(){this._stop(),this.offset=0,this._start()}},{key:"pause",value:function(){this._stop()}},{key:"reverse",value:function(){this.direction=-this.direction}}],[{key:"build",value:function(n,e){return(n=function(t,n){if(B=n,!t||!t.root||!Array.isArray(t.animations))return null;for(var e=document.getElementsByTagName("svg"),r=!1,i=0;i<e.length;i++)if(e[i].id===t.root&&!e[i].svgatorAnimation){(r=e[i]).svgatorAnimation=!0;break}if(!r)return null;var u=t.animations.map((function(t){return z(r,t)})).filter((function(t){return!!t}));return u.length?{element:r,animations:u,animationSettings:t.animationSettings,options:t.options||void 0}:null}(n,e))?{el:n.element,options:n.options||{},player:new t(n.animations,n.animationSettings,n.options)}:null}}]),t}();!function(){for(var t=0,n=["ms","moz","webkit","o"],e=0;e<n.length&&!window.requestAnimationFrame;++e)window.requestAnimationFrame=window[n[e]+"RequestAnimationFrame"],window.cancelAnimationFrame=window[n[e]+"CancelAnimationFrame"]||window[n[e]+"CancelRequestAnimationFrame"];window.requestAnimationFrame||(window.requestAnimationFrame=function(n){var e=Date.now(),r=Math.max(0,16-(e-t)),i=window.setTimeout((function(){n(e+r)}),r);return t=e+r,i},window.cancelAnimationFrame=window.clearTimeout)}();var U=function(t,n){var e=!1,r=null;return function(i){e&&clearTimeout(e),e=setTimeout((function(){return function(){for(var i=0,u=window.innerHeight,o=0,a=window.innerWidth,l=t.parentNode;l instanceof Element;){var s=window.getComputedStyle(l);if("visible"!==s.overflowY||"visible"!==s.overflowX){var f=l.getBoundingClientRect();"visible"!==s.overflowY&&(i=Math.max(i,f.top),u=Math.min(u,f.bottom)),"visible"!==s.overflowX&&(o=Math.max(o,f.left),a=Math.min(a,f.right))}if(l===l.parentNode)break;l=l.parentNode}e=!1;var c=t.getBoundingClientRect(),h=Math.min(c.height,Math.max(0,i-c.top)),v=Math.min(c.height,Math.max(0,c.bottom-u)),d=Math.min(c.width,Math.max(0,o-c.left)),y=Math.min(c.width,Math.max(0,c.right-a)),g=(c.height-h-v)/c.height,p=(c.width-d-y)/c.width,m=Math.round(g*p*100);null!==r&&r===m||(r=m,n(m))}()}),100)}},W=function(){function t(e,r,i){n(this,t),r=Math.max(1,r||1),r=Math.min(r,100),this.el=e,this.onTresholdChange=i&&i.call?i:function(){},this.tresholdPercent=r||1,this.currentVisibility=null,this.visibilityCalculator=U(e,this.onVisibilityUpdate.bind(this)),this.bindScrollWatchers(),this.visibilityCalculator()}return r(t,[{key:"bindScrollWatchers",value:function(){for(var t=this.el.parentNode;t&&(t.addEventListener("scroll",this.visibilityCalculator),t!==t.parentNode&&t!==document);)t=t.parentNode}},{key:"onVisibilityUpdate",value:function(t){var n=this.currentVisibility>=this.tresholdPercent,e=t>=this.tresholdPercent;if(null===this.currentVisibility||n!==e)return this.currentVisibility=t,void this.onTresholdChange(e);this.currentVisibility=t}}]),t}(),Y=/\.0+$/g;function G(t){return Number.isInteger(t)?t+"":t.toFixed(6).replace(Y,"")}function H(t){var n=arguments.length>1&&void 0!==arguments[1]?arguments[1]:" ";return t&&t.length?t.map(G).join(n):""}function Q(t){return G(t.x)+","+G(t.y)}function X(t){return t?null==t.a||t.a>=1?"rgb("+t.r+","+t.g+","+t.b+")":"rgba("+t.r+","+t.g+","+t.b+","+t.a+")":"transparent"}var $={f:null,i:A,u:function(t,n){return function(e){var r=n(e);t.setAttribute("rx",G(r.x)),t.setAttribute("ry",G(r.y))}}},Z={f:null,i:function(t,n,e){return 0===t?n:1===t?e:{width:w(t,n.width,e.width),height:w(t,n.height,e.height)}},u:function(t,n){return function(e){var r=n(e);t.setAttribute("width",G(r.width)),t.setAttribute("height",G(r.height))}}},J=Math.sin,K=Math.cos,tt=Math.acos,nt=Math.asin,et=Math.tan,rt=Math.atan2,it=Math.PI/180,ut=180/Math.PI,ot=Math.sqrt,at=function(){function t(){var e=arguments.length>0&&void 0!==arguments[0]?arguments[0]:1,r=arguments.length>1&&void 0!==arguments[1]?arguments[1]:0,i=arguments.length>2&&void 0!==arguments[2]?arguments[2]:0,u=arguments.length>3&&void 0!==arguments[3]?arguments[3]:1,o=arguments.length>4&&void 0!==arguments[4]?arguments[4]:0,a=arguments.length>5&&void 0!==arguments[5]?arguments[5]:0;n(this,t),this.m=[e,r,i,u,o,a],this.i=null,this.w=null,this.s=null}return r(t,[{key:"determinant",get:function(){var t=this.m;return t[0]*t[3]-t[1]*t[2]}},{key:"isIdentity",get:function(){if(null===this.i){var t=this.m;this.i=1===t[0]&&0===t[1]&&0===t[2]&&1===t[3]&&0===t[4]&&0===t[5]}return this.i}},{key:"point",value:function(t,n){var e=this.m;return{x:e[0]*t+e[2]*n+e[4],y:e[1]*t+e[3]*n+e[5]}}},{key:"translateSelf",value:function(){var t=arguments.length>0&&void 0!==arguments[0]?arguments[0]:0,n=arguments.length>1&&void 0!==arguments[1]?arguments[1]:0;if(!t&&!n)return this;var e=this.m;return e[4]+=e[0]*t+e[2]*n,e[5]+=e[1]*t+e[3]*n,this.w=this.s=this.i=null,this}},{key:"rotateSelf",value:function(){var t=arguments.length>0&&void 0!==arguments[0]?arguments[0]:0;if(t%=360){var n=J(t*=it),e=K(t),r=this.m,i=r[0],u=r[1];r[0]=i*e+r[2]*n,r[1]=u*e+r[3]*n,r[2]=r[2]*e-i*n,r[3]=r[3]*e-u*n,this.w=this.s=this.i=null}return this}},{key:"scaleSelf",value:function(){var t=arguments.length>0&&void 0!==arguments[0]?arguments[0]:1,n=arguments.length>1&&void 0!==arguments[1]?arguments[1]:1;if(1!==t||1!==n){var e=this.m;e[0]*=t,e[1]*=t,e[2]*=n,e[3]*=n,this.w=this.s=this.i=null}return this}},{key:"skewSelf",value:function(t,n){if(n%=360,(t%=360)||n){var e=this.m,r=e[0],i=e[1],u=e[2],o=e[3];t&&(t=et(t*it),e[2]+=r*t,e[3]+=i*t),n&&(n=et(n*it),e[0]+=u*n,e[1]+=o*n),this.w=this.s=this.i=null}return this}},{key:"resetSelf",value:function(){var t=arguments.length>0&&void 0!==arguments[0]?arguments[0]:1,n=arguments.length>1&&void 0!==arguments[1]?arguments[1]:0,e=arguments.length>2&&void 0!==arguments[2]?arguments[2]:0,r=arguments.length>3&&void 0!==arguments[3]?arguments[3]:1,i=arguments.length>4&&void 0!==arguments[4]?arguments[4]:0,u=arguments.length>5&&void 0!==arguments[5]?arguments[5]:0,o=this.m;return o[0]=t,o[1]=n,o[2]=e,o[3]=r,o[4]=i,o[5]=u,this.w=this.s=this.i=null,this}},{key:"recomposeSelf",value:function(){var t=arguments.length>0&&void 0!==arguments[0]?arguments[0]:null,n=arguments.length>1&&void 0!==arguments[1]?arguments[1]:null,e=arguments.length>2&&void 0!==arguments[2]?arguments[2]:null,r=arguments.length>3&&void 0!==arguments[3]?arguments[3]:null,i=arguments.length>4&&void 0!==arguments[4]?arguments[4]:null;return this.isIdentity||this.resetSelf(),t&&(t.x||t.y)&&this.translateSelf(t.x,t.y),n&&this.rotateSelf(n),e&&(e.x&&this.skewSelf(e.x,0),e.y&&this.skewSelf(0,e.y)),!r||1===r.x&&1===r.y||this.scaleSelf(r.x,r.y),i&&(i.x||i.y)&&this.translateSelf(i.x,i.y),this}},{key:"decompose",value:function(){var t=arguments.length>0&&void 0!==arguments[0]?arguments[0]:0,n=arguments.length>1&&void 0!==arguments[1]?arguments[1]:0,e=this.m,r=e[0]*e[0]+e[1]*e[1],i=[[e[0],e[1]],[e[2],e[3]]],u=ot(r);if(0===u)return{origin:{x:e[4],y:e[5]},translate:{x:t,y:n},scale:{x:0,y:0},skew:{x:0,y:0},rotate:0};i[0][0]/=u,i[0][1]/=u;var o=e[0]*e[3]-e[1]*e[2]<0;o&&(u=-u);var a=i[0][0]*i[1][0]+i[0][1]*i[1][1];i[1][0]-=i[0][0]*a,i[1][1]-=i[0][1]*a;var l=ot(i[1][0]*i[1][0]+i[1][1]*i[1][1]);if(0===l)return{origin:{x:e[4],y:e[5]},translate:{x:t,y:n},scale:{x:u,y:0},skew:{x:0,y:0},rotate:0};i[1][0]/=l,i[1][1]/=l,a/=l;var s=0;return i[1][1]<0?(s=tt(i[1][1])*ut,i[0][1]<0&&(s=360-s)):s=nt(i[0][1])*ut,o&&(s=-s),a=rt(a,ot(i[0][0]*i[0][0]+i[0][1]*i[0][1]))*ut,o&&(a=-a),{origin:{x:e[4],y:e[5]},translate:{x:t,y:n},scale:{x:u,y:l},skew:{x:a,y:0},rotate:s}}},{key:"toString",value:function(){return null===this.s&&(this.s="matrix("+this.m.map(st).join(" ")+")"),this.s}}]),t}(),lt=/\.0+$/;function st(t){return Number.isInteger(t)?t:t.toFixed(14).replace(lt,"")}function ft(t,n,e){return t+(n-t)*e}function ct(t,n,e){var r=arguments.length>3&&void 0!==arguments[3]&&arguments[3],i={x:ft(t.x,n.x,e),y:ft(t.y,n.y,e)};return r&&(i.a=ht(t,n)),i}function ht(t,n){return Math.atan2(n.y-t.y,n.x-t.x)}Object.freeze({M:2,L:2,Z:0,H:1,V:1,C:6,Q:4,T:2,S:4,A:7});var vt={},dt=null;function yt(n){var e=function(){if(dt)return dt;if("object"!==("undefined"==typeof document?"undefined":t(document)))return{};var n=document.createElementNS("http://www.w3.org/2000/svg","svg");return n.style.position="absolute",n.style.opacity="0.01",n.style.zIndex="-9999",n.style.left="-9999px",n.style.width="1px",n.style.height="1px",dt={svg:n}}().svg;if(!e)return function(t){return null};var r=document.createElementNS(e.namespaceURI,"path");r.setAttributeNS(null,"d",n),r.setAttributeNS(null,"fill","none"),r.setAttributeNS(null,"stroke","none"),e.appendChild(r);var i=r.getTotalLength();return function(t){var n=r.getPointAtLength(i*t);return{x:n.x,y:n.y}}}function gt(t){return vt[t]?vt[t]:vt[t]=yt(t)}function pt(t,n,e,r){if(!t||!r)return!1;var i=["M",t.x,t.y];if(n&&e&&(i.push("C"),i.push(n.x),i.push(n.y),i.push(e.x),i.push(e.y)),n?!e:e){var u=n||e;i.push("Q"),i.push(u.x),i.push(u.y)}return n||e||i.push("L"),i.push(r.x),i.push(r.y),i.join(" ")}function mt(t,n,e,r){var i=arguments.length>4&&void 0!==arguments[4]?arguments[4]:1,u=pt(t,n,e,r),o=gt(u);try{return o(i)}catch(t){return null}}function bt(t,n,e,r){var i=1-r;return i*i*t+2*i*r*n+r*r*e}function wt(t,n,e,r){return 2*(1-r)*(n-t)+2*r*(e-n)}function xt(t,n,e,r){var i=arguments.length>4&&void 0!==arguments[4]&&arguments[4],u=mt(t,n,null,e,r);return u||(u={x:bt(t.x,n.x,e.x,r),y:bt(t.y,n.y,e.y,r)}),i&&(u.a=At(t,n,e,r)),u}function At(t,n,e,r){return Math.atan2(wt(t.y,n.y,e.y,r),wt(t.x,n.x,e.x,r))}function kt(t,n,e,r,i){var u=i*i;return i*u*(r-t+3*(n-e))+3*u*(t+e-2*n)+3*i*(n-t)+t}function _t(t,n,e,r,i){var u=1-i;return 3*(u*u*(n-t)+2*u*i*(e-n)+i*i*(r-e))}function St(t,n,e,r,i){var u=arguments.length>5&&void 0!==arguments[5]&&arguments[5],o=mt(t,n,e,r,i);return o||(o={x:kt(t.x,n.x,e.x,r.x,i),y:kt(t.y,n.y,e.y,r.y,i)}),u&&(o.a=Mt(t,n,e,r,i)),o}function Mt(t,n,e,r,i){return Math.atan2(_t(t.y,n.y,e.y,r.y,i),_t(t.x,n.x,e.x,r.x,i))}function Ot(t,n,e){var r=arguments.length>3&&void 0!==arguments[3]&&arguments[3];if(Bt(n)){if(It(e))return xt(n,e.start,e,t,r)}else if(Bt(e)){if(n.end)return xt(n,n.end,e,t,r)}else{if(n.end)return e.start?St(n,n.end,e.start,e,t,r):xt(n,n.end,e,t,r);if(e.start)return xt(n,e.start,e,t,r)}return ct(n,e,t,r)}function Et(t,n,e){var r=Ot(t,n,e,!0);return r.a=function(t){var n=arguments.length>1&&void 0!==arguments[1]&&arguments[1];return n?t+Math.PI:t}(r.a)/p,r}function Bt(t){return!t.type||"corner"===t.type}function It(t){return null!=t.start&&!Bt(t)}var jt=new at;var Pt={f:function(t){return t?t.join(" "):""},i:function(n,e,r){if(0===n)return e;if(1===n)return r;var i=e.length;if(i!==r.length)return m(n,e,r);for(var u,o=new Array(i),a=0;a<i;a++){if((u=t(e[a]))!==t(r[a]))return m(n,e,r);if("number"===u)o[a]=b(n,e[a],r[a]);else{if(e[a]!==r[a])return m(n,e,r);o[a]=e[a]}}return o}},Tt={f:null,i:M,u:function(t,n){return function(e){var r=n(e);t.setAttribute("x1",G(r[0])),t.setAttribute("y1",G(r[1])),t.setAttribute("x2",G(r[2])),t.setAttribute("y2",G(r[3]))}}},Ft={f:G,i:b},Rt={f:G,i:function(t,n,e){var r=b(t,n,e);return r<=0?0:r>=1?1:r}},Ct={f:function(t){var n=arguments.length>1&&void 0!==arguments[1]?arguments[1]:" ";return t&&t.length>0&&(t=t.map((function(t){return Math.floor(1e4*t)/1e4}))),H(t,n)},i:function(t,n,e){var r,i,u,o=n.length,a=e.length;if(o!==a)if(0===o)n=O(o=a,0);else if(0===a)a=o,e=O(o,0);else{var l=(u=(r=o)*(i=a)/function(t,n){for(var e;n;)e=n,n=t%n,t=e;return t||1}(r,i))<0?-u:u;n=E(n,Math.floor(l/o)),e=E(e,Math.floor(l/a)),o=a=l}for(var s=[],f=0;f<o;f++)s.push(g(w(t,n[f],e[f]),6));return s}};function Nt(t,n,e,r,i,u,o,a){return n=function(t,n,e){for(var r,i,u,o=t.length-1,a={},l=0;l<=o;l++)(r=t[l]).e&&(r.e=n(r.e)),r.v&&"g"===(i=r.v).t&&i.r&&(u=e.getElementById(i.r))&&(a[i.r]=u.querySelectorAll("stop"));return a}(t,r,a),function(r){var i,u=e(r,t,qt);return u?"c"===u.t?X(u.v):"g"===u.t?(n[u.r]&&function(t,n){for(var e=0,r=t.length;e<r;e++)t[e].setAttribute("stop-color",X(n[e]))}(n[u.r],u.v),(i=u.r)?"url(#"+i+")":"none"):"none":"none"}}function qt(t,n,e){if(0===t)return n;if(1===t)return e;if(n&&e){var r=n.t;if(r===e.t)switch(n.t){case"c":return{t:r,v:_(t,n.v,e.v)};case"g":if(n.r===e.r)return{t:r,v:S(t,n.v,e.v),r:n.r}}}return m(t,n,e)}var Vt={blur:A,brightness:w,contrast:w,"drop-shadow":function(t,n,e){return 0===t?n:1===t?e:{blur:A(t,n.blur,e.blur),offset:x(t,n.offset,e.offset),color:_(t,n.color,e.color)}},grayscale:w,"hue-rotate":b,invert:w,opacity:w,saturate:w,sepia:w};function Lt(t,n,e){if(0===t)return n;if(1===t)return e;var r=n.length;if(r!==e.length)return m(t,n,e);for(var i,u=[],o=0;o<r;o++){if(n[o].type!==e[o].type)return n;if(!(i=Vt[n[o].type]))return m(t,n,e);u.push({type:n.type,value:i(t,n[o].value,e[o].value)})}return u}var zt={blur:function(t){return t?function(n){t.setAttribute("stdDeviation",Q(n))}:null},brightness:function(t,n,e){return(t=Ut(e,n))?function(n){n=G(n),t.map((function(t){return t.setAttribute("slope",n)}))}:null},contrast:function(t,n,e){return(t=Ut(e,n))?function(n){var e=G((1-n)/2);n=G(n),t.map((function(t){t.setAttribute("slope",n),t.setAttribute("intercept",e)}))}:null},"drop-shadow":function(t,n,e){var r=e.getElementById(n+"-blur");if(!r)return null;var i=e.getElementById(n+"-offset");if(!i)return null;var u=e.getElementById(n+"-flood");return u?function(t){r.setAttribute("stdDeviation",Q(t.blur)),i.setAttribute("dx",G(t.offset.x)),i.setAttribute("dy",G(t.offset.y)),u.setAttribute("flood-color",X(t.color))}:null},grayscale:function(t){return t?function(n){t.setAttribute("values",H(function(t){return[.2126+.7874*(t=1-t),.7152-.7152*t,.0722-.0722*t,0,0,.2126-.2126*t,.7152+.2848*t,.0722-.0722*t,0,0,.2126-.2126*t,.7152-.7152*t,.0722+.9278*t,0,0,0,0,0,1,0]}(n)))}:null},"hue-rotate":function(t){return t?function(n){return t.setAttribute("values",G(n))}:null},invert:function(t,n,e){return(t=Ut(e,n))?function(n){n=G(n)+" "+G(1-n),t.map((function(t){return t.setAttribute("tableValues",n)}))}:null},opacity:function(t,n,e){return(t=e.getElementById(n+"-A"))?function(n){return t.setAttribute("tableValues","0 "+G(n))}:null},saturate:function(t){return t?function(n){return t.setAttribute("values",G(n))}:null},sepia:function(t){return t?function(n){return t.setAttribute("values",H(function(t){return[.393+.607*(t=1-t),.769-.769*t,.189-.189*t,0,0,.349-.349*t,.686+.314*t,.168-.168*t,0,0,.272-.272*t,.534-.534*t,.131+.869*t,0,0,0,0,0,1,0]}(n)))}:null}};var Dt=["R","G","B"];function Ut(t,n){var e=Dt.map((function(e){return t.getElementById(n+"-"+e)||null}));return-1!==e.indexOf(null)?null:e}var Wt={fill:Nt,"fill-opacity":Rt,stroke:Nt,"stroke-opacity":Rt,"stroke-width":Ft,"stroke-dashoffset":{f:G,i:b},"stroke-dasharray":Ct,opacity:Rt,transform:function(n,e,r,i){if(!(n=function(n,e){if(!n||"object"!==t(n))return null;var r=!1;for(var i in n)n.hasOwnProperty(i)&&(n[i]&&n[i].length?(n[i].forEach((function(t){t.e&&(t.e=e(t.e))})),r=!0):delete n[i]);return r?n:null}(n,i)))return null;var u=function(t,i,u){var o=arguments.length>3&&void 0!==arguments[3]?arguments[3]:null;return n[t]?r(i,n[t],u):e&&e[t]?e[t]:o};return e&&e.a&&n.o?function(t){var e=r(t,n.o,Et);return jt.recomposeSelf(e,u("r",t,b,0)+e.a,u("k",t,x),u("s",t,x),u("t",t,x)).toString()}:function(t){return jt.recomposeSelf(u("o",t,Ot,null),u("r",t,b,0),u("k",t,x),u("s",t,x),u("t",t,x)).toString()}},"#filter":function(t,n,e,r,i,u,o,a){if(!n.items||!t||!t.length)return null;var l=function(t,n){var e=(t=t.map((function(t){return t&&zt[t[0]]?(n.getElementById(t[1]),zt[t[0]](n.getElementById(t[1]),t[1],n)):null}))).length;return function(n){for(var r=0;r<e;r++)t[r]&&t[r](n[r].value)}}(n.items,a);return l?(t=function(t,n){return t.map((function(t){return t.e=n(t.e),t}))}(t,r),function(n){l(e(n,t,Lt))}):null},"#line":Tt,points:{f:H,i:M},d:Pt,r:Ft,"#size":Z,"#radius":$,_:function(t,n){if(Array.isArray(t))for(var e=0;e<t.length;e++)this[t[e]]=n;else this[t]=n}};return function(t){!function(t,n){if("function"!=typeof n&&null!==n)throw new TypeError("Super expression must either be null or a function");t.prototype=Object.create(n&&n.prototype,{constructor:{value:t,writable:!0,configurable:!0}}),n&&u(t,n)}(o,t);var e=a(o);function o(){return n(this,o),e.apply(this,arguments)}return r(o,null,[{key:"build",value:function(t){var n=l(i(o),"build",this).call(this,t,Wt),e=n.el,r=n.options,u=n.player;return function(t,n,e){if("click"===e.start){return void n.addEventListener("click",(function(){switch(e.click){case"freeze":return!t._running&&t.reachedToEnd()&&(t.offset=0),t._running?t.pause():t.play();case"restart":return t.offset>0?t.restart():t.play();case"reverse":var n=!t._rollingBack&&t._running,r=t.reachedToEnd();return n||r&&1===t.fill?(t.pause(),r&&(t.offset=t.duration-1),t._rollback()):r?t.restart():t.play();case"none":default:return!t._running&&t.offset?t.restart():t.play()}}))}if("hover"===e.start)return n.addEventListener("mouseenter",(function(){return t.reachedToEnd()?t.restart():t.play()})),void n.addEventListener("mouseleave",(function(){switch(e.hover){case"freeze":return t.pause();case"reset":return t.stop();case"reverse":return t.pause(),t._rollback();case"none":default:return}}));if("scroll"===e.start)return void new W(n,e.scroll||25,(function(n){n?t.reachedToEnd()?t.restart():t.play():t.pause()}));t.play()}(u,e,r),u}}]),o}(D)}));
__SVGATOR_PLAYER__.build({"root":"eqUFRPVy8xd1","animations":[{"duration":10000,"direction":1,"iterations":0,"fill":1,"alternate":false,"speed":1,"elements":{"eqUFRPVy8xd19":{"transform":{"data":{"o":{"x":196.11567688,"y":237.3,"type":"corner"},"t":{"x":-196.11567688,"y":-237.3}},"keys":{"s":[{"t":3600,"v":{"x":1,"y":1},"e":[0.42,0,0.58,1]},{"t":4100,"v":{"x":0.9771690519714362,"y":1},"e":[0.42,0,0.58,1]},{"t":5000,"v":{"x":1,"y":1}}]}}},"eqUFRPVy8xd22":{"transform":{"data":{"o":{"x":106.6888504,"y":162.0644989,"type":"corner"},"t":{"x":-106.6888504,"y":-162.0644989}},"keys":{"r":[{"t":2000,"v":0,"e":[0.42,0,0.58,1]},{"t":2500,"v":3.7009137136406043,"e":[0.42,0,0.58,1]},{"t":3000,"v":0},{"t":6000,"v":0,"e":[0.42,0,0.58,1]},{"t":6500,"v":3.7009137136406043,"e":[0.42,0,0.58,1]},{"t":7000,"v":0}]}}},"eqUFRPVy8xd26":{"transform":{"data":{"o":{"x":340.2,"y":278.25,"type":"corner"},"t":{"x":-340.2,"y":-278.25}},"keys":{"r":[{"t":7000,"v":2.444293456089815,"e":[0.42,0,0.58,1]},{"t":7500,"v":-0.5199357772146835,"e":[0.42,0,0.58,1]},{"t":8000,"v":2.444293456089815}]}}},"eqUFRPVy8xd30":{"transform":{"data":{"o":{"x":110.33026122999999,"y":132.34608841,"type":"corner"},"t":{"x":-110.33026122999999,"y":-132.34608841}},"keys":{"r":[{"t":0,"v":0,"e":[0.42,0,1,1]},{"t":2500,"v":7.495968410884908,"e":[0,0,0.58,1]},{"t":4500,"v":0},{"t":4900,"v":0,"e":[0.42,0,1,1]},{"t":6500,"v":7.495968410884908,"e":[0,0,0.58,1]},{"t":9000,"v":0}]}}}}}],"options":{"start":"load","hover":"freeze","click":"freeze","scroll":25,"font":"embed","exportedIds":"unique","svgFormat":"animated","title":"Landing-jednoduche"},"animationSettings":{"duration":10000,"direction":1,"iterations":0,"fill":1,"alternate":false,"speed":1}})]]></script></svg>