<svg width="23" height="27" viewBox="0 0 23 27" fill="none" xmlns="http://www.w3.org/2000/svg">
<path d="M22.2888 25.515C21.574 25.8382 20.8297 26.1124 20.0658 26.318C17.1671 27.1211 14.2684 27.1504 11.3795 26.2103C7.89315 25.0841 5.58201 22.7044 4.20119 19.3748C3.93678 18.7285 3.76051 18.0527 3.55486 17.377H0.822611C0.36234 17.377 0 17.0049 0 16.5544V14.7133C0 14.2531 0.372133 13.8907 0.822611 13.8907H3.08479C3.08479 13.3815 3.08479 12.9016 3.08479 12.3924H0.822611C0.36234 12.3924 0 12.0203 0 11.5698V9.7287C0 9.26843 0.372133 8.90609 0.822611 8.90609H3.70175L3.79968 8.62209C4.57333 6.16405 5.90517 4.05856 7.95191 2.4721C9.57755 1.2088 11.4578 0.513497 13.4752 0.190329C16.3445 -0.269942 19.1257 0.121777 21.8188 1.17942C21.9951 1.24797 22.1615 1.32632 22.328 1.42425C22.9744 1.80617 23.1408 2.28603 22.8568 2.98133C22.5533 3.70601 22.2497 4.44049 21.9167 5.15537C21.6327 5.77233 21.241 5.96819 20.5751 5.8213C19.6643 5.61565 18.7732 5.33165 17.8624 5.14558C15.943 4.75386 14.0334 4.73428 12.1629 5.46875C10.5568 6.10529 9.57755 7.32942 8.91162 8.85712C8.90183 8.87671 8.90183 8.8963 8.90183 8.91588H14.4936C14.9539 8.91588 15.3162 9.28802 15.3162 9.73849V11.5796C15.3162 12.0398 14.9441 12.4022 14.4936 12.4022H8.1086C8.0988 12.8918 8.1086 13.3815 8.1086 13.9005H14.5034C14.9637 13.9005 15.326 14.2726 15.326 14.7231V16.5642C15.326 17.0245 14.9539 17.3868 14.5034 17.3868H8.6668C9.37189 19.4042 10.5177 20.9613 12.6721 21.637C14.3957 22.1756 16.1291 22.1462 17.8722 21.7839C18.7732 21.5978 19.6545 21.3236 20.5555 21.118C21.2606 20.9613 21.6425 21.1473 21.9363 21.7937C22.2693 22.5183 22.5826 23.2528 22.8764 23.9971C23.1506 24.663 22.9744 25.2016 22.2888 25.515Z" fill="#FFC50F"/>
</svg>
