<svg width="26" height="25" viewBox="0 0 26 25" fill="none" xmlns="http://www.w3.org/2000/svg">
<path d="M24.5121 11.3175L19.9285 15.7854L20.9956 22.0062C21.0221 22.1224 21.0361 22.2431 21.0361 22.3673C21.0361 23.2586 20.3144 23.9814 19.4233 23.9831H19.418C19.1607 23.9831 18.9027 23.9218 18.6663 23.7975L13.0001 20.8193L7.33407 23.7975C7.09773 23.9217 6.83953 23.9831 6.5824 23.9831C6.2474 23.9831 5.91401 23.879 5.63243 23.6745C5.13499 23.3129 4.88573 22.7003 4.98978 22.0941L6.07214 15.7855L1.48806 11.3176C1.0476 10.8884 0.889035 10.2461 1.07916 9.66124C1.26928 9.07622 1.77492 8.64986 2.38353 8.56153L8.71836 7.64097L11.5509 1.90074C11.8231 1.34922 12.3848 1 12.9999 1C13.6149 1 14.1767 1.34912 14.4488 1.90064L17.2819 7.64097L23.6164 8.56153C24.225 8.64986 24.7308 9.07621 24.9208 9.66113C25.111 10.246 24.9524 10.8882 24.5121 11.3175Z" stroke="#FFC50F" stroke-width="2" stroke-linecap="round" stroke-linejoin="round"/>
</svg>
