<svg width="24" height="23" viewBox="0 0 24 23" fill="none" xmlns="http://www.w3.org/2000/svg">
<path d="M23.5121 10.3175L18.9285 14.7854L19.9956 21.0062C20.0221 21.1224 20.0361 21.2431 20.0361 21.3673C20.0361 22.2586 19.3144 22.9814 18.4233 22.9831H18.418C18.1607 22.9831 17.9027 22.9218 17.6663 22.7975L12.0001 19.8193L6.33407 22.7975C6.09773 22.9217 5.83953 22.9831 5.5824 22.9831C5.2474 22.9831 4.91401 22.879 4.63243 22.6745C4.13499 22.3129 3.88573 21.7003 3.98978 21.0941L5.07214 14.7855L0.48806 10.3176C0.0475978 9.88837 -0.110965 9.24615 0.079159 8.66124C0.269283 8.07622 0.774915 7.64986 1.38353 7.56153L7.71836 6.64097L10.5509 0.900744C10.8231 0.349224 11.3848 0 11.9999 0C12.6149 0 13.1767 0.349117 13.4488 0.900637L16.2819 6.64097L22.6164 7.56153C23.225 7.64986 23.7308 8.07621 23.9208 8.66113C24.111 9.24604 23.9524 9.88815 23.5121 10.3175Z" fill="#FFC50F"/>
</svg>
