<svg id="eWD8etjKkca1" xmlns="http://www.w3.org/2000/svg" xmlns:xlink="http://www.w3.org/1999/xlink" viewBox="0 0 400 400" shape-rendering="geometricPrecision" text-rendering="geometricPrecision"><defs><linearGradient id="eWD8etjKkca10-fill" x1="-3.877332" y1="0.037687" x2="18.022979" y2="0.037687" spreadMethod="pad" gradientUnits="userSpaceOnUse"><stop id="eWD8etjKkca10-fill-0" offset="0%" stop-color="rgb(161,195,252)"/><stop id="eWD8etjKkca10-fill-1" offset="100%" stop-color="rgb(138,184,253)"/></linearGradient><linearGradient id="eWD8etjKkca30-fill" x1="-170.787086" y1="-38.708873" x2="-91.750929" y2="-38.708873" spreadMethod="pad" gradientUnits="userSpaceOnUse"><stop id="eWD8etjKkca30-fill-0" offset="0%" stop-color="rgb(161,195,252)"/><stop id="eWD8etjKkca30-fill-1" offset="100%" stop-color="rgb(120,169,239)"/></linearGradient><linearGradient id="eWD8etjKkca57-fill" x1="107.109911" y1="273.025586" x2="79.707574" y2="254.307399" spreadMethod="pad" gradientUnits="userSpaceOnUse"><stop id="eWD8etjKkca57-fill-0" offset="0%" stop-color="rgb(66,141,252)"/><stop id="eWD8etjKkca57-fill-1" offset="36.960000%" stop-color="rgb(51,133,245)"/><stop id="eWD8etjKkca57-fill-2" offset="99.900000%" stop-color="rgb(26,120,232)"/></linearGradient><linearGradient id="eWD8etjKkca69-fill" x1="78.439540" y1="158.208467" x2="79.443193" y2="182.627674" spreadMethod="pad" gradientUnits="userSpaceOnUse"><stop id="eWD8etjKkca69-fill-0" offset="0%" stop-color="rgb(35,40,107)"/><stop id="eWD8etjKkca69-fill-1" offset="99.900000%" stop-color="rgb(22,28,84)"/></linearGradient></defs><g id="eWD8etjKkca2"><g id="eWD8etjKkca3"><g id="eWD8etjKkca4" transform="matrix(2.78000000000000 0 0 2.78250000000000 909 49)"><g id="eWD8etjKkca5"><g id="eWD8etjKkca6"><path id="eWD8etjKkca7" d="M-206.600000,102.600000L-240.800000,102.600000C-244.300000,102.600000,-247.100000,99.800000,-247.100000,96.300000L-247.100000,12.200000C-247.100000,8.700000,-244.300000,5.900000,-240.800000,5.900000L-206.600000,5.900000C-203.100000,5.900000,-200.300000,8.700000,-200.300000,12.200000L-200.300000,96.300000C-200.300000,99.800000,-203.100000,102.600000,-206.600000,102.600000Z" fill="rgb(193,215,253)" stroke="none" stroke-width="1"/><ellipse id="eWD8etjKkca8" rx="1.100000" ry="1.100000" transform="matrix(1 0 0 1 -230.40000000000001 12)" fill="rgb(161,195,252)" stroke="none" stroke-width="1"/><path id="eWD8etjKkca9" d="M-206.600000,5.900000L-213.200000,5.900000C-213.500000,6.100000,-213.900000,6.300000,-214.200000,6.500000C-222.800000,12.200000,-230.200000,20.300000,-233.100000,30.100000C-234.300000,34.100000,-234.700000,38.200000,-235.500000,42.200000C-237.500000,51.400000,-242,60,-247.200000,67.900000L-247.200000,96.200000C-247.200000,99.700000,-244.400000,102.500000,-240.900000,102.500000L-206.700000,102.500000C-203.200000,102.500000,-200.400000,99.700000,-200.400000,96.200000L-200.400000,12.200000C-200.300000,8.700000,-203.100000,5.900000,-206.600000,5.900000Z" fill="rgb(161,195,252)" stroke="none" stroke-width="1"/><ellipse id="eWD8etjKkca10" rx="3.900000" ry="3.900000" transform="matrix(1 0 0 1 -223.40000000000001 96.90000000000001)" fill="url(#eWD8etjKkca10-fill)" stroke="none" stroke-width="1"/><polygon id="eWD8etjKkca11" points="-227.400000,11.600000 -219.500000,10.700000 -219.400000,12 -227.200000,13" fill="rgb(161,195,252)" stroke="none" stroke-width="1"/><rect id="eWD8etjKkca12" width="43.200000" height="74.900000" rx="0" ry="0" transform="matrix(1 0 0 1 -245.30000000000001 16.80000000000000)" fill="rgb(255,255,255)" stroke="none" stroke-width="1"/><ellipse id="eWD8etjKkca13" rx="3" ry="3" transform="matrix(1 0 0 1 -223.80000000000001 96.50000000000000)" fill="rgb(193,215,253)" stroke="none" stroke-width="1"/><g id="eWD8etjKkca14"><path id="eWD8etjKkca15" d="M-220.500000,11.900000L-227,11.900000C-227.100000,11.900000,-227.200000,11.800000,-227.200000,11.700000C-227.200000,11.600000,-227.100000,11.500000,-227,11.500000L-220.500000,11.500000C-220.400000,11.500000,-220.300000,11.600000,-220.300000,11.700000C-220.300000,11.800000,-220.400000,11.900000,-220.500000,11.900000Z" fill="rgb(66,141,252)" stroke="none" stroke-width="1"/></g><ellipse id="eWD8etjKkca16" rx="0.800000" ry="0.800000" transform="matrix(1 0 0 1 -230.40000000000001 11.80000000000000)" fill="rgb(66,141,252)" stroke="none" stroke-width="1"/><rect id="eWD8etjKkca17" width="0.800000" height="3.300000" rx="0" ry="0" transform="matrix(1 0 0 1 -247.80000000000001 17)" fill="rgb(161,195,252)" stroke="none" stroke-width="1"/><rect id="eWD8etjKkca18" width="0.800000" height="6" rx="0" ry="0" transform="matrix(1 0 0 1 -247.80000000000001 24.40000000000000)" fill="rgb(161,195,252)" stroke="none" stroke-width="1"/><rect id="eWD8etjKkca19" width="0.800000" height="6" rx="0" ry="0" transform="matrix(1 0 0 1 -200.19999999999999 24.40000000000000)" fill="rgb(161,195,252)" stroke="none" stroke-width="1"/><rect id="eWD8etjKkca20" width="0.800000" height="6" rx="0" ry="0" transform="matrix(1 0 0 1 -247.80000000000001 32.20000000000000)" fill="rgb(161,195,252)" stroke="none" stroke-width="1"/><polygon id="eWD8etjKkca21" points="-231.300000,10.300000 -230.200000,11.400000 -231.400000,12.500000 -232.400000,11.300000" fill="rgb(255,255,255)" stroke="none" stroke-width="1"/><polygon id="eWD8etjKkca22" points="-232,10.400000 -231.300000,11.200000 -232.100000,11.900000 -232.900000,11.100000" fill="rgb(161,195,252)" stroke="none" stroke-width="1"/></g></g></g></g></g><g id="eWD8etjKkca23" transform="matrix(1 0 0 1 -0.32022346562502 3.15726562500001)"><g id="eWD8etjKkca24" transform="matrix(4.53147000000000 0 0 4.51125000000000 1021 395)"><g id="eWD8etjKkca25"><g id="eWD8etjKkca26"><g id="eWD8etjKkca27"><g id="eWD8etjKkca28"><path id="eWD8etjKkca29" d="M-159.700000,-41.700000L-164.300000,-41.700000C-166.600000,-41.700000,-168.400000,-43.500000,-168.400000,-45.800000L-168.400000,-48.100000C-168.400000,-51.600000,-165.500000,-54.500000,-162,-54.500000C-158.500000,-54.500000,-155.600000,-51.600000,-155.600000,-48.100000L-155.600000,-45.800000C-155.600000,-43.500000,-157.500000,-41.700000,-159.700000,-41.700000ZM-162.100000,-52.800000C-164.700000,-52.800000,-166.800000,-50.700000,-166.800000,-48.100000L-166.800000,-45.800000C-166.800000,-44.500000,-165.700000,-43.400000,-164.400000,-43.400000L-159.800000,-43.400000C-158.500000,-43.400000,-157.400000,-44.500000,-157.400000,-45.800000L-157.400000,-48.100000C-157.300000,-50.700000,-159.400000,-52.800000,-162.100000,-52.800000Z" fill="rgb(161,195,252)" stroke="none" stroke-width="1"/></g></g><path id="eWD8etjKkca30" d="M-158.400000,-30L-165.600000,-30C-168.400000,-30,-170.700000,-32.300000,-170.700000,-35.100000L-170.700000,-42.300000C-170.700000,-45.100000,-168.400000,-47.400000,-165.600000,-47.400000L-158.400000,-47.400000C-155.600000,-47.400000,-153.300000,-45.100000,-153.300000,-42.300000L-153.300000,-35.100000C-153.300000,-32.300000,-155.600000,-30,-158.400000,-30Z" fill="url(#eWD8etjKkca30-fill)" stroke="none" stroke-width="1"/><path id="eWD8etjKkca31" d="M-159.500000,-31.700000L-166,-31.700000C-168.500000,-31.700000,-170.600000,-33.800000,-170.600000,-36.300000L-170.600000,-42.700000C-170.600000,-45.200000,-168.500000,-47.300000,-166,-47.300000L-159.500000,-47.300000C-157,-47.300000,-154.900000,-45.200000,-154.900000,-42.700000L-154.900000,-36.300000C-154.900000,-33.700000,-156.900000,-31.700000,-159.500000,-31.700000Z" fill="rgb(161,195,252)" stroke="none" stroke-width="1"/><path id="eWD8etjKkca32" d="M-162.100000,-35.300000L-162.100000,-35.300000C-162.900000,-35.300000,-163.600000,-36,-163.600000,-36.800000L-163.600000,-42C-163.600000,-42.800000,-162.900000,-43.500000,-162.100000,-43.500000L-162.100000,-43.500000C-161.300000,-43.500000,-160.600000,-42.800000,-160.600000,-42L-160.600000,-36.800000C-160.500000,-35.900000,-161.200000,-35.300000,-162.100000,-35.300000Z" fill="rgb(35,40,107)" stroke="none" stroke-width="1"/></g></g></g></g><g id="eWD8etjKkca33" transform="matrix(0 -5.02410000000000 5.07749000000000 0 478 803)"><g id="eWD8etjKkca34"><g id="eWD8etjKkca35"><rect id="eWD8etjKkca36" width="1.600000" height="3.100000" rx="0" ry="0" transform="matrix(-0.00000300000000 -1 1 -0.00000300000000 112.98865890000002 -51.42223860000002)" fill="rgb(233,74,71)" stroke="none" stroke-width="1"/><rect id="eWD8etjKkca37" width="1.600000" height="3.100000" rx="0" ry="0" transform="matrix(-0.00000300000000 -1 1 -0.00000300000000 112.99965890000001 -48.33284790000002)" fill="rgb(233,74,71)" stroke="none" stroke-width="1"/><path id="eWD8etjKkca38" d="M117.100000,-45.900000L115.800000,-45.900000C115,-45.900000,114.300000,-46.500000,114.300000,-47.400000L114.300000,-56.900000L118.500000,-56.900000L118.500000,-47.400000C118.600000,-46.600000,117.900000,-45.900000,117.100000,-45.900000Z" fill="rgb(233,74,71)" stroke="none" stroke-width="1"/><rect id="eWD8etjKkca39" width="9.100000" height="1.600000" rx="0" ry="0" transform="matrix(-0.00000300000000 -1 1 -0.00000300000000 115.68366430000000 -47.94654040000002)" fill="rgb(214,41,41)" stroke="none" stroke-width="1"/><path id="eWD8etjKkca40" d="M118.900000,-66.800000L114,-66.800000C112.100000,-66.800000,110.500000,-65.300000,110.500000,-63.300000L110.500000,-58.400000C110.500000,-56.500000,112,-54.900000,114,-54.900000L118.900000,-54.900000C120.800000,-54.900000,122.400000,-56.400000,122.400000,-58.400000L122.400000,-63.300000C122.300000,-65.300000,120.800000,-66.800000,118.900000,-66.800000Z" fill="rgb(233,74,71)" stroke="none" stroke-width="1"/></g></g></g><g id="eWD8etjKkca41" transform="matrix(1 0 0 1 0 3)"><path id="eWD8etjKkca42" d="M224.600000,119.500000L220.700000,115.600000C218,112.900000,218,108.400000,220.700000,105.700000C223.400000,103,227.900000,103,230.600000,105.800000L234.500000,109.700000C237.200000,112.400000,237.200000,116.900000,234.500000,119.600000C231.800000,122.200000,227.300000,122.200000,224.600000,119.500000ZM228.100000,108.400000C226.800000,107.100000,224.700000,107.100000,223.400000,108.400000C222.100000,109.700000,222.100000,111.800000,223.400000,113.100000L227.300000,117C228.600000,118.300000,230.700000,118.300000,232,117C233.300000,115.700000,233.300000,113.600000,232,112.300000L228.100000,108.400000Z" fill="rgb(129,174,242)" stroke="none" stroke-width="1"/><path id="eWD8etjKkca43" d="M239.700000,134.800000C237.200000,132.200000,237,128.100000,239.300000,125.400000C240.500000,124,242.200000,123.100000,244.100000,123C246,122.900000,247.800000,123.400000,249.200000,124.700000L253.400000,128.200000C254.800000,129.400000,255.700000,131.100000,255.800000,133C256,134.900000,255.400000,136.700000,254.200000,138.100000C251.700000,141,247.300000,141.400000,244.300000,138.900000L244.300000,138.900000L240.100000,135.400000C240,135,239.900000,134.900000,239.700000,134.800000ZM251.200000,131.100000C251.100000,131,251.100000,131,251,130.900000L246.800000,127.400000C246.100000,126.800000,245.300000,126.500000,244.400000,126.600000C243.500000,126.700000,242.700000,127.100000,242.100000,127.700000C241.500000,128.300000,241.200000,129.200000,241.300000,130.100000C241.400000,131,241.800000,131.800000,242.500000,132.400000L246.700000,135.900000C248.100000,137.100000,250.200000,136.900000,251.400000,135.500000C252,134.800000,252.300000,134,252.200000,133.100000C252.100000,132.400000,251.800000,131.700000,251.200000,131.100000Z" fill="rgb(129,174,242)" stroke="none" stroke-width="1"/><path id="eWD8etjKkca44" d="M229.900000,118C229.200000,117.300000,229.200000,116.200000,229.900000,115.400000C230.600000,114.700000,231.800000,114.700000,232.500000,115.400000L244.100000,126.600000C244.800000,127.300000,244.900000,128.500000,244.100000,129.200000C243.300000,129.900000,242.200000,129.900000,241.500000,129.200000L229.900000,118C230,118,230,118,229.900000,118Z" fill="rgb(162,207,255)" stroke="none" stroke-width="1"/><path id="eWD8etjKkca45" d="M260.800000,152.200000C258.400000,149.800000,258.100000,146,260.100000,143.200000C261.200000,141.700000,262.800000,140.700000,264.700000,140.400000C266.500000,140.100000,268.400000,140.600000,269.900000,141.700000L274.300000,144.900000C275.800000,146,276.800000,147.600000,277.100000,149.500000C277.400000,151.300000,276.900000,153.200000,275.800000,154.700000C274.700000,156.200000,273.100000,157.200000,271.200000,157.500000C269.400000,157.800000,267.500000,157.300000,266,156.200000L261.600000,153C261.400000,152.700000,261.100000,152.400000,260.800000,152.200000ZM272.600000,148.200000C272.500000,148.100000,272.300000,148,272.200000,147.900000L267.800000,144.700000C267.100000,144.200000,266.200000,144,265.300000,144.100000C264.400000,144.200000,263.700000,144.700000,263.100000,145.400000C262,146.900000,262.300000,148.900000,263.800000,150L268.200000,153.200000C268.900000,153.700000,269.800000,153.900000,270.700000,153.800000C271.600000,153.700000,272.300000,153.200000,272.900000,152.500000C273.400000,151.800000,273.600000,150.900000,273.500000,150C273.400000,149.300000,273,148.700000,272.600000,148.200000Z" fill="rgb(129,174,242)" stroke="none" stroke-width="1"/><path id="eWD8etjKkca46" d="M250.100000,136.400000C249.400000,135.700000,249.400000,134.700000,250,133.900000C250.600000,133.100000,251.800000,133,252.600000,133.700000L265,144C265.800000,144.600000,265.900000,145.800000,265.200000,146.600000C264.600000,147.400000,263.400000,147.500000,262.600000,146.800000L250.200000,136.500000C250.200000,136.500000,250.100000,136.400000,250.100000,136.400000Z" fill="rgb(162,207,255)" stroke="none" stroke-width="1"/><path id="eWD8etjKkca47" d="M270.200000,153.600000C269.500000,152.900000,269.500000,151.900000,270.100000,151.100000C270.700000,150.300000,271.900000,150.200000,272.700000,150.900000L280.700000,157.500000C281.500000,158.100000,281.600000,159.300000,280.900000,160.100000C280.300000,160.900000,279.100000,161,278.300000,160.300000L270.300000,153.700000C270.200000,153.700000,270.200000,153.700000,270.200000,153.600000Z" fill="rgb(162,207,255)" stroke="none" stroke-width="1"/></g><g id="eWD8etjKkca48" transform="matrix(1 0 0 1 0 3)"><path id="eWD8etjKkca49" d="M347.700000,118.900000L351.500000,115C354.200000,112.200000,354.200000,107.800000,351.400000,105.100000C348.700000,102.400000,344.200000,102.500000,341.500000,105.200000L337.700000,109.100000C335,111.900000,335,116.300000,337.800000,119C340.600000,121.700000,345,121.700000,347.700000,118.900000ZM344.200000,107.900000C345.500000,106.600000,347.600000,106.600000,348.900000,107.800000C350.200000,109.100000,350.200000,111.200000,348.900000,112.500000L345.100000,116.400000C343.800000,117.700000,341.700000,117.700000,340.400000,116.500000C339.100000,115.300000,339.100000,113.100000,340.400000,111.800000L344.200000,107.900000Z" fill="rgb(129,174,242)" stroke="none" stroke-width="1"/><path id="eWD8etjKkca50" d="M332.700000,134.300000C335.200000,131.700000,335.400000,127.600000,333,124.900000C331.800000,123.500000,330.100000,122.600000,328.200000,122.500000C326.300000,122.400000,324.500000,123,323.100000,124.200000L319,127.800000C317.600000,129,316.700000,130.700000,316.600000,132.600000C316.500000,134.500000,317.100000,136.300000,318.300000,137.700000C320.800000,140.600000,325.200000,140.900000,328.200000,138.400000L328.200000,138.400000L332.300000,134.800000C332.400000,134.600000,332.600000,134.500000,332.700000,134.300000ZM321.200000,130.700000C321.300000,130.600000,321.300000,130.600000,321.400000,130.500000L325.500000,126.900000C326.200000,126.300000,327,126,327.900000,126.100000C328.800000,126.200000,329.600000,126.600000,330.200000,127.200000C330.800000,127.900000,331.100000,128.700000,331,129.600000C330.900000,130.500000,330.500000,131.300000,329.900000,131.900000L325.800000,135.500000C324.400000,136.700000,322.300000,136.500000,321.100000,135.200000C320.500000,134.500000,320.200000,133.700000,320.300000,132.800000C320.300000,132,320.700000,131.300000,321.200000,130.700000Z" fill="rgb(129,174,242)" stroke="none" stroke-width="1"/><path id="eWD8etjKkca51" d="M342.400000,117.500000C343.100000,116.800000,343.100000,115.600000,342.400000,114.900000C341.700000,114.200000,340.500000,114.200000,339.800000,114.900000L328.300000,126.100000C327.600000,126.800000,327.600000,128,328.300000,128.700000C329,129.400000,330.200000,129.400000,330.900000,128.700000L342.400000,117.500000C342.400000,117.500000,342.400000,117.500000,342.400000,117.500000Z" fill="rgb(162,207,255)" stroke="none" stroke-width="1"/><path id="eWD8etjKkca52" d="M311.700000,151.800000C314.100000,149.400000,314.400000,145.500000,312.300000,142.800000C311.200000,141.300000,309.600000,140.300000,307.700000,140.100000C305.900000,139.800000,304,140.300000,302.500000,141.400000L298.100000,144.700000C296.600000,145.800000,295.600000,147.400000,295.300000,149.300000C295,151.100000,295.500000,153,296.600000,154.500000C297.700000,156,299.300000,157,301.200000,157.200000C303,157.500000,304.900000,157,306.400000,155.900000L310.800000,152.600000C311.200000,152.300000,311.500000,152.100000,311.700000,151.800000ZM300,147.900000C300.100000,147.800000,300.300000,147.700000,300.400000,147.600000L304.800000,144.300000C305.500000,143.800000,306.400000,143.600000,307.300000,143.700000C308.200000,143.800000,308.900000,144.300000,309.500000,145C310.600000,146.500000,310.300000,148.500000,308.800000,149.600000L304.400000,152.900000C303.700000,153.400000,302.800000,153.600000,301.900000,153.500000C301,153.400000,300.300000,152.900000,299.700000,152.200000C299.200000,151.500000,299,150.600000,299.100000,149.700000C299.200000,149,299.500000,148.400000,300,147.900000Z" fill="rgb(129,174,242)" stroke="none" stroke-width="1"/><path id="eWD8etjKkca53" d="M322.300000,136C323,135.300000,323,134.300000,322.400000,133.500000C321.700000,132.700000,320.600000,132.600000,319.800000,133.300000L307.500000,143.600000C306.700000,144.300000,306.600000,145.400000,307.300000,146.200000C308,147,309.100000,147.100000,309.900000,146.400000L322.200000,136.100000C322.300000,136.100000,322.300000,136,322.300000,136Z" fill="rgb(162,207,255)" stroke="none" stroke-width="1"/><path id="eWD8etjKkca54" d="M302.800000,152.800000C303.500000,152.100000,303.500000,151.100000,302.900000,150.300000C302.200000,149.500000,301.100000,149.400000,300.300000,150.100000L292.300000,156.900000C291.500000,157.600000,291.400000,158.700000,292.100000,159.500000C292.800000,160.300000,293.900000,160.400000,294.700000,159.700000L302.700000,152.900000C302.700000,152.900000,302.800000,152.900000,302.800000,152.800000Z" fill="rgb(162,207,255)" stroke="none" stroke-width="1"/></g><g id="eWD8etjKkca55"><g id="eWD8etjKkca56"><path id="eWD8etjKkca57" d="M126,317L112.500000,317C112.500000,317,107.100000,312.400000,101.900000,305.300000C96.100000,297.200000,99.300000,284.700000,88.500000,275.800000C82.600000,271,80.600000,259.800000,78.700000,257.300000C78.700000,256.200000,78.700000,255.200000,78.700000,254.300000C78.500000,240.300000,77,223.800000,76,213.900000C76.400000,215,76.700000,216.100000,77.100000,217.400000C79.900000,226.500000,88.700000,228.900000,88.700000,228.900000L93.600000,223C95.300000,226.100000,98.400000,232,100,237.200000C102.300000,244.500000,126,317,126,317Z" fill="url(#eWD8etjKkca57-fill)" stroke="none" stroke-width="1"/></g><g id="eWD8etjKkca58"><path id="eWD8etjKkca59" d="M63.700000,317L57.400000,334.600000L101.900000,334.600000C101.900000,334.600000,99.600000,330.200000,92,326.900000C84.400000,323.700000,77.300000,316.900000,77.300000,316.900000L63.700000,316.900000" fill="rgb(161,195,252)" stroke="none" stroke-width="1"/><path id="eWD8etjKkca60" d="M112.500000,317L106.200000,334.600000L150.700000,334.600000C150.700000,334.600000,148.400000,330.200000,140.800000,326.900000C133.200000,323.700000,126.100000,316.900000,126.100000,316.900000L112.500000,316.900000" fill="rgb(161,195,252)" stroke="none" stroke-width="1"/></g><g id="eWD8etjKkca61"><path id="eWD8etjKkca62" d="M77.300000,317L63.700000,317C52,305.500000,52.700000,296,51.800000,277.800000C51,259.600000,48.100000,265.400000,49,248.100000C49.900000,230.800000,49.400000,234.200000,43.800000,209.600000C38.300000,185.500000,50.400000,171.400000,51.100000,170.700000C55.500000,175,61.400000,180.100000,66.300000,182.700000C62.300000,192.300000,66.600000,199.400000,69.500000,202.200000C72.400000,205.100000,73.900000,207.500000,76.100000,213.900000C77.200000,223.900000,78.600000,240.300000,78.800000,254.300000C79,270,77.300000,317,77.300000,317Z" fill="rgb(66,141,252)" stroke="none" stroke-width="1"/></g><g id="eWD8etjKkca63"><path id="eWD8etjKkca64" d="M57.700000,174.600000L58.500000,176.500000L59.300000,176.200000C58.700000,175.600000,58.200000,175.100000,57.700000,174.600000Z" fill="none" stroke="none" stroke-width="1"/></g><path id="eWD8etjKkca65" d="M64.400000,185.300000C64.500000,185.300000,64.500000,185.300000,64.500000,185.400000C64.500000,185.500000,64.500000,185.500000,64.400000,185.500000C64.300000,185.500000,64.300000,185.500000,64.300000,185.400000C64.300000,185.400000,64.300000,185.300000,64.400000,185.300000ZM62.700000,186.100000C62.700000,186.200000,62.800000,186.200000,62.800000,186.200000C62.900000,186.200000,62.900000,186.100000,62.900000,186.100000C62.900000,186,62.800000,186,62.800000,186C62.700000,186.100000,62.700000,186.100000,62.700000,186.100000ZM64.600000,182.600000C64.600000,182.700000,64.700000,182.700000,64.600000,182.600000C64.700000,182.700000,64.700000,182.600000,64.700000,182.600000C64.800000,182.600000,64.700000,182.600000,64.600000,182.600000C64.600000,182.500000,64.600000,182.600000,64.600000,182.600000ZM62.900000,182.600000C62.900000,182.700000,62.900000,182.700000,62.900000,182.600000C63,182.700000,63,182.600000,63,182.600000L62.900000,182.600000C62.900000,182.600000,62.900000,182.600000,62.900000,182.600000ZM61.100000,182.700000C61.100000,182.800000,61.100000,182.800000,61.100000,182.700000C61.200000,182.800000,61.200000,182.700000,61.200000,182.700000C61.200000,182.600000,61.100000,182.600000,61.100000,182.700000C61.100000,182.600000,61.100000,182.600000,61.100000,182.700000ZM64.100000,189.600000C64.200000,189.700000,64.200000,189.600000,64.200000,189.600000C64.200000,189.500000,64.200000,189.500000,64.200000,189.500000C64.100000,189.500000,64.100000,189.500000,64.100000,189.500000C64.100000,189.500000,64.100000,189.600000,64.100000,189.600000ZM64.900000,184.700000C65,184.800000,65,184.800000,65.100000,184.800000C65.200000,184.700000,65.200000,184.700000,65.200000,184.600000C65.100000,184.500000,65.100000,184.500000,65,184.500000C64.900000,184.600000,64.900000,184.700000,64.900000,184.700000ZM62.900000,186.100000C63,186.200000,63,186.200000,63.100000,186.200000C63.200000,186.100000,63.200000,186.100000,63.200000,186C63.100000,185.900000,63.100000,185.900000,63,185.900000C62.800000,186,62.800000,186,62.900000,186.100000ZM60.700000,187.300000C60.800000,187.400000,60.800000,187.400000,60.900000,187.400000C61,187.300000,61,187.300000,61,187.200000C60.900000,187.100000,60.900000,187.100000,60.800000,187.100000C60.700000,187.200000,60.700000,187.300000,60.700000,187.300000ZM58.600000,188.600000C58.700000,188.700000,58.700000,188.700000,58.800000,188.700000C58.900000,188.600000,58.900000,188.600000,58.900000,188.500000C58.800000,188.400000,58.800000,188.400000,58.700000,188.400000C58.600000,188.500000,58.600000,188.600000,58.600000,188.600000ZM61.800000,180.400000C61.800000,180.500000,61.800000,180.500000,61.900000,180.500000C62,180.500000,62,180.500000,62,180.400000C62,180.300000,62,180.300000,61.900000,180.300000C61.900000,180.200000,61.800000,180.300000,61.800000,180.400000ZM59.400000,179.700000C59.400000,179.800000,59.400000,179.800000,59.500000,179.800000C59.600000,179.800000,59.600000,179.800000,59.600000,179.700000C59.600000,179.600000,59.600000,179.600000,59.500000,179.600000C59.400000,179.600000,59.400000,179.700000,59.400000,179.700000ZM57,179.200000C57,179.300000,57,179.300000,57.100000,179.300000C57.200000,179.300000,57.200000,179.300000,57.200000,179.200000C57.200000,179.100000,57.200000,179.100000,57.100000,179.100000C57.100000,179.100000,57,179.100000,57,179.200000ZM63,183.100000C63,183.200000,63.100000,183.200000,63.100000,183.200000C63.200000,183.200000,63.200000,183.100000,63.200000,183.100000C63.200000,183,63.100000,183,63.100000,183C63.100000,183,63,183,63,183.100000ZM60.600000,183.500000C60.600000,183.600000,60.700000,183.600000,60.700000,183.600000C60.800000,183.600000,60.800000,183.500000,60.800000,183.500000C60.800000,183.400000,60.700000,183.400000,60.700000,183.400000C60.600000,183.400000,60.600000,183.400000,60.600000,183.500000ZM58.100000,183.900000C58.100000,184,58.200000,184,58.200000,184C58.300000,184,58.300000,183.900000,58.300000,183.900000C58.300000,183.800000,58.200000,183.800000,58.200000,183.800000C58.200000,183.800000,58.100000,183.800000,58.100000,183.900000ZM55.700000,184.300000C55.700000,184.400000,55.800000,184.400000,55.800000,184.400000C55.900000,184.400000,55.900000,184.300000,55.900000,184.300000C55.900000,184.200000,55.800000,184.200000,55.800000,184.200000C55.700000,184.200000,55.700000,184.200000,55.700000,184.300000ZM64.100000,182.300000C64.100000,182.400000,64.200000,182.400000,64.200000,182.400000C64.300000,182.400000,64.300000,182.300000,64.300000,182.300000C64.300000,182.200000,64.200000,182.200000,64.200000,182.200000C64.100000,182.200000,64.100000,182.300000,64.100000,182.300000ZM62.200000,182.700000C62.200000,182.800000,62.300000,182.800000,62.300000,182.800000C62.400000,182.800000,62.400000,182.700000,62.400000,182.700000C62.400000,182.600000,62.300000,182.600000,62.300000,182.600000C62.300000,182.600000,62.200000,182.700000,62.200000,182.700000ZM60.400000,183.100000C60.400000,183.200000,60.500000,183.200000,60.500000,183.200000C60.500000,183.200000,60.600000,183.100000,60.600000,183.100000C60.600000,183,60.500000,183,60.500000,183C60.500000,183.100000,60.400000,183.100000,60.400000,183.100000ZM58.600000,183.600000C58.600000,183.700000,58.700000,183.700000,58.700000,183.700000C58.800000,183.700000,58.800000,183.600000,58.800000,183.600000C58.800000,183.500000,58.700000,183.500000,58.700000,183.500000C58.600000,183.500000,58.600000,183.500000,58.600000,183.600000ZM64.900000,186.200000C65,186.200000,65,186.200000,65,186.200000C65,186.100000,65,186.100000,65,186.100000C64.900000,186.100000,64.900000,186.100000,64.900000,186.100000C64.900000,186.200000,64.900000,186.200000,64.900000,186.200000ZM63.900000,187.900000C64,187.900000,64,187.900000,64,187.900000C64,187.800000,64,187.800000,64,187.800000C63.900000,187.800000,63.900000,187.800000,63.900000,187.800000C63.900000,187.800000,63.900000,187.900000,63.900000,187.900000ZM62.900000,189.500000C63,189.500000,63,189.500000,63,189.500000C63,189.400000,63,189.400000,63,189.400000C62.900000,189.400000,62.900000,189.400000,62.900000,189.400000C62.900000,189.400000,62.900000,189.500000,62.900000,189.500000ZM61.200000,180.300000C61.200000,180.400000,61.200000,180.400000,61.300000,180.400000C61.400000,180.400000,61.400000,180.400000,61.400000,180.300000C61.400000,180.200000,61.400000,180.200000,61.300000,180.200000C61.200000,180.200000,61.200000,180.300000,61.200000,180.300000ZM59.300000,180C59.300000,180.100000,59.300000,180.100000,59.400000,180.100000C59.500000,180.100000,59.500000,180.100000,59.500000,180C59.500000,179.900000,59.500000,179.900000,59.400000,179.900000C59.300000,180,59.300000,180,59.300000,180ZM57.400000,179.700000C57.400000,179.800000,57.400000,179.800000,57.500000,179.800000C57.600000,179.800000,57.600000,179.800000,57.600000,179.700000C57.600000,179.600000,57.600000,179.600000,57.500000,179.600000C57.500000,179.700000,57.400000,179.700000,57.400000,179.700000ZM63.900000,184.200000C63.900000,184.300000,64,184.300000,64,184.200000C64.100000,184.200000,64.100000,184.100000,64,184.100000C64,184,63.900000,184,63.900000,184.100000C63.900000,184.100000,63.900000,184.200000,63.900000,184.200000ZM62.400000,185.300000C62.400000,185.400000,62.500000,185.400000,62.500000,185.300000C62.600000,185.300000,62.600000,185.200000,62.500000,185.200000C62.500000,185.100000,62.400000,185.100000,62.400000,185.200000C62.400000,185.200000,62.400000,185.300000,62.400000,185.300000ZM60.800000,186.500000C60.800000,186.600000,60.900000,186.600000,60.900000,186.500000C61,186.500000,61,186.400000,60.900000,186.400000C60.900000,186.300000,60.800000,186.300000,60.800000,186.400000C60.800000,186.300000,60.800000,186.400000,60.800000,186.500000ZM59.300000,187.500000C59.300000,187.600000,59.400000,187.600000,59.400000,187.500000C59.500000,187.500000,59.500000,187.400000,59.400000,187.400000C59.400000,187.300000,59.300000,187.300000,59.300000,187.400000C59.300000,187.500000,59.300000,187.500000,59.300000,187.500000ZM63.500000,181.500000C63.500000,181.500000,63.600000,181.500000,63.500000,181.500000C63.600000,181.500000,63.600000,181.500000,63.500000,181.500000C63.600000,181.400000,63.600000,181.400000,63.500000,181.500000C63.500000,181.400000,63.500000,181.500000,63.500000,181.500000ZM62.500000,181.800000C62.600000,181.900000,62.600000,181.900000,62.500000,181.800000C62.600000,181.800000,62.600000,181.800000,62.500000,181.800000C62.600000,181.800000,62.600000,181.700000,62.500000,181.800000L62.500000,181.800000ZM61.600000,182.200000C61.600000,182.200000,61.600000,182.300000,61.600000,182.200000C61.600000,182.200000,61.700000,182.200000,61.600000,182.200000C61.600000,182.100000,61.600000,182.100000,61.600000,182.200000C61.600000,182.100000,61.600000,182.200000,61.600000,182.200000ZM65.200000,183.300000L65.200000,183.300000L65.200000,183.300000L65.200000,183.300000C65.100000,183.200000,65.200000,183.300000,65.200000,183.300000ZM64.800000,184.200000L64.800000,184.200000L64.800000,184.200000L64.800000,184.200000L64.800000,184.200000ZM64.300000,185.200000L64.300000,185.200000L64.300000,185.200000L64.300000,185.200000L64.300000,185.200000ZM61.700000,180.100000C61.700000,180.100000,61.700000,180.200000,61.700000,180.100000C61.800000,180.200000,61.800000,180.100000,61.800000,180.100000C61.800000,180.100000,61.800000,180.100000,61.700000,180.100000C61.700000,180.100000,61.700000,180.100000,61.700000,180.100000ZM60.700000,180.100000C60.700000,180.100000,60.700000,180.100000,60.700000,180.100000C60.800000,180.200000,60.800000,180.100000,60.800000,180.100000C60.700000,180.100000,60.700000,180,60.700000,180.100000C60.700000,180,60.700000,180,60.700000,180.100000ZM63.700000,182.800000L63.700000,182.800000L63.700000,182.800000L63.700000,182.800000C63.700000,182.800000,63.700000,182.800000,63.700000,182.800000ZM63,183.500000L63,183.500000L63,183.500000L63,183.500000L63,183.500000ZM62.200000,184.300000L62.200000,184.300000L62.200000,184.300000L62.200000,184.300000C62.200000,184.200000,62.200000,184.200000,62.200000,184.300000ZM61.300000,180C61.300000,180.100000,61.400000,180.100000,61.400000,180.100000C61.400000,180.100000,61.500000,180,61.500000,180C61.500000,179.900000,61.400000,179.900000,61.400000,179.900000C61.300000,179.900000,61.300000,179.900000,61.300000,180ZM59.400000,180.300000C59.400000,180.400000,59.500000,180.400000,59.500000,180.400000C59.500000,180.400000,59.600000,180.300000,59.600000,180.300000C59.600000,180.200000,59.500000,180.200000,59.500000,180.200000C59.400000,180.200000,59.300000,180.200000,59.400000,180.300000ZM57.400000,180.600000C57.400000,180.700000,57.500000,180.700000,57.500000,180.700000C57.600000,180.700000,57.600000,180.600000,57.600000,180.600000C57.600000,180.500000,57.500000,180.500000,57.500000,180.500000C57.400000,180.500000,57.400000,180.500000,57.400000,180.600000ZM55.500000,180.900000C55.500000,181,55.600000,181,55.600000,181C55.600000,181,55.700000,180.900000,55.700000,180.900000C55.700000,180.800000,55.600000,180.800000,55.600000,180.800000C55.500000,180.800000,55.500000,180.900000,55.500000,180.900000ZM63,182.500000C63.100000,182.500000,63.100000,182.500000,63.100000,182.500000C63.100000,182.400000,63.100000,182.400000,63.100000,182.400000C63,182.400000,63,182.400000,63,182.400000C62.900000,182.500000,62.900000,182.500000,63,182.500000ZM61.800000,184.200000C61.900000,184.200000,61.900000,184.200000,61.900000,184.200000C61.900000,184.100000,61.900000,184.100000,61.900000,184.100000C61.800000,184.100000,61.800000,184.100000,61.800000,184.100000C61.700000,184.100000,61.800000,184.100000,61.800000,184.200000ZM60.700000,185.700000C60.800000,185.700000,60.800000,185.700000,60.800000,185.700000L60.800000,185.600000C60.700000,185.600000,60.700000,185.600000,60.700000,185.600000C60.600000,185.700000,60.600000,185.700000,60.700000,185.700000ZM59.500000,187.300000C59.600000,187.300000,59.600000,187.300000,59.600000,187.300000C59.600000,187.200000,59.600000,187.200000,59.600000,187.200000C59.500000,187.200000,59.500000,187.200000,59.500000,187.200000C59.400000,187.200000,59.400000,187.300000,59.500000,187.300000ZM58.400000,177.700000C58.400000,177.800000,58.400000,177.800000,58.500000,177.800000C58.600000,177.800000,58.600000,177.800000,58.600000,177.700000C58.600000,177.600000,58.600000,177.600000,58.500000,177.600000C58.500000,177.600000,58.400000,177.600000,58.400000,177.700000ZM56.500000,177.200000C56.500000,177.300000,56.500000,177.300000,56.600000,177.300000C56.700000,177.300000,56.700000,177.300000,56.700000,177.200000C56.700000,177.100000,56.700000,177.100000,56.600000,177.100000C56.500000,177.100000,56.500000,177.200000,56.500000,177.200000ZM54.600000,176.700000C54.600000,176.800000,54.600000,176.800000,54.700000,176.800000C54.800000,176.800000,54.800000,176.800000,54.800000,176.700000C54.800000,176.600000,54.800000,176.600000,54.700000,176.600000C54.700000,176.700000,54.700000,176.700000,54.600000,176.700000ZM62.600000,180.900000C62.600000,181,62.700000,181,62.700000,180.900000C62.800000,180.900000,62.800000,180.800000,62.700000,180.800000C62.700000,180.700000,62.600000,180.700000,62.600000,180.800000C62.600000,180.700000,62.600000,180.800000,62.600000,180.900000ZM60.900000,181.900000C60.900000,182,61,182,61,181.900000C61.100000,181.900000,61.100000,181.800000,61,181.800000C61,181.700000,60.900000,181.700000,60.900000,181.800000C60.900000,181.800000,60.900000,181.900000,60.900000,181.900000ZM59.200000,182.900000C59.200000,183,59.300000,183,59.300000,182.900000C59.400000,182.900000,59.400000,182.800000,59.300000,182.800000C59.300000,182.700000,59.200000,182.700000,59.200000,182.800000C59.200000,182.800000,59.200000,182.900000,59.200000,182.900000ZM57.600000,183.900000C57.600000,184,57.700000,184,57.700000,183.900000C57.800000,183.900000,57.800000,183.800000,57.700000,183.800000C57.700000,183.700000,57.600000,183.700000,57.600000,183.800000C57.600000,183.800000,57.600000,183.900000,57.600000,183.900000ZM55.900000,185C55.900000,185.100000,56,185.100000,56,185C56.100000,185,56.100000,184.900000,56,184.900000C56,184.800000,55.900000,184.800000,55.900000,184.900000C55.900000,184.900000,55.900000,185,55.900000,185ZM64,184.100000C64.100000,184.100000,64.100000,184.100000,64.100000,184C64.100000,183.900000,64.100000,183.900000,64,183.900000C63.900000,183.900000,63.900000,183.900000,63.900000,184C63.900000,184.100000,64,184.100000,64,184.100000ZM63.500000,186C63.600000,186,63.600000,186,63.600000,185.900000C63.600000,185.800000,63.600000,185.800000,63.500000,185.800000C63.400000,185.800000,63.400000,185.800000,63.400000,185.900000C63.500000,186,63.500000,186,63.500000,186ZM63.100000,188C63.200000,188,63.200000,188,63.200000,187.900000C63.200000,187.800000,63.200000,187.800000,63.100000,187.800000C63,187.800000,63,187.800000,63,187.900000C63,187.900000,63,187.900000,63.100000,188ZM62.600000,189.900000C62.700000,189.900000,62.700000,189.900000,62.700000,189.800000C62.700000,189.700000,62.700000,189.700000,62.600000,189.700000C62.500000,189.700000,62.500000,189.700000,62.500000,189.800000C62.500000,189.900000,62.600000,189.800000,62.600000,189.900000ZM57.800000,176.400000C57.800000,176.400000,57.800000,176.500000,57.800000,176.400000C57.900000,176.500000,57.900000,176.500000,57.900000,176.400000C57.900000,176.400000,57.900000,176.400000,57.800000,176.400000C57.800000,176.400000,57.800000,176.400000,57.800000,176.400000ZM60.500000,180.100000C60.500000,180.100000,60.600000,180.100000,60.500000,180.100000C60.600000,180,60.600000,180,60.500000,180.100000C60.600000,180,60.500000,180,60.500000,180.100000L60.500000,180.100000ZM59.400000,180.700000C59.400000,180.700000,59.500000,180.700000,59.400000,180.700000C59.500000,180.700000,59.500000,180.600000,59.400000,180.700000C59.500000,180.600000,59.400000,180.600000,59.400000,180.700000L59.400000,180.700000ZM58.300000,181.300000C58.300000,181.300000,58.300000,181.400000,58.300000,181.300000C58.300000,181.300000,58.400000,181.200000,58.300000,181.300000C58.300000,181.200000,58.300000,181.200000,58.300000,181.300000L58.300000,181.300000ZM62.900000,181.900000C62.900000,181.900000,62.900000,181.900000,62.900000,181.900000C63,181.800000,63,181.800000,62.900000,181.800000C62.900000,181.800000,62.800000,181.800000,62.900000,181.900000C62.800000,181.900000,62.800000,181.900000,62.900000,181.900000ZM62.500000,183.100000C62.500000,183.100000,62.500000,183.100000,62.500000,183.100000C62.600000,183,62.600000,183,62.500000,183C62.500000,183,62.400000,183,62.500000,183.100000C62.500000,183.100000,62.500000,183.100000,62.500000,183.100000ZM62.100000,184.400000C62.100000,184.400000,62.200000,184.400000,62.100000,184.400000C62.200000,184.300000,62.200000,184.300000,62.100000,184.300000C62.100000,184.300000,62.100000,184.300000,62.100000,184.400000C62.100000,184.300000,62.100000,184.300000,62.100000,184.400000ZM59.400000,178.700000C59.400000,178.700000,59.500000,178.700000,59.400000,178.700000C59.500000,178.800000,59.500000,178.700000,59.500000,178.700000C59.500000,178.600000,59.500000,178.600000,59.400000,178.700000C59.400000,178.600000,59.400000,178.700000,59.400000,178.700000ZM58.100000,178.800000C58.100000,178.900000,58.200000,178.900000,58.100000,178.800000C58.200000,178.900000,58.200000,178.800000,58.200000,178.800000C58.200000,178.800000,58.200000,178.800000,58.100000,178.800000C58.200000,178.800000,58.100000,178.800000,58.100000,178.800000ZM56.900000,179C56.900000,179,56.900000,179,56.900000,179C57,179.100000,57,179,57,179C57,178.900000,56.900000,178.900000,56.900000,179C56.900000,178.900000,56.900000,179,56.900000,179ZM61.800000,180.700000L61.800000,180.700000L61.800000,180.700000L61.800000,180.700000L61.800000,180.700000ZM61,181.700000L61,181.700000L61,181.700000L61,181.700000C61,181.700000,61,181.700000,61,181.700000ZM60.200000,182.700000L60.200000,182.700000L60.200000,182.700000L60.200000,182.700000C60.200000,182.600000,60.200000,182.700000,60.200000,182.700000ZM59.400000,183.700000L59.400000,183.700000L59.400000,183.700000L59.400000,183.700000C59.400000,183.600000,59.400000,183.600000,59.400000,183.700000ZM64.300000,182.700000C64.400000,182.700000,64.400000,182.600000,64.300000,182.700000C64.400000,182.600000,64.300000,182.600000,64.300000,182.600000C64.200000,182.600000,64.200000,182.600000,64.300000,182.700000C64.200000,182.700000,64.300000,182.700000,64.300000,182.700000ZM64.400000,184C64.500000,184,64.500000,183.900000,64.400000,184C64.500000,183.900000,64.400000,183.900000,64.400000,183.900000C64.400000,183.900000,64.400000,183.900000,64.400000,184L64.400000,184ZM64.600000,185.200000C64.600000,185.200000,64.600000,185.200000,64.600000,185.200000C64.700000,185.100000,64.600000,185.100000,64.600000,185.100000C64.500000,185.100000,64.500000,185.200000,64.600000,185.200000C64.500000,185.200000,64.500000,185.200000,64.600000,185.200000ZM57,175.300000C57,175.400000,57,175.400000,57.100000,175.400000C57.200000,175.400000,57.200000,175.400000,57.200000,175.300000C57.200000,175.200000,57.200000,175.200000,57.100000,175.200000C57.100000,175.200000,57,175.200000,57,175.300000ZM55.200000,174.600000C55.200000,174.700000,55.200000,174.700000,55.300000,174.700000C55.400000,174.700000,55.400000,174.700000,55.400000,174.600000C55.400000,174.500000,55.400000,174.500000,55.300000,174.500000C55.200000,174.500000,55.200000,174.500000,55.200000,174.600000ZM53.300000,173.900000C53.300000,174,53.300000,174,53.400000,174C53.500000,174,53.500000,174,53.500000,173.900000C53.500000,173.800000,53.500000,173.800000,53.400000,173.800000C53.400000,173.800000,53.300000,173.900000,53.300000,173.900000ZM59,179C59,179.100000,59.100000,179.100000,59.100000,179.100000C59.200000,179.100000,59.200000,179,59.200000,179C59.200000,178.900000,59.100000,178.900000,59.100000,178.900000C59,178.900000,58.900000,179,59,179ZM57.200000,179.800000C57.200000,179.900000,57.300000,179.900000,57.300000,179.900000C57.300000,179.900000,57.400000,179.800000,57.400000,179.800000C57.400000,179.700000,57.300000,179.700000,57.300000,179.700000C57.200000,179.700000,57.200000,179.800000,57.200000,179.800000ZM55.400000,180.600000C55.400000,180.700000,55.500000,180.700000,55.500000,180.700000C55.500000,180.700000,55.600000,180.600000,55.600000,180.600000C55.600000,180.500000,55.500000,180.500000,55.500000,180.500000C55.400000,180.500000,55.400000,180.600000,55.400000,180.600000ZM53.600000,181.400000C53.600000,181.500000,53.700000,181.500000,53.700000,181.500000C53.800000,181.500000,53.800000,181.400000,53.800000,181.400000C53.800000,181.300000,53.700000,181.300000,53.700000,181.300000C53.600000,181.400000,53.600000,181.400000,53.600000,181.400000ZM61.200000,181C61.300000,181,61.300000,181,61.300000,180.900000C61.300000,180.800000,61.300000,180.800000,61.200000,180.800000C61.100000,180.800000,61.100000,180.800000,61.100000,180.900000C61.200000,181,61.200000,181,61.200000,181ZM60.600000,182.900000C60.700000,182.900000,60.700000,182.900000,60.700000,182.800000C60.700000,182.700000,60.700000,182.700000,60.600000,182.700000C60.500000,182.700000,60.500000,182.700000,60.500000,182.800000C60.500000,182.800000,60.500000,182.900000,60.600000,182.900000ZM59.900000,184.700000C60,184.700000,60,184.700000,60,184.600000C60,184.500000,60,184.500000,59.900000,184.500000C59.800000,184.500000,59.800000,184.500000,59.800000,184.600000C59.800000,184.700000,59.800000,184.700000,59.900000,184.700000ZM59.200000,186.500000C59.300000,186.500000,59.300000,186.500000,59.300000,186.400000C59.300000,186.300000,59.300000,186.300000,59.200000,186.300000C59.100000,186.300000,59.100000,186.300000,59.100000,186.400000C59.200000,186.500000,59.200000,186.500000,59.200000,186.500000ZM57.600000,177.400000C57.600000,177.500000,57.700000,177.500000,57.700000,177.500000C57.800000,177.500000,57.800000,177.400000,57.800000,177.400000C57.800000,177.300000,57.700000,177.300000,57.700000,177.300000C57.600000,177.300000,57.600000,177.300000,57.600000,177.400000ZM55.600000,177.500000C55.600000,177.600000,55.700000,177.600000,55.700000,177.600000C55.800000,177.600000,55.800000,177.500000,55.800000,177.500000C55.800000,177.400000,55.700000,177.400000,55.700000,177.400000C55.700000,177.300000,55.600000,177.400000,55.600000,177.500000ZM53.700000,177.500000C53.700000,177.600000,53.800000,177.600000,53.800000,177.600000C53.800000,177.600000,53.900000,177.500000,53.900000,177.500000C53.900000,177.400000,53.800000,177.400000,53.800000,177.400000C53.700000,177.500000,53.600000,177.500000,53.700000,177.500000ZM51.800000,177.600000C51.800000,177.600000,51.800000,177.600000,51.800000,177.600000C51.900000,177.700000,51.900000,177.600000,51.900000,177.600000C51.900000,177.500000,51.800000,177.500000,51.800000,177.600000L51.800000,177.600000ZM60.500000,179.400000C60.600000,179.500000,60.600000,179.500000,60.600000,179.400000C60.700000,179.300000,60.700000,179.300000,60.600000,179.300000C60.500000,179.200000,60.500000,179.200000,60.500000,179.300000C60.500000,179.300000,60.500000,179.400000,60.500000,179.400000ZM59.200000,180.900000C59.300000,181,59.300000,181,59.300000,180.900000C59.400000,180.800000,59.400000,180.800000,59.300000,180.800000C59.200000,180.700000,59.200000,180.700000,59.200000,180.800000C59.100000,180.700000,59.100000,180.800000,59.200000,180.900000ZM57.800000,182.300000C57.900000,182.400000,57.900000,182.400000,57.900000,182.300000C58,182.200000,58,182.200000,57.900000,182.200000C57.800000,182.100000,57.800000,182.100000,57.800000,182.200000C57.800000,182.200000,57.800000,182.300000,57.800000,182.300000ZM56.500000,183.700000C56.600000,183.800000,56.600000,183.800000,56.600000,183.700000C56.700000,183.600000,56.700000,183.600000,56.600000,183.600000C56.500000,183.500000,56.500000,183.500000,56.500000,183.600000C56.400000,183.600000,56.400000,183.600000,56.500000,183.700000ZM55.200000,185.100000C55.300000,185.200000,55.300000,185.200000,55.300000,185.100000C55.400000,185,55.400000,185,55.300000,185C55.200000,184.900000,55.200000,184.900000,55.200000,185C55.200000,185.100000,55.200000,185.100000,55.200000,185.100000ZM62.700000,182.100000C62.700000,182.100000,62.700000,182.100000,62.700000,182.100000C62.800000,182,62.700000,182,62.700000,182C62.600000,182,62.600000,182.100000,62.700000,182.100000L62.700000,182.100000L62.700000,182.100000ZM62.800000,184.100000C62.900000,184.100000,62.900000,184,62.900000,184C62.900000,183.900000,62.800000,183.900000,62.800000,183.900000C62.700000,183.900000,62.700000,184,62.700000,184C62.700000,184.100000,62.700000,184.100000,62.800000,184.100000ZM62.900000,186.100000C63,186.100000,63,186,63,186C63,185.900000,62.900000,185.900000,62.900000,185.900000C62.800000,185.900000,62.800000,186,62.800000,186C62.800000,186.100000,62.800000,186.100000,62.900000,186.100000ZM62.900000,188C63,188,63,188,62.900000,188C63,187.900000,62.900000,187.900000,62.800000,187.900000C62.700000,187.900000,62.700000,188,62.700000,188C62.900000,188,62.900000,188,62.900000,188ZM57.800000,176.200000C57.800000,176.200000,57.800000,176.300000,57.800000,176.200000C57.900000,176.300000,57.900000,176.200000,57.900000,176.200000C57.900000,176.200000,57.900000,176.200000,57.800000,176.200000C57.800000,176.200000,57.800000,176.200000,57.800000,176.200000ZM56.700000,176.200000C56.700000,176.300000,56.700000,176.300000,56.700000,176.200000C56.800000,176.300000,56.800000,176.200000,56.800000,176.200000C56.700000,176.200000,56.700000,176.200000,56.700000,176.200000C56.700000,176.200000,56.700000,176.200000,56.700000,176.200000ZM55.500000,176.300000C55.500000,176.300000,55.500000,176.300000,55.500000,176.300000C55.600000,176.400000,55.600000,176.300000,55.600000,176.300000C55.500000,176.200000,55.500000,176.200000,55.500000,176.300000C55.500000,176.200000,55.500000,176.200000,55.500000,176.300000ZM59,178.700000L59,178.700000L59,178.700000L59,178.700000C58.900000,178.600000,58.900000,178.700000,59,178.700000ZM58.200000,179.600000L58.200000,179.600000L58.200000,179.600000L58.200000,179.600000C58.200000,179.500000,58.200000,179.500000,58.200000,179.600000ZM57.400000,180.400000L57.400000,180.400000L57.400000,180.400000L57.400000,180.400000C57.300000,180.400000,57.300000,180.400000,57.400000,180.400000ZM61.600000,179.600000C61.600000,179.600000,61.600000,179.600000,61.600000,179.600000C61.700000,179.500000,61.600000,179.500000,61.600000,179.500000C61.500000,179.600000,61.500000,179.600000,61.600000,179.600000C61.500000,179.600000,61.500000,179.600000,61.600000,179.600000ZM61.600000,180.900000C61.600000,180.900000,61.600000,180.800000,61.600000,180.900000C61.700000,180.800000,61.600000,180.800000,61.600000,180.800000C61.600000,180.800000,61.600000,180.700000,61.600000,180.900000C61.600000,180.800000,61.600000,180.900000,61.600000,180.900000ZM61.600000,182C61.700000,182,61.700000,182,61.600000,182C61.700000,181.900000,61.600000,181.900000,61.600000,181.900000C61.600000,181.900000,61.600000,181.900000,61.600000,182C61.600000,182,61.600000,182,61.600000,182ZM55.300000,173.600000C55.300000,173.600000,55.300000,173.700000,55.300000,173.600000C55.400000,173.700000,55.400000,173.700000,55.400000,173.600000C55.400000,173.600000,55.400000,173.600000,55.300000,173.600000C55.300000,173.600000,55.300000,173.600000,55.300000,173.600000ZM58.600000,177.200000C58.600000,177.200000,58.700000,177.300000,58.600000,177.200000C58.700000,177.200000,58.700000,177.200000,58.600000,177.200000C58.700000,177.200000,58.600000,177.100000,58.600000,177.200000C58.700000,177.200000,58.600000,177.200000,58.600000,177.200000ZM57.600000,177.700000C57.600000,177.700000,57.600000,177.800000,57.600000,177.700000C57.600000,177.700000,57.700000,177.700000,57.600000,177.700000C57.600000,177.700000,57.600000,177.600000,57.600000,177.700000L57.600000,177.700000ZM56.500000,178.200000C56.500000,178.200000,56.600000,178.300000,56.500000,178.200000C56.600000,178.200000,56.600000,178.200000,56.500000,178.200000C56.600000,178.200000,56.500000,178.100000,56.500000,178.200000C56.500000,178.200000,56.500000,178.200000,56.500000,178.200000ZM55.400000,178.700000C55.400000,178.700000,55.400000,178.700000,55.400000,178.700000C55.400000,178.700000,55.500000,178.600000,55.400000,178.700000C55.400000,178.600000,55.400000,178.600000,55.400000,178.700000L55.400000,178.700000ZM60.300000,178.800000C60.300000,178.800000,60.300000,178.800000,60.300000,178.800000C60.400000,178.700000,60.400000,178.700000,60.300000,178.700000C60.300000,178.700000,60.200000,178.700000,60.300000,178.800000C60.300000,178.800000,60.300000,178.800000,60.300000,178.800000ZM59.900000,179.900000C59.900000,179.900000,60,179.900000,59.900000,179.900000C60,179.800000,60,179.800000,59.900000,179.800000C59.900000,179.800000,59.800000,179.800000,59.900000,179.900000C59.800000,179.900000,59.800000,179.900000,59.900000,179.900000ZM59.400000,181C59.400000,181,59.500000,181,59.400000,181C59.500000,180.900000,59.500000,180.900000,59.400000,180.900000C59.400000,180.900000,59.400000,180.900000,59.400000,181C59.400000,181,59.400000,181,59.400000,181ZM59.100000,182.100000C59.100000,182.100000,59.100000,182.100000,59.100000,182.100000C59.200000,182,59.200000,182,59.100000,182C59.100000,182,59,182,59.100000,182.100000C59,182.100000,59,182.100000,59.100000,182.100000ZM57.700000,177L57.700000,177C57.700000,177,57.700000,176.900000,57.700000,177C57.700000,176.900000,57.700000,176.900000,57.700000,177C57.700000,176.900000,57.600000,177,57.700000,177ZM56.900000,177.600000C56.900000,177.600000,56.900000,177.600000,56.900000,177.600000C56.900000,177.600000,56.900000,177.500000,56.900000,177.600000C56.900000,177.500000,56.900000,177.500000,56.900000,177.600000C56.900000,177.500000,56.900000,177.500000,56.900000,177.600000ZM60.200000,178.300000C60.300000,178.300000,60.300000,178.300000,60.200000,178.300000C60.300000,178.300000,60.300000,178.300000,60.200000,178.300000C60.200000,178.300000,60.200000,178.300000,60.200000,178.300000L60.200000,178.300000ZM60.100000,179.300000C60.200000,179.300000,60.200000,179.300000,60.100000,179.300000C60.200000,179.200000,60.200000,179.200000,60.100000,179.300000C60.100000,179.200000,60.100000,179.200000,60.100000,179.300000L60.100000,179.300000ZM56.400000,175.700000C56.400000,175.800000,56.500000,175.800000,56.400000,175.700000C56.500000,175.700000,56.500000,175.700000,56.400000,175.700000C56.500000,175.600000,56.500000,175.600000,56.400000,175.700000C56.400000,175.600000,56.400000,175.700000,56.400000,175.700000ZM55.500000,176L55.500000,176C55.600000,176,55.600000,176,55.500000,176C55.600000,175.900000,55.500000,175.900000,55.500000,176C55.500000,175.900000,55.500000,176,55.500000,176ZM58.900000,177.500000C59,177.500000,59,177.500000,58.900000,177.500000C59,177.400000,59,177.400000,58.900000,177.500000C59,177.400000,58.900000,177.500000,58.900000,177.500000C58.900000,177.500000,58.900000,177.500000,58.900000,177.500000ZM58.500000,178.300000C58.600000,178.300000,58.600000,178.300000,58.500000,178.300000C58.600000,178.300000,58.600000,178.300000,58.500000,178.300000C58.600000,178.200000,58.500000,178.200000,58.500000,178.300000C58.500000,178.300000,58.500000,178.300000,58.500000,178.300000ZM58.100000,179.200000C58.100000,179.200000,58.100000,179.200000,58.100000,179.200000C58.100000,179.100000,58.100000,179.100000,58.100000,179.200000C58.100000,179.100000,58.100000,179.100000,58.100000,179.200000C58,179.100000,58.100000,179.200000,58.100000,179.200000ZM57.100000,175.700000L57.100000,175.700000L57.100000,175.700000L57.100000,175.700000C57.100000,175.700000,57.100000,175.700000,57.100000,175.700000ZM56.600000,176.800000L56.600000,176.800000L56.600000,176.800000L56.600000,176.800000C56.500000,176.700000,56.500000,176.800000,56.600000,176.800000ZM58.700000,178L58.700000,178C58.800000,177.900000,58.800000,177.900000,58.700000,177.900000C58.700000,177.900000,58.700000,177.900000,58.700000,178C58.700000,178,58.700000,178,58.700000,178Z" fill="rgb(255,255,255)" stroke="none" stroke-width="1"/><g id="eWD8etjKkca66"/><g id="eWD8etjKkca67"/></g><g id="eWD8etjKkca68"><path id="eWD8etjKkca69" d="M108.800000,149.500000C108.800000,149.500000,99.200000,145.700000,86.400000,146.600000C73.600000,147.500000,71.400000,151.400000,64.100000,152.200000C56.700000,153,47.400000,153.500000,44.500000,164.100000C44.500000,164.100000,57.600000,178.700000,66.800000,183.100000L113,157.700000C113.100000,157.600000,108.800000,155.500000,108.800000,149.500000Z" fill="url(#eWD8etjKkca69-fill)" stroke="none" stroke-width="1"/><path id="eWD8etjKkca70" d="M113.100000,157.700000C113.100000,157.700000,102.500000,169.400000,98.500000,178.800000C94.500000,188.200000,95.500000,190.500000,101.700000,196.600000C107.900000,202.700000,109.600000,203.600000,109.600000,203.600000L88.500000,229.400000C88.500000,229.400000,79.700000,227,76.800000,217.800000C73.900000,208.600000,72.400000,205.900000,69,202.500000C65.600000,199.100000,60,189.600000,69.200000,177C78.400000,164.400000,88.500000,156.500000,108.800000,149.400000L108.800000,149.400000" fill="rgb(35,40,107)" stroke="none" stroke-width="1"/><path id="eWD8etjKkca71" d="M109,204.100000C109,204.100000,114.500000,209.800000,119.300000,212.500000C124.200000,215.200000,124.600000,214.900000,127.100000,213.200000C129.600000,211.500000,132.400000,208.500000,133.200000,207.500000C134,206.600000,135.800000,206.800000,134.800000,209.600000C133.900000,212.300000,129.700000,213.200000,131,214.900000C132.300000,216.700000,137.800000,218.100000,141.900000,218.700000C146.100000,219.400000,148.300000,219.800000,143.700000,224.200000C139,228.600000,134,230.600000,123.400000,223.400000C112.700000,216.100000,104.400000,215.200000,100.200000,214.800000L109,204.100000Z" fill="rgb(255,190,182)" stroke="none" stroke-width="1"/><path id="eWD8etjKkca72" d="M119.100000,152.700000C119.100000,152.700000,116.300000,154.300000,113.200000,157.600000C113.200000,157.600000,108.800000,156.900000,108.900000,149.500000L117.700000,145.400000L119.100000,152.700000" fill="rgb(255,190,182)" stroke="none" stroke-width="1"/><path id="eWD8etjKkca73" d="M100.500000,135.300000C104.200000,129.400000,113.200000,135,117,129C117.200000,128.700000,116.700000,128.400000,116.500000,128.700000C112.800000,134.500000,103.700000,128.900000,100,135C99.800000,135.300000,100.300000,135.600000,100.500000,135.300000L100.500000,135.300000Z" fill="rgb(233,74,71)" stroke="none" stroke-width="1"/><path id="eWD8etjKkca74" d="M134.700000,141.500000C127,141.600000,117.100000,143.400000,117.500000,153.200000C117.500000,153.500000,118.100000,153.500000,118.100000,153.200000C117.800000,143.700000,127.400000,142.100000,134.800000,142.100000C135,142,135,141.500000,134.700000,141.500000L134.700000,141.500000Z" fill="rgb(233,74,71)" stroke="none" stroke-width="1"/><path id="eWD8etjKkca75" d="M137.700000,146.200000C137.700000,146.300000,137.600000,146.300000,137.600000,146.300000L137.600000,146.300000C137.500000,146.500000,137.400000,146.800000,137.200000,147C135.700000,149.700000,136.200000,152.900000,135.700000,153.600000C135.200000,154.300000,133.600000,153.800000,132.900000,153.400000C132.200000,153,129.200000,155.600000,125.300000,155.600000C121.700000,155.600000,118.200000,152.800000,116.700000,149.700000C119.500000,143.700000,122.100000,141.800000,128.900000,143C136.300000,144.300000,138.700000,140.500000,138.700000,140.500000C139,143.300000,138,145.600000,137.700000,146.200000Z" fill="rgb(255,190,182)" stroke="none" stroke-width="1"/><path id="eWD8etjKkca76" d="M138.700000,140.800000C138.700000,140.800000,136.400000,144.700000,128.900000,143.300000C121.500000,142,119,144.400000,115.900000,151.700000C115.900000,151.700000,105.200000,147,100.800000,135.800000C100.800000,135.800000,102.900000,133.400000,107,132.800000C111.100000,132.300000,115.900000,127.400000,117.500000,126.100000C119.100000,124.800000,126.100000,122.100000,132.200000,126.600000C138.300000,131.100000,144.400000,138.700000,137.600000,146.300000C137.700000,146.400000,139,143.700000,138.700000,140.800000Z" fill="rgb(233,74,71)" stroke="none" stroke-width="1"/><path id="eWD8etjKkca77" d="M132.900000,147.300000C133.100000,149.100000,135.100000,150.200000,136.600000,149C136.900000,148.800000,136.600000,148.300000,136.300000,148.500000C135.100000,149.300000,133.500000,148.700000,133.400000,147.200000C133.500000,147,132.900000,147,132.900000,147.300000L132.900000,147.300000Z" fill="rgb(28,40,104)" stroke="none" stroke-width="1"/></g><script><![CDATA[!function(t,n){"object"==typeof exports&&"undefined"!=typeof module?module.exports=n():"function"==typeof define&&define.amd?define(n):(t="undefined"!=typeof globalThis?globalThis:t||self).__SVGATOR_PLAYER__=n()}(this,(function(){"use strict";function t(n){return(t="function"==typeof Symbol&&"symbol"==typeof Symbol.iterator?function(t){return typeof t}:function(t){return t&&"function"==typeof Symbol&&t.constructor===Symbol&&t!==Symbol.prototype?"symbol":typeof t})(n)}function n(t,n){if(!(t instanceof n))throw new TypeError("Cannot call a class as a function")}function e(t,n){for(var e=0;e<n.length;e++){var r=n[e];r.enumerable=r.enumerable||!1,r.configurable=!0,"value"in r&&(r.writable=!0),Object.defineProperty(t,r.key,r)}}function r(t,n,r){return n&&e(t.prototype,n),r&&e(t,r),t}function i(t){return(i=Object.setPrototypeOf?Object.getPrototypeOf:function(t){return t.__proto__||Object.getPrototypeOf(t)})(t)}function u(t,n){return(u=Object.setPrototypeOf||function(t,n){return t.__proto__=n,t})(t,n)}function o(t,n){return!n||"object"!=typeof n&&"function"!=typeof n?function(t){if(void 0===t)throw new ReferenceError("this hasn't been initialised - super() hasn't been called");return t}(t):n}function a(t){var n=function(){if("undefined"==typeof Reflect||!Reflect.construct)return!1;if(Reflect.construct.sham)return!1;if("function"==typeof Proxy)return!0;try{return Boolean.prototype.valueOf.call(Reflect.construct(Boolean,[],(function(){}))),!0}catch(t){return!1}}();return function(){var e,r=i(t);if(n){var u=i(this).constructor;e=Reflect.construct(r,arguments,u)}else e=r.apply(this,arguments);return o(this,e)}}function l(t,n,e){return(l="undefined"!=typeof Reflect&&Reflect.get?Reflect.get:function(t,n,e){var r=function(t,n){for(;!Object.prototype.hasOwnProperty.call(t,n)&&null!==(t=i(t)););return t}(t,n);if(r){var u=Object.getOwnPropertyDescriptor(r,n);return u.get?u.get.call(e):u.value}})(t,n,e||t)}var s=Math.abs;function f(t){return t}function c(t,n,e){var r=1-e;return 3*e*r*(t*r+n*e)+e*e*e}function h(){var t=arguments.length>0&&void 0!==arguments[0]?arguments[0]:0,n=arguments.length>1&&void 0!==arguments[1]?arguments[1]:0,e=arguments.length>2&&void 0!==arguments[2]?arguments[2]:1,r=arguments.length>3&&void 0!==arguments[3]?arguments[3]:1;return t<0||t>1||e<0||e>1?null:s(t-n)<=1e-5&&s(e-r)<=1e-5?f:function(i){if(i<=0)return t>0?i*n/t:0===n&&e>0?i*r/e:0;if(i>=1)return e<1?1+(i-1)*(r-1)/(e-1):1===e&&t<1?1+(i-1)*(n-1)/(t-1):1;for(var u,o=0,a=1;o<a;){var l=c(t,e,u=(o+a)/2);if(s(i-l)<1e-5)break;l<i?o=u:a=u}return c(n,r,u)}}function v(){return 1}function d(t){return 1===t?1:0}function y(){var t=arguments.length>0&&void 0!==arguments[0]?arguments[0]:1,n=arguments.length>1&&void 0!==arguments[1]?arguments[1]:0;if(1===t){if(0===n)return d;if(1===n)return v}var e=1/t;return function(t){return t>=1?1:(t+=n*e)-t%e}}function g(t){var n=arguments.length>1&&void 0!==arguments[1]?arguments[1]:2;if(Number.isInteger(t))return t;var e=Math.pow(10,n);return Math.round(t*e)/e}var p=Math.PI/180;function m(t,n,e){return t>=.5?e:n}function b(t,n,e){return 0===t||n===e?n:t*(e-n)+n}function w(t,n,e){var r=b(t,n,e);return r<=0?0:r}function x(t,n,e){return 0===t?n:1===t?e:{x:b(t,n.x,e.x),y:b(t,n.y,e.y)}}function A(t,n,e){return 0===t?n:1===t?e:{x:w(t,n.x,e.x),y:w(t,n.y,e.y)}}function k(t,n,e){var r=function(t,n,e){return Math.round(b(t,n,e))}(t,n,e);return r<=0?0:r>=255?255:r}function _(t,n,e){return 0===t?n:1===t?e:{r:k(t,n.r,e.r),g:k(t,n.g,e.g),b:k(t,n.b,e.b),a:b(t,null==n.a?1:n.a,null==e.a?1:e.a)}}function S(t,n,e){if(0===t)return n;if(1===t)return e;var r=n.length;if(r!==e.length)return m(t,n,e);for(var i=[],u=0;u<r;u++)i.push(_(t,n[u],e[u]));return i}function M(t,n,e){var r=n.length;if(r!==e.length)return m(t,n,e);for(var i=new Array(r),u=0;u<r;u++)i[u]=b(t,n[u],e[u]);return i}function O(t,n){for(var e=[],r=0;r<t;r++)e.push(n);return e}function E(t,n){if(--n<=0)return t;var e=(t=Object.assign([],t)).length;do{for(var r=0;r<e;r++)t.push(t[r])}while(--n>0);return t}var B,I=function(){function t(e){n(this,t),this.list=e,this.length=e.length}return r(t,[{key:"setAttribute",value:function(t,n){for(var e=this.list,r=0;r<this.length;r++)e[r].setAttribute(t,n)}},{key:"removeAttribute",value:function(t){for(var n=this.list,e=0;e<this.length;e++)n[e].removeAttribute(t)}},{key:"style",value:function(t,n){for(var e=this.list,r=0;r<this.length;r++)e[r].style[t]=n}}]),t}(),j=/-./g,P=function(t,n){return n.toUpperCase()};function T(t){return"function"==typeof t?t:m}function F(t){return t?"function"==typeof t?t:Array.isArray(t)?function(t){var n=arguments.length>1&&void 0!==arguments[1]?arguments[1]:f;if(!Array.isArray(t))return n;switch(t.length){case 1:return y(t[0])||n;case 2:return y(t[0],t[1])||n;case 4:return h(t[0],t[1],t[2],t[3])||n}return n}(t,null):function(t,n){var e=arguments.length>2&&void 0!==arguments[2]?arguments[2]:f;switch(t){case"linear":return f;case"steps":return y(n.steps||1,n.jump||0)||e;case"bezier":case"cubic-bezier":return h(n.x1||0,n.y1||0,n.x2||0,n.y2||0)||e}return e}(t.type,t.value,null):null}function R(t,n,e){var r=arguments.length>3&&void 0!==arguments[3]&&arguments[3],i=n.length-1;if(t<=n[0].t)return r?[0,0,n[0].v]:n[0].v;if(t>=n[i].t)return r?[i,1,n[i].v]:n[i].v;var u,o=n[0],a=null;for(u=1;u<=i;u++){if(!(t>n[u].t)){a=n[u];break}o=n[u]}return null==a?r?[i,1,n[i].v]:n[i].v:o.t===a.t?r?[u,1,a.v]:a.v:(t=(t-o.t)/(a.t-o.t),o.e&&(t=o.e(t)),r?[u,t,e(t,o.v,a.v)]:e(t,o.v,a.v))}function C(t,n){var e=arguments.length>2&&void 0!==arguments[2]?arguments[2]:null;return t&&t.length?"function"!=typeof n?null:("function"!=typeof e&&(e=null),function(r){var i=R(r,t,n);return null!=i&&e&&(i=e(i)),i}):null}function N(t,n){return t.t-n.t}function q(n,e,r,i,u){var o,a="@"===r[0],l="#"===r[0],s=B[r],f=m;switch(a?(o=r.substr(1),r=o.replace(j,P)):l&&(r=r.substr(1)),t(s)){case"function":if(f=s(i,u,R,F,r,a,e,n),l)return f;break;case"string":f=C(i,T(s));break;case"object":if((f=C(i,T(s.i),s.f))&&"function"==typeof s.u)return s.u(e,f,r,a,n)}return f?function(t,n,e){var r=arguments.length>3&&void 0!==arguments[3]&&arguments[3];if(r)return t instanceof I?function(r){return t.style(n,e(r))}:function(r){return t.style[n]=e(r)};if(Array.isArray(n)){var i=n.length;return function(r){var u=e(r);if(null==u)for(var o=0;o<i;o++)t[o].removeAttribute(n);else for(var a=0;a<i;a++)t[a].setAttribute(n,u)}}return function(r){var i=e(r);null==i?t.removeAttribute(n):t.setAttribute(n,i)}}(e,r,f,a):null}function V(n,e,r,i){if(!i||"object"!==t(i))return null;var u=null,o=null;return Array.isArray(i)?o=function(t){if(!t||!t.length)return null;for(var n=0;n<t.length;n++)t[n].e&&(t[n].e=F(t[n].e));return t.sort(N)}(i):(o=i.keys,u=i.data||null),o?q(n,e,r,o,u):null}function L(t,n,e){if(!e)return null;var r=[];for(var i in e)if(e.hasOwnProperty(i)){var u=V(t,n,i,e[i]);u&&r.push(u)}return r.length?r:null}function z(t,n){if(!n.duration||n.duration<0)return null;var e=function(t,n){if(!n)return null;var e=[];if(Array.isArray(n))for(var r=n.length,i=0;i<r;i++){var u=n[i];if(2===u.length){var o=null;if("string"==typeof u[0])o=t.getElementById(u[0]);else if(Array.isArray(u[0])){o=[];for(var a=0;a<u[0].length;a++)if("string"==typeof u[0][a]){var l=t.getElementById(u[0][a]);l&&o.push(l)}o=o.length?1===o.length?o[0]:new I(o):null}if(o){var s=L(t,o,u[1]);s&&(e=e.concat(s))}}}else for(var f in n)if(n.hasOwnProperty(f)){var c=t.getElementById(f);if(c){var h=L(t,c,n[f]);h&&(e=e.concat(h))}}return e.length?e:null}(t,n.elements);return e?function(t,n){var e=arguments.length>2&&void 0!==arguments[2]?arguments[2]:1/0,r=arguments.length>3&&void 0!==arguments[3]?arguments[3]:1,i=arguments.length>4&&void 0!==arguments[4]&&arguments[4],u=arguments.length>5&&void 0!==arguments[5]?arguments[5]:1,o=t.length,a=r>0?n:0;i&&e%2==0&&(a=n-a);var l=null;return function(s,f){var c=s%n,h=1+(s-c)/n;f*=r,i&&h%2==0&&(f=-f);var v=!1;if(h>e)c=a,v=!0,-1===u&&(c=r>0?0:n);else if(f<0&&(c=n-c),c===l)return!1;l=c;for(var d=0;d<o;d++)t[d](c);return v}}(e,n.duration,n.iterations||1/0,n.direction||1,!!n.alternate,n.fill||1):null}var D=function(){function t(e,r){var i=arguments.length>2&&void 0!==arguments[2]?arguments[2]:{};n(this,t),this._id=0,this._running=!1,this._rollingBack=!1,this._animations=e,this.duration=r.duration,this.alternate=r.alternate,this.fill=r.fill,this.iterations=r.iterations,this.direction=i.direction||1,this.speed=i.speed||1,this.fps=i.fps||100,this.offset=i.offset||0,this.rollbackStartOffset=0}return r(t,[{key:"_rollback",value:function(){var t=this,n=1/0,e=null;this.rollbackStartOffset=this.offset,this._rollingBack||(this._rollingBack=!0,this._running=!0);this._id=window.requestAnimationFrame((function r(i){if(t._rollingBack){null==e&&(e=i);var u=i-e,o=t.rollbackStartOffset-u,a=Math.round(o*t.speed);if(a>t.duration&&n!=1/0){var l=!!t.alternate&&a/t.duration%2>1,s=a%t.duration;a=(s+=l?t.duration:0)||t.duration}var f=t.fps?1e3/t.fps:0,c=Math.max(0,a);if(c<n-f){t.offset=c,n=c;for(var h=t._animations,v=h.length,d=0;d<v;d++)h[d](c,t.direction)}var y=!1;if(t.iterations>0&&-1===t.fill){var g=t.iterations*t.duration,p=g==a;a=p?0:a,t.offset=p?0:t.offset,y=a>g}a>0&&t.offset>=a&&!y?t._id=window.requestAnimationFrame(r):t.stop()}}))}},{key:"_start",value:function(){var t=this,n=arguments.length>0&&void 0!==arguments[0]?arguments[0]:0,e=-1/0,r=null,i={},u=function u(o){t._running=!0,null==r&&(r=o);var a=Math.round((o-r+n)*t.speed),l=t.fps?1e3/t.fps:0;if(a>e+l&&!t._rollingBack){t.offset=a,e=a;for(var s=t._animations,f=s.length,c=0,h=0;h<f;h++)i[h]?c++:(i[h]=s[h](a,t.direction),i[h]&&c++);if(c===f)return void t._stop()}t._id=window.requestAnimationFrame(u)};this._id=window.requestAnimationFrame(u)}},{key:"_stop",value:function(){this._id&&window.cancelAnimationFrame(this._id),this._running=!1,this._rollingBack=!1}},{key:"play",value:function(){!this._rollingBack&&this._running||(this._rollingBack=!1,this.rollbackStartOffset>this.duration&&(this.offset=this.rollbackStartOffset-(this.rollbackStartOffset-this.offset)%this.duration,this.rollbackStartOffset=0),this._start(this.offset))}},{key:"stop",value:function(){this._stop(),this.offset=0,this.rollbackStartOffset=0;var t=this.direction,n=this._animations;window.requestAnimationFrame((function(){for(var e=0;e<n.length;e++)n[e](0,t)}))}},{key:"reachedToEnd",value:function(){return this.iterations>0&&this.offset>=this.iterations*this.duration}},{key:"restart",value:function(){this._stop(),this.offset=0,this._start()}},{key:"pause",value:function(){this._stop()}},{key:"reverse",value:function(){this.direction=-this.direction}}],[{key:"build",value:function(n,e){return(n=function(t,n){if(B=n,!t||!t.root||!Array.isArray(t.animations))return null;for(var e=document.getElementsByTagName("svg"),r=!1,i=0;i<e.length;i++)if(e[i].id===t.root&&!e[i].svgatorAnimation){(r=e[i]).svgatorAnimation=!0;break}if(!r)return null;var u=t.animations.map((function(t){return z(r,t)})).filter((function(t){return!!t}));return u.length?{element:r,animations:u,animationSettings:t.animationSettings,options:t.options||void 0}:null}(n,e))?{el:n.element,options:n.options||{},player:new t(n.animations,n.animationSettings,n.options)}:null}}]),t}();!function(){for(var t=0,n=["ms","moz","webkit","o"],e=0;e<n.length&&!window.requestAnimationFrame;++e)window.requestAnimationFrame=window[n[e]+"RequestAnimationFrame"],window.cancelAnimationFrame=window[n[e]+"CancelAnimationFrame"]||window[n[e]+"CancelRequestAnimationFrame"];window.requestAnimationFrame||(window.requestAnimationFrame=function(n){var e=Date.now(),r=Math.max(0,16-(e-t)),i=window.setTimeout((function(){n(e+r)}),r);return t=e+r,i},window.cancelAnimationFrame=window.clearTimeout)}();var U=function(t,n){var e=!1,r=null;return function(i){e&&clearTimeout(e),e=setTimeout((function(){return function(){for(var i=0,u=window.innerHeight,o=0,a=window.innerWidth,l=t.parentNode;l instanceof Element;){var s=window.getComputedStyle(l);if("visible"!==s.overflowY||"visible"!==s.overflowX){var f=l.getBoundingClientRect();"visible"!==s.overflowY&&(i=Math.max(i,f.top),u=Math.min(u,f.bottom)),"visible"!==s.overflowX&&(o=Math.max(o,f.left),a=Math.min(a,f.right))}if(l===l.parentNode)break;l=l.parentNode}e=!1;var c=t.getBoundingClientRect(),h=Math.min(c.height,Math.max(0,i-c.top)),v=Math.min(c.height,Math.max(0,c.bottom-u)),d=Math.min(c.width,Math.max(0,o-c.left)),y=Math.min(c.width,Math.max(0,c.right-a)),g=(c.height-h-v)/c.height,p=(c.width-d-y)/c.width,m=Math.round(g*p*100);null!==r&&r===m||(r=m,n(m))}()}),100)}},W=function(){function t(e,r,i){n(this,t),r=Math.max(1,r||1),r=Math.min(r,100),this.el=e,this.onTresholdChange=i&&i.call?i:function(){},this.tresholdPercent=r||1,this.currentVisibility=null,this.visibilityCalculator=U(e,this.onVisibilityUpdate.bind(this)),this.bindScrollWatchers(),this.visibilityCalculator()}return r(t,[{key:"bindScrollWatchers",value:function(){for(var t=this.el.parentNode;t&&(t.addEventListener("scroll",this.visibilityCalculator),t!==t.parentNode&&t!==document);)t=t.parentNode}},{key:"onVisibilityUpdate",value:function(t){var n=this.currentVisibility>=this.tresholdPercent,e=t>=this.tresholdPercent;if(null===this.currentVisibility||n!==e)return this.currentVisibility=t,void this.onTresholdChange(e);this.currentVisibility=t}}]),t}(),Y=/\.0+$/g;function G(t){return Number.isInteger(t)?t+"":t.toFixed(6).replace(Y,"")}function H(t){var n=arguments.length>1&&void 0!==arguments[1]?arguments[1]:" ";return t&&t.length?t.map(G).join(n):""}function Q(t){return G(t.x)+","+G(t.y)}function X(t){return t?null==t.a||t.a>=1?"rgb("+t.r+","+t.g+","+t.b+")":"rgba("+t.r+","+t.g+","+t.b+","+t.a+")":"transparent"}var $={f:null,i:A,u:function(t,n){return function(e){var r=n(e);t.setAttribute("rx",G(r.x)),t.setAttribute("ry",G(r.y))}}},Z={f:null,i:function(t,n,e){return 0===t?n:1===t?e:{width:w(t,n.width,e.width),height:w(t,n.height,e.height)}},u:function(t,n){return function(e){var r=n(e);t.setAttribute("width",G(r.width)),t.setAttribute("height",G(r.height))}}},J=Math.sin,K=Math.cos,tt=Math.acos,nt=Math.asin,et=Math.tan,rt=Math.atan2,it=Math.PI/180,ut=180/Math.PI,ot=Math.sqrt,at=function(){function t(){var e=arguments.length>0&&void 0!==arguments[0]?arguments[0]:1,r=arguments.length>1&&void 0!==arguments[1]?arguments[1]:0,i=arguments.length>2&&void 0!==arguments[2]?arguments[2]:0,u=arguments.length>3&&void 0!==arguments[3]?arguments[3]:1,o=arguments.length>4&&void 0!==arguments[4]?arguments[4]:0,a=arguments.length>5&&void 0!==arguments[5]?arguments[5]:0;n(this,t),this.m=[e,r,i,u,o,a],this.i=null,this.w=null,this.s=null}return r(t,[{key:"determinant",get:function(){var t=this.m;return t[0]*t[3]-t[1]*t[2]}},{key:"isIdentity",get:function(){if(null===this.i){var t=this.m;this.i=1===t[0]&&0===t[1]&&0===t[2]&&1===t[3]&&0===t[4]&&0===t[5]}return this.i}},{key:"point",value:function(t,n){var e=this.m;return{x:e[0]*t+e[2]*n+e[4],y:e[1]*t+e[3]*n+e[5]}}},{key:"translateSelf",value:function(){var t=arguments.length>0&&void 0!==arguments[0]?arguments[0]:0,n=arguments.length>1&&void 0!==arguments[1]?arguments[1]:0;if(!t&&!n)return this;var e=this.m;return e[4]+=e[0]*t+e[2]*n,e[5]+=e[1]*t+e[3]*n,this.w=this.s=this.i=null,this}},{key:"rotateSelf",value:function(){var t=arguments.length>0&&void 0!==arguments[0]?arguments[0]:0;if(t%=360){var n=J(t*=it),e=K(t),r=this.m,i=r[0],u=r[1];r[0]=i*e+r[2]*n,r[1]=u*e+r[3]*n,r[2]=r[2]*e-i*n,r[3]=r[3]*e-u*n,this.w=this.s=this.i=null}return this}},{key:"scaleSelf",value:function(){var t=arguments.length>0&&void 0!==arguments[0]?arguments[0]:1,n=arguments.length>1&&void 0!==arguments[1]?arguments[1]:1;if(1!==t||1!==n){var e=this.m;e[0]*=t,e[1]*=t,e[2]*=n,e[3]*=n,this.w=this.s=this.i=null}return this}},{key:"skewSelf",value:function(t,n){if(n%=360,(t%=360)||n){var e=this.m,r=e[0],i=e[1],u=e[2],o=e[3];t&&(t=et(t*it),e[2]+=r*t,e[3]+=i*t),n&&(n=et(n*it),e[0]+=u*n,e[1]+=o*n),this.w=this.s=this.i=null}return this}},{key:"resetSelf",value:function(){var t=arguments.length>0&&void 0!==arguments[0]?arguments[0]:1,n=arguments.length>1&&void 0!==arguments[1]?arguments[1]:0,e=arguments.length>2&&void 0!==arguments[2]?arguments[2]:0,r=arguments.length>3&&void 0!==arguments[3]?arguments[3]:1,i=arguments.length>4&&void 0!==arguments[4]?arguments[4]:0,u=arguments.length>5&&void 0!==arguments[5]?arguments[5]:0,o=this.m;return o[0]=t,o[1]=n,o[2]=e,o[3]=r,o[4]=i,o[5]=u,this.w=this.s=this.i=null,this}},{key:"recomposeSelf",value:function(){var t=arguments.length>0&&void 0!==arguments[0]?arguments[0]:null,n=arguments.length>1&&void 0!==arguments[1]?arguments[1]:null,e=arguments.length>2&&void 0!==arguments[2]?arguments[2]:null,r=arguments.length>3&&void 0!==arguments[3]?arguments[3]:null,i=arguments.length>4&&void 0!==arguments[4]?arguments[4]:null;return this.isIdentity||this.resetSelf(),t&&(t.x||t.y)&&this.translateSelf(t.x,t.y),n&&this.rotateSelf(n),e&&(e.x&&this.skewSelf(e.x,0),e.y&&this.skewSelf(0,e.y)),!r||1===r.x&&1===r.y||this.scaleSelf(r.x,r.y),i&&(i.x||i.y)&&this.translateSelf(i.x,i.y),this}},{key:"decompose",value:function(){var t=arguments.length>0&&void 0!==arguments[0]?arguments[0]:0,n=arguments.length>1&&void 0!==arguments[1]?arguments[1]:0,e=this.m,r=e[0]*e[0]+e[1]*e[1],i=[[e[0],e[1]],[e[2],e[3]]],u=ot(r);if(0===u)return{origin:{x:e[4],y:e[5]},translate:{x:t,y:n},scale:{x:0,y:0},skew:{x:0,y:0},rotate:0};i[0][0]/=u,i[0][1]/=u;var o=e[0]*e[3]-e[1]*e[2]<0;o&&(u=-u);var a=i[0][0]*i[1][0]+i[0][1]*i[1][1];i[1][0]-=i[0][0]*a,i[1][1]-=i[0][1]*a;var l=ot(i[1][0]*i[1][0]+i[1][1]*i[1][1]);if(0===l)return{origin:{x:e[4],y:e[5]},translate:{x:t,y:n},scale:{x:u,y:0},skew:{x:0,y:0},rotate:0};i[1][0]/=l,i[1][1]/=l,a/=l;var s=0;return i[1][1]<0?(s=tt(i[1][1])*ut,i[0][1]<0&&(s=360-s)):s=nt(i[0][1])*ut,o&&(s=-s),a=rt(a,ot(i[0][0]*i[0][0]+i[0][1]*i[0][1]))*ut,o&&(a=-a),{origin:{x:e[4],y:e[5]},translate:{x:t,y:n},scale:{x:u,y:l},skew:{x:a,y:0},rotate:s}}},{key:"toString",value:function(){return null===this.s&&(this.s="matrix("+this.m.map(st).join(" ")+")"),this.s}}]),t}(),lt=/\.0+$/;function st(t){return Number.isInteger(t)?t:t.toFixed(14).replace(lt,"")}function ft(t,n,e){return t+(n-t)*e}function ct(t,n,e){var r=arguments.length>3&&void 0!==arguments[3]&&arguments[3],i={x:ft(t.x,n.x,e),y:ft(t.y,n.y,e)};return r&&(i.a=ht(t,n)),i}function ht(t,n){return Math.atan2(n.y-t.y,n.x-t.x)}Object.freeze({M:2,L:2,Z:0,H:1,V:1,C:6,Q:4,T:2,S:4,A:7});var vt={},dt=null;function yt(n){var e=function(){if(dt)return dt;if("object"!==("undefined"==typeof document?"undefined":t(document)))return{};var n=document.createElementNS("http://www.w3.org/2000/svg","svg");return n.style.position="absolute",n.style.opacity="0.01",n.style.zIndex="-9999",n.style.left="-9999px",n.style.width="1px",n.style.height="1px",dt={svg:n}}().svg;if(!e)return function(t){return null};var r=document.createElementNS(e.namespaceURI,"path");r.setAttributeNS(null,"d",n),r.setAttributeNS(null,"fill","none"),r.setAttributeNS(null,"stroke","none"),e.appendChild(r);var i=r.getTotalLength();return function(t){var n=r.getPointAtLength(i*t);return{x:n.x,y:n.y}}}function gt(t){return vt[t]?vt[t]:vt[t]=yt(t)}function pt(t,n,e,r){if(!t||!r)return!1;var i=["M",t.x,t.y];if(n&&e&&(i.push("C"),i.push(n.x),i.push(n.y),i.push(e.x),i.push(e.y)),n?!e:e){var u=n||e;i.push("Q"),i.push(u.x),i.push(u.y)}return n||e||i.push("L"),i.push(r.x),i.push(r.y),i.join(" ")}function mt(t,n,e,r){var i=arguments.length>4&&void 0!==arguments[4]?arguments[4]:1,u=pt(t,n,e,r),o=gt(u);try{return o(i)}catch(t){return null}}function bt(t,n,e,r){var i=1-r;return i*i*t+2*i*r*n+r*r*e}function wt(t,n,e,r){return 2*(1-r)*(n-t)+2*r*(e-n)}function xt(t,n,e,r){var i=arguments.length>4&&void 0!==arguments[4]&&arguments[4],u=mt(t,n,null,e,r);return u||(u={x:bt(t.x,n.x,e.x,r),y:bt(t.y,n.y,e.y,r)}),i&&(u.a=At(t,n,e,r)),u}function At(t,n,e,r){return Math.atan2(wt(t.y,n.y,e.y,r),wt(t.x,n.x,e.x,r))}function kt(t,n,e,r,i){var u=i*i;return i*u*(r-t+3*(n-e))+3*u*(t+e-2*n)+3*i*(n-t)+t}function _t(t,n,e,r,i){var u=1-i;return 3*(u*u*(n-t)+2*u*i*(e-n)+i*i*(r-e))}function St(t,n,e,r,i){var u=arguments.length>5&&void 0!==arguments[5]&&arguments[5],o=mt(t,n,e,r,i);return o||(o={x:kt(t.x,n.x,e.x,r.x,i),y:kt(t.y,n.y,e.y,r.y,i)}),u&&(o.a=Mt(t,n,e,r,i)),o}function Mt(t,n,e,r,i){return Math.atan2(_t(t.y,n.y,e.y,r.y,i),_t(t.x,n.x,e.x,r.x,i))}function Ot(t,n,e){var r=arguments.length>3&&void 0!==arguments[3]&&arguments[3];if(Bt(n)){if(It(e))return xt(n,e.start,e,t,r)}else if(Bt(e)){if(n.end)return xt(n,n.end,e,t,r)}else{if(n.end)return e.start?St(n,n.end,e.start,e,t,r):xt(n,n.end,e,t,r);if(e.start)return xt(n,e.start,e,t,r)}return ct(n,e,t,r)}function Et(t,n,e){var r=Ot(t,n,e,!0);return r.a=function(t){var n=arguments.length>1&&void 0!==arguments[1]&&arguments[1];return n?t+Math.PI:t}(r.a)/p,r}function Bt(t){return!t.type||"corner"===t.type}function It(t){return null!=t.start&&!Bt(t)}var jt=new at;var Pt={f:function(t){return t?t.join(" "):""},i:function(n,e,r){if(0===n)return e;if(1===n)return r;var i=e.length;if(i!==r.length)return m(n,e,r);for(var u,o=new Array(i),a=0;a<i;a++){if((u=t(e[a]))!==t(r[a]))return m(n,e,r);if("number"===u)o[a]=b(n,e[a],r[a]);else{if(e[a]!==r[a])return m(n,e,r);o[a]=e[a]}}return o}},Tt={f:null,i:M,u:function(t,n){return function(e){var r=n(e);t.setAttribute("x1",G(r[0])),t.setAttribute("y1",G(r[1])),t.setAttribute("x2",G(r[2])),t.setAttribute("y2",G(r[3]))}}},Ft={f:G,i:b},Rt={f:G,i:function(t,n,e){var r=b(t,n,e);return r<=0?0:r>=1?1:r}},Ct={f:function(t){var n=arguments.length>1&&void 0!==arguments[1]?arguments[1]:" ";return t&&t.length>0&&(t=t.map((function(t){return Math.floor(1e4*t)/1e4}))),H(t,n)},i:function(t,n,e){var r,i,u,o=n.length,a=e.length;if(o!==a)if(0===o)n=O(o=a,0);else if(0===a)a=o,e=O(o,0);else{var l=(u=(r=o)*(i=a)/function(t,n){for(var e;n;)e=n,n=t%n,t=e;return t||1}(r,i))<0?-u:u;n=E(n,Math.floor(l/o)),e=E(e,Math.floor(l/a)),o=a=l}for(var s=[],f=0;f<o;f++)s.push(g(w(t,n[f],e[f]),6));return s}};function Nt(t,n,e,r,i,u,o,a){return n=function(t,n,e){for(var r,i,u,o=t.length-1,a={},l=0;l<=o;l++)(r=t[l]).e&&(r.e=n(r.e)),r.v&&"g"===(i=r.v).t&&i.r&&(u=e.getElementById(i.r))&&(a[i.r]=u.querySelectorAll("stop"));return a}(t,r,a),function(r){var i,u=e(r,t,qt);return u?"c"===u.t?X(u.v):"g"===u.t?(n[u.r]&&function(t,n){for(var e=0,r=t.length;e<r;e++)t[e].setAttribute("stop-color",X(n[e]))}(n[u.r],u.v),(i=u.r)?"url(#"+i+")":"none"):"none":"none"}}function qt(t,n,e){if(0===t)return n;if(1===t)return e;if(n&&e){var r=n.t;if(r===e.t)switch(n.t){case"c":return{t:r,v:_(t,n.v,e.v)};case"g":if(n.r===e.r)return{t:r,v:S(t,n.v,e.v),r:n.r}}}return m(t,n,e)}var Vt={blur:A,brightness:w,contrast:w,"drop-shadow":function(t,n,e){return 0===t?n:1===t?e:{blur:A(t,n.blur,e.blur),offset:x(t,n.offset,e.offset),color:_(t,n.color,e.color)}},grayscale:w,"hue-rotate":b,invert:w,opacity:w,saturate:w,sepia:w};function Lt(t,n,e){if(0===t)return n;if(1===t)return e;var r=n.length;if(r!==e.length)return m(t,n,e);for(var i,u=[],o=0;o<r;o++){if(n[o].type!==e[o].type)return n;if(!(i=Vt[n[o].type]))return m(t,n,e);u.push({type:n.type,value:i(t,n[o].value,e[o].value)})}return u}var zt={blur:function(t){return t?function(n){t.setAttribute("stdDeviation",Q(n))}:null},brightness:function(t,n,e){return(t=Ut(e,n))?function(n){n=G(n),t.map((function(t){return t.setAttribute("slope",n)}))}:null},contrast:function(t,n,e){return(t=Ut(e,n))?function(n){var e=G((1-n)/2);n=G(n),t.map((function(t){t.setAttribute("slope",n),t.setAttribute("intercept",e)}))}:null},"drop-shadow":function(t,n,e){var r=e.getElementById(n+"-blur");if(!r)return null;var i=e.getElementById(n+"-offset");if(!i)return null;var u=e.getElementById(n+"-flood");return u?function(t){r.setAttribute("stdDeviation",Q(t.blur)),i.setAttribute("dx",G(t.offset.x)),i.setAttribute("dy",G(t.offset.y)),u.setAttribute("flood-color",X(t.color))}:null},grayscale:function(t){return t?function(n){t.setAttribute("values",H(function(t){return[.2126+.7874*(t=1-t),.7152-.7152*t,.0722-.0722*t,0,0,.2126-.2126*t,.7152+.2848*t,.0722-.0722*t,0,0,.2126-.2126*t,.7152-.7152*t,.0722+.9278*t,0,0,0,0,0,1,0]}(n)))}:null},"hue-rotate":function(t){return t?function(n){return t.setAttribute("values",G(n))}:null},invert:function(t,n,e){return(t=Ut(e,n))?function(n){n=G(n)+" "+G(1-n),t.map((function(t){return t.setAttribute("tableValues",n)}))}:null},opacity:function(t,n,e){return(t=e.getElementById(n+"-A"))?function(n){return t.setAttribute("tableValues","0 "+G(n))}:null},saturate:function(t){return t?function(n){return t.setAttribute("values",G(n))}:null},sepia:function(t){return t?function(n){return t.setAttribute("values",H(function(t){return[.393+.607*(t=1-t),.769-.769*t,.189-.189*t,0,0,.349-.349*t,.686+.314*t,.168-.168*t,0,0,.272-.272*t,.534-.534*t,.131+.869*t,0,0,0,0,0,1,0]}(n)))}:null}};var Dt=["R","G","B"];function Ut(t,n){var e=Dt.map((function(e){return t.getElementById(n+"-"+e)||null}));return-1!==e.indexOf(null)?null:e}var Wt={fill:Nt,"fill-opacity":Rt,stroke:Nt,"stroke-opacity":Rt,"stroke-width":Ft,"stroke-dashoffset":{f:G,i:b},"stroke-dasharray":Ct,opacity:Rt,transform:function(n,e,r,i){if(!(n=function(n,e){if(!n||"object"!==t(n))return null;var r=!1;for(var i in n)n.hasOwnProperty(i)&&(n[i]&&n[i].length?(n[i].forEach((function(t){t.e&&(t.e=e(t.e))})),r=!0):delete n[i]);return r?n:null}(n,i)))return null;var u=function(t,i,u){var o=arguments.length>3&&void 0!==arguments[3]?arguments[3]:null;return n[t]?r(i,n[t],u):e&&e[t]?e[t]:o};return e&&e.a&&n.o?function(t){var e=r(t,n.o,Et);return jt.recomposeSelf(e,u("r",t,b,0)+e.a,u("k",t,x),u("s",t,x),u("t",t,x)).toString()}:function(t){return jt.recomposeSelf(u("o",t,Ot,null),u("r",t,b,0),u("k",t,x),u("s",t,x),u("t",t,x)).toString()}},"#filter":function(t,n,e,r,i,u,o,a){if(!n.items||!t||!t.length)return null;var l=function(t,n){var e=(t=t.map((function(t){return t&&zt[t[0]]?(n.getElementById(t[1]),zt[t[0]](n.getElementById(t[1]),t[1],n)):null}))).length;return function(n){for(var r=0;r<e;r++)t[r]&&t[r](n[r].value)}}(n.items,a);return l?(t=function(t,n){return t.map((function(t){return t.e=n(t.e),t}))}(t,r),function(n){l(e(n,t,Lt))}):null},"#line":Tt,points:{f:H,i:M},d:Pt,r:Ft,"#size":Z,"#radius":$,_:function(t,n){if(Array.isArray(t))for(var e=0;e<t.length;e++)this[t[e]]=n;else this[t]=n}};return function(t){!function(t,n){if("function"!=typeof n&&null!==n)throw new TypeError("Super expression must either be null or a function");t.prototype=Object.create(n&&n.prototype,{constructor:{value:t,writable:!0,configurable:!0}}),n&&u(t,n)}(o,t);var e=a(o);function o(){return n(this,o),e.apply(this,arguments)}return r(o,null,[{key:"build",value:function(t){var n=l(i(o),"build",this).call(this,t,Wt),e=n.el,r=n.options,u=n.player;return function(t,n,e){if("click"===e.start){return void n.addEventListener("click",(function(){switch(e.click){case"freeze":return!t._running&&t.reachedToEnd()&&(t.offset=0),t._running?t.pause():t.play();case"restart":return t.offset>0?t.restart():t.play();case"reverse":var n=!t._rollingBack&&t._running,r=t.reachedToEnd();return n||r&&1===t.fill?(t.pause(),r&&(t.offset=t.duration-1),t._rollback()):r?t.restart():t.play();case"none":default:return!t._running&&t.offset?t.restart():t.play()}}))}if("hover"===e.start)return n.addEventListener("mouseenter",(function(){return t.reachedToEnd()?t.restart():t.play()})),void n.addEventListener("mouseleave",(function(){switch(e.hover){case"freeze":return t.pause();case"reset":return t.stop();case"reverse":return t.pause(),t._rollback();case"none":default:return}}));if("scroll"===e.start)return void new W(n,e.scroll||25,(function(n){n?t.reachedToEnd()?t.restart():t.play():t.pause()}));t.play()}(u,e,r),u}}]),o}(D)}));
__SVGATOR_PLAYER__.build({"root":"eWD8etjKkca1","animations":[{"duration":8000,"direction":1,"iterations":0,"fill":1,"alternate":false,"speed":1,"elements":{"eWD8etjKkca23":{"transform":{"data":{"o":{"x":286.515776534375,"y":207.257265625,"type":"corner"},"t":{"x":-286.836,"y":-204.1}},"keys":{"r":[{"t":2000,"v":0},{"t":2200,"v":-5.202870074177678},{"t":2400,"v":4.435016301532172},{"t":2600,"v":-5.459675100204},{"t":2800,"v":3.935735956373561},{"t":3000,"v":0}]}}},"eWD8etjKkca35":{"transform":{"data":{"t":{"x":-116.45000076293945,"y":56.35000228881836}},"keys":{"o":[{"t":0,"v":{"x":116.45000076293945,"y":-56.35000228881836,"type":"corner"},"e":[0.42,0,1,1]},{"t":2000,"v":{"x":116.45000076293945,"y":-47.49577495109834,"type":"corner"}},{"t":3000,"v":{"x":116.45000076293945,"y":-47.49577495109834,"type":"corner"},"e":[0,0,0.58,1]},{"t":5000,"v":{"x":116.45000076293945,"y":-56.35000228881836,"type":"corner"},"e":[0.42,0,0.58,1]}]}}}}}],"options":{"start":"load","hover":"freeze","click":"freeze","scroll":25,"font":"embed","exportedIds":"unique","svgFormat":"animated","title":"Heslo-zapomenute"},"animationSettings":{"duration":8000,"direction":1,"iterations":0,"fill":1,"alternate":false,"speed":1}})]]></script></svg>