<svg id="e6KEhc7qL5x1" xmlns="http://www.w3.org/2000/svg" xmlns:xlink="http://www.w3.org/1999/xlink" viewBox="0 0 400 400" shape-rendering="geometricPrecision" text-rendering="geometricPrecision"><defs><linearGradient id="e6KEhc7qL5x4-fill" x1="317.976800" y1="275.048000" x2="225.163200" y2="236.235000" spreadMethod="pad" gradientUnits="userSpaceOnUse"><stop id="e6KEhc7qL5x4-fill-0" offset="0%" stop-color="rgb(161,195,252)"/><stop id="e6KEhc7qL5x4-fill-1" offset="69.550000%" stop-color="rgb(129,174,242)"/><stop id="e6KEhc7qL5x4-fill-2" offset="100%" stop-color="rgb(120,169,239)"/></linearGradient><linearGradient id="e6KEhc7qL5x5-fill" x1="230.317000" y1="219.667700" x2="244.294300" y2="101.443000" spreadMethod="pad" gradientUnits="userSpaceOnUse"><stop id="e6KEhc7qL5x5-fill-0" offset="0%" stop-color="rgb(161,195,252)"/><stop id="e6KEhc7qL5x5-fill-1" offset="69.550000%" stop-color="rgb(129,174,242)"/><stop id="e6KEhc7qL5x5-fill-2" offset="100%" stop-color="rgb(120,169,239)"/></linearGradient><linearGradient id="e6KEhc7qL5x6-fill" x1="190.137300" y1="296.380900" x2="150.080300" y2="249.390900" spreadMethod="pad" gradientUnits="userSpaceOnUse"><stop id="e6KEhc7qL5x6-fill-0" offset="0%" stop-color="rgb(35,40,107)"/><stop id="e6KEhc7qL5x6-fill-1" offset="100%" stop-color="rgb(21,26,79)"/></linearGradient><linearGradient id="e6KEhc7qL5x9-fill" x1="122.683500" y1="113.149900" x2="124.212900" y2="186.943700" spreadMethod="pad" gradientUnits="userSpaceOnUse"><stop id="e6KEhc7qL5x9-fill-0" offset="0%" stop-color="rgb(161,195,252)"/><stop id="e6KEhc7qL5x9-fill-1" offset="69.550000%" stop-color="rgb(129,174,242)"/><stop id="e6KEhc7qL5x9-fill-2" offset="100%" stop-color="rgb(120,169,239)"/></linearGradient><linearGradient id="e6KEhc7qL5x12-fill" x1="252.837600" y1="123.823200" x2="285.848800" y2="142.893500" spreadMethod="pad" gradientUnits="userSpaceOnUse"><stop id="e6KEhc7qL5x12-fill-0" offset="0%" stop-color="rgb(35,40,107)"/><stop id="e6KEhc7qL5x12-fill-1" offset="0%" stop-color="rgb(34,39,104)"/><stop id="e6KEhc7qL5x12-fill-2" offset="67.310000%" stop-color="rgb(24,29,85)"/><stop id="e6KEhc7qL5x12-fill-3" offset="100%" stop-color="rgb(21,26,79)"/></linearGradient><linearGradient id="e6KEhc7qL5x13-fill" x1="237.706800" y1="108.943300" x2="237.706800" y2="186.547100" spreadMethod="pad" gradientUnits="userSpaceOnUse"><stop id="e6KEhc7qL5x13-fill-0" offset="0%" stop-color="rgb(35,40,107)"/><stop id="e6KEhc7qL5x13-fill-1" offset="57.460000%" stop-color="rgb(25,30,88)"/><stop id="e6KEhc7qL5x13-fill-2" offset="100%" stop-color="rgb(21,26,79)"/></linearGradient><linearGradient id="e6KEhc7qL5x20-fill" x1="285.626600" y1="343.253400" x2="243.742000" y2="332.925700" spreadMethod="pad" gradientUnits="userSpaceOnUse"><stop id="e6KEhc7qL5x20-fill-0" offset="0%" stop-color="rgb(35,40,107)"/><stop id="e6KEhc7qL5x20-fill-1" offset="57.460000%" stop-color="rgb(25,30,88)"/><stop id="e6KEhc7qL5x20-fill-2" offset="100%" stop-color="rgb(21,26,79)"/></linearGradient><linearGradient id="e6KEhc7qL5x22-fill" x1="248.847600" y1="108.074400" x2="248.847600" y2="136.902500" spreadMethod="pad" gradientUnits="userSpaceOnUse"><stop id="e6KEhc7qL5x22-fill-0" offset="0%" stop-color="rgb(35,40,107)"/><stop id="e6KEhc7qL5x22-fill-1" offset="57.460000%" stop-color="rgb(25,30,88)"/><stop id="e6KEhc7qL5x22-fill-2" offset="100%" stop-color="rgb(21,26,79)"/></linearGradient><linearGradient id="e6KEhc7qL5x23-fill" x1="233.385700" y1="102.059800" x2="242.432400" y2="102.059800" spreadMethod="pad" gradientUnits="userSpaceOnUse"><stop id="e6KEhc7qL5x23-fill-0" offset="0%" stop-color="rgb(255,190,182)"/><stop id="e6KEhc7qL5x23-fill-1" offset="100%" stop-color="rgb(242,161,156)"/></linearGradient><linearGradient id="e6KEhc7qL5x24-fill" x1="248.365953" y1="174.528876" x2="214.505226" y2="154.119253" spreadMethod="pad" gradientUnits="userSpaceOnUse"><stop id="e6KEhc7qL5x24-fill-0" offset="0%" stop-color="rgb(255,190,182)"/><stop id="e6KEhc7qL5x24-fill-1" offset="100%" stop-color="rgb(242,161,156)"/></linearGradient><linearGradient id="e6KEhc7qL5x28-fill" x1="207.576600" y1="91.238400" x2="248.497100" y2="91.238400" spreadMethod="pad" gradientUnits="userSpaceOnUse"><stop id="e6KEhc7qL5x28-fill-0" offset="12.910000%" stop-color="rgb(66,141,252)"/><stop id="e6KEhc7qL5x28-fill-1" offset="99.870000%" stop-color="rgb(29,114,216)"/></linearGradient><linearGradient id="e6KEhc7qL5x29-fill" x1="278.409900" y1="150.883100" x2="277.771000" y2="121.013700" spreadMethod="pad" gradientUnits="userSpaceOnUse"><stop id="e6KEhc7qL5x29-fill-0" offset="0%" stop-color="rgb(35,40,107)"/><stop id="e6KEhc7qL5x29-fill-1" offset="0%" stop-color="rgb(34,39,104)"/><stop id="e6KEhc7qL5x29-fill-2" offset="67.310000%" stop-color="rgb(24,29,85)"/><stop id="e6KEhc7qL5x29-fill-3" offset="100%" stop-color="rgb(21,26,79)"/></linearGradient><linearGradient id="e6KEhc7qL5x30-fill" x1="279.790200" y1="107.789000" x2="277.273900" y2="97.005200" spreadMethod="pad" gradientUnits="userSpaceOnUse"><stop id="e6KEhc7qL5x30-fill-0" offset="0%" stop-color="rgb(255,190,182)"/><stop id="e6KEhc7qL5x30-fill-1" offset="100%" stop-color="rgb(242,161,156)"/></linearGradient><linearGradient id="e6KEhc7qL5x31-fill" x1="283.527300" y1="125.634300" x2="282.429900" y2="95.589700" spreadMethod="pad" gradientUnits="userSpaceOnUse"><stop id="e6KEhc7qL5x31-fill-0" offset="0%" stop-color="rgb(35,40,107)"/><stop id="e6KEhc7qL5x31-fill-1" offset="57.460000%" stop-color="rgb(25,30,88)"/><stop id="e6KEhc7qL5x31-fill-2" offset="100%" stop-color="rgb(21,26,79)"/></linearGradient><linearGradient id="e6KEhc7qL5x33-fill" x1="175.065000" y1="332.708300" x2="88.427100" y2="332.134500" spreadMethod="pad" gradientUnits="userSpaceOnUse"><stop id="e6KEhc7qL5x33-fill-0" offset="12.910000%" stop-color="rgb(66,141,252)"/><stop id="e6KEhc7qL5x33-fill-1" offset="99.870000%" stop-color="rgb(29,114,216)"/></linearGradient><linearGradient id="e6KEhc7qL5x35-fill" x1="168.657300" y1="190.993200" x2="162.058300" y2="162.711500" spreadMethod="pad" gradientUnits="userSpaceOnUse"><stop id="e6KEhc7qL5x35-fill-0" offset="0%" stop-color="rgb(255,190,182)"/><stop id="e6KEhc7qL5x35-fill-1" offset="100%" stop-color="rgb(242,161,156)"/></linearGradient><linearGradient id="e6KEhc7qL5x36-fill" x1="143.598600" y1="196.499000" x2="102.125800" y2="161.016600" spreadMethod="pad" gradientUnits="userSpaceOnUse"><stop id="e6KEhc7qL5x36-fill-0" offset="0%" stop-color="rgb(255,190,182)"/><stop id="e6KEhc7qL5x36-fill-1" offset="100%" stop-color="rgb(242,161,156)"/></linearGradient><linearGradient id="e6KEhc7qL5x38-fill" x1="116.468995" y1="98.275788" x2="115.972976" y2="89.188621" spreadMethod="pad" gradientUnits="userSpaceOnUse"><stop id="e6KEhc7qL5x38-fill-0" offset="0%" stop-color="rgb(255,190,182)"/><stop id="e6KEhc7qL5x38-fill-1" offset="100%" stop-color="rgb(242,155,148)"/></linearGradient><linearGradient id="e6KEhc7qL5x40-fill" x1="110.481600" y1="80.014100" x2="110.573100" y2="89.435200" spreadMethod="pad" gradientUnits="userSpaceOnUse"><stop id="e6KEhc7qL5x40-fill-0" offset="12.910000%" stop-color="rgb(66,141,252)"/><stop id="e6KEhc7qL5x40-fill-1" offset="99.870000%" stop-color="rgb(29,114,216)"/></linearGradient><linearGradient id="e6KEhc7qL5x41-fill" x1="119.575000" y1="66.801600" x2="99.909500" y2="77.137400" spreadMethod="pad" gradientUnits="userSpaceOnUse"><stop id="e6KEhc7qL5x41-fill-0" offset="0%" stop-color="rgb(66,141,252)"/><stop id="e6KEhc7qL5x41-fill-1" offset="99.790000%" stop-color="rgb(33,118,219)"/></linearGradient></defs><g id="e6KEhc7qL5x2"><g id="e6KEhc7qL5x3"><path id="e6KEhc7qL5x4" d="M216.500000,183.500000C222.600000,212,221.600000,207.700000,224.700000,232.800000C227.200000,252.700000,225.800000,244.300000,226.700000,265.300000C227.600000,286.300000,225.200000,308.500000,237.900000,321.700000L255,321.700000C255,321.700000,254.500000,267.300000,254.200000,249.200000C254,233.500000,252.500000,215.100000,251.300000,203.500000C251.200000,202.800000,251.200000,202.200000,251,201.500000C249.600000,193.300000,249.300000,190.500000,248.600000,185.700000C248.500000,185.200000,245.600000,164.900000,245.500000,164.500000C240.700000,165,239.100000,164.500000,233.400000,165C222.600000,165.900000,223.600000,165.200000,217.900000,164.200000C217.400000,164.100000,217,163.900000,216.500000,163.600000C215.700000,163.300000,214.800000,162.900000,214,162.400000C214.100000,167.900000,214.600000,174.800000,216.500000,183.500000Z" fill="url(#e6KEhc7qL5x4-fill)" stroke="none" stroke-width="1"/><path id="e6KEhc7qL5x5" d="M203.700000,321.700000L221.600000,321.700000C221.600000,321.700000,251.900000,250.200000,253.300000,235.700000C254.700000,221.200000,253.600000,203.800000,251.700000,189.600000C251.500000,187.900000,247.600000,165.700000,247.400000,164.100000C242.600000,164.300000,241.600000,164.300000,235.300000,164.300000C225.600000,164.300000,225.400000,164.300000,219.900000,164.200000C217.100000,164.200000,214.500000,164,212.100000,163.800000C212.100000,171,211.300000,189.500000,215.400000,201.900000C226.400000,235.200000,218.500000,236.700000,213.400000,246.100000C208.800000,254.700000,209.400000,251.700000,207.500000,268.200000C206.400000,277.700000,204.300000,276.500000,202.100000,288.800000C199.900000,301.100000,203.700000,321.700000,203.700000,321.700000Z" fill="url(#e6KEhc7qL5x5-fill)" stroke="none" stroke-width="1"/><path id="e6KEhc7qL5x6" d="M160.300000,238.800000C160.100000,226,156.100000,213,153.700000,202.400000C153.700000,202.400000,144.300000,163.100000,144.900000,161.900000C145.400000,160.600000,133.700000,162.300000,133.700000,162.300000L122,166.600000L122,166.600000L119.300000,171.700000L119.300000,171.700000C117.900000,178.600000,117.600000,187.100000,119.900000,197.100000C126.500000,226,127,221.900000,126,242.200000C125,262.500000,128.300000,255.600000,129.300000,276.900000C130.300000,298.200000,129,308.700000,142.700000,322.100000L165,321.900000C164.900000,321.800000,160.600000,257.100000,160.300000,238.800000Z" fill="url(#e6KEhc7qL5x6-fill)" stroke="none" stroke-width="1"/><path id="e6KEhc7qL5x7" d="M141.900000,209.700000L138.600000,162L111.100000,161.100000C111.100000,161.100000,109.100000,163.200000,106.200000,171.300000C103.100000,170.900000,108.300000,171.800000,106.200000,171.300000C102.800000,184.100000,103.200000,197.600000,107.500000,210.200000C118,241.700000,110.800000,240.200000,107.400000,249.700000C104,259.200000,102.200000,265.100000,102.900000,274.100000C103.700000,283.100000,99.800000,280.700000,97.700000,292.400000C95.600000,304.100000,98.300000,321.900000,98.300000,321.900000L121.200000,321.700000C121.200000,321.700000,141.300000,258.500000,142.600000,244.700000C143.500000,233.800000,143.100000,221.200000,141.900000,209.700000Z" fill="rgb(35,40,107)" stroke="none" stroke-width="1"/><path id="e6KEhc7qL5x8" d="M121.300000,98.400000C121.300000,98.400000,124.200000,114.300000,131.100000,127C136.700000,137.200000,134.800000,134.600000,144.600000,143.500000C150.400000,148.800000,159.500000,156.100000,159.500000,156.100000L140.500000,169.300000L135,173C128.800000,163.900000,123.900000,163.700000,118.600000,162.200000C113.300000,160.700000,102.400000,154.500000,104.400000,136.800000C106.400000,119.100000,94.700000,116.700000,110.900000,98.200000L110.900000,98.200000" fill="rgb(161,195,252)" stroke="none" stroke-width="1"/><path id="e6KEhc7qL5x9" d="M121.300000,98.400000C121.300000,98.400000,135.600000,150.400000,154.300000,173.700000C154.300000,173.700000,112.300000,181.300000,97.400000,172.500000C97.400000,172.500000,81.600000,141.100000,111,98.100000L111,98.100000L121.300000,98.400000" fill="url(#e6KEhc7qL5x9-fill)" stroke="none" stroke-width="1"/><path id="e6KEhc7qL5x10" d="M218.300000,193.900000C218.300000,193.900000,218.200000,193.800000,218.200000,193.900000C218.200000,193.900000,218.100000,194,218.200000,194C218.200000,194,218.300000,194.100000,218.300000,194L218.300000,194C218.300000,194,218.300000,194,218.300000,193.900000L218.300000,193.900000ZM217.400000,191.800000C217.400000,191.800000,217.300000,191.700000,217.300000,191.700000C217.300000,191.700000,217.300000,191.700000,217.300000,191.700000C217.300000,191.700000,217.200000,191.800000,217.200000,191.800000C217.200000,191.800000,217.300000,191.900000,217.300000,191.900000C217.400000,191.900000,217.400000,191.900000,217.400000,191.800000L217.400000,191.800000L217.400000,191.800000ZM217.500000,205.300000C217.400000,205.300000,217.300000,205.400000,217.300000,205.500000C217.300000,205.600000,217.400000,205.700000,217.500000,205.700000C217.500000,205.700000,217.500000,205.700000,217.500000,205.700000C217.600000,205.700000,217.700000,205.600000,217.700000,205.500000C217.700000,205.400000,217.600000,205.300000,217.500000,205.300000L217.500000,205.300000L217.500000,205.300000ZM217.200000,201C217.100000,201,217,201.100000,217,201.200000L217,201.200000C217,201.300000,217.100000,201.400000,217.200000,201.400000C217.300000,201.400000,217.400000,201.300000,217.400000,201.200000C217.400000,201.100000,217.300000,201,217.200000,201L217.200000,201ZM216.900000,196.700000C216.800000,196.700000,216.700000,196.800000,216.700000,196.900000C216.700000,197,216.800000,197.100000,216.900000,197.100000C216.900000,197.100000,216.900000,197.100000,216.900000,197.100000C217,197.100000,217.100000,197,217.100000,196.900000C217.100000,196.900000,217.100000,196.900000,217.100000,196.900000C217.100000,196.700000,217,196.700000,216.900000,196.700000L216.900000,196.700000ZM216.600000,192.400000C216.500000,192.400000,216.400000,192.500000,216.400000,192.600000C216.400000,192.600000,216.400000,192.600000,216.400000,192.600000C216.400000,192.700000,216.500000,192.800000,216.600000,192.800000C216.700000,192.800000,216.800000,192.700000,216.800000,192.600000C216.800000,192.500000,216.700000,192.300000,216.600000,192.400000C216.600000,192.400000,216.600000,192.400000,216.600000,192.400000ZM226,201C226,200.900000,225.800000,200.900000,225.800000,200.900000C225.700000,200.900000,225.700000,201.100000,225.700000,201.100000C225.700000,201.200000,225.900000,201.200000,225.900000,201.200000C225.900000,201.200000,225.900000,201.200000,225.900000,201.200000C226,201.200000,226.100000,201.100000,226,201L226,201ZM224.100000,197.100000C224.100000,197,223.900000,197,223.900000,197C223.800000,197,223.800000,197.200000,223.800000,197.200000C223.800000,197.300000,224,197.300000,224,197.300000C224,197.300000,224,197.300000,224,197.300000C224.100000,197.300000,224.100000,197.200000,224.100000,197.100000L224.100000,197.100000ZM222.100000,193.300000C222.100000,193.200000,221.900000,193.200000,221.900000,193.200000C221.800000,193.200000,221.800000,193.400000,221.800000,193.400000C221.800000,193.500000,222,193.500000,222,193.500000C222.200000,193.500000,222.200000,193.300000,222.100000,193.300000L222.100000,193.300000ZM227.700000,195.800000C227.700000,195.700000,227.600000,195.700000,227.500000,195.700000C227.400000,195.700000,227.400000,195.800000,227.400000,195.900000C227.400000,196,227.500000,196,227.600000,196L227.600000,196C227.700000,195.900000,227.700000,195.800000,227.700000,195.800000C227.700000,195.800000,227.700000,195.800000,227.700000,195.800000L227.700000,195.800000ZM225.600000,192.500000C225.600000,192.400000,225.600000,192.400000,225.600000,192.500000L225.600000,192.500000C225.500000,192.400000,225.400000,192.400000,225.400000,192.400000C225.300000,192.400000,225.300000,192.500000,225.300000,192.600000C225.300000,192.600000,225.300000,192.600000,225.300000,192.600000C225.300000,192.700000,225.400000,192.700000,225.500000,192.700000C225.500000,192.700000,225.600000,192.600000,225.600000,192.600000C225.700000,192.600000,225.700000,192.500000,225.600000,192.500000L225.600000,192.500000ZM215.300000,194.100000C215.200000,194.100000,215.100000,194.100000,215.100000,194.200000C215.100000,194.200000,215.100000,194.200000,215.100000,194.200000C215.100000,194.300000,215.100000,194.400000,215.200000,194.400000C215.200000,194.400000,215.200000,194.400000,215.200000,194.400000C215.300000,194.400000,215.400000,194.400000,215.400000,194.300000C215.400000,194.300000,215.400000,194.300000,215.400000,194.300000C215.400000,194.200000,215.400000,194.100000,215.300000,194.100000L215.300000,194.100000ZM221.800000,199.900000C221.700000,199.900000,221.700000,200,221.700000,200.100000C221.700000,200.200000,221.800000,200.200000,221.900000,200.200000C222,200.200000,222,200.100000,222,200C222,200,221.900000,199.900000,221.800000,199.900000L221.800000,199.900000ZM221.200000,196.100000C221.100000,196.100000,221.100000,196.200000,221.100000,196.300000C221.100000,196.400000,221.200000,196.400000,221.300000,196.400000C221.400000,196.400000,221.400000,196.300000,221.400000,196.200000C221.400000,196.200000,221.400000,196.200000,221.400000,196.200000C221.300000,196.200000,221.300000,196.100000,221.200000,196.100000L221.200000,196.100000ZM220.500000,192.300000C220.400000,192.300000,220.400000,192.400000,220.400000,192.500000C220.400000,192.500000,220.400000,192.500000,220.400000,192.500000C220.400000,192.600000,220.500000,192.600000,220.600000,192.600000C220.700000,192.600000,220.700000,192.500000,220.700000,192.400000C220.700000,192.400000,220.600000,192.300000,220.500000,192.300000C220.500000,192.300000,220.500000,192.300000,220.500000,192.300000L220.500000,192.300000ZM220.400000,192.900000C220.300000,192.900000,220.300000,192.900000,220.400000,192.900000C220.300000,193,220.300000,193.100000,220.400000,193.100000C220.400000,193.100000,220.500000,193,220.400000,192.900000L220.400000,192.900000C220.500000,192.900000,220.400000,192.900000,220.400000,192.900000L220.400000,192.900000ZM220.200000,193.700000C220.100000,193.700000,220.100000,193.700000,220.100000,193.800000C220.100000,193.900000,220.100000,193.900000,220.200000,193.900000C220.300000,193.900000,220.300000,193.900000,220.300000,193.800000C220.300000,193.800000,220.300000,193.800000,220.300000,193.800000C220.300000,193.700000,220.300000,193.700000,220.200000,193.700000C220.200000,193.700000,220.200000,193.700000,220.200000,193.700000L220.200000,193.700000ZM225.700000,192.500000C225.700000,192.400000,225.600000,192.400000,225.600000,192.400000C225.600000,192.400000,225.600000,192.400000,225.600000,192.400000L225.600000,192.400000C225.500000,192.400000,225.500000,192.500000,225.500000,192.500000C225.500000,192.600000,225.600000,192.600000,225.600000,192.600000C225.600000,192.600000,225.600000,192.600000,225.600000,192.600000C225.600000,192.600000,225.600000,192.600000,225.600000,192.600000C225.700000,192.600000,225.700000,192.500000,225.700000,192.500000L225.700000,192.500000ZM229.600000,203.200000C229.500000,203.200000,229.400000,203.300000,229.400000,203.400000C229.400000,203.500000,229.500000,203.600000,229.600000,203.600000C229.700000,203.600000,229.800000,203.500000,229.800000,203.400000C229.800000,203.300000,229.700000,203.200000,229.600000,203.200000L229.600000,203.200000ZM228.900000,198.800000C228.800000,198.800000,228.700000,198.900000,228.700000,199C228.700000,199.100000,228.800000,199.200000,228.900000,199.200000C229,199.200000,229.100000,199.100000,229.100000,199C229.100000,198.900000,229,198.800000,228.900000,198.800000L228.900000,198.800000ZM214,195.200000C213.900000,195.100000,213.800000,195.200000,213.700000,195.200000C213.600000,195.300000,213.700000,195.400000,213.700000,195.500000C213.700000,195.500000,213.700000,195.500000,213.700000,195.500000C213.800000,195.600000,213.900000,195.500000,214,195.500000C214.100000,195.400000,214.100000,195.300000,214,195.200000C214,195.200000,214,195.200000,214,195.200000ZM216.700000,191.600000C216.600000,191.500000,216.500000,191.600000,216.400000,191.600000C216.400000,191.600000,216.400000,191.600000,216.400000,191.600000C216.300000,191.700000,216.400000,191.800000,216.400000,191.900000C216.500000,192,216.600000,191.900000,216.700000,191.900000C216.800000,191.800000,216.700000,191.700000,216.700000,191.600000C216.700000,191.600000,216.700000,191.600000,216.700000,191.600000L216.700000,191.600000ZM220.800000,200.900000C220.700000,200.900000,220.600000,200.900000,220.600000,201C220.600000,201,220.600000,201,220.600000,201C220.600000,201.100000,220.600000,201.200000,220.700000,201.200000C220.800000,201.200000,220.900000,201.200000,220.900000,201.100000C221,201,220.900000,200.900000,220.800000,200.900000C220.800000,200.900000,220.800000,200.900000,220.800000,200.900000L220.800000,200.900000ZM221.900000,196.500000C221.800000,196.500000,221.700000,196.500000,221.700000,196.600000C221.700000,196.600000,221.700000,196.600000,221.700000,196.600000C221.700000,196.700000,221.700000,196.800000,221.800000,196.800000L221.800000,196.800000C221.900000,196.800000,222,196.800000,222,196.700000L222,196.700000C222.100000,196.600000,222,196.500000,221.900000,196.500000C221.900000,196.500000,221.900000,196.500000,221.900000,196.500000L221.900000,196.500000ZM222.900000,192.200000C222.800000,192.200000,222.700000,192.200000,222.700000,192.300000C222.700000,192.400000,222.700000,192.500000,222.800000,192.500000C222.900000,192.500000,223,192.500000,223,192.400000C223,192.400000,223,192.400000,223,192.400000C223.100000,192.300000,223,192.200000,222.900000,192.200000C222.900000,192.200000,222.900000,192.200000,222.900000,192.200000L222.900000,192.200000ZM223.500000,202.300000C223.400000,202.300000,223.300000,202.300000,223.300000,202.400000C223.300000,202.500000,223.300000,202.600000,223.400000,202.600000C223.500000,202.600000,223.600000,202.600000,223.600000,202.500000C223.700000,202.400000,223.600000,202.300000,223.500000,202.300000C223.500000,202.300000,223.500000,202.300000,223.500000,202.300000L223.500000,202.300000ZM224.400000,197.900000C224.300000,197.900000,224.200000,198,224.200000,198.100000C224.200000,198.200000,224.200000,198.300000,224.300000,198.300000C224.400000,198.300000,224.500000,198.300000,224.500000,198.200000C224.600000,198.100000,224.500000,198,224.400000,197.900000L224.400000,197.900000ZM225.300000,193.600000C225.200000,193.600000,225.100000,193.600000,225.100000,193.700000C225.100000,193.800000,225.100000,193.900000,225.200000,193.900000C225.200000,193.900000,225.200000,193.900000,225.200000,193.900000C225.300000,193.900000,225.400000,193.900000,225.400000,193.800000C225.400000,193.700000,225.400000,193.600000,225.300000,193.600000L225.300000,193.600000ZM216.100000,196.800000C216,196.700000,215.900000,196.800000,215.900000,196.800000C215.900000,196.800000,215.900000,196.800000,215.900000,196.800000C215.800000,196.900000,215.900000,197,215.900000,197.100000C216,197.200000,216.100000,197.100000,216.200000,197.100000C216.200000,196.900000,216.200000,196.800000,216.100000,196.800000C216.100000,196.800000,216.100000,196.800000,216.100000,196.800000L216.100000,196.800000ZM218.600000,193C218.500000,192.900000,218.400000,193,218.400000,193C218.400000,193,218.400000,193,218.400000,193C218.300000,193.100000,218.400000,193.200000,218.400000,193.300000C218.500000,193.400000,218.600000,193.300000,218.700000,193.300000C218.700000,193.200000,218.700000,193.100000,218.600000,193C218.600000,193,218.600000,193,218.600000,193L218.600000,193ZM223.500000,194.700000C223.400000,194.700000,223.400000,194.700000,223.300000,194.800000C223.300000,194.800000,223.300000,194.800000,223.300000,194.800000C223.300000,194.900000,223.300000,195,223.400000,195C223.500000,195,223.600000,195,223.600000,194.900000C223.600000,194.800000,223.600000,194.700000,223.500000,194.700000ZM224.800000,191.600000C224.700000,191.600000,224.600000,191.600000,224.600000,191.700000C224.600000,191.700000,224.600000,191.700000,224.600000,191.700000C224.600000,191.800000,224.600000,191.900000,224.700000,191.900000C224.800000,191.900000,224.900000,191.900000,224.900000,191.800000C224.900000,191.700000,224.900000,191.600000,224.800000,191.600000L224.800000,191.600000Z" opacity="0.86" fill="rgb(255,255,255)" stroke="none" stroke-width="1"/><path id="e6KEhc7qL5x11" d="M109.300000,191.500000C109.300000,191.400000,109.200000,191.400000,109.100000,191.400000C109,191.400000,109,191.500000,109,191.600000C109,191.700000,109.100000,191.700000,109.200000,191.700000L109.200000,191.700000C109.300000,191.600000,109.300000,191.500000,109.300000,191.500000C109.300000,191.500000,109.300000,191.500000,109.300000,191.500000ZM126.700000,192.100000C126.600000,192,126.400000,192,126.300000,192.100000C126.300000,192.100000,126.300000,192.100000,126.300000,192.100000C126.200000,192.200000,126.200000,192.400000,126.300000,192.400000C126.300000,192.400000,126.300000,192.400000,126.300000,192.400000C126.400000,192.500000,126.600000,192.500000,126.700000,192.400000C126.700000,192.400000,126.700000,192.400000,126.700000,192.400000C126.800000,192.300000,126.800000,192.200000,126.700000,192.100000C126.700000,192.100000,126.700000,192.100000,126.700000,192.100000ZM108.200000,207.400000C108.100000,207.400000,108,207.500000,108,207.700000C108,207.800000,108.100000,207.900000,108.300000,207.900000C108.300000,207.900000,108.300000,207.900000,108.300000,207.900000C108.400000,207.900000,108.500000,207.800000,108.500000,207.600000C108.500000,207.500000,108.300000,207.400000,108.200000,207.400000C108.200000,207.400000,108.200000,207.400000,108.200000,207.400000L108.200000,207.400000ZM107.800000,201.400000C107.700000,201.400000,107.600000,201.500000,107.600000,201.700000C107.600000,201.700000,107.600000,201.700000,107.600000,201.700000C107.600000,201.800000,107.700000,201.900000,107.900000,201.900000C108,201.900000,108.100000,201.800000,108.100000,201.600000C108,201.500000,107.900000,201.400000,107.800000,201.400000L107.800000,201.400000ZM107.300000,195.300000C107.200000,195.300000,107.100000,195.400000,107.100000,195.600000C107.100000,195.700000,107.200000,195.800000,107.400000,195.800000C107.400000,195.800000,107.400000,195.800000,107.400000,195.800000C107.500000,195.800000,107.600000,195.700000,107.600000,195.500000C107.600000,195.500000,107.600000,195.500000,107.600000,195.500000C107.600000,195.400000,107.500000,195.300000,107.300000,195.300000L107.300000,195.300000ZM120.100000,201.400000C120,201.300000,119.900000,201.200000,119.800000,201.300000C119.700000,201.400000,119.600000,201.500000,119.700000,201.600000C119.800000,201.700000,119.900000,201.800000,120,201.700000C120,201.700000,120,201.700000,120,201.700000C120.200000,201.700000,120.200000,201.500000,120.100000,201.400000L120.100000,201.400000ZM117.400000,195.900000C117.300000,195.800000,117.200000,195.700000,117.100000,195.800000C117,195.900000,116.900000,196,117,196.100000C117.100000,196.200000,117.200000,196.300000,117.300000,196.200000C117.300000,196.200000,117.300000,196.200000,117.300000,196.200000C117.400000,196.200000,117.500000,196.100000,117.400000,195.900000L117.400000,195.900000ZM125.400000,198.600000C125.300000,198.500000,125.200000,198.500000,125.100000,198.500000C125,198.600000,125,198.700000,125,198.800000C125.100000,198.900000,125.200000,198.900000,125.300000,198.900000C125.400000,198.900000,125.400000,198.700000,125.400000,198.600000ZM122.500000,194C122.400000,193.900000,122.300000,193.900000,122.200000,193.900000C122.100000,194,122.100000,194.100000,122.100000,194.200000C122.200000,194.300000,122.300000,194.300000,122.400000,194.300000L122.400000,194.300000C122.500000,194.300000,122.600000,194.100000,122.500000,194C122.500000,194,122.500000,194,122.500000,194L122.500000,194ZM114.200000,199.900000C114.100000,199.900000,114,200,114,200.200000C114,200.300000,114.100000,200.400000,114.300000,200.400000C114.400000,200.400000,114.500000,200.300000,114.500000,200.100000C114.500000,199.900000,114.400000,199.900000,114.200000,199.900000ZM113.300000,194.500000C113.200000,194.500000,113.100000,194.600000,113.100000,194.800000C113.100000,194.900000,113.200000,195,113.400000,195C113.500000,195,113.600000,194.900000,113.600000,194.800000C113.600000,194.800000,113.600000,194.800000,113.600000,194.800000C113.600000,194.600000,113.500000,194.500000,113.300000,194.500000L113.300000,194.500000ZM125.100000,204.500000C125,204.500000,124.900000,204.700000,124.900000,204.800000C124.900000,204.900000,125.100000,205,125.200000,205C125.300000,205,125.400000,204.800000,125.400000,204.700000C125.400000,204.500000,125.300000,204.400000,125.100000,204.500000L125.100000,204.500000ZM124.100000,198.300000C124,198.300000,123.900000,198.500000,123.900000,198.600000C123.900000,198.700000,124.100000,198.800000,124.200000,198.800000C124.300000,198.800000,124.400000,198.600000,124.400000,198.500000C124.400000,198.300000,124.300000,198.300000,124.100000,198.300000ZM123.200000,192.100000C123.100000,192.100000,123,192.200000,123,192.400000C123,192.500000,123.100000,192.600000,123.300000,192.600000C123.300000,192.600000,123.300000,192.600000,123.300000,192.600000C123.400000,192.600000,123.500000,192.400000,123.500000,192.300000C123.400000,192.200000,123.300000,192.100000,123.200000,192.100000ZM112.900000,201.200000C112.800000,201.200000,112.600000,201.300000,112.600000,201.400000C112.600000,201.400000,112.600000,201.400000,112.600000,201.400000C112.600000,201.500000,112.600000,201.700000,112.800000,201.700000C112.900000,201.700000,113.100000,201.600000,113.100000,201.500000C113.100000,201.300000,113,201.200000,112.900000,201.200000C112.900000,201.200000,112.900000,201.200000,112.900000,201.200000ZM114.400000,195.100000C114.300000,195.100000,114.100000,195.100000,114.100000,195.300000C114.100000,195.300000,114.100000,195.300000,114.100000,195.300000C114.100000,195.400000,114.100000,195.600000,114.300000,195.600000C114.300000,195.600000,114.300000,195.600000,114.300000,195.600000C114.400000,195.600000,114.600000,195.500000,114.600000,195.400000L114.600000,195.400000C114.600000,195.200000,114.500000,195.100000,114.400000,195.100000C114.400000,195.100000,114.400000,195.100000,114.400000,195.100000ZM116.700000,203.200000C116.600000,203.200000,116.400000,203.300000,116.400000,203.400000C116.400000,203.500000,116.500000,203.700000,116.600000,203.700000C116.700000,203.700000,116.900000,203.600000,116.900000,203.500000C116.900000,203.400000,116.800000,203.200000,116.700000,203.200000L116.700000,203.200000L116.700000,203.200000ZM117.900000,197.100000C117.800000,197.100000,117.600000,197.200000,117.600000,197.300000C117.600000,197.400000,117.700000,197.600000,117.800000,197.600000C117.900000,197.600000,118.100000,197.500000,118.100000,197.400000C118.100000,197.200000,118,197.100000,117.900000,197.100000L117.900000,197.100000ZM128.300000,193.700000C128.200000,193.700000,128.100000,193.900000,128.100000,194C128.100000,194.100000,128.300000,194.200000,128.400000,194.200000C128.500000,194.200000,128.600000,194,128.600000,193.900000C128.600000,193.900000,128.600000,193.900000,128.600000,193.900000C128.600000,193.700000,128.500000,193.700000,128.300000,193.700000L128.300000,193.700000ZM106.300000,195.400000C106.200000,195.300000,106,195.400000,105.900000,195.500000C105.900000,195.500000,105.900000,195.500000,105.900000,195.500000C105.800000,195.600000,105.900000,195.800000,106,195.900000C106.100000,196,106.300000,196,106.400000,195.800000C106.400000,195.700000,106.400000,195.500000,106.300000,195.400000C106.300000,195.400000,106.300000,195.400000,106.300000,195.400000ZM116.600000,192.500000C116.500000,192.500000,116.400000,192.500000,116.300000,192.600000C116.300000,192.600000,116.300000,192.600000,116.300000,192.600000C116.300000,192.700000,116.300000,192.800000,116.400000,192.900000C116.500000,192.900000,116.600000,192.900000,116.700000,192.800000C116.800000,192.600000,116.700000,192.500000,116.600000,192.500000ZM126.500000,192C126.400000,192,126.300000,192.100000,126.300000,192.200000C126.300000,192.200000,126.300000,192.200000,126.300000,192.200000C126.300000,192.300000,126.400000,192.400000,126.500000,192.400000C126.600000,192.400000,126.700000,192.300000,126.700000,192.200000C126.700000,192.100000,126.700000,192,126.500000,192C126.500000,192,126.500000,192,126.500000,192L126.500000,192Z" opacity="0.86" fill="rgb(255,255,255)" stroke="none" stroke-width="1"/><path id="e6KEhc7qL5x12" d="M258.200000,110.900000C258.200000,110.900000,260.300000,111.700000,273.400000,131.300000C275.800000,134.900000,273.400000,131.600000,273.400000,131.600000L259,143.400000C259,143.400000,246.900000,126.700000,246,120.200000L246,120.200000C246.100000,120.200000,254.200000,112.100000,258.200000,110.900000" fill="url(#e6KEhc7qL5x12-fill)" stroke="none" stroke-width="1"/><path id="e6KEhc7qL5x13" d="M242.400000,105.400000C242.400000,105.400000,251.900000,142.800000,269.500000,162.400000C269.500000,162.400000,239.500000,182.900000,205.900000,160.400000C205.900000,160.400000,222.600000,110,223.500000,105.700000C223.700000,104.500000,242.400000,105.400000,242.400000,105.400000" fill="url(#e6KEhc7qL5x13-fill)" stroke="none" stroke-width="1"/><g id="e6KEhc7qL5x14"><rect id="e6KEhc7qL5x15" width="15.200000" height="50.700000" rx="0" ry="0" transform="matrix(1 0 0 1 57.99999999999999 187.80000000000001)" fill="rgb(255,197,15)" stroke="none" stroke-width="1"/><rect id="e6KEhc7qL5x16" width="15.200000" height="50.700000" rx="0" ry="0" transform="matrix(1 0 0 1 83.19999999999999 170.19999999999999)" fill="rgb(255,197,15)" stroke="none" stroke-width="1"/><rect id="e6KEhc7qL5x17" width="180.100000" height="26.900000" rx="0" ry="0" transform="matrix(1 0 0 1 58 164.40000000000001)" fill="rgb(255,197,15)" stroke="none" stroke-width="1"/><path id="e6KEhc7qL5x18" d="M295.100000,242.600000C256,242.600000,224.100000,210.700000,224.100000,171.600000C224.100000,132.500000,256,100.600000,295.100000,100.600000C334.200000,100.600000,366.100000,132.500000,366.100000,171.600000C366.100000,210.800000,334.200000,242.600000,295.100000,242.600000ZM295.100000,125.900000C269.800000,125.900000,249.400000,146.400000,249.400000,171.600000C249.400000,196.900000,269.900000,217.300000,295.100000,217.300000C320.400000,217.300000,340.800000,196.800000,340.800000,171.600000C340.800000,146.400000,320.300000,125.900000,295.100000,125.900000Z" fill="rgb(255,197,15)" stroke="none" stroke-width="1"/></g></g><g id="e6KEhc7qL5x19"><path id="e6KEhc7qL5x20" d="M237.700000,321.800000L230,343.400000L284.600000,343.400000C284.600000,343.400000,281.800000,338,272.500000,334C263.200000,330,254.500000,321.800000,254.500000,321.800000L237.700000,321.800000" fill="url(#e6KEhc7qL5x20-fill)" stroke="none" stroke-width="1"/><path id="e6KEhc7qL5x21" d="M204.100000,321.600000L196.400000,343.200000L251,343.200000C251,343.200000,248.200000,337.800000,238.900000,333.800000C229.600000,329.800000,220.900000,321.600000,220.900000,321.600000L204.100000,321.600000" fill="rgb(35,40,107)" stroke="none" stroke-width="1"/><path id="e6KEhc7qL5x22" d="M258.200000,110.900000C253.800000,113.600000,249.800000,116.700000,246.100000,120.200000L239.500000,107.200000L242.400000,105.400000C242.400000,105.400000,250.500000,104.600000,258.200000,110.900000Z" fill="url(#e6KEhc7qL5x22-fill)" stroke="none" stroke-width="1"/><path id="e6KEhc7qL5x23" d="M241.100000,97.400000C241.100000,97.400000,241,103.700000,242.400000,105.400000C242.400000,105.400000,239.500000,109.900000,233.400000,106.200000L233.900000,96.500000L241.100000,97.400000Z" fill="url(#e6KEhc7qL5x23-fill)" stroke="none" stroke-width="1"/><path id="e6KEhc7qL5x24" d="M222.700000,156C222.700000,156,229.600000,161.400000,234.200000,163.900000C238.400000,166.100000,240.500000,166.900000,242.200000,164.600000C243.800000,162.500000,245.100000,160.200000,246.200000,157.900000C246.700000,156.800000,248.400000,156.600000,248.200000,159.400000C248,162.100000,244.500000,164,246.100000,165.200000C247.700000,166.500000,253.100000,166.300000,257,165.800000C261,165.300000,263.100000,165.100000,260,170.300000C256.900000,175.500000,253,178.700000,241.400000,174.900000C229.800000,171.100000,222.100000,172.600000,218.200000,173.200000L222.700000,156Z" fill="url(#e6KEhc7qL5x24-fill)" stroke="none" stroke-width="1"/><path id="e6KEhc7qL5x25" d="M223.500000,112C223.500000,112,218,127.100000,217.700000,137.500000C217.400000,147.900000,219.300000,149.700000,227.500000,153.100000C235.800000,156.500000,237.700000,156.700000,237.700000,156.700000L227.500000,189.100000C227.500000,189.100000,218.300000,190.200000,212,182.700000C205.700000,175.200000,203.300000,173.200000,198.800000,171.200000C194.300000,169.300000,185.400000,162.400000,189.300000,147.100000C193.200000,131.700000,199.800000,120.400000,216.300000,106L216.300000,106" fill="rgb(35,40,107)" stroke="none" stroke-width="1"/><path id="e6KEhc7qL5x26" d="M248.400000,82.100000C248.400000,82.200000,248.400000,82.200000,248.400000,82.300000C248.400000,82.300000,248.400000,82.300000,248.400000,82.300000C248.400000,82.600000,248.500000,82.900000,248.500000,83.100000C248.700000,86.200000,250.900000,88.800000,250.800000,89.600000C250.800000,90.500000,249,90.900000,248.200000,91C247.400000,91,247.600000,94.500000,244.200000,96.600000C241,98.600000,235.100000,98.600000,232.100000,96.700000C231.300000,90,225.800000,75.400000,232.400000,72.800000C239.600000,69.900000,246.200000,76.700000,246.200000,76.700000C247.400000,78.400000,248.100000,80.200000,248.400000,82.100000Z" fill="rgb(255,190,182)" stroke="none" stroke-width="1"/><path id="e6KEhc7qL5x27" d="M246.200000,84.900000C247,86,248.500000,86.200000,249.500000,85.500000C249.900000,85.200000,250.200000,84.800000,250.400000,84.400000C250.500000,84.100000,250,83.800000,249.900000,84.100000C249.600000,85.100000,248.500000,85.600000,247.600000,85.200000C247.200000,85.100000,246.900000,84.800000,246.700000,84.500000C246.400000,84.300000,246,84.600000,246.200000,84.900000Z" fill="rgb(28,40,104)" stroke="none" stroke-width="1"/><path id="e6KEhc7qL5x28" d="M247.600000,77.400000C246.200000,75.600000,241.900000,72.900000,239.400000,72C239.300000,71.900000,239.100000,71.900000,239,71.900000C236.700000,71,234.200000,70.800000,231.700000,71.300000C224.500000,72.800000,217.800000,80.600000,219.600000,88.400000C220,91,219.500000,93.800000,218.100000,96C216.700000,98.300000,214.400000,99.600000,212.200000,101.100000C209.600000,102.900000,207.300000,105.300000,207.600000,108.700000C207.600000,109,208,109,208,108.700000C207.400000,102.500000,214.900000,101,217.900000,96.900000C219.300000,95,220.100000,92.700000,220.100000,90.400000C221.600000,97.300000,217,99.600000,214.300000,101.700000C210.100000,104.900000,209.900000,108.900000,209.900000,108.900000C226.200000,114.200000,236.100000,109.100000,236.100000,109.100000C236.100000,109.100000,240.500000,103.800000,237,96.400000C233.500000,89,234,88.300000,239.600000,83.400000C239.700000,83.300000,239.800000,83.300000,239.800000,83.200000C237.700000,85.700000,235.800000,88.500000,236.400000,91.900000C236.800000,94.400000,238.300000,96.600000,238.800000,99.100000C239.500000,102.500000,238.900000,105.900000,237.300000,108.900000C237.200000,109.100000,237.500000,109.300000,237.600000,109.100000C239.500000,105.600000,240,101.500000,238.800000,97.700000C238,95,236.400000,92.700000,236.700000,89.800000C237.100000,86.500000,239.600000,83.800000,241.800000,81.400000L241.800000,81.400000C243.900000,79.600000,244.800000,78.800000,245,77.800000C245.400000,78.100000,247.800000,79.200000,248.200000,81.600000C248.300000,81.800000,249,79.200000,247.600000,77.400000Z" fill="url(#e6KEhc7qL5x28-fill)" stroke="none" stroke-width="1"/><path id="e6KEhc7qL5x29" d="M297.100000,137.800000C297.100000,138.100000,297.100000,138.400000,297,138.700000C297,138.900000,297,139.200000,296.900000,139.400000C296.900000,139.600000,296.900000,139.800000,296.800000,140C296.800000,140.200000,296.700000,140.400000,296.700000,140.600000C296.700000,140.800000,296.600000,141,296.600000,141.100000C296.600000,141.200000,296.600000,141.300000,296.500000,141.500000C296.500000,141.700000,296.400000,141.800000,296.400000,142C296.400000,142,296.400000,142.100000,296.400000,142.100000C296.400000,142.200000,296.400000,142.200000,296.300000,142.300000C296.300000,142.500000,296.200000,142.600000,296.200000,142.800000C296.200000,142.900000,296.200000,142.900000,296.200000,143C296.100000,143.200000,296.100000,143.400000,296,143.600000C295.900000,143.900000,295.800000,144.200000,295.700000,144.600000C295.600000,144.800000,295.600000,144.900000,295.500000,145.100000C295.500000,145.100000,295.500000,145.100000,295.500000,145.100000C295.400000,145.300000,295.300000,145.500000,295.200000,145.800000C295,146.200000,294.800000,146.700000,294.600000,147.100000C294.500000,147.300000,294.300000,147.600000,294.200000,147.800000C292.400000,150.300000,290,152.200000,287.200000,153.500000C287.100000,153.500000,287.100000,153.500000,287,153.600000C286.200000,153.900000,285.500000,154.100000,284.700000,154.300000C284.600000,154.300000,284.500000,154.400000,284.400000,154.400000C284.300000,154.400000,284.200000,154.400000,284.100000,154.500000C283.600000,154.600000,283.200000,154.700000,282.700000,154.700000C280.700000,154.900000,278.800000,154.800000,276.800000,154.600000L276.600000,154.600000C275.800000,154.500000,275.100000,154.400000,274.300000,154.200000C273.400000,154,272.600000,153.700000,271.800000,153.300000C269.800000,152.400000,267.800000,151.300000,266,150.100000C264.800000,149.300000,263.700000,148.500000,262.600000,147.500000C262.600000,147.500000,262.600000,147.500000,262.500000,147.500000C262.500000,147.500000,262.500000,147.500000,262.500000,147.500000L262.500000,147.500000C262.500000,147.500000,262.500000,147.500000,262.500000,147.500000C262.500000,147.500000,262.500000,147.500000,262.500000,147.500000C262.100000,147.100000,260.600000,145.500000,259.100000,143.800000C259.300000,143.500000,259.600000,143.200000,259.800000,142.900000C263.600000,138.300000,268.200000,134.500000,273.400000,131.700000C273.300000,131.100000,273.200000,130.500000,273,129.900000C272.900000,129.500000,272.700000,129.100000,272.500000,128.700000C272.200000,128.100000,271.900000,127.500000,271.500000,127C268.600000,122.700000,270.700000,119.100000,270.900000,118.800000C270.900000,118.800000,270.900000,118.800000,270.900000,118.800000L293.900000,115.700000L293.900000,115.800000L294,115.800000C294.300000,116.500000,295.800000,121.200000,296.900000,129.900000C297.200000,132.400000,297.300000,135.100000,297.100000,137.800000Z" fill="url(#e6KEhc7qL5x29-fill)" stroke="none" stroke-width="1"/><path id="e6KEhc7qL5x30" d="M284.800000,116.400000C284.800000,116.500000,284.900000,116.600000,284.900000,116.700000L276,117.900000C272.300000,107.400000,269.800000,107.300000,270.200000,104.900000C270.300000,104.100000,270.700000,103.300000,271.500000,102.900000C274,101.900000,274.300000,101.200000,280,100.400000C281,100.300000,282.200000,100.400000,282.500000,101.400000C282.800000,102.100000,283.200000,102.800000,283.600000,103.500000C284.200000,104.700000,284.400000,102.700000,285.100000,101.200000C285.800000,100.700000,286.600000,100.600000,287.400000,100.900000C287.500000,103,286.600000,106.400000,284.600000,107.800000C281.700000,109.900000,283.400000,112.700000,284.800000,116.400000Z" fill="url(#e6KEhc7qL5x30-fill)" stroke="none" stroke-width="1"/><path id="e6KEhc7qL5x31" d="M296.900000,129.700000C295.800000,121,294.200000,116.400000,294,115.600000C294,115.500000,294,115.500000,294,115.500000L271,118.600000C271,118.600000,271,118.600000,271,118.600000C270.800000,118.900000,268.700000,122.400000,271.600000,126.800000C272.600000,128.200000,273.200000,129.800000,273.500000,131.400000L273.500000,131.400000C273.500000,131.400000,273.500000,131.500000,273.500000,131.600000C273.500000,131.600000,273.500000,131.700000,273.500000,131.700000C274.100000,135.500000,273.700000,139.400000,272.600000,143.100000C272.500000,143.300000,272.500000,143.500000,272.400000,143.600000C272.400000,143.600000,272.400000,143.700000,272.400000,143.700000C271.900000,145.900000,271.600000,148.100000,271.700000,150.300000C271.700000,150.300000,271.700000,150.300000,271.700000,150.300000C271.700000,150.300000,271.700000,150.300000,271.700000,150.400000C271.700000,151.400000,271.800000,152.300000,271.800000,153C272.600000,153.400000,273.500000,153.700000,274.300000,153.900000C275,154.100000,275.800000,154.300000,276.600000,154.300000L276.800000,154.300000C278.800000,154.500000,280.700000,154.600000,282.700000,154.400000C283.200000,154.400000,283.700000,154.300000,284.100000,154.200000C284.200000,154.200000,284.300000,154.200000,284.400000,154.100000C284.500000,154.100000,284.600000,154.100000,284.700000,154C285.500000,153.800000,286.300000,153.600000,287,153.300000C287.100000,153.300000,287.100000,153.300000,287.200000,153.200000C290.100000,152.200000,292.500000,150.200000,294.200000,147.500000C294.300000,147.300000,294.500000,147.100000,294.600000,146.800000C294.700000,146.600000,294.800000,146.400000,294.900000,146.200000L294.900000,146.200000C295,146,295.100000,145.800000,295.200000,145.500000C295.300000,145.300000,295.400000,145.100000,295.500000,144.900000C295.500000,144.800000,295.600000,144.800000,295.600000,144.700000C295.600000,144.600000,295.700000,144.500000,295.700000,144.400000C295.800000,144.100000,295.900000,143.900000,296,143.600000C296,143.500000,296.100000,143.400000,296.100000,143.400000C296.200000,143.200000,296.200000,143,296.300000,142.800000C296.300000,142.700000,296.300000,142.700000,296.300000,142.600000C296.300000,142.400000,296.400000,142.300000,296.400000,142.100000C296.400000,142,296.400000,142,296.500000,141.900000C297.400000,138.200000,297.400000,133.800000,296.900000,129.700000Z" fill="url(#e6KEhc7qL5x31-fill)" stroke="none" stroke-width="1"/></g><g id="e6KEhc7qL5x32"><path id="e6KEhc7qL5x33" d="M146.500000,321.800000L138.800000,343.400000L193.400000,343.400000C193.400000,343.400000,190.600000,338,181.300000,334C172,330,163.300000,321.800000,163.300000,321.800000L146.500000,321.800000" fill="url(#e6KEhc7qL5x33-fill)" stroke="none" stroke-width="1"/><path id="e6KEhc7qL5x34" d="M98.200000,321.900000L90.500000,343.500000L145.100000,343.500000C145.100000,343.500000,142.300000,338.100000,133,334.100000C123.700000,330.100000,115,321.900000,115,321.900000L98.200000,321.900000" fill="rgb(66,141,252)" stroke="none" stroke-width="1"/><path id="e6KEhc7qL5x35" d="M176.300000,173.600000C181.600000,178.300000,183.700000,190.200000,181.600000,193.100000C179.400000,196,172.400000,201.100000,169.100000,200.100000C165.800000,199.100000,173.400000,192.100000,172.200000,189.800000C171,187.500000,168.700000,195.100000,167.100000,195.500000C165.500000,195.900000,164.600000,193.700000,166.300000,190C168.100000,186.300000,171.800000,180,168.300000,177.100000C166.300000,175.500000,152.400000,169.800000,147.700000,164.300000L158.200000,156.900000" fill="url(#e6KEhc7qL5x35-fill)" stroke="none" stroke-width="1"/><path id="e6KEhc7qL5x36" d="M112.300000,166.900000C112.300000,166.900000,121.500000,179,127.300000,182.500000C133.200000,186,135.500000,186.200000,138.200000,185C140.900000,183.800000,148,179.300000,148.700000,179.900000C149.500000,180.500000,148.500000,183,146.400000,184.200000C144.300000,185.400000,141.100000,188.900000,148,190.400000C154.900000,191.900000,157.200000,192.200000,157.200000,193.100000C157.200000,194,155.800000,198.400000,149.800000,201.500000C143.700000,204.600000,140,199.700000,136.900000,197.200000C133.800000,194.700000,130.100000,190.200000,127.100000,190.200000C124.100000,190.200000,106.600000,184.300000,101.500000,181.400000L101.500000,181.400000L112.300000,166.900000" fill="url(#e6KEhc7qL5x36-fill)" stroke="none" stroke-width="1"/><path id="e6KEhc7qL5x37" d="M118.100000,105.800000C118.100000,105.800000,109.100000,121.500000,106.800000,132.900000C104.500000,144.300000,104.800000,148.500000,111.600000,155.800000C116.900000,161.500000,122,166.400000,122,166.400000L105.400000,195.700000C105.400000,195.700000,94.800000,191,92,181.700000C88.800000,171.200000,84.200000,169.500000,79.600000,166.500000C75,163.500000,66.400000,154.300000,73.600000,138C80.800000,121.700000,90.200000,110.500000,111.300000,97.600000L111.300000,97.600000" fill="rgb(161,195,252)" stroke="none" stroke-width="1"/><path id="e6KEhc7qL5x38" d="M121.300000,98.400000C120.800000,94,121.300000,92.200000,121.600000,90.900000C121.300000,90.900000,119.400000,90.900000,119.100000,90.800000C118.300000,90.700000,117.500000,90.500000,116.700000,90.200000L114.800000,89.100000C115.300000,88.800000,115.300000,88.700000,115.400000,88.400000C115.700000,87.300000,114.900000,86.900000,113.800000,86.500000C114.100000,90.500000,111.100000,98.200000,111.100000,98.200000C118.700000,101.500000,121.300000,98.400000,121.300000,98.400000Z" fill="url(#e6KEhc7qL5x38-fill)" stroke="none" stroke-width="1"/><path id="e6KEhc7qL5x39" d="M127.500000,89.400000C130.700000,86.800000,131.400000,82.700000,132.200000,82.600000C133,82.500000,134.700000,81.800000,134.600000,80.900000C134.500000,80,132.100000,77.700000,131.500000,74.600000C131.400000,74.300000,131.400000,74,131.300000,73.800000C131.300000,73.800000,131.300000,73.800000,131.300000,73.800000L131.300000,73.700000C131.200000,73.500000,131.200000,73.200000,131,72.800000C129.200000,74.400000,127.400000,75.300000,126.300000,75.100000C123.300000,74.500000,123.500000,76.300000,121.500000,79.200000C119.500000,82,116.900000,81.500000,113.300000,81.700000C109.600000,81.900000,110.500000,85.300000,112.200000,86.100000C113.900000,86.900000,115,87.100000,114.600000,88.800000C114.600000,89.100000,114.500000,89.400000,114.300000,89.700000L114.700000,89.900000C114.800000,90,115,90,115.100000,90.100000L117.100000,90.700000C120.800000,91.600000,124.500000,91.800000,127.500000,89.400000Z" fill="rgb(255,190,182)" stroke="none" stroke-width="1"/><path id="e6KEhc7qL5x40" d="M90.800000,91.200000L129.900000,68.600000L129.900000,68.600000L130.800000,70.100000L130.800000,70.100000L90.800000,93.200000L90.800000,93.200000L90.500000,92.600000C90.100000,92.200000,90.300000,91.500000,90.800000,91.200000Z" fill="url(#e6KEhc7qL5x40-fill)" stroke="none" stroke-width="1"/><path id="e6KEhc7qL5x41" d="M101.300000,68.900000L122.800000,56.500000L122.800000,56.500000L129.800000,68.700000L129.800000,68.700000L103.900000,83.700000L103.900000,83.700000L99.400000,75.900000C98,73.400000,98.900000,70.300000,101.300000,68.900000L101.300000,68.900000Z" fill="url(#e6KEhc7qL5x41-fill)" stroke="none" stroke-width="1"/><path id="e6KEhc7qL5x42" d="M106,73C106,73,106.100000,73.100000,106.100000,73.100000L106.100000,73.100000C106.100000,73.100000,106.200000,73,106.200000,73C106.200000,73,106.200000,73,106.200000,73C106.200000,73,106.100000,72.900000,106.100000,72.900000C106,72.900000,106,73,106,73L106,73ZM101.100000,72.700000C101.100000,72.800000,101.200000,72.800000,101.100000,72.700000C101.300000,72.800000,101.300000,72.800000,101.300000,72.700000C101.300000,72.600000,101.300000,72.600000,101.100000,72.700000L101.100000,72.700000C101.200000,72.600000,101.100000,72.700000,101.100000,72.700000ZM101.100000,70.400000C101.100000,70.500000,101.200000,70.500000,101.100000,70.400000L101.100000,70.400000C101.200000,70.500000,101.300000,70.500000,101.300000,70.400000C101.300000,70.400000,101.300000,70.400000,101.300000,70.400000C101.300000,70.400000,101.300000,70.300000,101.100000,70.400000C101.200000,70.300000,101.100000,70.400000,101.100000,70.400000L101.100000,70.400000ZM105.200000,81.400000C105.200000,81.500000,105.300000,81.500000,105.400000,81.500000C105.500000,81.500000,105.500000,81.400000,105.500000,81.300000C105.500000,81.300000,105.500000,81.300000,105.500000,81.300000C105.500000,81.200000,105.400000,81.200000,105.300000,81.200000C105.300000,81.200000,105.300000,81.200000,105.300000,81.200000C105.200000,81.300000,105.100000,81.400000,105.200000,81.400000L105.200000,81.400000ZM103.800000,77.300000C103.800000,77.400000,103.900000,77.400000,104,77.400000C104.100000,77.400000,104.100000,77.300000,104.100000,77.200000C104.100000,77.100000,104,77.100000,103.900000,77.100000C103.900000,77.100000,103.900000,77.100000,103.900000,77.100000C103.800000,77.100000,103.800000,77.200000,103.800000,77.300000C103.800000,77.300000,103.800000,77.300000,103.800000,77.300000L103.800000,77.300000ZM102.400000,73.200000C102.400000,73.300000,102.500000,73.300000,102.600000,73.300000C102.600000,73.300000,102.600000,73.300000,102.600000,73.300000C102.700000,73.300000,102.700000,73.200000,102.700000,73.100000C102.700000,73.100000,102.700000,73.100000,102.700000,73.100000C102.700000,73,102.600000,73,102.500000,73C102.400000,73,102.400000,73.100000,102.400000,73.200000C102.400000,73.200000,102.400000,73.200000,102.400000,73.200000L102.400000,73.200000ZM101,69.100000C101,69.200000,101.100000,69.200000,101.200000,69.200000C101.300000,69.200000,101.300000,69.100000,101.300000,69C101.300000,69,101.300000,69,101.300000,69C101.300000,68.900000,101.200000,68.900000,101.100000,68.900000C101.100000,68.900000,101,69,101,69.100000L101,69.100000ZM100.100000,77.100000C100.100000,77.200000,100.200000,77.200000,100.300000,77.200000C100.400000,77.200000,100.400000,77.100000,100.400000,77C100.400000,77,100.400000,77,100.400000,77C100.400000,76.900000,100.300000,76.900000,100.200000,76.900000C100.200000,76.900000,100.200000,76.900000,100.200000,76.900000C100.100000,76.900000,100.100000,77,100.100000,77.100000ZM99.200000,73.300000C99.200000,73.400000,99.300000,73.400000,99.400000,73.400000C99.400000,73.400000,99.400000,73.400000,99.400000,73.400000C99.500000,73.400000,99.500000,73.300000,99.500000,73.200000C99.500000,73.200000,99.500000,73.200000,99.500000,73.200000C99.500000,73.100000,99.400000,73.100000,99.300000,73.100000C99.300000,73.100000,99.300000,73.100000,99.300000,73.100000C99.300000,73.100000,99.200000,73.200000,99.200000,73.300000L99.200000,73.300000ZM107.200000,76C107.200000,76.100000,107.300000,76.100000,107.400000,76C107.400000,76,107.400000,76,107.400000,76C107.500000,76,107.500000,75.900000,107.400000,75.800000C107.400000,75.800000,107.400000,75.800000,107.400000,75.800000C107.300000,75.700000,107.200000,75.700000,107.200000,75.800000C107.100000,75.800000,107.100000,75.900000,107.200000,76C107.200000,76,107.200000,76,107.200000,76L107.200000,76ZM104.900000,72.800000C105,72.900000,105.100000,72.900000,105.100000,72.800000C105.200000,72.700000,105.200000,72.600000,105.100000,72.600000C105,72.500000,105,72.500000,104.900000,72.600000C104.900000,72.600000,104.900000,72.700000,104.900000,72.800000C104.900000,72.800000,104.900000,72.800000,104.900000,72.800000L104.900000,72.800000ZM103.200000,78.100000C103.300000,78.200000,103.400000,78.200000,103.500000,78.100000C103.600000,78,103.600000,77.900000,103.500000,77.800000C103.400000,77.700000,103.300000,77.700000,103.200000,77.800000C103.200000,77.900000,103.200000,78,103.200000,78.100000L103.200000,78.100000ZM100.600000,74.500000C100.700000,74.600000,100.800000,74.600000,100.900000,74.500000C101,74.400000,101,74.300000,100.900000,74.200000C100.800000,74.100000,100.700000,74.100000,100.600000,74.200000C100.500000,74.300000,100.500000,74.400000,100.600000,74.500000L100.600000,74.500000Z" opacity="0.86" fill="rgb(255,255,255)" stroke="none" stroke-width="1"/><path id="e6KEhc7qL5x43" d="M127.400000,85.700000C127.700000,87,129,87.800000,130.300000,87.500000C130.800000,87.400000,131.200000,87.100000,131.500000,86.800000C131.700000,86.500000,131.400000,86.100000,131.100000,86.400000C130.400000,87.200000,129.300000,87.300000,128.500000,86.600000C128.200000,86.400000,128,86,127.900000,85.700000C127.900000,85.300000,127.300000,85.400000,127.400000,85.700000Z" fill="rgb(28,40,104)" stroke="none" stroke-width="1"/><path id="e6KEhc7qL5x44" d="M137.500000,65.100000C137.400000,64.900000,137,65,137.100000,65.200000C138.600000,69.500000,135.900000,72.500000,132.300000,73.800000C134.500000,72.900000,136.500000,71.400000,137,69.300000C137.800000,65.500000,134.200000,62.200000,132.300000,66.300000C130.400000,70.300000,130.800000,70.300000,129.900000,70.700000C129,71.100000,104.400000,85.400000,104.400000,85.400000C104.400000,85.400000,105.200000,88,108.900000,89.600000C112.600000,91.200000,114.400000,89.600000,114.400000,89.600000C114.400000,89.600000,116.100000,87.400000,112.900000,86.100000C109.700000,84.800000,110.700000,80.800000,114.400000,81.600000C118.100000,82.400000,121.700000,80.700000,122.700000,77.900000C123.700000,75.100000,124.800000,75,127.600000,74.900000C127.800000,74.900000,127.900000,74.900000,128.100000,74.900000C130.900000,75.100000,133.800000,74.400000,135.900000,72.400000C137.700000,70.500000,138.400000,67.600000,137.500000,65.100000Z" fill="rgb(35,40,107)" stroke="none" stroke-width="1"/></g></g><script><![CDATA[!function(t,n){"object"==typeof exports&&"undefined"!=typeof module?module.exports=n():"function"==typeof define&&define.amd?define(n):(t="undefined"!=typeof globalThis?globalThis:t||self).__SVGATOR_PLAYER__=n()}(this,(function(){"use strict";function t(n){return(t="function"==typeof Symbol&&"symbol"==typeof Symbol.iterator?function(t){return typeof t}:function(t){return t&&"function"==typeof Symbol&&t.constructor===Symbol&&t!==Symbol.prototype?"symbol":typeof t})(n)}function n(t,n){if(!(t instanceof n))throw new TypeError("Cannot call a class as a function")}function e(t,n){for(var e=0;e<n.length;e++){var r=n[e];r.enumerable=r.enumerable||!1,r.configurable=!0,"value"in r&&(r.writable=!0),Object.defineProperty(t,r.key,r)}}function r(t,n,r){return n&&e(t.prototype,n),r&&e(t,r),t}function i(t){return(i=Object.setPrototypeOf?Object.getPrototypeOf:function(t){return t.__proto__||Object.getPrototypeOf(t)})(t)}function u(t,n){return(u=Object.setPrototypeOf||function(t,n){return t.__proto__=n,t})(t,n)}function o(t,n){return!n||"object"!=typeof n&&"function"!=typeof n?function(t){if(void 0===t)throw new ReferenceError("this hasn't been initialised - super() hasn't been called");return t}(t):n}function a(t){var n=function(){if("undefined"==typeof Reflect||!Reflect.construct)return!1;if(Reflect.construct.sham)return!1;if("function"==typeof Proxy)return!0;try{return Boolean.prototype.valueOf.call(Reflect.construct(Boolean,[],(function(){}))),!0}catch(t){return!1}}();return function(){var e,r=i(t);if(n){var u=i(this).constructor;e=Reflect.construct(r,arguments,u)}else e=r.apply(this,arguments);return o(this,e)}}function l(t,n,e){return(l="undefined"!=typeof Reflect&&Reflect.get?Reflect.get:function(t,n,e){var r=function(t,n){for(;!Object.prototype.hasOwnProperty.call(t,n)&&null!==(t=i(t)););return t}(t,n);if(r){var u=Object.getOwnPropertyDescriptor(r,n);return u.get?u.get.call(e):u.value}})(t,n,e||t)}var s=Math.abs;function f(t){return t}function c(t,n,e){var r=1-e;return 3*e*r*(t*r+n*e)+e*e*e}function h(){var t=arguments.length>0&&void 0!==arguments[0]?arguments[0]:0,n=arguments.length>1&&void 0!==arguments[1]?arguments[1]:0,e=arguments.length>2&&void 0!==arguments[2]?arguments[2]:1,r=arguments.length>3&&void 0!==arguments[3]?arguments[3]:1;return t<0||t>1||e<0||e>1?null:s(t-n)<=1e-5&&s(e-r)<=1e-5?f:function(i){if(i<=0)return t>0?i*n/t:0===n&&e>0?i*r/e:0;if(i>=1)return e<1?1+(i-1)*(r-1)/(e-1):1===e&&t<1?1+(i-1)*(n-1)/(t-1):1;for(var u,o=0,a=1;o<a;){var l=c(t,e,u=(o+a)/2);if(s(i-l)<1e-5)break;l<i?o=u:a=u}return c(n,r,u)}}function v(){return 1}function d(t){return 1===t?1:0}function y(){var t=arguments.length>0&&void 0!==arguments[0]?arguments[0]:1,n=arguments.length>1&&void 0!==arguments[1]?arguments[1]:0;if(1===t){if(0===n)return d;if(1===n)return v}var e=1/t;return function(t){return t>=1?1:(t+=n*e)-t%e}}function g(t){var n=arguments.length>1&&void 0!==arguments[1]?arguments[1]:2;if(Number.isInteger(t))return t;var e=Math.pow(10,n);return Math.round(t*e)/e}var p=Math.PI/180;function m(t,n,e){return t>=.5?e:n}function b(t,n,e){return 0===t||n===e?n:t*(e-n)+n}function w(t,n,e){var r=b(t,n,e);return r<=0?0:r}function x(t,n,e){return 0===t?n:1===t?e:{x:b(t,n.x,e.x),y:b(t,n.y,e.y)}}function A(t,n,e){return 0===t?n:1===t?e:{x:w(t,n.x,e.x),y:w(t,n.y,e.y)}}function k(t,n,e){var r=function(t,n,e){return Math.round(b(t,n,e))}(t,n,e);return r<=0?0:r>=255?255:r}function _(t,n,e){return 0===t?n:1===t?e:{r:k(t,n.r,e.r),g:k(t,n.g,e.g),b:k(t,n.b,e.b),a:b(t,null==n.a?1:n.a,null==e.a?1:e.a)}}function S(t,n,e){if(0===t)return n;if(1===t)return e;var r=n.length;if(r!==e.length)return m(t,n,e);for(var i=[],u=0;u<r;u++)i.push(_(t,n[u],e[u]));return i}function M(t,n,e){var r=n.length;if(r!==e.length)return m(t,n,e);for(var i=new Array(r),u=0;u<r;u++)i[u]=b(t,n[u],e[u]);return i}function O(t,n){for(var e=[],r=0;r<t;r++)e.push(n);return e}function E(t,n){if(--n<=0)return t;var e=(t=Object.assign([],t)).length;do{for(var r=0;r<e;r++)t.push(t[r])}while(--n>0);return t}var B,I=function(){function t(e){n(this,t),this.list=e,this.length=e.length}return r(t,[{key:"setAttribute",value:function(t,n){for(var e=this.list,r=0;r<this.length;r++)e[r].setAttribute(t,n)}},{key:"removeAttribute",value:function(t){for(var n=this.list,e=0;e<this.length;e++)n[e].removeAttribute(t)}},{key:"style",value:function(t,n){for(var e=this.list,r=0;r<this.length;r++)e[r].style[t]=n}}]),t}(),j=/-./g,P=function(t,n){return n.toUpperCase()};function T(t){return"function"==typeof t?t:m}function F(t){return t?"function"==typeof t?t:Array.isArray(t)?function(t){var n=arguments.length>1&&void 0!==arguments[1]?arguments[1]:f;if(!Array.isArray(t))return n;switch(t.length){case 1:return y(t[0])||n;case 2:return y(t[0],t[1])||n;case 4:return h(t[0],t[1],t[2],t[3])||n}return n}(t,null):function(t,n){var e=arguments.length>2&&void 0!==arguments[2]?arguments[2]:f;switch(t){case"linear":return f;case"steps":return y(n.steps||1,n.jump||0)||e;case"bezier":case"cubic-bezier":return h(n.x1||0,n.y1||0,n.x2||0,n.y2||0)||e}return e}(t.type,t.value,null):null}function R(t,n,e){var r=arguments.length>3&&void 0!==arguments[3]&&arguments[3],i=n.length-1;if(t<=n[0].t)return r?[0,0,n[0].v]:n[0].v;if(t>=n[i].t)return r?[i,1,n[i].v]:n[i].v;var u,o=n[0],a=null;for(u=1;u<=i;u++){if(!(t>n[u].t)){a=n[u];break}o=n[u]}return null==a?r?[i,1,n[i].v]:n[i].v:o.t===a.t?r?[u,1,a.v]:a.v:(t=(t-o.t)/(a.t-o.t),o.e&&(t=o.e(t)),r?[u,t,e(t,o.v,a.v)]:e(t,o.v,a.v))}function C(t,n){var e=arguments.length>2&&void 0!==arguments[2]?arguments[2]:null;return t&&t.length?"function"!=typeof n?null:("function"!=typeof e&&(e=null),function(r){var i=R(r,t,n);return null!=i&&e&&(i=e(i)),i}):null}function N(t,n){return t.t-n.t}function q(n,e,r,i,u){var o,a="@"===r[0],l="#"===r[0],s=B[r],f=m;switch(a?(o=r.substr(1),r=o.replace(j,P)):l&&(r=r.substr(1)),t(s)){case"function":if(f=s(i,u,R,F,r,a,e,n),l)return f;break;case"string":f=C(i,T(s));break;case"object":if((f=C(i,T(s.i),s.f))&&"function"==typeof s.u)return s.u(e,f,r,a,n)}return f?function(t,n,e){var r=arguments.length>3&&void 0!==arguments[3]&&arguments[3];if(r)return t instanceof I?function(r){return t.style(n,e(r))}:function(r){return t.style[n]=e(r)};if(Array.isArray(n)){var i=n.length;return function(r){var u=e(r);if(null==u)for(var o=0;o<i;o++)t[o].removeAttribute(n);else for(var a=0;a<i;a++)t[a].setAttribute(n,u)}}return function(r){var i=e(r);null==i?t.removeAttribute(n):t.setAttribute(n,i)}}(e,r,f,a):null}function V(n,e,r,i){if(!i||"object"!==t(i))return null;var u=null,o=null;return Array.isArray(i)?o=function(t){if(!t||!t.length)return null;for(var n=0;n<t.length;n++)t[n].e&&(t[n].e=F(t[n].e));return t.sort(N)}(i):(o=i.keys,u=i.data||null),o?q(n,e,r,o,u):null}function L(t,n,e){if(!e)return null;var r=[];for(var i in e)if(e.hasOwnProperty(i)){var u=V(t,n,i,e[i]);u&&r.push(u)}return r.length?r:null}function z(t,n){if(!n.duration||n.duration<0)return null;var e=function(t,n){if(!n)return null;var e=[];if(Array.isArray(n))for(var r=n.length,i=0;i<r;i++){var u=n[i];if(2===u.length){var o=null;if("string"==typeof u[0])o=t.getElementById(u[0]);else if(Array.isArray(u[0])){o=[];for(var a=0;a<u[0].length;a++)if("string"==typeof u[0][a]){var l=t.getElementById(u[0][a]);l&&o.push(l)}o=o.length?1===o.length?o[0]:new I(o):null}if(o){var s=L(t,o,u[1]);s&&(e=e.concat(s))}}}else for(var f in n)if(n.hasOwnProperty(f)){var c=t.getElementById(f);if(c){var h=L(t,c,n[f]);h&&(e=e.concat(h))}}return e.length?e:null}(t,n.elements);return e?function(t,n){var e=arguments.length>2&&void 0!==arguments[2]?arguments[2]:1/0,r=arguments.length>3&&void 0!==arguments[3]?arguments[3]:1,i=arguments.length>4&&void 0!==arguments[4]&&arguments[4],u=arguments.length>5&&void 0!==arguments[5]?arguments[5]:1,o=t.length,a=r>0?n:0;i&&e%2==0&&(a=n-a);var l=null;return function(s,f){var c=s%n,h=1+(s-c)/n;f*=r,i&&h%2==0&&(f=-f);var v=!1;if(h>e)c=a,v=!0,-1===u&&(c=r>0?0:n);else if(f<0&&(c=n-c),c===l)return!1;l=c;for(var d=0;d<o;d++)t[d](c);return v}}(e,n.duration,n.iterations||1/0,n.direction||1,!!n.alternate,n.fill||1):null}var D=function(){function t(e,r){var i=arguments.length>2&&void 0!==arguments[2]?arguments[2]:{};n(this,t),this._id=0,this._running=!1,this._rollingBack=!1,this._animations=e,this.duration=r.duration,this.alternate=r.alternate,this.fill=r.fill,this.iterations=r.iterations,this.direction=i.direction||1,this.speed=i.speed||1,this.fps=i.fps||100,this.offset=i.offset||0,this.rollbackStartOffset=0}return r(t,[{key:"_rollback",value:function(){var t=this,n=1/0,e=null;this.rollbackStartOffset=this.offset,this._rollingBack||(this._rollingBack=!0,this._running=!0);this._id=window.requestAnimationFrame((function r(i){if(t._rollingBack){null==e&&(e=i);var u=i-e,o=t.rollbackStartOffset-u,a=Math.round(o*t.speed);if(a>t.duration&&n!=1/0){var l=!!t.alternate&&a/t.duration%2>1,s=a%t.duration;a=(s+=l?t.duration:0)||t.duration}var f=t.fps?1e3/t.fps:0,c=Math.max(0,a);if(c<n-f){t.offset=c,n=c;for(var h=t._animations,v=h.length,d=0;d<v;d++)h[d](c,t.direction)}var y=!1;if(t.iterations>0&&-1===t.fill){var g=t.iterations*t.duration,p=g==a;a=p?0:a,t.offset=p?0:t.offset,y=a>g}a>0&&t.offset>=a&&!y?t._id=window.requestAnimationFrame(r):t.stop()}}))}},{key:"_start",value:function(){var t=this,n=arguments.length>0&&void 0!==arguments[0]?arguments[0]:0,e=-1/0,r=null,i={},u=function u(o){t._running=!0,null==r&&(r=o);var a=Math.round((o-r+n)*t.speed),l=t.fps?1e3/t.fps:0;if(a>e+l&&!t._rollingBack){t.offset=a,e=a;for(var s=t._animations,f=s.length,c=0,h=0;h<f;h++)i[h]?c++:(i[h]=s[h](a,t.direction),i[h]&&c++);if(c===f)return void t._stop()}t._id=window.requestAnimationFrame(u)};this._id=window.requestAnimationFrame(u)}},{key:"_stop",value:function(){this._id&&window.cancelAnimationFrame(this._id),this._running=!1,this._rollingBack=!1}},{key:"play",value:function(){!this._rollingBack&&this._running||(this._rollingBack=!1,this.rollbackStartOffset>this.duration&&(this.offset=this.rollbackStartOffset-(this.rollbackStartOffset-this.offset)%this.duration,this.rollbackStartOffset=0),this._start(this.offset))}},{key:"stop",value:function(){this._stop(),this.offset=0,this.rollbackStartOffset=0;var t=this.direction,n=this._animations;window.requestAnimationFrame((function(){for(var e=0;e<n.length;e++)n[e](0,t)}))}},{key:"reachedToEnd",value:function(){return this.iterations>0&&this.offset>=this.iterations*this.duration}},{key:"restart",value:function(){this._stop(),this.offset=0,this._start()}},{key:"pause",value:function(){this._stop()}},{key:"reverse",value:function(){this.direction=-this.direction}}],[{key:"build",value:function(n,e){return(n=function(t,n){if(B=n,!t||!t.root||!Array.isArray(t.animations))return null;for(var e=document.getElementsByTagName("svg"),r=!1,i=0;i<e.length;i++)if(e[i].id===t.root&&!e[i].svgatorAnimation){(r=e[i]).svgatorAnimation=!0;break}if(!r)return null;var u=t.animations.map((function(t){return z(r,t)})).filter((function(t){return!!t}));return u.length?{element:r,animations:u,animationSettings:t.animationSettings,options:t.options||void 0}:null}(n,e))?{el:n.element,options:n.options||{},player:new t(n.animations,n.animationSettings,n.options)}:null}}]),t}();!function(){for(var t=0,n=["ms","moz","webkit","o"],e=0;e<n.length&&!window.requestAnimationFrame;++e)window.requestAnimationFrame=window[n[e]+"RequestAnimationFrame"],window.cancelAnimationFrame=window[n[e]+"CancelAnimationFrame"]||window[n[e]+"CancelRequestAnimationFrame"];window.requestAnimationFrame||(window.requestAnimationFrame=function(n){var e=Date.now(),r=Math.max(0,16-(e-t)),i=window.setTimeout((function(){n(e+r)}),r);return t=e+r,i},window.cancelAnimationFrame=window.clearTimeout)}();var U=function(t,n){var e=!1,r=null;return function(i){e&&clearTimeout(e),e=setTimeout((function(){return function(){for(var i=0,u=window.innerHeight,o=0,a=window.innerWidth,l=t.parentNode;l instanceof Element;){var s=window.getComputedStyle(l);if("visible"!==s.overflowY||"visible"!==s.overflowX){var f=l.getBoundingClientRect();"visible"!==s.overflowY&&(i=Math.max(i,f.top),u=Math.min(u,f.bottom)),"visible"!==s.overflowX&&(o=Math.max(o,f.left),a=Math.min(a,f.right))}if(l===l.parentNode)break;l=l.parentNode}e=!1;var c=t.getBoundingClientRect(),h=Math.min(c.height,Math.max(0,i-c.top)),v=Math.min(c.height,Math.max(0,c.bottom-u)),d=Math.min(c.width,Math.max(0,o-c.left)),y=Math.min(c.width,Math.max(0,c.right-a)),g=(c.height-h-v)/c.height,p=(c.width-d-y)/c.width,m=Math.round(g*p*100);null!==r&&r===m||(r=m,n(m))}()}),100)}},W=function(){function t(e,r,i){n(this,t),r=Math.max(1,r||1),r=Math.min(r,100),this.el=e,this.onTresholdChange=i&&i.call?i:function(){},this.tresholdPercent=r||1,this.currentVisibility=null,this.visibilityCalculator=U(e,this.onVisibilityUpdate.bind(this)),this.bindScrollWatchers(),this.visibilityCalculator()}return r(t,[{key:"bindScrollWatchers",value:function(){for(var t=this.el.parentNode;t&&(t.addEventListener("scroll",this.visibilityCalculator),t!==t.parentNode&&t!==document);)t=t.parentNode}},{key:"onVisibilityUpdate",value:function(t){var n=this.currentVisibility>=this.tresholdPercent,e=t>=this.tresholdPercent;if(null===this.currentVisibility||n!==e)return this.currentVisibility=t,void this.onTresholdChange(e);this.currentVisibility=t}}]),t}(),Y=/\.0+$/g;function G(t){return Number.isInteger(t)?t+"":t.toFixed(6).replace(Y,"")}function H(t){var n=arguments.length>1&&void 0!==arguments[1]?arguments[1]:" ";return t&&t.length?t.map(G).join(n):""}function Q(t){return G(t.x)+","+G(t.y)}function X(t){return t?null==t.a||t.a>=1?"rgb("+t.r+","+t.g+","+t.b+")":"rgba("+t.r+","+t.g+","+t.b+","+t.a+")":"transparent"}var $={f:null,i:A,u:function(t,n){return function(e){var r=n(e);t.setAttribute("rx",G(r.x)),t.setAttribute("ry",G(r.y))}}},Z={f:null,i:function(t,n,e){return 0===t?n:1===t?e:{width:w(t,n.width,e.width),height:w(t,n.height,e.height)}},u:function(t,n){return function(e){var r=n(e);t.setAttribute("width",G(r.width)),t.setAttribute("height",G(r.height))}}},J=Math.sin,K=Math.cos,tt=Math.acos,nt=Math.asin,et=Math.tan,rt=Math.atan2,it=Math.PI/180,ut=180/Math.PI,ot=Math.sqrt,at=function(){function t(){var e=arguments.length>0&&void 0!==arguments[0]?arguments[0]:1,r=arguments.length>1&&void 0!==arguments[1]?arguments[1]:0,i=arguments.length>2&&void 0!==arguments[2]?arguments[2]:0,u=arguments.length>3&&void 0!==arguments[3]?arguments[3]:1,o=arguments.length>4&&void 0!==arguments[4]?arguments[4]:0,a=arguments.length>5&&void 0!==arguments[5]?arguments[5]:0;n(this,t),this.m=[e,r,i,u,o,a],this.i=null,this.w=null,this.s=null}return r(t,[{key:"determinant",get:function(){var t=this.m;return t[0]*t[3]-t[1]*t[2]}},{key:"isIdentity",get:function(){if(null===this.i){var t=this.m;this.i=1===t[0]&&0===t[1]&&0===t[2]&&1===t[3]&&0===t[4]&&0===t[5]}return this.i}},{key:"point",value:function(t,n){var e=this.m;return{x:e[0]*t+e[2]*n+e[4],y:e[1]*t+e[3]*n+e[5]}}},{key:"translateSelf",value:function(){var t=arguments.length>0&&void 0!==arguments[0]?arguments[0]:0,n=arguments.length>1&&void 0!==arguments[1]?arguments[1]:0;if(!t&&!n)return this;var e=this.m;return e[4]+=e[0]*t+e[2]*n,e[5]+=e[1]*t+e[3]*n,this.w=this.s=this.i=null,this}},{key:"rotateSelf",value:function(){var t=arguments.length>0&&void 0!==arguments[0]?arguments[0]:0;if(t%=360){var n=J(t*=it),e=K(t),r=this.m,i=r[0],u=r[1];r[0]=i*e+r[2]*n,r[1]=u*e+r[3]*n,r[2]=r[2]*e-i*n,r[3]=r[3]*e-u*n,this.w=this.s=this.i=null}return this}},{key:"scaleSelf",value:function(){var t=arguments.length>0&&void 0!==arguments[0]?arguments[0]:1,n=arguments.length>1&&void 0!==arguments[1]?arguments[1]:1;if(1!==t||1!==n){var e=this.m;e[0]*=t,e[1]*=t,e[2]*=n,e[3]*=n,this.w=this.s=this.i=null}return this}},{key:"skewSelf",value:function(t,n){if(n%=360,(t%=360)||n){var e=this.m,r=e[0],i=e[1],u=e[2],o=e[3];t&&(t=et(t*it),e[2]+=r*t,e[3]+=i*t),n&&(n=et(n*it),e[0]+=u*n,e[1]+=o*n),this.w=this.s=this.i=null}return this}},{key:"resetSelf",value:function(){var t=arguments.length>0&&void 0!==arguments[0]?arguments[0]:1,n=arguments.length>1&&void 0!==arguments[1]?arguments[1]:0,e=arguments.length>2&&void 0!==arguments[2]?arguments[2]:0,r=arguments.length>3&&void 0!==arguments[3]?arguments[3]:1,i=arguments.length>4&&void 0!==arguments[4]?arguments[4]:0,u=arguments.length>5&&void 0!==arguments[5]?arguments[5]:0,o=this.m;return o[0]=t,o[1]=n,o[2]=e,o[3]=r,o[4]=i,o[5]=u,this.w=this.s=this.i=null,this}},{key:"recomposeSelf",value:function(){var t=arguments.length>0&&void 0!==arguments[0]?arguments[0]:null,n=arguments.length>1&&void 0!==arguments[1]?arguments[1]:null,e=arguments.length>2&&void 0!==arguments[2]?arguments[2]:null,r=arguments.length>3&&void 0!==arguments[3]?arguments[3]:null,i=arguments.length>4&&void 0!==arguments[4]?arguments[4]:null;return this.isIdentity||this.resetSelf(),t&&(t.x||t.y)&&this.translateSelf(t.x,t.y),n&&this.rotateSelf(n),e&&(e.x&&this.skewSelf(e.x,0),e.y&&this.skewSelf(0,e.y)),!r||1===r.x&&1===r.y||this.scaleSelf(r.x,r.y),i&&(i.x||i.y)&&this.translateSelf(i.x,i.y),this}},{key:"decompose",value:function(){var t=arguments.length>0&&void 0!==arguments[0]?arguments[0]:0,n=arguments.length>1&&void 0!==arguments[1]?arguments[1]:0,e=this.m,r=e[0]*e[0]+e[1]*e[1],i=[[e[0],e[1]],[e[2],e[3]]],u=ot(r);if(0===u)return{origin:{x:e[4],y:e[5]},translate:{x:t,y:n},scale:{x:0,y:0},skew:{x:0,y:0},rotate:0};i[0][0]/=u,i[0][1]/=u;var o=e[0]*e[3]-e[1]*e[2]<0;o&&(u=-u);var a=i[0][0]*i[1][0]+i[0][1]*i[1][1];i[1][0]-=i[0][0]*a,i[1][1]-=i[0][1]*a;var l=ot(i[1][0]*i[1][0]+i[1][1]*i[1][1]);if(0===l)return{origin:{x:e[4],y:e[5]},translate:{x:t,y:n},scale:{x:u,y:0},skew:{x:0,y:0},rotate:0};i[1][0]/=l,i[1][1]/=l,a/=l;var s=0;return i[1][1]<0?(s=tt(i[1][1])*ut,i[0][1]<0&&(s=360-s)):s=nt(i[0][1])*ut,o&&(s=-s),a=rt(a,ot(i[0][0]*i[0][0]+i[0][1]*i[0][1]))*ut,o&&(a=-a),{origin:{x:e[4],y:e[5]},translate:{x:t,y:n},scale:{x:u,y:l},skew:{x:a,y:0},rotate:s}}},{key:"toString",value:function(){return null===this.s&&(this.s="matrix("+this.m.map(st).join(" ")+")"),this.s}}]),t}(),lt=/\.0+$/;function st(t){return Number.isInteger(t)?t:t.toFixed(14).replace(lt,"")}function ft(t,n,e){return t+(n-t)*e}function ct(t,n,e){var r=arguments.length>3&&void 0!==arguments[3]&&arguments[3],i={x:ft(t.x,n.x,e),y:ft(t.y,n.y,e)};return r&&(i.a=ht(t,n)),i}function ht(t,n){return Math.atan2(n.y-t.y,n.x-t.x)}Object.freeze({M:2,L:2,Z:0,H:1,V:1,C:6,Q:4,T:2,S:4,A:7});var vt={},dt=null;function yt(n){var e=function(){if(dt)return dt;if("object"!==("undefined"==typeof document?"undefined":t(document)))return{};var n=document.createElementNS("http://www.w3.org/2000/svg","svg");return n.style.position="absolute",n.style.opacity="0.01",n.style.zIndex="-9999",n.style.left="-9999px",n.style.width="1px",n.style.height="1px",dt={svg:n}}().svg;if(!e)return function(t){return null};var r=document.createElementNS(e.namespaceURI,"path");r.setAttributeNS(null,"d",n),r.setAttributeNS(null,"fill","none"),r.setAttributeNS(null,"stroke","none"),e.appendChild(r);var i=r.getTotalLength();return function(t){var n=r.getPointAtLength(i*t);return{x:n.x,y:n.y}}}function gt(t){return vt[t]?vt[t]:vt[t]=yt(t)}function pt(t,n,e,r){if(!t||!r)return!1;var i=["M",t.x,t.y];if(n&&e&&(i.push("C"),i.push(n.x),i.push(n.y),i.push(e.x),i.push(e.y)),n?!e:e){var u=n||e;i.push("Q"),i.push(u.x),i.push(u.y)}return n||e||i.push("L"),i.push(r.x),i.push(r.y),i.join(" ")}function mt(t,n,e,r){var i=arguments.length>4&&void 0!==arguments[4]?arguments[4]:1,u=pt(t,n,e,r),o=gt(u);try{return o(i)}catch(t){return null}}function bt(t,n,e,r){var i=1-r;return i*i*t+2*i*r*n+r*r*e}function wt(t,n,e,r){return 2*(1-r)*(n-t)+2*r*(e-n)}function xt(t,n,e,r){var i=arguments.length>4&&void 0!==arguments[4]&&arguments[4],u=mt(t,n,null,e,r);return u||(u={x:bt(t.x,n.x,e.x,r),y:bt(t.y,n.y,e.y,r)}),i&&(u.a=At(t,n,e,r)),u}function At(t,n,e,r){return Math.atan2(wt(t.y,n.y,e.y,r),wt(t.x,n.x,e.x,r))}function kt(t,n,e,r,i){var u=i*i;return i*u*(r-t+3*(n-e))+3*u*(t+e-2*n)+3*i*(n-t)+t}function _t(t,n,e,r,i){var u=1-i;return 3*(u*u*(n-t)+2*u*i*(e-n)+i*i*(r-e))}function St(t,n,e,r,i){var u=arguments.length>5&&void 0!==arguments[5]&&arguments[5],o=mt(t,n,e,r,i);return o||(o={x:kt(t.x,n.x,e.x,r.x,i),y:kt(t.y,n.y,e.y,r.y,i)}),u&&(o.a=Mt(t,n,e,r,i)),o}function Mt(t,n,e,r,i){return Math.atan2(_t(t.y,n.y,e.y,r.y,i),_t(t.x,n.x,e.x,r.x,i))}function Ot(t,n,e){var r=arguments.length>3&&void 0!==arguments[3]&&arguments[3];if(Bt(n)){if(It(e))return xt(n,e.start,e,t,r)}else if(Bt(e)){if(n.end)return xt(n,n.end,e,t,r)}else{if(n.end)return e.start?St(n,n.end,e.start,e,t,r):xt(n,n.end,e,t,r);if(e.start)return xt(n,e.start,e,t,r)}return ct(n,e,t,r)}function Et(t,n,e){var r=Ot(t,n,e,!0);return r.a=function(t){var n=arguments.length>1&&void 0!==arguments[1]&&arguments[1];return n?t+Math.PI:t}(r.a)/p,r}function Bt(t){return!t.type||"corner"===t.type}function It(t){return null!=t.start&&!Bt(t)}var jt=new at;var Pt={f:function(t){return t?t.join(" "):""},i:function(n,e,r){if(0===n)return e;if(1===n)return r;var i=e.length;if(i!==r.length)return m(n,e,r);for(var u,o=new Array(i),a=0;a<i;a++){if((u=t(e[a]))!==t(r[a]))return m(n,e,r);if("number"===u)o[a]=b(n,e[a],r[a]);else{if(e[a]!==r[a])return m(n,e,r);o[a]=e[a]}}return o}},Tt={f:null,i:M,u:function(t,n){return function(e){var r=n(e);t.setAttribute("x1",G(r[0])),t.setAttribute("y1",G(r[1])),t.setAttribute("x2",G(r[2])),t.setAttribute("y2",G(r[3]))}}},Ft={f:G,i:b},Rt={f:G,i:function(t,n,e){var r=b(t,n,e);return r<=0?0:r>=1?1:r}},Ct={f:function(t){var n=arguments.length>1&&void 0!==arguments[1]?arguments[1]:" ";return t&&t.length>0&&(t=t.map((function(t){return Math.floor(1e4*t)/1e4}))),H(t,n)},i:function(t,n,e){var r,i,u,o=n.length,a=e.length;if(o!==a)if(0===o)n=O(o=a,0);else if(0===a)a=o,e=O(o,0);else{var l=(u=(r=o)*(i=a)/function(t,n){for(var e;n;)e=n,n=t%n,t=e;return t||1}(r,i))<0?-u:u;n=E(n,Math.floor(l/o)),e=E(e,Math.floor(l/a)),o=a=l}for(var s=[],f=0;f<o;f++)s.push(g(w(t,n[f],e[f]),6));return s}};function Nt(t,n,e,r,i,u,o,a){return n=function(t,n,e){for(var r,i,u,o=t.length-1,a={},l=0;l<=o;l++)(r=t[l]).e&&(r.e=n(r.e)),r.v&&"g"===(i=r.v).t&&i.r&&(u=e.getElementById(i.r))&&(a[i.r]=u.querySelectorAll("stop"));return a}(t,r,a),function(r){var i,u=e(r,t,qt);return u?"c"===u.t?X(u.v):"g"===u.t?(n[u.r]&&function(t,n){for(var e=0,r=t.length;e<r;e++)t[e].setAttribute("stop-color",X(n[e]))}(n[u.r],u.v),(i=u.r)?"url(#"+i+")":"none"):"none":"none"}}function qt(t,n,e){if(0===t)return n;if(1===t)return e;if(n&&e){var r=n.t;if(r===e.t)switch(n.t){case"c":return{t:r,v:_(t,n.v,e.v)};case"g":if(n.r===e.r)return{t:r,v:S(t,n.v,e.v),r:n.r}}}return m(t,n,e)}var Vt={blur:A,brightness:w,contrast:w,"drop-shadow":function(t,n,e){return 0===t?n:1===t?e:{blur:A(t,n.blur,e.blur),offset:x(t,n.offset,e.offset),color:_(t,n.color,e.color)}},grayscale:w,"hue-rotate":b,invert:w,opacity:w,saturate:w,sepia:w};function Lt(t,n,e){if(0===t)return n;if(1===t)return e;var r=n.length;if(r!==e.length)return m(t,n,e);for(var i,u=[],o=0;o<r;o++){if(n[o].type!==e[o].type)return n;if(!(i=Vt[n[o].type]))return m(t,n,e);u.push({type:n.type,value:i(t,n[o].value,e[o].value)})}return u}var zt={blur:function(t){return t?function(n){t.setAttribute("stdDeviation",Q(n))}:null},brightness:function(t,n,e){return(t=Ut(e,n))?function(n){n=G(n),t.map((function(t){return t.setAttribute("slope",n)}))}:null},contrast:function(t,n,e){return(t=Ut(e,n))?function(n){var e=G((1-n)/2);n=G(n),t.map((function(t){t.setAttribute("slope",n),t.setAttribute("intercept",e)}))}:null},"drop-shadow":function(t,n,e){var r=e.getElementById(n+"-blur");if(!r)return null;var i=e.getElementById(n+"-offset");if(!i)return null;var u=e.getElementById(n+"-flood");return u?function(t){r.setAttribute("stdDeviation",Q(t.blur)),i.setAttribute("dx",G(t.offset.x)),i.setAttribute("dy",G(t.offset.y)),u.setAttribute("flood-color",X(t.color))}:null},grayscale:function(t){return t?function(n){t.setAttribute("values",H(function(t){return[.2126+.7874*(t=1-t),.7152-.7152*t,.0722-.0722*t,0,0,.2126-.2126*t,.7152+.2848*t,.0722-.0722*t,0,0,.2126-.2126*t,.7152-.7152*t,.0722+.9278*t,0,0,0,0,0,1,0]}(n)))}:null},"hue-rotate":function(t){return t?function(n){return t.setAttribute("values",G(n))}:null},invert:function(t,n,e){return(t=Ut(e,n))?function(n){n=G(n)+" "+G(1-n),t.map((function(t){return t.setAttribute("tableValues",n)}))}:null},opacity:function(t,n,e){return(t=e.getElementById(n+"-A"))?function(n){return t.setAttribute("tableValues","0 "+G(n))}:null},saturate:function(t){return t?function(n){return t.setAttribute("values",G(n))}:null},sepia:function(t){return t?function(n){return t.setAttribute("values",H(function(t){return[.393+.607*(t=1-t),.769-.769*t,.189-.189*t,0,0,.349-.349*t,.686+.314*t,.168-.168*t,0,0,.272-.272*t,.534-.534*t,.131+.869*t,0,0,0,0,0,1,0]}(n)))}:null}};var Dt=["R","G","B"];function Ut(t,n){var e=Dt.map((function(e){return t.getElementById(n+"-"+e)||null}));return-1!==e.indexOf(null)?null:e}var Wt={fill:Nt,"fill-opacity":Rt,stroke:Nt,"stroke-opacity":Rt,"stroke-width":Ft,"stroke-dashoffset":{f:G,i:b},"stroke-dasharray":Ct,opacity:Rt,transform:function(n,e,r,i){if(!(n=function(n,e){if(!n||"object"!==t(n))return null;var r=!1;for(var i in n)n.hasOwnProperty(i)&&(n[i]&&n[i].length?(n[i].forEach((function(t){t.e&&(t.e=e(t.e))})),r=!0):delete n[i]);return r?n:null}(n,i)))return null;var u=function(t,i,u){var o=arguments.length>3&&void 0!==arguments[3]?arguments[3]:null;return n[t]?r(i,n[t],u):e&&e[t]?e[t]:o};return e&&e.a&&n.o?function(t){var e=r(t,n.o,Et);return jt.recomposeSelf(e,u("r",t,b,0)+e.a,u("k",t,x),u("s",t,x),u("t",t,x)).toString()}:function(t){return jt.recomposeSelf(u("o",t,Ot,null),u("r",t,b,0),u("k",t,x),u("s",t,x),u("t",t,x)).toString()}},"#filter":function(t,n,e,r,i,u,o,a){if(!n.items||!t||!t.length)return null;var l=function(t,n){var e=(t=t.map((function(t){return t&&zt[t[0]]?(n.getElementById(t[1]),zt[t[0]](n.getElementById(t[1]),t[1],n)):null}))).length;return function(n){for(var r=0;r<e;r++)t[r]&&t[r](n[r].value)}}(n.items,a);return l?(t=function(t,n){return t.map((function(t){return t.e=n(t.e),t}))}(t,r),function(n){l(e(n,t,Lt))}):null},"#line":Tt,points:{f:H,i:M},d:Pt,r:Ft,"#size":Z,"#radius":$,_:function(t,n){if(Array.isArray(t))for(var e=0;e<t.length;e++)this[t[e]]=n;else this[t]=n}};return function(t){!function(t,n){if("function"!=typeof n&&null!==n)throw new TypeError("Super expression must either be null or a function");t.prototype=Object.create(n&&n.prototype,{constructor:{value:t,writable:!0,configurable:!0}}),n&&u(t,n)}(o,t);var e=a(o);function o(){return n(this,o),e.apply(this,arguments)}return r(o,null,[{key:"build",value:function(t){var n=l(i(o),"build",this).call(this,t,Wt),e=n.el,r=n.options,u=n.player;return function(t,n,e){if("click"===e.start){return void n.addEventListener("click",(function(){switch(e.click){case"freeze":return!t._running&&t.reachedToEnd()&&(t.offset=0),t._running?t.pause():t.play();case"restart":return t.offset>0?t.restart():t.play();case"reverse":var n=!t._rollingBack&&t._running,r=t.reachedToEnd();return n||r&&1===t.fill?(t.pause(),r&&(t.offset=t.duration-1),t._rollback()):r?t.restart():t.play();case"none":default:return!t._running&&t.offset?t.restart():t.play()}}))}if("hover"===e.start)return n.addEventListener("mouseenter",(function(){return t.reachedToEnd()?t.restart():t.play()})),void n.addEventListener("mouseleave",(function(){switch(e.hover){case"freeze":return t.pause();case"reset":return t.stop();case"reverse":return t.pause(),t._rollback();case"none":default:return}}));if("scroll"===e.start)return void new W(n,e.scroll||25,(function(n){n?t.reachedToEnd()?t.restart():t.play():t.pause()}));t.play()}(u,e,r),u}}]),o}(D)}));
__SVGATOR_PLAYER__.build({"root":"e6KEhc7qL5x1","animations":[{"duration":6000,"direction":1,"iterations":0,"fill":1,"alternate":false,"speed":1,"elements":{"e6KEhc7qL5x14":{"transform":{"data":{"t":{"x":-295.1,"y":-170.02922058}},"keys":{"o":[{"t":500,"v":{"x":295.1,"y":170.02922058,"type":"corner"},"e":[0.42,0,0.58,1]},{"t":1500,"v":{"x":281.1,"y":95.02922057999999,"type":"corner"}},{"t":4000,"v":{"x":281.1,"y":95.02922057999999,"type":"corner"},"e":[0.42,0,0.58,1]},{"t":5000,"v":{"x":295.1,"y":170.02922058,"type":"corner"},"e":[0.42,0,0.58,1]}],"r":[{"t":500,"v":0,"e":[0.42,0,0.58,1]},{"t":1500,"v":-270.1073227343305},{"t":4000,"v":-270.1073227343305,"e":[0.42,0,0.58,1]},{"t":5000,"v":0,"e":[0.42,0,0.58,1]}],"s":[{"t":500,"v":{"x":1,"y":1},"e":[0.42,0,0.58,1]},{"t":1500,"v":{"x":0.2756575497257461,"y":0.2756575497257461}},{"t":4000,"v":{"x":0.2756575497257461,"y":0.2756575497257461},"e":[0.42,0,0.58,1]},{"t":5000,"v":{"x":1,"y":1},"e":[0.42,0,0.58,1]}]}}}}}],"options":{"start":"load","hover":"freeze","click":"freeze","scroll":25,"font":"embed","exportedIds":"unique","svgFormat":"animated","title":"Spristupni-si"},"animationSettings":{"duration":6000,"direction":1,"iterations":0,"fill":1,"alternate":false,"speed":1}})]]></script></svg>