<svg xmlns="http://www.w3.org/2000/svg" width="40" height="40" viewBox="0 0 40 40">
  <g id="mark-d" transform="translate(-1276 -616)">
    <rect id="Rectangle_4" data-name="Rectangle 4" width="40" height="40" rx="8" transform="translate(1276 616)" fill="#2d406a"/>
    <path id="zvyraznovac-dark" d="M23.618.936l2.246,2.434a2.909,2.909,0,0,1,.009,3.936L14.386,19.869l-7.7-7.7L19.547.736a2.908,2.908,0,0,1,4.071.2ZM5.55,13.242a3.741,3.741,0,0,0-.912,3.465,2.35,2.35,0,0,1-.161,1.574l3.79,3.79A2.341,2.341,0,0,1,9.84,21.91,3.738,3.738,0,0,0,13.305,21ZM3.466,19.476.232,22.665A.781.781,0,0,0,.779,24H5.823a.778.778,0,0,0,.551-.228l.695-.694Z" transform="translate(1282.682 624)" fill="#ffc50f" fill-rule="evenodd"/>
  </g>
</svg>
