<svg width="60" height="60" viewBox="0 0 60 60" fill="none" xmlns="http://www.w3.org/2000/svg">
<g clip-path="url(#clip0_2347_1889)">
<path d="M57.0703 48.9902H56.5248C55.5531 48.0793 55.0008 46.8135 55.0008 45.471C55.0008 44.1286 55.5531 42.8627 56.5247 41.9518H57.0703C57.8522 41.9518 58.5878 41.6469 59.1415 41.0932C59.6952 40.5395 60 39.8041 60 39.0223C60 37.4068 58.6858 36.0926 57.0703 36.0926H54.3774C54.684 35.8584 54.9781 35.604 55.2556 35.3265C56.8899 33.6921 57.7859 31.519 57.7781 29.2072C57.7635 24.7521 54.2939 21.0797 49.8861 20.662C50.0162 20.3395 50.0849 19.9919 50.0849 19.6335C50.0849 18.1195 48.8536 16.8878 47.3402 16.8878H46.8749C46.0207 16.0753 45.5354 14.9536 45.5354 13.7644C45.5354 12.5749 46.021 11.453 46.8755 10.6405H47.3402C48.0718 10.6405 48.7609 10.3555 49.2824 9.83589C49.7999 9.31664 50.0849 8.62722 50.0849 7.8948C50.0849 6.38144 48.8536 5.15027 47.3402 5.15027H14.6836C9.88454 5.15027 5.9686 9.00199 5.95442 13.736C5.9468 16.0478 6.8427 18.2209 8.477 19.8552C8.7545 20.1327 9.04852 20.3871 9.3552 20.6212H5.75754C4.24348 20.6212 3.01172 21.8524 3.01172 23.3658C3.01172 24.0993 3.29719 24.7887 3.81528 25.3069C4.3343 25.8258 5.02395 26.1115 5.75743 26.1115H6.22161C7.07614 26.9241 7.56176 28.046 7.56176 29.2355C7.56176 30.4253 7.07602 31.5473 6.22114 32.3599H5.75754C4.24348 32.3599 3.01172 33.5911 3.01172 35.1045C3.01172 35.8369 3.29672 36.5263 3.81633 37.0478C4.01063 37.2414 4.22871 37.4024 4.46403 37.5281C1.79496 39.1846 0.0107847 42.111 3.46021e-06 45.4404C-0.00737935 47.9576 0.967972 50.3234 2.74653 52.1019C4.5184 53.8738 6.87375 54.8496 9.37864 54.8496H57.0703C57.8522 54.8496 58.5877 54.5447 59.1415 53.991C59.6952 53.4373 60 52.7018 60 51.9199C60 50.3045 58.6858 48.9902 57.0703 48.9902ZM58.2422 39.0223C58.2422 39.3347 58.1201 39.6287 57.8984 39.8504C57.6768 40.072 57.3828 40.1941 57.0703 40.1941H50.0421V37.8504H57.0703C57.7165 37.8504 58.2422 38.3761 58.2422 39.0223ZM9.72012 18.6124C8.41922 17.3116 7.70614 15.5819 7.71223 13.7416C7.7236 9.97371 10.8509 6.9082 14.6836 6.9082H47.3402C47.8845 6.9082 48.3271 7.35082 48.3271 7.89492C48.3271 8.15906 48.2242 8.40773 48.0395 8.593C47.8519 8.77992 47.6036 8.88281 47.3402 8.88281H19.2469C18.7614 8.88281 18.368 9.27632 18.368 9.76171C18.368 10.2471 18.7614 10.6406 19.2469 10.6406H44.642C44.0823 11.5724 43.7775 12.6472 43.7775 13.7646C43.7775 14.8816 44.0822 15.9564 44.6417 16.8879H14.5689C13.7217 16.8879 12.9281 16.553 12.3343 15.9448C11.7409 15.3369 11.4252 14.5353 11.4456 13.6876C11.486 12.0075 12.9207 10.6406 14.6438 10.6406H15.7313C16.2168 10.6406 16.6102 10.2471 16.6102 9.76171C16.6102 9.27632 16.2168 8.88281 15.7313 8.88281H14.6438C11.9747 8.88281 9.75153 11.0191 9.68813 13.6453C9.65637 14.9705 10.1495 16.2232 11.0765 17.1727C12.0039 18.1226 13.2442 18.6457 14.5689 18.6457H47.3402C47.8845 18.6457 48.3271 19.0889 48.3271 19.6336C48.3271 19.8975 48.2245 20.1455 48.0385 20.3316C47.8514 20.5185 47.6035 20.6215 47.3402 20.6215H14.5689C12.7375 20.6215 11.0154 19.9079 9.72012 18.6124ZM5.05829 24.064C4.87207 23.8778 4.76954 23.6299 4.76954 23.3659C4.76954 22.8218 5.21274 22.3792 5.75754 22.3792H14.5688H47.3402H49.0477C52.8801 22.3792 56.008 25.4448 56.0203 29.213C56.0264 31.0529 55.3133 32.7826 54.0124 34.0834C52.9266 35.1694 51.5406 35.8444 50.0421 36.0349V34.0378C51.0294 33.8591 51.9358 33.3809 52.6541 32.645C53.5815 31.6951 54.0748 30.4419 54.0431 29.1165C53.9813 26.4902 51.7587 24.3537 49.0888 24.3537H5.75754C5.49352 24.3539 5.2452 24.2509 5.05829 24.064ZM8.4552 26.1117H49.0888C50.812 26.1117 52.2462 27.4784 52.2858 29.1585C52.3062 30.0068 51.9904 30.8089 51.3963 31.4173C51.0145 31.8083 50.55 32.0857 50.0421 32.2343V30.3961C50.0421 29.9107 49.6487 29.5172 49.1632 29.5172H31.779C31.2935 29.5172 30.9001 29.9107 30.9001 30.3961C30.9001 30.8815 31.2935 31.275 31.779 31.275H37.7113V32.3602H8.45485C9.01465 31.4283 9.31969 30.3532 9.31969 29.2357C9.31969 28.1183 9.01477 27.0435 8.4552 26.1117ZM39.4691 31.275H48.2844V43.7357L44.281 41.6618C44.1543 41.5962 44.0154 41.5634 43.8768 41.5634C43.7381 41.5634 43.5993 41.5962 43.4725 41.6619L39.4692 43.7357V31.275H39.4691ZM5.75754 34.1178H37.7113V36.0925H5.75754C5.4934 36.0925 5.24473 35.9896 5.05934 35.8049C4.87243 35.6174 4.76954 35.3687 4.76954 35.1046C4.76965 34.5606 5.21286 34.1178 5.75754 34.1178ZM57.8984 52.7481C57.6767 52.9698 57.3826 53.0918 57.0703 53.0918H9.37864C7.34333 53.0918 5.42942 52.2988 3.98965 50.859C2.54438 49.4139 1.75184 47.4913 1.75782 45.4458C1.77129 41.2577 5.24672 37.8504 9.50508 37.8504H37.7112V40.1941H9.46067C6.57434 40.1941 4.17094 42.5035 4.10297 45.3424C4.06911 46.7754 4.60243 48.1298 5.60485 49.1563C6.60727 50.1827 7.94743 50.748 9.37852 50.748H41.4152C41.9008 50.748 42.2942 50.3545 42.2942 49.8691C42.2942 49.3837 41.9008 48.9902 41.4152 48.9902H9.37864C8.42497 48.9902 7.53129 48.613 6.8625 47.9282C6.1936 47.2432 5.8377 46.3397 5.86032 45.3843C5.90567 43.4917 7.52075 41.9519 9.46067 41.9519H37.7113V45.1807C37.7113 45.4875 37.8713 45.7721 38.1335 45.9316C38.3958 46.0911 38.722 46.1023 38.9946 45.961L43.8768 43.4319L48.7592 45.961C48.8862 46.0269 49.0249 46.0596 49.1633 46.0596C49.3219 46.0596 49.4801 46.0167 49.62 45.9316C49.8822 45.7721 50.0422 45.4875 50.0422 45.1807V41.9518H54.2624C53.6037 42.992 53.243 44.2063 53.243 45.471C53.243 46.7358 53.6037 47.95 54.2625 48.9902H44.9309C44.4454 48.9902 44.052 49.3837 44.052 49.8691C44.052 50.3545 44.4454 50.748 44.9309 50.748H57.0703C57.7165 50.748 58.2422 51.2737 58.2422 51.9199C58.2422 52.2323 58.1201 52.5264 57.8984 52.7481Z" fill="#4369BD"/>
</g>
<defs>
<clipPath id="clip0_2347_1889">
<rect width="60" height="60" fill="white"/>
</clipPath>
</defs>
</svg>
