<svg width="40" height="40" viewBox="0 0 40 40" fill="none" xmlns="http://www.w3.org/2000/svg">
<rect width="40" height="40" rx="8" fill="white"/>
<path d="M33.8456 12.0544C33.6955 11.7357 33.4727 11.4802 33.1774 11.2882C32.8821 11.0961 32.5561 11 32.1999 11H21.3999C20.8561 11 20.4062 11.2061 20.0499 11.6186L7.44972 26.019C7.21537 26.2814 7.07238 26.5884 7.02081 26.94C6.96914 27.2916 7.01371 27.6267 7.15439 27.9456C7.30432 28.2642 7.52696 28.5196 7.82234 28.7117C8.11773 28.9037 8.44355 29 8.79981 29H19.6C20.1438 29 20.5938 28.7942 20.95 28.3814L33.5502 13.9809C33.7842 13.7184 33.9273 13.4114 33.9787 13.0599C34.0308 12.7082 33.9859 12.3732 33.8456 12.0544ZM19.6001 27.1999H8.79981L13.5249 21.7999H24.3251L19.6001 27.1999Z" fill="#2D406A"/>
</svg>
