<svg width="60" height="60" viewBox="0 0 60 60" fill="none" xmlns="http://www.w3.org/2000/svg">
<path d="M4.6875 59.0625H12.1884C12.4462 59.0625 12.6938 58.9566 12.8709 58.7681C13.0481 58.5806 13.14 58.3275 13.125 58.0706L13.0725 57.1875H15.9384C16.1981 57.1875 16.4475 57.0797 16.6238 56.8894C16.8009 56.6991 16.8919 56.4431 16.8731 56.1834L16.8375 55.6884L17.8538 55.3491C21.24 54.2203 24.915 54.1266 28.4109 54.825C30.0234 55.1484 31.6781 55.3125 33.3281 55.3125C38.6616 55.3125 43.8197 53.3888 47.8519 49.8956L55.0378 43.6659C55.8084 42.9994 56.2509 42.0319 56.2509 41.0119C56.2509 39.1519 54.7931 37.6406 52.9631 37.5225C55.1128 33.8231 56.2509 29.6494 56.2509 25.3125C56.2509 11.8716 45.3169 0.9375 31.8759 0.9375C18.435 0.9375 7.50094 11.8716 7.50094 25.3125C7.50094 31.6181 9.96188 37.6659 14.2997 42.1875H12.1903L12.1875 42.1322C12.1575 41.6372 11.7469 41.25 11.2509 41.25H4.68844C4.17 41.25 3.75094 41.6691 3.75094 42.1875L3.75 58.125C3.75 58.3744 3.84844 58.6125 4.02469 58.7878C4.20094 58.9631 4.43813 59.0625 4.6875 59.0625ZM54.3759 41.0119C54.3759 41.4872 54.1697 41.9372 53.8097 42.2484L46.6228 48.4781C42.9328 51.6759 38.2116 53.4375 33.3281 53.4375C31.8019 53.4375 30.2709 53.2856 28.7784 52.9875C24.9647 52.2234 20.955 52.3387 17.2603 53.5706L16.6997 53.7572L16.0284 44.3606L17.4956 42.8934C19.1606 41.2294 21.3731 40.3125 23.7272 40.3125C25.2816 40.3125 26.8022 40.605 28.2469 41.1834C29.9137 41.85 31.6688 42.1875 33.4622 42.1875H37.5009C39.2437 42.1875 40.6987 43.3866 41.1178 45H31.8759V46.875H42.1884C42.4022 46.875 42.6075 46.8028 42.7744 46.6697L51.4425 39.7341C51.7322 39.5025 52.095 39.375 52.4663 39.375H52.7391C53.6419 39.375 54.3759 40.1091 54.3759 41.0119ZM13.1737 24.375C13.3959 19.9134 15.1772 15.8653 17.9925 12.7547L19.9425 14.7047L21.2681 13.3791L19.3181 11.4291C22.4288 8.61281 26.4759 6.8325 30.9384 6.61031V9.375H32.8134V6.61031C37.275 6.8325 41.3231 8.61281 44.4328 11.4291L42.4819 13.38L43.8075 14.7056L45.7584 12.7547C48.5747 15.8644 50.3559 19.9125 50.5781 24.375H47.8134V26.25H50.5941C50.3766 30.6403 48.6488 34.7287 45.7819 37.8928L43.8084 35.9194L42.4828 37.245L44.4534 39.2156C43.4428 40.1287 42.3225 40.9369 41.1066 41.625C40.1297 40.8066 38.8725 40.3125 37.5019 40.3125H33.4631C31.9088 40.3125 30.3881 40.02 28.9434 39.4416C27.7969 38.9831 26.6072 38.6925 25.3931 38.5472L31.3781 28.0744C31.5394 28.1034 31.7053 28.125 31.8759 28.125C33.4266 28.125 34.6884 26.8631 34.6884 25.3125C34.6884 24.0919 33.9019 23.0606 32.8134 22.6725V14.0616H30.9384V22.6725C29.85 23.0606 29.0634 24.0919 29.0634 25.3125C29.0634 26.0119 29.3297 26.6447 29.7534 27.1369L23.5622 37.9725L24.435 38.4712C24.1987 38.4591 23.9644 38.4375 23.7272 38.4375C22.2262 38.4375 20.7759 38.7525 19.4409 39.3375C19.3941 39.2962 19.3462 39.255 19.3003 39.2137L21.2691 37.245L19.9434 35.9194L17.9756 37.8872C15.0797 34.6894 13.3678 30.5963 13.1522 26.25H15.9384V24.375H13.1737ZM31.8759 24.375C32.3934 24.375 32.8134 24.795 32.8134 25.3125C32.8134 25.83 32.3934 26.25 31.8759 26.25C31.3584 26.25 30.9384 25.83 30.9384 25.3125C30.9384 24.795 31.3584 24.375 31.8759 24.375ZM31.8759 2.8125C44.2819 2.8125 54.3759 12.9066 54.3759 25.3125C54.3759 29.9925 52.9509 34.4719 50.2612 38.2772L42.8503 44.2069C42.7219 43.8094 42.5466 43.4334 42.3375 43.08C48.63 39.3759 52.5009 32.6681 52.5009 25.3125C52.5009 13.9397 43.2487 4.6875 31.8759 4.6875C20.5031 4.6875 11.2509 13.9397 11.2509 25.3125C11.2509 31.0163 13.59 36.405 17.7075 40.2966C17.1928 40.6491 16.7062 41.0484 16.2516 41.4937C11.8744 37.2647 9.37594 31.4194 9.37594 25.3125C9.37594 12.9066 19.47 2.8125 31.8759 2.8125ZM14.1281 44.0625L14.9306 55.3125H12.9609L12.3 44.0625H14.1281ZM5.62594 43.125H10.3669L11.1947 57.1875H5.625L5.62594 43.125Z" fill="#4369BD"/>
</svg>
