<svg width="44" height="44" viewBox="0 0 44 44" fill="none" xmlns="http://www.w3.org/2000/svg">
<rect width="44" height="44" rx="22" fill="#FFC50F"/>
<path d="M31.0156 30.2168L26.2555 25.2662C27.4794 23.8113 28.15 21.9807 28.15 20.075C28.15 15.6225 24.5275 12 20.075 12C15.6225 12 12 15.6225 12 20.075C12 24.5275 15.6225 28.15 20.075 28.15C21.7465 28.15 23.3394 27.6458 24.7013 26.6888L29.4975 31.677C29.6979 31.8852 29.9676 32 30.2565 32C30.53 32 30.7895 31.8957 30.9864 31.7061C31.4049 31.3034 31.4182 30.6357 31.0156 30.2168ZM20.075 14.1065C23.3661 14.1065 26.0435 16.7839 26.0435 20.075C26.0435 23.3661 23.3661 26.0435 20.075 26.0435C16.7839 26.0435 14.1065 23.3661 14.1065 20.075C14.1065 16.7839 16.7839 14.1065 20.075 14.1065Z" fill="#2D406A" stroke="#2D406A"/>
</svg>
