<svg width="60" height="60" viewBox="0 0 60 60" fill="none" xmlns="http://www.w3.org/2000/svg">
<g clip-path="url(#clip0_2347_1878)">
<path d="M56.0896 40.0833L59.0312 35.7796C60.5548 33.5503 60.2551 30.5664 58.3187 28.6845L52.7363 23.2597V13.6911C52.7363 12.6501 51.8894 11.8031 50.8485 11.8031H49.0896V9.92858C49.0896 9.11328 48.4264 8.45007 47.6111 8.45007H34.781C32.7715 8.45007 31.0045 9.5037 29.9999 11.0865C28.9954 9.50359 27.2284 8.45007 25.2189 8.45007H21.4859C21.0004 8.45007 20.6071 8.84354 20.6071 9.32888C20.6071 9.81422 21.0004 10.2077 21.4859 10.2077H25.2189C27.3705 10.2077 29.1211 11.9582 29.1211 14.11V30.7127C29.1211 31.4758 28.5005 32.0964 27.7374 32.0964H13.4573L14.7722 29.5546C15.2508 28.6292 15.0717 27.5183 14.3266 26.7903C13.88 26.3538 13.292 26.1169 12.6681 26.1211V10.2076H17.9722C18.4576 10.2076 18.851 9.8141 18.851 9.32876C18.851 8.84342 18.4576 8.44995 17.9722 8.44995H12.389C11.5738 8.44995 10.9106 9.11316 10.9106 9.92846V11.803H9.15172C8.11062 11.803 7.26379 12.65 7.26379 13.6909V23.2596L1.68158 28.6844C-0.254969 30.5662 -0.554585 33.5502 0.969041 35.7797L3.9106 40.0834C4.16463 40.4552 4.29892 40.8898 4.29892 41.3402V43.7394H3.63067C2.74389 43.7394 2.02221 44.4608 2.02221 45.3479V49.9418C2.02221 50.8287 2.74377 51.5504 3.63067 51.5504H5.35958C5.84504 51.5504 6.2384 51.157 6.2384 50.6716C6.2384 50.1861 5.84504 49.7928 5.35958 49.7928H3.77983V45.4971H12.5942V49.7928H8.87342C8.38797 49.7928 7.99461 50.1861 7.99461 50.6716C7.99461 51.157 8.38797 51.5504 8.87342 51.5504H12.7434C13.6303 51.5504 14.3518 50.8288 14.3518 49.9418V45.3479C14.3518 44.461 13.6304 43.7394 12.7434 43.7394H12.4216L12.4774 41.0576C12.4871 40.6393 12.562 40.2267 12.7 39.8314C12.9443 39.1316 13.0233 38.3929 12.9472 37.6723H26.1925C26.3075 37.6723 26.2724 37.7384 26.493 38.2182C26.7483 38.9841 27.4536 39.4947 28.2658 39.4947H31.7345C32.5467 39.4947 33.2519 38.9842 33.5071 38.2182C33.7295 37.7348 33.6935 37.6723 33.8078 37.6723H47.0528C46.9766 38.3929 47.0557 39.1316 47.3001 39.8314C47.4383 40.2267 47.513 40.6393 47.5228 41.0554L47.5784 43.7393H47.2566C46.3699 43.7393 45.6482 44.4607 45.6482 45.3477V49.9417C45.6482 50.8286 46.3697 51.5503 47.2566 51.5503H50.1006C50.5861 51.5503 50.9794 51.1569 50.9794 50.6715C50.9794 50.186 50.5861 49.7926 50.1006 49.7926H47.4059V45.497H56.2203V49.7926H53.6144C53.129 49.7926 52.7356 50.186 52.7356 50.6715C52.7356 51.1569 53.129 51.5503 53.6144 51.5503H56.3696C57.2565 51.5503 57.978 50.8287 57.978 49.9417V45.3477C57.978 44.4608 57.2566 43.7393 56.3696 43.7393H55.7012V41.3401C55.7011 40.8897 55.8355 40.4551 56.0896 40.0833ZM50.8484 13.5607C50.9202 13.5607 50.9786 13.6191 50.9786 13.6909V28.8844L49.0895 26.9205V13.5607H50.8484ZM34.781 10.2076H47.3319V26.1212C46.711 26.1196 46.12 26.3539 45.6735 26.7902C44.9283 27.5183 44.7491 28.6293 45.2279 29.5547L46.5427 32.0964H32.2626C31.4995 32.0964 30.8788 31.4758 30.8788 30.7127V14.1098C30.8788 11.9582 32.6293 10.2076 34.781 10.2076ZM9.15172 13.5607H10.9106V26.9205L9.0213 28.8845V13.6909C9.0213 13.6191 9.07977 13.5607 9.15172 13.5607ZM6.05654 43.7392V41.34C6.05654 40.5342 5.81622 39.7565 5.36158 39.0914L2.42013 34.7878C1.38009 33.2661 1.58456 31.2293 2.90629 29.9447L7.26368 25.7102V30.7117L5.57355 32.4687C5.23714 32.8185 5.24792 33.3748 5.59768 33.7112C5.94757 34.0477 6.50368 34.0368 6.84021 33.6871L12.2525 28.0603C12.483 27.8207 12.8629 27.8172 13.098 28.0472C13.2867 28.2315 13.332 28.5128 13.211 28.747L10.3134 34.3482C9.99866 34.9287 10.0659 35.6312 10.4863 36.1421C11.1967 37.0049 11.409 38.1964 11.0405 39.2516C10.8418 39.8205 10.734 40.4143 10.7201 41.0187L10.6636 43.739H6.05654V43.7392ZM33.8077 35.9146C32.9954 35.9146 32.2902 36.4251 32.035 37.1911C31.8123 37.6736 31.8487 37.737 31.7344 37.737H28.2656C28.1507 37.737 28.1856 37.6708 27.965 37.1912C27.7099 36.4252 27.0047 35.9146 26.1923 35.9146H12.4255C12.2795 35.6287 12.1057 35.3553 11.9037 35.0999L12.5481 33.8542H27.7375C28.6256 33.8542 29.4281 33.4832 30.0001 32.8886C30.572 33.4831 31.3745 33.8542 32.2627 33.8542H47.4521L48.0964 35.0999C47.8944 35.3553 47.7207 35.6287 47.5747 35.9146H33.8077ZM49.3364 43.7392L49.2799 41.0167C49.266 40.4144 49.1582 39.8207 48.9595 39.2518C48.5909 38.1968 48.8034 37.0052 49.5137 36.1422C49.9341 35.6316 50.0012 34.929 49.6866 34.3484L46.789 28.7472C46.6678 28.513 46.7132 28.2319 46.902 28.0475C47.1369 27.8178 47.5167 27.8206 47.7475 28.0606L53.1598 33.6873C53.4963 34.0372 54.0527 34.0481 54.4023 33.7115C54.7521 33.375 54.7629 32.8187 54.4265 32.4689L52.7362 30.7118V25.7104L57.0937 29.945C58.4154 31.2295 58.6199 33.2663 57.5799 34.7879L54.6384 39.0917C54.1837 39.7569 53.9433 40.5344 53.9433 41.3402V43.7394H49.3364V43.7392Z" fill="#4369BD"/>
<path d="M34.6154 15.2684H43.0094C43.4948 15.2684 43.8882 14.8749 43.8882 14.3896C43.8882 13.9042 43.4948 13.5107 43.0094 13.5107H34.6154C34.13 13.5107 33.7366 13.9042 33.7366 14.3896C33.7366 14.8749 34.13 15.2684 34.6154 15.2684Z" fill="#4369BD"/>
<path d="M34.6154 19.7767H43.0094C43.4948 19.7767 43.8882 19.3832 43.8882 18.8979C43.8882 18.4125 43.4948 18.019 43.0094 18.019H34.6154C34.13 18.019 33.7366 18.4125 33.7366 18.8979C33.7366 19.3832 34.13 19.7767 34.6154 19.7767Z" fill="#4369BD"/>
<path d="M34.6154 24.2851H43.0094C43.4948 24.2851 43.8882 23.8916 43.8882 23.4063C43.8882 22.9209 43.4948 22.5275 43.0094 22.5275H34.6154C34.13 22.5275 33.7366 22.9209 33.7366 23.4063C33.7366 23.8916 34.13 24.2851 34.6154 24.2851Z" fill="#4369BD"/>
<path d="M34.6154 28.7934H43.0094C43.4948 28.7934 43.8882 28.3999 43.8882 27.9146C43.8882 27.4292 43.4948 27.0358 43.0094 27.0358H34.6154C34.13 27.0358 33.7366 27.4292 33.7366 27.9146C33.7366 28.3999 34.13 28.7934 34.6154 28.7934Z" fill="#4369BD"/>
<path d="M25.3845 13.5107H16.9907C16.5053 13.5107 16.1119 13.9042 16.1119 14.3896C16.1119 14.8749 16.5053 15.2684 16.9907 15.2684H25.3845C25.87 15.2684 26.2634 14.8749 26.2634 14.3896C26.2634 13.9042 25.8699 13.5107 25.3845 13.5107Z" fill="#4369BD"/>
<path d="M25.3845 18.019H16.9907C16.5053 18.019 16.1119 18.4125 16.1119 18.8979C16.1119 19.3832 16.5053 19.7767 16.9907 19.7767H25.3845C25.87 19.7767 26.2634 19.3832 26.2634 18.8979C26.2634 18.4125 25.8699 18.019 25.3845 18.019Z" fill="#4369BD"/>
<path d="M25.3845 22.5275H16.9907C16.5053 22.5275 16.1119 22.9209 16.1119 23.4063C16.1119 23.8916 16.5053 24.2851 16.9907 24.2851H25.3845C25.87 24.2851 26.2634 23.8916 26.2634 23.4063C26.2634 22.9209 25.8699 22.5275 25.3845 22.5275Z" fill="#4369BD"/>
<path d="M25.3845 27.0358H16.9907C16.5053 27.0358 16.1119 27.4292 16.1119 27.9146C16.1119 28.3999 16.5053 28.7934 16.9907 28.7934H25.3845C25.87 28.7934 26.2634 28.3999 26.2634 27.9146C26.2634 27.4292 25.8699 27.0358 25.3845 27.0358Z" fill="#4369BD"/>
</g>
<defs>
<clipPath id="clip0_2347_1878">
<rect width="60" height="60" fill="white"/>
</clipPath>
</defs>
</svg>
