<svg width="60" height="60" viewBox="0 0 60 60" fill="none" xmlns="http://www.w3.org/2000/svg">
<path d="M59.9998 26.8298C60.0253 22.6875 57.3952 19.0594 53.4534 17.7977C52.6383 15.5197 50.8778 13.716 48.6204 12.8446C48.6203 12.8422 48.6202 12.8401 48.6202 12.8401C48.6202 7.64544 44.394 3.41931 39.1993 3.41931C37.4378 3.41931 35.7198 3.90927 34.2299 4.83669C32.4329 2.68442 29.7975 1.45044 26.9972 1.45044C25.6237 1.45044 24.2994 1.73966 23.0609 2.31013C22.6205 2.5131 22.4278 3.03446 22.6307 3.47497C22.8335 3.91536 23.355 4.1079 23.7955 3.90517C24.802 3.44157 25.8792 3.20649 26.9972 3.20649C29.2789 3.20649 31.4265 4.21395 32.889 5.97071C33.443 6.63599 34.4136 6.79243 35.1468 6.33446C36.3605 5.57626 37.7619 5.17536 39.1993 5.17536C43.4257 5.17536 46.8641 8.61376 46.8641 12.8457C46.8634 13.5674 47.3084 14.2227 47.9713 14.4764C49.7618 15.162 51.1582 16.5902 51.8022 18.395C51.9833 18.9035 52.397 19.3043 52.9084 19.4672C56.1204 20.4907 58.2646 23.4451 58.2437 26.8192C58.2225 30.2805 55.8143 33.2711 52.488 34.1647C52.5417 33.7188 52.57 33.2652 52.57 32.8051C52.57 26.5637 47.4923 21.4861 41.2509 21.4861C38.5037 21.4861 35.4718 23.115 31.9821 26.466C31.4523 26.9746 30.9171 27.519 30.3839 28.0913C29.8506 27.5189 29.3154 26.9745 28.7858 26.466C28.0946 25.8023 27.4137 25.1991 26.762 24.6734C26.3845 24.3687 25.8318 24.428 25.5273 24.8053C25.2227 25.1827 25.2819 25.7354 25.6593 26.04C26.2718 26.5343 26.9146 27.1038 27.5694 27.7328C28.284 28.419 29.0106 29.1747 29.7289 29.9791C29.8955 30.1657 30.1337 30.2723 30.3839 30.2723C30.6341 30.2723 30.8722 30.1657 31.0389 29.9791C31.7569 29.1751 32.4834 28.4193 33.1983 27.7328C36.3451 24.7111 38.9791 23.2422 41.2508 23.2422C46.5239 23.2422 50.8138 27.532 50.8138 32.8051C50.8138 38.0783 46.5239 42.3682 41.2508 42.3682C38.9791 42.3682 36.3451 40.8993 33.1984 37.8777C32.4828 37.1905 31.7563 36.4347 31.0389 35.6312C30.8722 35.4446 30.634 35.338 30.3839 35.338C30.1338 35.338 29.8956 35.4446 29.7289 35.6312C29.0113 36.4349 28.2847 37.1907 27.5694 37.8776C24.4226 40.8993 21.7886 42.3682 19.5169 42.3682C14.2438 42.3682 9.9539 38.0783 9.9539 32.8051C9.9539 27.532 14.2438 23.2422 19.5169 23.2422C20.4592 23.2422 21.4855 23.5047 22.5673 24.0223C23.0047 24.2313 23.529 24.0468 23.7383 23.6092C23.9476 23.1717 23.7627 22.6474 23.3253 22.4381C22.0051 21.8064 20.7238 21.486 19.517 21.486C13.2757 21.486 8.19797 26.5636 8.19797 32.805C8.19797 33.324 8.23383 33.8347 8.30179 34.3355C4.61062 33.7525 1.80574 30.6384 1.75687 26.8726C1.73004 24.8051 2.51449 22.8566 3.96586 21.3864C5.41746 19.9158 7.3548 19.1059 9.42105 19.1059C9.50355 19.1059 9.5857 19.1073 9.66785 19.1101C10.5745 19.1405 11.3523 18.461 11.4431 17.5615C11.5364 16.6384 11.8206 15.76 12.2877 14.9508C13.4181 12.9928 15.4443 11.7697 17.7076 11.6789C18.5711 11.6443 19.2861 10.9697 19.3709 10.1095C19.5128 8.6693 20.0593 7.30372 20.9514 6.1602C21.2496 5.77794 21.1815 5.2261 20.7991 4.92786C20.4169 4.6295 19.8649 4.6977 19.5668 5.08009C18.4725 6.4827 17.801 8.15766 17.6244 9.92485C14.7607 10.044 12.1979 11.5938 10.7668 14.0728C10.1797 15.0897 9.82054 16.1934 9.69902 17.3543C9.60668 17.3515 9.51398 17.35 9.42093 17.35C6.88136 17.35 4.50023 18.3455 2.71605 20.153C0.932223 21.9601 -0.0321134 24.3547 0.000816305 26.8957C0.0638632 31.7554 3.84785 35.7343 8.70386 36.155C10.1353 40.7663 14.4412 44.1245 19.5169 44.1245C22.2641 44.1245 25.296 42.4956 28.7858 39.1445C29.3157 38.6357 29.8509 38.0913 30.3839 37.5192C30.9168 38.0912 31.452 38.6355 31.9821 39.1446C35.4718 42.4956 38.5037 44.1245 41.2509 44.1245C46.3658 44.1245 50.6982 40.714 52.0959 36.0478C56.6057 35.2623 59.9719 31.3775 59.9998 26.8298Z" fill="#4369BD"/>
<path d="M41.251 39.7382C45.0738 39.7382 48.1839 36.628 48.1839 32.8051C48.1839 28.9822 45.0738 25.8722 41.251 25.8722C38.3578 25.8722 34.032 30.5395 32.775 31.97C32.3569 32.4457 32.3572 33.1629 32.7755 33.6381C34.0347 35.0691 38.367 39.7382 41.251 39.7382ZM41.251 27.6282C44.1055 27.6282 46.4278 29.9506 46.4278 32.8051C46.4278 33.3748 46.334 33.9225 46.1633 34.4356H41.4954C41.0104 34.4356 40.6173 34.8286 40.6173 35.3136C40.6173 35.7987 41.0104 36.1917 41.4954 36.1917H45.1616C44.2117 37.2873 42.8114 37.9822 41.251 37.9822C39.9561 37.9822 37.105 35.8239 34.3838 32.8036C37.0999 29.7852 39.951 27.6282 41.251 27.6282Z" fill="#4369BD"/>
<path d="M12.584 32.8051C12.584 36.628 15.6941 39.7382 19.5169 39.7382C22.41 39.7382 26.736 35.0708 27.9928 33.6403C28.4107 33.1646 28.4105 32.4477 27.9923 31.9721C26.7332 30.5411 22.4007 25.8721 19.5169 25.8721C15.6941 25.8722 12.584 28.9822 12.584 32.8051ZM15.6063 36.1916H22.8496C21.4511 37.3098 20.2424 37.9821 19.517 37.9821C17.9565 37.9821 16.5563 37.2872 15.6063 36.1916ZM26.3842 32.8068C25.8643 33.3844 25.3397 33.93 24.8218 34.4354H14.6045C14.4338 33.9224 14.34 33.3746 14.34 32.805C14.34 29.9504 16.6623 27.6281 19.5169 27.6281C20.8118 27.6282 23.6632 29.787 26.3842 32.8068Z" fill="#4369BD"/>
<path d="M28.2273 54.9369V46.9998C28.2273 46.5199 27.9579 46.0943 27.5244 45.8889C27.0908 45.6838 26.5907 45.7446 26.2193 46.0487L23.9665 47.8934L21.7135 46.0487C21.3423 45.7447 20.8424 45.6836 20.4087 45.8889C19.9751 46.0943 19.7057 46.5199 19.7057 46.9998V54.9369C19.7058 55.1965 19.8261 55.4519 20.0275 55.6163L23.3362 58.3254C23.5189 58.475 23.7429 58.5497 23.9667 58.5497C24.1907 58.5497 24.4145 58.4748 24.5969 58.3253L27.9056 55.6163C28.1529 55.4276 28.2264 55.1237 28.2273 54.9369ZM21.4616 54.521V48.1122L23.1137 49.4649C23.6079 49.8693 24.3251 49.869 24.8193 49.4646L26.4711 48.1121V54.521L23.9664 56.5718L21.4616 54.521Z" fill="#4369BD"/>
<path d="M40.1877 49.1881C40.163 48.961 40.0482 48.7463 39.871 48.6014L36.5626 45.8926C36.1974 45.5932 35.6667 45.5929 35.3015 45.8924L31.9929 48.6014C31.7916 48.7658 31.6712 49.0211 31.6711 49.2807V57.2178C31.6711 57.6977 31.9405 58.1233 32.3741 58.3288C32.8077 58.5341 33.308 58.473 33.679 58.1689L35.9319 56.3244L38.1847 58.169C38.5576 58.4744 39.0595 58.5329 39.4897 58.3288C39.9233 58.1233 40.1927 57.6977 40.1927 57.2178V49.2807C40.1926 49.2498 40.191 49.219 40.1877 49.1881ZM38.4368 56.1057L36.7847 54.753C36.5376 54.5508 36.2348 54.4497 35.932 54.4497C35.6292 54.4497 35.3262 54.5509 35.0791 54.7531L33.4273 56.1056V49.6967L35.932 47.6459L38.4368 49.6967V56.1057Z" fill="#4369BD"/>
</svg>
