<svg width="40" height="22" viewBox="0 0 40 22" fill="none" xmlns="http://www.w3.org/2000/svg">
<path fill-rule="evenodd" clip-rule="evenodd" d="M20 0C30.7564 0 39.3443 9.36694 39.7013 9.76522C40.0995 10.2104 40.0995 10.8833 39.7013 11.3285C39.3442 11.7268 30.7562 21.0937 20 21.0937C9.24378 21.0937 0.655819 11.7268 0.298711 11.3285C-0.0995702 10.8833 -0.0995702 10.2104 0.298711 9.76522C0.655819 9.36694 9.24362 0 20 0ZM11.7969 10.5469C11.7969 15.0696 15.4773 18.75 20 18.75C24.5227 18.75 28.2031 15.0696 28.2031 10.5469C28.2031 6.02413 24.5227 2.34375 20 2.34375C15.4773 2.34375 11.7969 6.02413 11.7969 10.5469ZM22.647 5.34921C21.7567 5.9871 21.1714 7.02421 21.1714 8.20311C21.1714 10.5095 23.3993 12.2943 25.7591 11.5345C25.2861 14.2942 22.8921 16.4062 19.9996 16.4062C16.7689 16.4062 14.1402 13.7776 14.1402 10.5469C14.1402 7.31616 16.7689 4.68749 19.9996 4.68749C20.957 4.68749 21.8481 4.94023 22.647 5.34921Z" fill="#FFC50F"/>
</svg>
