<svg width="24" height="30" viewBox="0 0 24 30" fill="none" xmlns="http://www.w3.org/2000/svg">
<path d="M19.7399 11.7946C19.0018 10.3459 17.2437 9.76756 15.8006 10.4816C15.1297 9.16462 13.5953 8.54244 12.2007 9.02664V2.99542C12.2007 1.38791 10.9089 0.0448141 9.3206 0.00121548C7.65641 -0.0459736 6.27741 1.28686 6.27741 2.95464V18.1262L5.12051 16.9147C4.01003 15.7521 2.15068 15.6703 0.975308 16.7328C-0.264945 17.8538 -0.326752 19.7627 0.815275 20.9624L7.46432 28.0544C8.39143 29.043 9.70093 29.6103 11.0566 29.6103H19.0759C21.7911 29.6103 24 27.4014 24 24.6862V14.4442C24 12.2624 21.6988 10.8255 19.7399 11.7946Z" fill="#FFC50F"/>
</svg>
