<svg width="30" height="21" viewBox="0 0 30 21" fill="none" xmlns="http://www.w3.org/2000/svg">
<path d="M-8.60228e-07 0.736927L-3.22102e-08 19.6798C-1.44216e-08 20.0867 0.393515 20.4167 0.878906 20.4167L29.1211 20.4167C29.4257 20.4167 29.7085 20.2844 29.8687 20.0672C30.0289 19.8499 30.0434 19.5786 29.9072 19.3502L24.4553 10.2083L29.9072 1.06646C29.9692 0.96246 30 0.849572 30 0.736926C30 0.602223 29.9559 0.467814 29.8687 0.349471C29.7086 0.132237 29.4257 -8.91563e-06 29.1211 -8.90232e-06L0.878905 -7.66781e-06C0.393515 4.19445e-05 -8.78015e-07 0.330019 -8.60228e-07 0.736927Z" fill="#FFC50F"/>
</svg>
